<?xml version="1.0" encoding="UTF-8"?>
<svg id="_レイヤー_2" data-name="レイヤー 2" xmlns="http://www.w3.org/2000/svg" viewBox="0 0 838.35 1024.22">
  <defs>
    <style>
      .cls-1 {
        fill: #e9e3eb;
      }

      .cls-2 {
        fill: #e8e2ea;
      }

      .cls-3 {
        fill: #6b946e;
      }

      .cls-4 {
        fill: #c86f61;
      }
    </style>
  </defs>
  <g id="_レイヤー_1-2" data-name="レイヤー 1">
    <g>
      <path class="cls-1" d="M835.13,144.46c-.46,22.9,.72,45.35,1.29,67.8,.44,17.47-.42,34.97,.86,52.37,1.28,17.48,1.35,34.98,.54,52.38-1.02,21.81,.22,43.62-.86,65.38-1.45,29.44-2.7,59.07-11.07,87.52-7.87,26.77-12.27,54.33-20.01,81.05-4.08,14.08-7.48,28.84-16.73,40.77-10.81,13.93-23.08,26.58-41.44,29.8-9.74,1.71-19.72,2.18-29.4,4.54-8.21,2-16.48,3.8-24.6,6.14-8.36,2.41-17.05,3.4-25.5,3.57-15.76,.31-30.91,3.41-46.12,6.77-3.38,.75-6.87,.96-10.29,1.55-7.46,1.27-10.82,6.28-9.37,13.58,3.84,19.3,8.34,38.49,10.55,58.09,.61,5.43,1.02,10.91,1.04,16.37,.07,15.44,1.04,30.78,2.77,46.15,1.03,9.13,.03,18.61-.99,27.83-2.69,24.3-12.15,46.78-19.57,69.79-2.82,8.75-9.07,15.39-14.79,22.26-9.88,11.85-19.73,23.71-28.87,36.14-4.09,5.56-9.11,9.95-14.97,13.67-10.27,6.51-18,15.34-23.29,26.47-4.63,9.75-13.03,15.95-21.73,22.06-19.35,13.58-42.53,16.4-64.03,23.9-.78,.27-1.6,.62-2.4,.62-15.61-.11-31.11,.54-46.65,2.82-12.35,1.82-23.48-3.19-34.35-9.41-9.65-5.52-18.99-11.45-28.19-17.57-7.01-4.66-13.61-10.02-18.71-16.97-3.07-4.19-7.27-7.41-11.42-10.36-9.36-6.64-14.57-16.38-19.71-25.94-4.76-8.85-9.39-18.02-10.46-28.36-.19-1.81-.54-3.62-.54-5.43-.03-17.13-.3-34.27,1.04-51.37,.24-3.11,.98-6.25,1.97-9.21,4.88-14.61,7.29-30.54,17.19-42.7,5.76-7.07,10.3-14.46,14.26-22.43,5.81-11.71-1.64-23-14.7-24.22-9.83-.92-18.04,3.29-26.78,5.84-11.23,3.28-22.42-.49-29.36-10.1-5.44-7.53-8.75-16.09-12.41-24.42-7.38-16.82-17.3-32.14-26.25-48.06-9.18-16.31-16.92-33.52-20.76-52.09-.66-3.22-.49-6.57-1.08-9.87-1.47-8.2-4.54-11.8-12.81-13.83-11.58-2.85-23.11-5.96-34.77-8.46-12.91-2.76-24.94-7.69-36.82-13.25-5.84-2.73-12.29-4.25-17.93-7.31-10.61-5.77-20.83-12.27-31.22-18.46-.14-.09-.31-.15-.42-.27-6.57-7.03-11.22-15.73-19.72-21.14-2.73-1.74-3.36-6.23-3.31-9.65,.11-7.5-1.08-14.89-1.28-22.37-.52-19.96-.78-39.91-.94-59.88-.19-22.94,1.9-45.71,3.97-68.51,.61-6.76-.33-13.63,1.11-20.37,2.17-10.15-.09-20.57,1.9-30.76,1-5.12-.76-10.23-.91-15.37-.43-15.29,.07-30.56-.7-45.88-.71-14.18,1.02-28.49,1.71-42.73,.17-3.55-.63-6.85-1.59-10.26-3.89-13.87-3.24-27.81-.55-41.85,3.66-19.04,9.8-37.47,13.14-56.58,3.25-18.56,9.35-36.35,16.24-53.78,3.07-7.77,8.31-14.71,12.81-21.87,2.48-3.94,3.8-8.47,6.92-12.09,5-5.81,11.78-8.61,18.55-11.33,5.39-2.17,10.93-3.94,16.22-6.4,7.37-3.42,15.52-3.14,23.29-4.66,8.4-1.64,16.92-.64,25.37-1.05,18.62-.91,37.32,0,55.85-1.32,15.54-1.12,30.89,.2,46.27,.69,12.63,.4,25.35,1.36,37.87,.38,19.88-1.55,39.7-3.3,59.65-2.67,9.6,.31,19.08,2.2,28.76,2.07,5.01-.07,9.86-1.3,14.88-1.14,24.08,.75,48.2,.87,72.24,2.27,11.15,.65,22.37,1.48,33.36,.46,15.46-1.44,30.37,.77,45.41,3.2,.82,.13,1.66,.1,2.49,.08,25.47-.56,50.91,1.86,76.37,.93,16.75-.61,33.01,2.38,49.29,5.55,7.17,1.39,14.42,2.15,21.68,2.47,14.75,.65,29.32,2.72,43.92,4.67,10.32,1.38,20.58,3.12,31.07,3.56,18.26,.76,34.7,6.51,48.07,19.84,11,10.96,20.36,22.81,24.54,38.08,2.64,9.62,3.35,19.55,4.86,29.35,1.71,11.09,.68,22.25,1.03,32.95Zm-410.6,437.8c-5.19,7.89-8.75,15.32-4.88,24.09,.79,1.78-.92,1.87-1.86,2.23-9.48,3.58-19.03,6.98-28.47,10.67-17.29,6.76-35.52,10.94-51.64,20.93-17.73,11-23.77,27.47-24.44,46.87-.25,7.27,2.58,13.96,8.35,18.51,4.25,3.36,8.02,7.17,11.1,11.36,6.7,9.11,13.13,18.58,11.47,30.95-.4,2.96-.51,6-.33,8.98,.61,10.39-3.39,19.35-9.15,27.43-9.47,13.29-19.07,26.59-30.34,38.4-12.24,12.82-21.12,27.22-25.66,44.39-2.98,11.3-2.69,22.31,.89,33.43,4.23,13.17,11.82,24.55,18.7,36.31,4.7,8.04,9.36,15.96,16.47,22.42,10.97,9.96,22.03,19.8,33.11,29.63,8.28,7.35,17.27,11.37,28.2,12.18,28.89,2.14,52.8-9.65,75.12-26.19,15.04-11.15,27.04-25.63,41.35-37.57,13.62-11.36,22.41-26.73,33.58-40.13,10.11-12.12,16.58-26.22,21.84-40.69,6.13-16.87,10.36-34.38,12.31-52.37,2.91-26.83,6.02-53.64,9.27-80.43,6.27-51.6-21.86-107.56-76.02-124.87-13.21-4.22-26.09-4.68-39.01,.59-2.65,1.08-5.45,1.48-8.28,1.74-1.79,.16-3.26-.35-2.56-2.43,1.53-4.57,3.28-9.07,5.06-13.56,.63-1.58,2.24-1.18,3.52-1.16,5.5,.1,10.96,.61,16.38,1.68,6.52,1.29,12.99,3.11,19.75,2.63,19.15-1.36,38.28,.57,57.43,.15,19.3-.42,38.56-.27,57.78-2.92,16.67-2.3,33.62-3.02,50.36-1.09,13.12,1.51,25.38-.63,37.87-4.08,17.4-4.8,33.88-11.65,49.96-19.68,3.06-1.53,5.62-3.49,7.45-6.42,6.03-9.68,11.89-19.47,18.25-28.93,3.97-5.91,6.89-12.13,8.59-18.98,1.28-5.17,2.43-10.37,3.86-15.5,5.6-20.09,10.81-40.4,9.7-61.37-1.89-35.63,1.4-71.23-.66-106.88-1.67-28.91-1.73-57.86-5.65-86.68-3.14-23.05-3.14-46.47-7.17-69.51-.95-5.44-3.19-10.64-2.61-16.54,1.53-15.48,1.33-31.22-1.99-46.29-5.26-23.91-22.53-37.1-45.18-43.21-29.81-8.03-60.03-13.84-91.2-12.24-3.47,.18-6.99-.29-10.47-.61-8.82-.8-17.69-1.03-26.46-.17-23.43,2.29-46.94,.89-70.37,2.08-10.53,.54-21.16-3.85-31.58,.76-.52,.23-1.49-.51-2.24-.83-8.84-3.72-17.99-4.58-27.36-2.67-1.57,.32-2.86,.17-4.34-.33-4.44-1.5-9.1-1.91-13.73-2.48-5.2-.63-10.31,1.17-15.28,.78-5.26-.41-10.22-1.15-15,1.57-.99,.56-1.87,.18-2.86,.06-18.19-2.25-36.52-4.08-54.78-3.31-15.33,.64-30.6,1.13-45.93,.7-4.67-.13-9.29,.32-13.93,1.06-6.58,1.04-13.23,1.43-19.93,.94-9.36-.68-18.77-3.73-28.11,.24-.68,.29-1.66,.02-2.45-.17-6.93-1.63-13.89-.57-20.87-.56-13.48,0-27.01,2.42-40.41,.45-30.43-4.47-60.66-5.04-90.92,1.48-8.75,1.89-16.32,4.97-22.73,11.44-9.31,9.38-17.45,19.68-25.5,30.1-18.29,23.69-25.96,50.83-22.48,80.13,2.92,24.56,.28,48.55-2.65,72.64-1.63,13.45-2.61,26.87-2.08,40.37,.91,23.15,1.1,46.3,1.51,69.46,.44,24.67-2.75,49.28,.41,74.07,1.23,9.66,1.43,19.86,1.37,29.76-.1,15.97-.88,32.01-2.66,47.87-3.03,26.89,19.29,48.95,42.52,51.55,23.72,2.65,47.43,7.56,71.55,4.38,1.46-.19,3.02-.07,4.48,.18,11.31,2,22.61,4.05,34.17,3.99,.98,0,2.5-.44,2.35,1.58-.4,5.36,.29,11.07-1.35,16-1.95,5.86-2.88,11.6-2.63,17.6,.82,20.02,6.16,38.78,16.98,55.69,3.74,5.84,7.72,11.63,12.57,16.73,7.24,7.6,17.23,9.03,26.48,12,8.5,2.73,12.86-1.62,11.06-10.43-1.17-5.72-2.76-11.65-1.16-17.32,5.66-20.08,12.4-39.73,25.36-56.58,6.37-8.28,13.72-14.88,24.82-15.58,14.47-.92,28.93-1.18,43.34,.7,5.98,.78,12.02,1.38,17.94,.72,8.42-.94,16.53,.82,24.78,1.35,14.94,.96,30.24,4.63,44.61-3.22,.63-.34,1.6-.04,3.33-.04Z"/>
      <path d="M424.54,582.26c-1.73,0-2.71-.3-3.33,.04-14.38,7.84-29.67,4.18-44.61,3.22-8.26-.53-16.36-2.29-24.78-1.35-5.92,.66-11.96,.06-17.94-.72-14.41-1.88-28.87-1.62-43.34-.7-11.1,.71-18.45,7.31-24.82,15.58-12.96,16.85-19.7,36.5-25.36,56.58-1.6,5.67-.01,11.6,1.16,17.32,1.8,8.81-2.56,13.16-11.06,10.43-9.25-2.97-19.24-4.4-26.48-12-4.85-5.1-8.83-10.89-12.57-16.73-10.83-16.91-16.16-35.66-16.98-55.69-.25-6,.68-11.74,2.63-17.6,1.64-4.94,.95-10.64,1.35-16,.15-2.02-1.37-1.58-2.35-1.58-11.55,.05-22.85-1.99-34.17-3.99-1.46-.26-3.02-.38-4.48-.18-24.13,3.18-47.84-1.73-71.55-4.38-23.23-2.6-45.55-24.66-42.52-51.55,1.79-15.86,2.56-31.91,2.66-47.87,.06-9.91-.14-20.1-1.37-29.76-3.16-24.78,.04-49.4-.41-74.07-.42-23.16-.6-46.31-1.51-69.46-.53-13.5,.45-26.92,2.08-40.37,2.93-24.1,5.57-48.08,2.65-72.64-3.48-29.29,4.19-56.44,22.48-80.13,8.04-10.42,16.19-20.72,25.5-30.1,6.41-6.47,13.99-9.55,22.73-11.44,30.26-6.53,60.49-5.95,90.92-1.48,13.4,1.97,26.93-.44,40.41-.45,6.98,0,13.94-1.07,20.87,.56,.8,.19,1.78,.46,2.45,.17,9.35-3.97,18.75-.93,28.11-.24,6.7,.49,13.34,.1,19.93-.94,4.63-.73,9.25-1.19,13.93-1.06,15.32,.44,30.6-.05,45.93-.7,18.26-.76,36.59,1.06,54.78,3.31,.99,.12,1.87,.5,2.86-.06,4.79-2.71,9.74-1.97,15-1.57,4.97,.39,10.08-1.41,15.28-.78,4.64,.56,9.29,.97,13.73,2.48,1.47,.5,2.77,.65,4.34,.33,9.37-1.9,18.52-1.05,27.36,2.67,.75,.32,1.71,1.06,2.24,.83,10.41-4.61,21.05-.22,31.58-.76,23.43-1.2,46.94,.21,70.37-2.08,8.78-.86,17.64-.64,26.46,.17,3.48,.32,7,.79,10.47,.61,31.17-1.6,61.39,4.2,91.2,12.24,22.65,6.1,39.91,19.3,45.18,43.21,3.32,15.07,3.53,30.81,1.99,46.29-.58,5.9,1.66,11.11,2.61,16.54,4.04,23.03,4.04,46.45,7.17,69.51,3.92,28.82,3.98,57.77,5.65,86.68,2.05,35.64-1.23,71.25,.66,106.88,1.11,20.96-4.1,41.27-9.7,61.37-1.43,5.13-2.58,10.33-3.86,15.5-1.7,6.85-4.62,13.07-8.59,18.98-6.36,9.46-12.21,19.25-18.25,28.93-1.83,2.93-4.39,4.89-7.45,6.42-16.08,8.03-32.57,14.88-49.96,19.68-12.49,3.45-24.75,5.59-37.87,4.08-16.74-1.93-33.69-1.21-50.36,1.09-19.23,2.65-38.49,2.5-57.78,2.92-19.15,.42-38.29-1.52-57.43-.15-6.76,.48-13.23-1.34-19.75-2.63-5.42-1.07-10.87-1.58-16.38-1.68-1.28-.02-2.89-.42-3.52,1.16-1.78,4.48-3.53,8.98-5.06,13.56-.69,2.07,.77,2.59,2.56,2.43,2.83-.26,5.62-.65,8.28-1.74,12.93-5.27,25.8-4.81,39.01-.59,54.15,17.32,82.29,73.28,76.02,124.87-3.26,26.79-6.36,53.6-9.27,80.43-1.95,17.99-6.18,35.5-12.31,52.37-5.26,14.47-11.73,28.57-21.84,40.69-11.17,13.39-19.97,28.77-33.58,40.13-14.31,11.94-26.31,26.43-41.35,37.57-22.32,16.54-46.22,28.33-75.12,26.19-10.94-.81-19.93-4.83-28.2-12.18-11.08-9.84-22.14-19.67-33.11-29.63-7.11-6.46-11.76-14.38-16.47-22.42-6.88-11.76-14.47-23.14-18.7-36.31-3.58-11.12-3.87-22.13-.89-33.43,4.53-17.17,13.42-31.57,25.66-44.39,11.27-11.81,20.86-25.11,30.34-38.4,5.76-8.08,9.75-17.04,9.15-27.43-.17-2.98-.06-6.03,.33-8.98,1.66-12.37-4.77-21.84-11.47-30.95-3.08-4.19-6.85-8.01-11.1-11.36-5.76-4.55-8.6-11.24-8.35-18.51,.67-19.4,6.71-35.87,24.44-46.87,16.12-9.99,34.35-14.17,51.64-20.93,9.44-3.69,18.99-7.09,28.47-10.67,.94-.35,2.65-.44,1.86-2.23-3.87-8.77-.31-16.21,4.88-24.09Zm-197.18,85.32c-4.07-11.72-1.3-22.26,2.57-32.7,1.16-3.12,2.03-6.34,3.19-9.45,7.02-18.8,16.16-36.15,32.66-48.65,4.09-3.1,8.34-4.97,13.44-5.94,9.97-1.9,19.91-.65,29.85-1.03,17.62-.68,35.27,3.11,52.86-.43,.79-.16,1.66,.05,2.49,.14,9.45,1.01,18.92,1.38,28.41,1.76,10.6,.42,20.94-2.28,31.75-.73,9.39,1.35,10.86-1.63,10.22-11.61-.25-3.96-2.67-7.16-3.34-10.93-.66-3.7,0-7.14,3.28-9.29,3.27-2.14,6.7-1.42,9.85,.64,1.85,1.21,3.19,2.93,4.35,4.77,3.66,5.8,5.38,12.1,5.15,18.98-.2,6.1-.09,5.66,6.22,5.86,13.99,.44,27.93-.23,41.9-.61,16.79-.45,33.62,.77,50.43,1.14,8.49,.19,17.02,.6,25.47,.04,23.44-1.56,46.89-2.59,70.38-2.47,10.28,.05,20.5,2.66,30.84,.22,18.79-4.45,37.33-9.59,54.85-17.95,1.71-.82,2.28-2.21,3.24-3.54,7.51-10.5,10.72-23.22,17.64-34.03,.97-1.51,1.47-3.35,1.98-5.1,2.38-8.17,5.71-15.94,9.29-23.66,4.73-10.18,7.64-20.71,6.73-32.29-1.79-22.9-3.03-45.85-3.62-68.83-.23-9.01-.36-17.98,.88-26.94,.73-5.29,.66-10.63,.36-15.97-1.2-21.23-4.06-42.32-3.45-63.73,.79-27.63-3.44-55.16-3.17-82.84,0-.5-.06-1-.15-1.49-4.48-23.79-4.8-48.02-7.51-72.01-2.18-19.32-13.03-31.92-29.77-38.53-14.9-5.89-30.98-8.66-47.29-9.44-16.69-.81-33.39,2.17-49.91,.51-28.64-2.88-57.24-.12-85.84-.98-13.17-.4-26.89,.36-39.1-3.79-10.1-3.44-19.47-1.07-29-2.27-11.22-1.41-22.45,.15-33.52-1.4-5.13-.72-10.03-1.3-15.14-.4-2.12,.37-4.34-.06-6.36-.93-1.46-.63-2.77-.74-4.3-.1-4.85,2.03-10.03,2.51-15.19,2.52-20.96,.02-41.93-1.29-62.9,.21-3.61,.26-7.3-.49-10.95-.83-6.98-.64-13.98-1.12-20.94-.06-12.93,1.96-25.86,2.01-38.88,1.03-5.79-.43-11.79-3.21-16.93-2.49-20.37,2.85-40.59,.32-60.85-.03-8.3-.14-16.46-2.43-24.86-2.08-16.14,.68-32.21,1.56-48.21,4.33-15.24,2.64-30.42,4.5-40.63,18.08-.1,.13-.25,.22-.36,.35-7.28,8.07-14.45,16.3-17.08,27.18-2.43,10.05-5.44,19.9-8.55,29.74-3.37,10.67-6.53,21.5-5.47,32.81,2,21.36,.59,42.73-1.37,63.87-2.46,26.51-1.64,52.93-1.29,79.39,.33,24.48,.74,48.94,.3,73.45-.29,16.41-3.49,32.56-2.83,48.94,.24,5.97,1.25,11.91,1.56,17.89,.68,13.18-.69,26.33-1.68,39.42-.96,12.77,3.5,23.83,7.9,35.12,.41,1.04,1.11,2.19,2.01,2.79,6.49,4.34,12.9,8.6,21.22,9.07,11.13,.62,22.25,1.65,33.3,3.11,9.01,1.19,17.91,1.23,26.89,.13,5.12-.63,10.27-1.31,15.44-.39,9.87,1.76,19.85,1.93,29.83,2.37,5.81,.26,11.62,.95,17.38,1.81,2.9,.43,5.28,2.16,6.01,5.3,.63,2.68,.05,5.56-2.43,6.53-6.5,2.55-5.07,8.82-6.76,13.49-2.41,6.65,.86,13.34,.98,20.06,.15,8.33,.98,16.62,2.35,24.85,2.44,14.65,8.42,27.64,18.33,38.67,4.01,4.46,8.62,8.39,15.88,9.39Zm319.71,45.21c.61-16.37-2.61-32.36-10.32-46.37-15.38-27.94-40.69-43.18-71.62-48.13-16.81-2.69-33.35,2.38-49.37,7.61-8.05,2.63-15.66,6.79-23.81,8.9-21.41,5.54-40.55,14.84-56.08,30.89-2.91,3.01-5.51,6.28-7.55,9.91-4.43,7.87-3.14,14.44,3.74,20.05,3.25,2.65,5.89,5.81,8.33,9.24,3.79,5.34,6.22,11.39,9.34,17.07,7.93,14.44,11.09,29.98,8.78,46.26-2.24,15.75-10.11,29.09-19.65,41.52-9.45,12.32-21.58,22.16-31.3,34.27-12.57,15.65-16.38,32.35-9.85,51.72,4.86,14.42,14.64,25.66,22.36,38.24,9.17,14.95,20.44,27.91,35.61,37.09,4.14,2.5,8.12,5.15,11.78,8.37,4.79,4.21,10.46,6.56,17,5.76,14.55-1.76,28.38-5.59,40.42-14.44,3.35-2.46,7.01-4.55,10.19-7.21,10.07-8.44,22.15-14.25,31.22-24.01,13.48-14.5,26.89-28.99,38.1-45.48,6.46-9.5,13.23-18.68,18.33-29.06,3.19-6.5,5.47-13.2,7.22-20.14,2.08-8.24,6.48-15.77,7.88-24.18,5.98-35.72,7.46-71.84,9.27-107.91Z"/>
      <path class="cls-1" d="M227.36,667.58c-7.26-1-11.88-4.93-15.88-9.39-9.91-11.03-15.89-24.03-18.33-38.67-1.37-8.23-2.2-16.53-2.35-24.85-.12-6.72-3.39-13.41-.98-20.06,1.69-4.67,.26-10.94,6.76-13.49,2.48-.97,3.05-3.85,2.43-6.53-.74-3.14-3.11-4.87-6.01-5.3-5.76-.85-11.57-1.55-17.38-1.81-9.98-.44-19.96-.61-29.83-2.37-5.16-.92-10.32-.23-15.44,.39-8.98,1.1-17.88,1.05-26.89-.13-11.05-1.45-22.17-2.48-33.3-3.11-8.33-.47-14.73-4.73-21.22-9.07-.9-.6-1.61-1.74-2.01-2.79-4.4-11.29-8.86-22.35-7.9-35.12,.99-13.09,2.36-26.24,1.68-39.42-.31-5.97-1.32-11.91-1.56-17.89-.66-16.38,2.54-32.52,2.83-48.94,.43-24.51,.03-48.96-.3-73.45-.36-26.47-1.18-52.88,1.29-79.39,1.97-21.15,3.37-42.51,1.37-63.87-1.06-11.31,2.1-22.14,5.47-32.81,3.1-9.84,6.12-19.69,8.55-29.74,2.63-10.89,9.8-19.12,17.08-27.18,.11-.12,.26-.21,.36-.35,10.2-13.58,25.38-15.44,40.63-18.08,16.01-2.77,32.07-3.65,48.21-4.33,8.4-.35,16.57,1.94,24.86,2.08,20.26,.35,40.48,2.89,60.85,.03,5.13-.72,11.13,2.06,16.93,2.49,13.02,.97,25.95,.93,38.88-1.03,6.97-1.06,13.96-.58,20.94,.06,3.65,.34,7.34,1.09,10.95,.83,20.97-1.5,41.93-.19,62.9-.21,5.16,0,10.34-.49,15.19-2.52,1.53-.64,2.84-.53,4.3,.1,2.02,.86,4.24,1.3,6.36,.93,5.11-.9,10.01-.32,15.14,.4,11.07,1.56,22.3,0,33.52,1.4,9.54,1.2,18.91-1.16,29,2.27,12.21,4.15,25.93,3.4,39.1,3.79,28.6,.86,57.2-1.89,85.84,.98,16.52,1.66,33.22-1.32,49.91-.51,16.31,.79,32.39,3.56,47.29,9.44,16.74,6.61,27.59,19.21,29.77,38.53,2.71,23.98,3.03,48.22,7.51,72.01,.09,.49,.16,.99,.15,1.49-.27,27.67,3.96,55.2,3.17,82.84-.61,21.41,2.24,42.49,3.45,63.73,.3,5.34,.37,10.67-.36,15.97-1.24,8.96-1.1,17.93-.88,26.94,.58,22.98,1.83,45.92,3.62,68.83,.9,11.59-2,22.12-6.73,32.29-3.58,7.72-6.91,15.48-9.29,23.66-.51,1.75-1.01,3.59-1.98,5.1-6.92,10.81-10.13,23.53-17.64,34.03-.95,1.33-1.52,2.73-3.24,3.54-17.51,8.36-36.05,13.51-54.85,17.95-10.34,2.45-20.57-.17-30.84-.22-23.49-.11-46.94,.91-70.38,2.47-8.45,.56-16.98,.15-25.47-.04-16.81-.37-33.64-1.59-50.43-1.14-13.97,.38-27.91,1.05-41.9,.61-6.31-.2-6.42,.24-6.22-5.86,.23-6.88-1.49-13.18-5.15-18.98-1.16-1.84-2.5-3.56-4.35-4.77-3.15-2.06-6.58-2.78-9.85-.64-3.29,2.15-3.95,5.59-3.28,9.29,.68,3.77,3.09,6.98,3.34,10.93,.64,9.98-.84,12.96-10.22,11.61-10.81-1.56-21.15,1.15-31.75,.73-9.49-.38-18.96-.75-28.41-1.76-.83-.09-1.7-.3-2.49-.14-17.58,3.53-35.23-.26-52.86,.43-9.94,.38-19.88-.87-29.85,1.03-5.11,.97-9.35,2.84-13.44,5.94-16.5,12.49-25.64,29.85-32.66,48.65-1.16,3.11-2.04,6.34-3.19,9.45-3.87,10.44-6.65,20.98-2.57,32.7Zm34.46-259.66c8.02,11.78,11.37,24.73,11.89,38.29,.38,9.98-.62,19.88-6.31,28.82-2.17,3.4-3.9,7.36-4.41,11.57-.34,2.8,.03,5.34,2.97,6.76,2.68,1.29,4.94,.3,6.84-1.46,1.44-1.33,2.86-2.9,3.7-4.64,2.39-4.92,4.99-9.84,6.62-15.03,9.73-31.07,7.16-60.69-11.18-88.25-.58-.87-1.05-1.7-.96-2.75,.94-11.24-2.08-21.8-5.64-32.23-1.03-3.01-.15-4.48,2.53-5.85,7-3.59,13.16-8.44,19.12-13.52,1.78-1.52,3.65-3.41,2.55-5.95-1.11-2.55-3.82-2.19-6.11-2.23-.65-.01-1.3,.29-1.96,.33-6.9,.51-12.17,5.2-18.48,7.22-1.92,.61-3.71,1.6-4.51-1.55-2.03-7.99-6.49-14.91-10.03-22.24-2.31-4.78-5.9-5.23-9.12-1.01-2.99,3.92-3.68,8.51-3.15,13.27,.54,4.97,1.12,9.94,1.99,14.85,.46,2.59-.17,3.44-2.81,3.87-6.72,1.09-13.39,2.54-20.07,3.91-3.71,.76-6.75,2.43-6.55,6.82,.19,4.33,3.27,5.79,7.04,6.39,4.84,.76,9.63-.44,14.46-.32,4.15,.1,9.12-1.46,12.22,.33,3.37,1.94,3.38,7.57,5,11.53,2.96,7.24,2.82,7.3-4.61,7.93-1.16,.1-2.33,.19-3.48,.36-19.38,2.92-30.15,17.33-26.32,35.18,2.02,9.4,8.98,16.57,16.46,17.2,14.02,1.17,25.96-1.51,31.48-16.51,.11-.3,.39-.53,.84-1.1Zm100.66-27.24c1.92-19.86,2.33-38.34,2.8-56.81,.08-2.98,.14-6.05-.43-8.94-.78-3.94-4.34-5.08-7.67-2.79-2.78,1.92-4.13,4.9-4.81,7.96-5.98,26.8-12.13,53.53-11.74,81.32,.29,20.9,1.51,41.96-5.38,62.33-1.61,4.75,1.26,9.34,5.68,10.81,4.55,1.52,9.22-.88,11.17-5.82,.54-1.38,.83-2.87,1.17-4.32,3.21-13.81,5.03-27.87,6.38-41.94,1.31-13.77,8.48-24.23,17.25-34.02,1.44-1.61,3.36-2.66,5.38-3.53,3.58-1.53,6.46-1.43,8.09,2.71,4.66,11.82,11.15,22.94,12.37,36.03,1.09,11.68,9.36,19.3,20.98,20.22,2.86,.23,5.51,1.18,8.26,1.82,11.97,2.79,23.81,2.6,35.13-2.73,3.32-1.56,8.06-2.96,6.96-7.83-1.1-4.86-6-4.17-9.63-4.02-11.35,.46-22.28-.33-33.49-3.33-9.84-2.63-14.54-7.44-16.9-16.89-2.69-10.75-5.09-21.72-10.26-31.69-4.69-9.03-12.02-12.33-22.02-10.42-7.45,1.42-13.35,5.49-19.28,11.89Zm215.61,5.76c3.36,1.38,5.99,2.38,8.55,3.52,6.69,2.97,13.31,6.11,20.06,8.94,3.84,1.61,7.87,2.77,12.16,1.79,7.82-1.78,10.07-7.52,5.63-14.15-3.23-4.81-7.86-7.6-13.18-9.38-9.8-3.28-19.76-5.92-30.05-7.18-1.72-.21-3.57-.08-4.14-2.66-2.64-12-8.4-23.13-9.91-35.46-.35-2.83-1.61-5.42-3.13-7.82-1.47-2.31-3.59-3.61-6.35-2.77-2.74,.83-3.95,3.02-3.74,5.8,.48,6.13,.75,12.32,1.74,18.37,1.26,7.66,3.6,15.1,6.49,22.88-2.44-.26-4.38-.51-6.32-.68-8.83-.79-15.99,1.78-20.85,9.73-8.81,14.39-2,36.01,13.56,42.34,1.65,.67,3.56,1.07,5.34,1.03,8.89-.21,17.13-6.2,20.31-14.58,2.32-6.09,3.93-12.35,3.83-19.73Zm-342.23-124.51c6.71-.04,13.74-2.75,19.66-8.02,3.04-2.71,4.88-6.3,2.24-10.2-2.68-3.95-6.67-3.46-10.26-1.49-10.77,5.89-21.27,4.02-31.52-1.05-13.62-6.74-18.81-19.99-13.73-34.43,1.13-3.22,.86-5.95-1.8-8.09-2.84-2.27-6.04-2.2-8.7,.11-2.37,2.04-5.16,2.92-7.9,4.07-23.15,9.68-44.23,22.91-64.33,37.8-1.9,1.4-3.27,3.06-1.89,5.46,1.28,2.22,3.54,2.53,5.71,1.82,2.83-.93,5.58-2.14,8.28-3.41,16.43-7.71,31.51-17.88,47.71-26.01,6.29-3.16,6.3-3.22,6.46,3.6,.3,12.98,5.99,22.89,16.74,30.07,9.72,6.5,20.52,9.25,33.32,9.78Zm71.81-16.41c-.71-1.19-1.3-2.13-1.85-3.08-6.01-10.44-8.18-22.21-10.58-33.68-5.79-27.69-10.86-55.55-12.88-83.85-.2-2.8-.52-5.52-4.02-5.91-3.67-.41-5.47,1.84-6.34,5.05-.79,2.92-.97,5.91-.85,8.92,.34,9,1.79,17.89,2.9,26.81,2.31,18.51,3.48,37.18,7.08,55.5,2.37,12.06,3.4,24.42,7.87,36.05,2.51,6.53,6.04,11.86,13.01,14.14,8.94,2.92,17.73-3.13,17.75-12.51,.01-5.14-.51-10.3-1.68-15.36-.23-1.02-.43-2.08-1.45-2.42-1.34-.45-2.2,.58-2.88,1.52-2,2.81-3.93,5.68-6.08,8.81ZM122.54,172.53c.34-4.01,.69-7.13,.85-10.26,.33-6.7-.35-13.31-2.34-19.73-.9-2.89-2.63-5.12-6.11-4.76-3.36,.35-4.05,3.06-4.63,5.71-.24,1.13-.24,2.31-.31,3.48-.29,5.34-1.01,10.61-2.52,15.74-4.25,14.46-6.46,29.64-15.11,42.56-1.35,2.01-1.35,4.49,.4,6.51,1.62,1.88,3.83,1.81,6.01,1.42,3.15-.56,5.25-2.77,7.29-4.97,5.88-6.33,9.89-13.79,12.66-21.88,.92-2.67,2.06-3.58,4.91-3.54,4.69,.06,9.19-1.45,13.57-3.04,15.93-5.78,31.83-11.65,47.73-17.5,.93-.34,1.87-.7,2.77-1.13,2.83-1.35,4.53-3.55,3.98-6.75-.58-3.36-2.91-5.1-6.25-5.47-2.34-.26-4.69-.08-6.92,.65-4.89,1.61-9.77,3.25-14.6,5.03-13.86,5.12-27.01,11.89-41.39,17.93Zm53.08,79.73c0-2.96,.14-6.96-.04-10.93-.18-3.94-1.59-7.45-6.04-7.95-4.71-.54-6.82,2.77-7.92,6.73-1.03,3.68-1.78,7.42-2.68,11.14-.64,2.66-1.72,3.77-4.41,1.74-1.83-1.38-3.96-2.43-6.07-3.34-1.96-.84-3.98-.62-5.41,1.2-1.31,1.67-1,3.55,.07,5.14,1.47,2.2,3.13,4.3,4.88,6.28,1.26,1.43,1.81,2.51,.29,4.19-4.51,5-7.07,11.22-10.36,16.98-1.59,2.78-3.3,5.75-.85,8.73,2.46,3,6.01,2.7,9.24,1.66,5.23-1.69,10.1-4.18,14.66-7.32,2.69-1.86,4.07-6.53,7.07-6.1,2.8,.4,5.14,3.9,7.74,5.96,3.14,2.49,6.6,3.53,9.98,.74,3.46-2.84,2.85-6.48,.97-9.95-2.27-4.2-5.94-7.14-9.71-9.88-1.69-1.22-2.35-2.41-2.05-4.54,.43-3.12,.41-6.3,.64-10.47Zm310.06,90.58c0,.22-.04,1.39,0,2.55,.16,3.61,1.3,6.81,5.3,7.39,4.23,.62,5.66-2.47,6.65-5.92,2.07-7.18,4.85-14.21,6.27-21.51,1.42-7.33,4.35-11.7,12.35-12.76,4.71-.62,10.23-2.29,10.38-8.87,.1-4.32-3.54-6.97-11.49-8.24-2.9-.46-2.99-1.38-2.38-3.83,.93-3.7,1.51-7.5,1.96-11.29,.28-2.42-.46-4.74-2.94-5.82-2.62-1.14-5.01-.31-6.7,1.83-1.22,1.53-2.22,3.33-2.9,5.17-1.32,3.58-2.59,7.21-3.42,10.92-.86,3.85-2.77,5.99-6.77,6.72-3.24,.59-6.43,1.75-9.47,3.04-3.35,1.43-5.12,4.17-4.82,7.95,.29,3.64,2.63,5.63,5.81,6.74,1.4,.49,2.94,.83,4.4,.79,2.73-.08,2.92,.99,2.17,3.27-2.23,6.8-4.07,13.71-4.41,21.86Zm-107.13-94.95c8.09,.18,13.63-.74,18.62-3.82,3.55-2.19,6.11-5.13,6.23-9.61,.06-2.39-.81-4-3.44-3.61-8.76,1.33-16.73-2.29-24.96-4.04-8.23-1.76-16.02-4.83-20.62-12.75-1.81-3.12-4.33-5.15-8.14-4.53-3.93,.64-5.96,3.49-7.05,7-1.24,3.99-.72,7.93,1.09,11.67,3.1,6.41,8.09,10.93,14.44,13.98,8.26,3.97,17.12,5.31,23.83,5.71Zm-11.13-116.94c-10.64,.7-20.55,4.29-29.71,9.98-3.66,2.27-5.32,5.86-3.3,9.87,1.87,3.71,5.47,3.82,9.15,2.64,3.16-1.01,6.37-1.86,9.53-2.87,8.75-2.81,17.18-3.27,25.3,2.24,3.22,2.18,7.07,2.37,10.14-.61,3.15-3.05,2.37-6.64,.61-10.11-4.49-8.86-12.86-10.21-21.71-11.14Zm215.95,171.84c.23-3.12-.77-5.94-2.31-8.55-5.68-9.63-14.76-15.27-24.49-19.74-5.1-2.35-10.29,2.77-9.39,8.61,.42,2.69,1.84,4.96,3.42,7.13,6.06,8.32,14.67,13.5,23.32,18.46,5.01,2.87,9.1,.01,9.45-5.91ZM181.99,177.72c-1.4,.31-3.75,.56-5.91,1.35-15.05,5.52-29.33,12.61-42.58,21.66-2.31,1.58-6.42,3.13-4.81,6.56,1.88,4,5.64,1.03,8.41,.25,16.68-4.68,32.13-12.77,48.67-17.85,3.21-.99,5.19-3.13,4.56-6.72-.72-4.09-3.81-5.08-8.33-5.25Z"/>
      <path class="cls-3" d="M547.07,712.79c-1.81,36.07-3.29,72.19-9.27,107.91-1.41,8.41-5.8,15.94-7.88,24.18-1.75,6.95-4.03,13.64-7.22,20.14-5.1,10.38-11.87,19.56-18.33,29.06-11.21,16.49-24.62,30.98-38.1,45.48-9.07,9.76-21.15,15.56-31.22,24.01-3.18,2.66-6.83,4.75-10.19,7.21-12.04,8.85-25.87,12.67-40.42,14.44-6.54,.79-12.21-1.55-17-5.76-3.66-3.22-7.65-5.87-11.78-8.37-15.17-9.19-26.44-22.15-35.61-37.09-7.72-12.58-17.5-23.82-22.36-38.24-6.53-19.38-2.72-36.07,9.85-51.72,9.73-12.11,21.85-21.95,31.3-34.27,9.54-12.44,17.41-25.77,19.65-41.52,2.32-16.29-.85-31.82-8.78-46.26-3.12-5.68-5.55-11.73-9.34-17.07-2.43-3.43-5.07-6.59-8.33-9.24-6.88-5.61-8.17-12.18-3.74-20.05,2.04-3.63,4.64-6.9,7.55-9.91,15.54-16.05,34.67-25.35,56.08-30.89,8.16-2.11,15.76-6.27,23.81-8.9,16.02-5.23,32.56-10.3,49.37-7.61,30.93,4.95,56.24,20.2,71.62,48.13,7.71,14,10.93,29.99,10.32,46.37Zm-195.14,129.4c-.32,13.45,5.29,22.39,16.09,25.64,5.55,1.67,9.35,4.12,11.94,8.85,4.05,7.42,11.65,8.34,18.48,10.6,5.73,1.89,11.44,1.57,16.97-1.23,10.03-5.08,18.62-12.22,27.49-18.96,2.74-2.08,4.63-4.86,5.04-8.34,.28-2.44,1.52-3.3,3.8-3.77,3.64-.76,6.95-2.28,9.03-5.69,1.35-2.21,2.71-4.51,.96-6.91-1.63-2.24-4.27-1.54-6.51-1.14-3.26,.59-6.44,1.69-9.7,2.24-10.28,1.72-21.93-3.92-24.3-12.9-2.96-11.18-6.88-22.28-6.3-34.19,.17-3.49-.78-6.91-5.1-7.32-4.26-.41-5.83,2.67-6.51,6.15-1.22,6.2-2.54,12.4-3.26,18.67-1.57,13.66-4.87,26.41-14.88,36.72-4.35,4.48-9.44,4.22-14.32,3.13-5.03-1.12-7.15-5.68-7.64-10.64-.3-2.97,0-6-.19-8.99-.17-2.68-.43-5.56-3.93-6.04-3.24-.45-4.76,1.81-6.01,4.29-1.59,3.14-1.08,6.51-1.11,9.83Zm149.44-142.79c-.98-10.81-4.65-20.73-11.87-28.96-4.39-5.01-10.46-7.47-17.13-5.08-2.81,1.01-5.59,1.86-8.49,2.48-9.47,2.03-15.84,8.96-16.94,18.54-.5,4.33-1.89,8.37-3.15,12.51-3.87,12.76-5.49,25.66-.03,38.53,2.68,6.32,7.25,10.15,13.86,11.79,16.5,4.09,32.95-5.31,39.47-22.61,3.29-8.73,2.64-18.05,4.28-27.2Zm-76.06,9.46c.21-4.77-1.41-8.83-4-12.67-5.07-7.51-12.69-9.6-21.07-10.45-9.57-.97-18.5,4.01-22.09,12.77-4.35,10.62-7.82,21.41-8.97,33-1.65,16.63,8.97,29.25,24.4,27.68,8.82-.9,15.45-5.96,20.33-13.08,7.67-11.19,9.16-24.36,11.4-37.24Z"/>
      <path d="M261.82,407.92c-.44,.57-.73,.8-.84,1.1-5.52,14.99-17.46,17.68-31.48,16.51-7.49-.62-14.45-7.8-16.46-17.2-3.83-17.85,6.94-32.26,26.32-35.18,1.15-.17,2.32-.26,3.48-.36,7.42-.64,7.57-.69,4.61-7.93-1.62-3.96-1.63-9.58-5-11.53-3.1-1.79-8.08-.23-12.22-.33-4.83-.11-9.62,1.09-14.46,.32-3.77-.59-6.85-2.06-7.04-6.39-.2-4.4,2.84-6.06,6.55-6.82,6.68-1.37,13.34-2.82,20.07-3.91,2.64-.43,3.26-1.29,2.81-3.87-.87-4.92-1.45-9.89-1.99-14.85-.52-4.77,.16-9.36,3.15-13.27,3.22-4.22,6.82-3.76,9.12,1.01,3.54,7.33,8,14.25,10.03,22.24,.8,3.15,2.59,2.16,4.51,1.55,6.31-2.02,11.58-6.71,18.48-7.22,.66-.05,1.31-.35,1.96-.33,2.3,.04,5.01-.32,6.11,2.23,1.1,2.54-.76,4.43-2.55,5.95-5.96,5.08-12.12,9.93-19.12,13.52-2.68,1.37-3.56,2.84-2.53,5.85,3.57,10.43,6.58,20.99,5.64,32.23-.09,1.04,.38,1.88,.96,2.75,18.34,27.56,20.91,57.18,11.18,88.25-1.63,5.2-4.22,10.11-6.62,15.03-.85,1.74-2.26,3.31-3.7,4.64-1.9,1.76-4.16,2.76-6.84,1.46-2.94-1.42-3.31-3.96-2.97-6.76,.51-4.21,2.25-8.17,4.41-11.57,5.69-8.93,6.69-18.83,6.31-28.82-.51-13.57-3.87-26.51-11.89-38.29Zm-24.84,3.05c3.61,.97,6.15-1.16,8.18-4.32,2.44-3.8,3.91-7.99,5.3-12.26,.89-2.75-.24-3.69-2.54-4.08-5.62-.97-10.93-.21-15.61,3.26-3.6,2.67-4.74,8.54-3.35,13.66,1.19,4.38,4.47,3.62,8.01,3.74Z"/>
      <path d="M362.48,380.68c5.93-6.4,11.83-10.47,19.28-11.89,10-1.9,17.34,1.39,22.02,10.42,5.17,9.96,7.57,20.94,10.26,31.69,2.36,9.45,7.06,14.26,16.9,16.89,11.21,3,22.15,3.79,33.49,3.33,3.63-.15,8.53-.84,9.63,4.02,1.09,4.86-3.64,6.26-6.96,7.83-11.32,5.33-23.15,5.52-35.13,2.73-2.75-.64-5.4-1.59-8.26-1.82-11.62-.92-19.89-8.54-20.98-20.22-1.22-13.09-7.71-24.21-12.37-36.03-1.63-4.14-4.51-4.25-8.09-2.71-2.03,.87-3.94,1.92-5.38,3.53-8.77,9.79-15.94,20.25-17.25,34.02-1.34,14.07-3.16,28.13-6.38,41.94-.34,1.45-.62,2.94-1.17,4.32-1.95,4.95-6.62,7.34-11.17,5.82-4.42-1.47-7.28-6.06-5.68-10.81,6.89-20.37,5.67-41.43,5.38-62.33-.39-27.79,5.75-54.52,11.74-81.32,.68-3.05,2.02-6.04,4.81-7.96,3.33-2.29,6.89-1.15,7.67,2.79,.58,2.9,.51,5.96,.43,8.94-.47,18.47-.87,36.95-2.8,56.81Z"/>
      <path d="M578.09,386.43c.09,7.38-1.51,13.63-3.83,19.73-3.19,8.38-11.43,14.37-20.31,14.58-1.78,.04-3.69-.36-5.34-1.03-15.56-6.34-22.37-27.95-13.56-42.34,4.87-7.95,12.02-10.53,20.85-9.73,1.94,.17,3.88,.42,6.32,.68-2.89-7.78-5.22-15.22-6.49-22.88-1-6.06-1.27-12.24-1.74-18.37-.22-2.78,.99-4.97,3.74-5.8,2.76-.84,4.88,.46,6.35,2.77,1.52,2.4,2.78,4.99,3.13,7.82,1.51,12.33,7.27,23.47,9.91,35.46,.57,2.57,2.42,2.45,4.14,2.66,10.29,1.25,20.25,3.89,30.05,7.18,5.32,1.78,9.95,4.57,13.18,9.38,4.45,6.63,2.19,12.37-5.63,14.15-4.29,.98-8.32-.18-12.16-1.79-6.75-2.83-13.36-5.98-20.06-8.94-2.56-1.14-5.19-2.14-8.55-3.52Zm-13.89,5.29c1.02-4.24-.54-7.28-6.07-7.46-.8-.02-1.58-.48-2.38-.71-6.41-1.86-9.97,.77-9.99,7.48-.01,5.66,2.81,10.12,6.2,14.35,3.53,4.41,7.47,4.01,10.02-1.25,1.76-3.65,2.28-7.62,2.22-12.41Z"/>
      <path d="M235.86,261.93c-12.81-.53-23.61-3.28-33.32-9.78-10.75-7.19-16.44-17.1-16.74-30.07-.16-6.82-.17-6.76-6.46-3.6-16.2,8.13-31.28,18.3-47.71,26.01-2.7,1.27-5.45,2.48-8.28,3.41-2.17,.71-4.43,.41-5.71-1.82-1.38-2.4-.01-4.06,1.89-5.46,20.1-14.89,41.17-28.11,64.33-37.8,2.74-1.15,5.53-2.02,7.9-4.07,2.67-2.3,5.87-2.38,8.7-.11,2.66,2.13,2.94,4.87,1.8,8.09-5.09,14.43,.1,27.69,13.73,34.43,10.25,5.07,20.75,6.94,31.52,1.05,3.59-1.96,7.59-2.45,10.26,1.49,2.65,3.9,.8,7.49-2.24,10.2-5.92,5.27-12.95,7.98-19.66,8.02Z"/>
      <path d="M307.67,245.52c2.15-3.13,4.08-6,6.08-8.81,.67-.94,1.54-1.97,2.88-1.52,1.02,.34,1.22,1.4,1.45,2.42,1.16,5.06,1.69,10.22,1.68,15.36-.02,9.38-8.81,15.44-17.75,12.51-6.97-2.28-10.5-7.62-13.01-14.14-4.48-11.63-5.5-23.99-7.87-36.05-3.6-18.32-4.77-36.99-7.08-55.5-1.11-8.92-2.56-17.81-2.9-26.81-.11-3.01,.06-6,.85-8.92,.87-3.22,2.67-5.47,6.34-5.05,3.49,.39,3.82,3.11,4.02,5.91,2.02,28.3,7.09,56.16,12.88,83.85,2.4,11.47,4.57,23.24,10.58,33.68,.55,.96,1.13,1.89,1.85,3.08Z"/>
      <path d="M122.54,172.53c14.38-6.05,27.54-12.82,41.39-17.93,4.83-1.78,9.71-3.42,14.6-5.03,2.23-.73,4.57-.92,6.92-.65,3.34,.37,5.68,2.11,6.25,5.47,.55,3.2-1.15,5.4-3.98,6.75-.9,.43-1.83,.78-2.77,1.13-15.91,5.84-31.8,11.72-47.73,17.5-4.38,1.59-8.88,3.1-13.57,3.04-2.85-.04-4,.87-4.91,3.54-2.77,8.09-6.78,15.56-12.66,21.88-2.04,2.2-4.13,4.41-7.29,4.97-2.19,.39-4.39,.46-6.01-1.42-1.76-2.03-1.75-4.5-.4-6.51,8.65-12.92,10.86-28.1,15.11-42.56,1.51-5.13,2.23-10.41,2.52-15.74,.06-1.16,.06-2.35,.31-3.48,.57-2.65,1.26-5.36,4.63-5.71,3.48-.36,5.21,1.87,6.11,4.76,1.99,6.42,2.67,13.03,2.34,19.73-.15,3.13-.51,6.26-.85,10.26Z"/>
      <path d="M175.62,252.26c-.23,4.18-.21,7.36-.64,10.47-.29,2.13,.36,3.32,2.05,4.54,3.77,2.74,7.44,5.68,9.71,9.88,1.87,3.47,2.49,7.11-.97,9.95-3.39,2.78-6.85,1.75-9.98-.74-2.6-2.06-4.94-5.56-7.74-5.96-3-.43-4.38,4.24-7.07,6.1-4.56,3.14-9.43,5.63-14.66,7.32-3.23,1.04-6.78,1.34-9.24-1.66-2.46-2.99-.74-5.95,.85-8.73,3.29-5.76,5.85-11.99,10.36-16.98,1.52-1.68,.97-2.76-.29-4.19-1.75-1.99-3.41-4.08-4.88-6.28-1.06-1.58-1.38-3.47-.07-5.14,1.43-1.83,3.45-2.04,5.41-1.2,2.12,.91,4.25,1.96,6.07,3.34,2.69,2.03,3.77,.92,4.41-1.74,.89-3.71,1.65-7.46,2.68-11.14,1.1-3.96,3.21-7.27,7.92-6.73,4.45,.51,5.86,4.01,6.04,7.95,.18,3.98,.04,7.97,.04,10.93Z"/>
      <path d="M485.69,342.84c.34-8.15,2.18-15.06,4.41-21.86,.75-2.29,.56-3.35-2.17-3.27-1.46,.04-3-.3-4.4-.79-3.18-1.11-5.52-3.11-5.81-6.74-.31-3.78,1.46-6.52,4.82-7.95,3.04-1.3,6.23-2.45,9.47-3.04,4-.73,5.91-2.87,6.77-6.72,.83-3.71,2.1-7.35,3.42-10.92,.68-1.84,1.68-3.64,2.9-5.17,1.69-2.13,4.08-2.96,6.7-1.83,2.48,1.08,3.22,3.4,2.94,5.82-.44,3.79-1.03,7.6-1.96,11.29-.62,2.45-.53,3.37,2.38,3.83,7.95,1.27,11.59,3.93,11.49,8.24-.15,6.58-5.68,8.25-10.38,8.87-8,1.06-10.92,5.43-12.35,12.76-1.42,7.3-4.19,14.33-6.27,21.51-1,3.45-2.43,6.54-6.65,5.92-4-.59-5.14-3.78-5.3-7.39-.05-1.16,0-2.33,0-2.55Z"/>
      <path d="M378.56,247.9c-6.72-.41-15.58-1.74-23.83-5.71-6.35-3.05-11.34-7.57-14.44-13.98-1.8-3.74-2.33-7.67-1.09-11.67,1.09-3.51,3.12-6.36,7.05-7,3.8-.62,6.33,1.42,8.14,4.53,4.6,7.92,12.38,11,20.62,12.75,8.23,1.76,16.2,5.37,24.96,4.04,2.63-.4,3.5,1.22,3.44,3.61-.12,4.48-2.68,7.42-6.23,9.61-4.98,3.08-10.52,3.99-18.62,3.82Z"/>
      <path d="M367.43,130.96c8.86,.93,17.22,2.28,21.71,11.14,1.76,3.47,2.54,7.06-.61,10.11-3.07,2.97-6.92,2.79-10.14,.61-8.12-5.51-16.54-5.05-25.3-2.24-3.16,1.01-6.37,1.86-9.53,2.87-3.68,1.18-7.28,1.07-9.15-2.64-2.02-4-.35-7.59,3.3-9.87,9.16-5.69,19.07-9.28,29.71-9.98Z"/>
      <path d="M583.38,302.79c-.35,5.93-4.45,8.78-9.45,5.91-8.66-4.96-17.26-10.14-23.32-18.46-1.58-2.18-3.01-4.44-3.42-7.13-.91-5.85,4.28-10.96,9.39-8.61,9.73,4.48,18.81,10.11,24.49,19.74,1.54,2.61,2.54,5.43,2.32,8.55Z"/>
      <path d="M181.99,177.72c4.52,.17,7.61,1.17,8.33,5.25,.63,3.59-1.34,5.73-4.56,6.72-16.55,5.09-31.99,13.18-48.67,17.85-2.76,.78-6.53,3.74-8.41-.25-1.61-3.42,2.5-4.98,4.81-6.56,13.25-9.05,27.53-16.14,42.58-21.66,2.16-.79,4.51-1.04,5.91-1.35Z"/>
      <path d="M351.93,842.19c.03-3.31-.47-6.69,1.11-9.83,1.26-2.48,2.77-4.74,6.01-4.29,3.5,.48,3.77,3.36,3.93,6.04,.18,2.99-.1,6.02,.19,8.99,.49,4.96,2.61,9.52,7.64,10.64,4.88,1.09,9.97,1.35,14.32-3.13,10.01-10.32,13.31-23.07,14.88-36.72,.72-6.27,2.04-12.47,3.26-18.67,.69-3.49,2.25-6.56,6.51-6.15,4.32,.41,5.27,3.83,5.1,7.32-.58,11.91,3.34,23.01,6.3,34.19,2.38,8.98,14.02,14.62,24.3,12.9,3.27-.55,6.44-1.65,9.7-2.24,2.24-.41,4.87-1.11,6.51,1.14,1.75,2.41,.38,4.71-.96,6.91-2.08,3.41-5.39,4.94-9.03,5.69-2.28,.47-3.51,1.34-3.8,3.77-.4,3.48-2.3,6.26-5.04,8.34-8.87,6.74-17.46,13.88-27.49,18.96-5.53,2.8-11.23,3.12-16.97,1.23-6.84-2.25-14.43-3.17-18.48-10.6-2.59-4.73-6.39-7.18-11.94-8.85-10.79-3.25-16.4-12.19-16.09-25.64Zm85.6,13.91c-7.4-1.15-12.97-4.97-17.79-9.91-4.6-4.73-10.45-8.36-13.08-15.07-1.99,11.62-8.26,20.81-15.25,29.18-3.99,4.78-2.93,7.24,.51,11.02,4.99,5.49,15.33,7.92,20.76,3.44,7.95-6.55,16.07-12.79,24.83-18.67Z"/>
      <path d="M501.37,699.4c-1.64,9.15-.99,18.47-4.28,27.2-6.52,17.3-22.96,26.7-39.47,22.61-6.61-1.64-11.18-5.47-13.86-11.79-5.46-12.88-3.84-25.77,.03-38.53,1.26-4.15,2.65-8.18,3.15-12.51,1.1-9.58,7.47-16.51,16.94-18.54,2.9-.62,5.68-1.48,8.49-2.48,6.67-2.39,12.74,.08,17.13,5.08,7.22,8.22,10.89,18.15,11.87,28.96Zm-18.23-7.81c-3.61,3.92-5.53,9.04-11.26,9.83-5.75,.8-9.52-2.58-13.2-6.41-6.03,11.13-7.14,22.45-4.35,34.2,.47,1.98,.67,4.49,3.38,5.05,5.42,1.12,10.74,1.82,15.97-1.18,14.54-8.33,18.6-25.17,9.45-41.5Z"/>
      <path d="M425.31,708.86c-2.24,12.88-3.73,26.05-11.4,37.24-4.88,7.12-11.5,12.18-20.33,13.08-15.44,1.57-26.06-11.04-24.4-27.68,1.15-11.58,4.62-22.38,8.97-33,3.59-8.76,12.52-13.74,22.09-12.77,8.38,.85,16,2.94,21.07,10.45,2.6,3.84,4.21,7.9,4,12.67Zm-43.9,28.64c5.02-9.04,13.37-10.81,20.83-4.51,1.84,1.56,2.54,1.39,3.71-.4,3.78-5.78,6.29-12.18,7.82-18.79,1.92-8.28-3.79-14.3-12.36-13.72-2.15,.15-4.39,1.12-6.41,.74-4.11-.76-5.85,1.8-8.13,4.33-8.56,9.52-8.5,20.41-5.47,32.34Z"/>
      <path class="cls-2" d="M236.97,410.97c-3.54-.13-6.82,.64-8.01-3.74-1.39-5.12-.25-11,3.35-13.66,4.68-3.46,9.99-4.22,15.61-3.26,2.29,.39,3.43,1.34,2.54,4.08-1.39,4.27-2.86,8.46-5.3,12.26-2.03,3.16-4.58,5.3-8.18,4.32Z"/>
      <path class="cls-2" d="M564.2,391.73c.06,4.79-.46,8.76-2.22,12.41-2.54,5.26-6.49,5.66-10.02,1.25-3.39-4.23-6.21-8.69-6.2-14.35,.02-6.7,3.58-9.34,9.99-7.48,.8,.23,1.58,.69,2.38,.71,5.53,.17,7.09,3.22,6.07,7.46Z"/>
      <path class="cls-4" d="M437.53,856.1c-8.76,5.88-16.89,12.12-24.83,18.67-5.43,4.48-15.77,2.04-20.76-3.44-3.44-3.78-4.5-6.25-.51-11.02,6.99-8.38,13.26-17.56,15.25-29.18,2.62,6.71,8.47,10.34,13.08,15.07,4.81,4.94,10.38,8.75,17.79,9.91Z"/>
      <path class="cls-1" d="M483.14,691.59c9.15,16.32,5.09,33.17-9.45,41.5-5.23,3-10.55,2.3-15.97,1.18-2.71-.56-2.91-3.06-3.38-5.05-2.8-11.76-1.69-23.07,4.35-34.2,3.68,3.83,7.45,7.21,13.2,6.41,5.73-.8,7.64-5.92,11.26-9.83Z"/>
      <path class="cls-1" d="M381.4,737.51c-3.03-11.93-3.1-22.82,5.47-32.34,2.28-2.53,4.01-5.09,8.13-4.33,2.02,.37,4.26-.6,6.41-.74,8.56-.59,14.27,5.43,12.36,13.72-1.53,6.62-4.04,13.01-7.82,18.79-1.17,1.78-1.87,1.95-3.71,.4-7.46-6.3-15.82-4.52-20.83,4.51Z"/>
    </g>
  </g>
</svg>