<?xml version="1.0" encoding="UTF-8"?>
<svg id="_レイヤー_2" data-name="レイヤー 2" xmlns="http://www.w3.org/2000/svg" viewBox="0 0 994.36 907.45">
  <defs>
    <style>
      .cls-1 {
        fill: #696567;
      }

      .cls-2 {
        fill: #eae4ec;
      }

      .cls-3 {
        fill: #e9e3eb;
      }

      .cls-4 {
        fill: #ffbebe;
      }

      .cls-5 {
        fill: #febebe;
      }

      .cls-6 {
        fill: #febdbd;
      }

      .cls-7 {
        fill: #68686a;
      }

      .cls-8 {
        fill: #656b6a;
      }

      .cls-9 {
        fill: #6b956e;
      }

      .cls-10 {
        fill: #998f93;
      }

      .cls-11 {
        fill: #313631;
      }

      .cls-12 {
        fill: #242524;
      }

      .cls-13 {
        fill: #242424;
      }

      .cls-14 {
        fill: #222;
      }

      .cls-15 {
        fill: #232323;
      }

      .cls-16 {
        fill: #3e493c;
      }

      .cls-17 {
        fill: #595659;
      }

      .cls-18 {
        fill: #2c2e2b;
      }

      .cls-19 {
        fill: #5b7e5f;
      }

      .cls-20 {
        fill: #384439;
      }

      .cls-21 {
        fill: #313131;
      }

      .cls-22 {
        fill: #272826;
      }

      .cls-23 {
        fill: #39453a;
      }

      .cls-24 {
        fill: #587a5c;
      }

      .cls-25 {
        fill: #3d463a;
      }

      .cls-26 {
        fill: #3c473b;
      }

      .cls-27 {
        fill: #5f8463;
      }

      .cls-28 {
        fill: #606769;
      }

      .cls-29 {
        fill: #606564;
      }

      .cls-30 {
        fill: #516e54;
      }
    </style>
  </defs>
  <g id="_レイヤー_1-2" data-name="レイヤー 1">
    <g>
      <path class="cls-2" d="M969.33,225.05c0,5.09,0,10.18,0,15.27-.04,18.68,.46,37.38-1.16,56.02-1.28,14.74-2.84,29.48-6.94,43.78-3.7,12.9-10.33,24.22-18.32,34.93-12.22,16.38-27.26,30.07-41.4,44.63-9.76,10.06-18.18,21.14-24.23,33.88-6.55,13.8-6.62,27.45,.19,41.27,3.34,6.78,7.62,12.71,12.97,17.95,7.26,7.11,14.23,14.47,20.39,22.57,3.96,5.21,6.19,11,6.16,17.59-.01,3.45,.25,6.93-.06,10.35-.59,6.5,2.59,10.65,7.83,13.72,4.69,2.74,9.42,5.42,14.1,8.18,4.85,2.86,9.37,6.15,13.4,10.12,8.93,8.78,17.77,17.59,24.27,28.48,7.42,12.43,12.5,25.61,14.69,39.98,1.86,12.17,3.07,24.37,3.14,36.67,.05,8.5-1.26,16.92-1.89,25.37-.77,10.31-2.61,20.42-4.67,30.48-5.02,24.51-11.02,48.75-22.7,71.14-7.83,15.01-18.12,27.91-32.33,37.44-11.04,7.41-23.51,11.07-36.24,14.1-8.96,2.13-18.01,3.57-27.2,4.55-18.31,1.95-36.65,1.03-54.94,.66-10.6-.21-21.31-.72-31.9-1.96-10.56-1.24-21.08-2.86-31.64-4.12-4.48-.54-9.07-1.02-13.48-1.03-12.7-.03-25.36-2.41-38.02-1.21-13.23,1.25-26.49,.2-39.66,1.2-7.61,.58-15.22,.3-22.78,.95-12.44,1.07-24.91,1.51-37.34,2.33-7.06,.47-14.12,.38-21.14,.93-14.44,1.12-28.89,1.58-43.35,2.26-11.18,.53-22.35,1.5-33.53,2.17-12.09,.73-24.17,1.49-36.26,2.18-12.81,.73-25.62,1.52-38.44,2.18-12.27,.63-24.54,1.39-36.81,2.16-10.45,.65-20.89,1.52-31.35,2.19-10.63,.68-21.27,1.44-31.9,2.19-15.17,1.07-30.35,1.58-45.53,2.26-8.86,.4-17.76,.25-26.58,1-10.09,.85-20.23,1.09-30.26,2.22-10.04,1.13-20.13,1.78-30.17,2.79-6.43,.65-12.99,.99-19.46,1.53-15.23,1.29-30.46,1.12-45.67,.82-11.53-.23-23.05-1.17-34.52-2.87-10.77-1.59-21.37-3.66-31.69-7.08-8.52-2.82-16.28-7.16-23.1-12.96-4.71-4-8.41-9-11.53-14.31-7.43-12.65-12.51-26.32-13.8-40.88-.91-10.21-.88-20.6,.51-30.94,2.01-14.91,5.7-29.42,9.31-43.96,3.43-13.85,6.43-27.79,8.3-41.93,1.69-12.79,1.82-25.73,1.05-38.56-1.15-19.26-6.05-37.76-13.07-55.73-7.45-19.08-13.77-38.55-17.03-58.8-1.37-8.52-2.04-17.2-2.67-25.85-.61-8.33-.89-16.63-.86-24.96,.07-17.58,2.09-34.97,5.89-52.13,3.32-14.99,6.48-30.04,10.53-44.84,6.49-23.74,15.68-46.36,30.76-66.14,11.08-14.53,24.82-25.35,43.08-29.3,7.72-1.67,15.43-.68,23.14,.87,10.34,2.07,19.91,6.6,30.22,8.76,8.98,1.88,17.89,2.58,26.89,.53,7.4-1.68,13.28-5.73,17.43-12.02,5.31-8.06,7.81-17.2,8.11-26.7,.16-5.14-.96-10.41-2.43-15.46-5.78-19.79-10.99-39.73-15.16-59.91-1.6-7.76-2.23-15.69-3.02-23.6-2.07-20.48-.34-41-1.04-61.48-.31-8.94,1.04-17.74,2.59-26.4,2.14-11.92,5.45-23.67,11.38-34.42,7.54-13.65,17.02-25.62,30.18-34.35,9.38-6.22,18.98-12.01,29.5-16.16,8.81-3.47,18.04-5.27,27.32-6.67,7.13-1.08,14.34-1.65,21.53-2.2,3.23-.25,6.45,.15,9.71,.7,3.4,.57,7.2,1.45,10.39-1.34,1-.87,2.45-.5,3.7-.51,3.63-.03,7.27-.13,10.9,.02,5.66,.23,11.17-.64,16.67-1.8,1.58-.33,3.24-.38,4.86-.4,5.45-.05,10.91,.19,16.35-.08,8.05-.39,15.85,1.16,23.66,2.64,5.15,.97,10.27,1.92,15.57,1.85,11.81-.16,23.63,.09,35.44-.11,9.95-.17,19.89,.28,29.88-.8,8.76-.94,17.78,.72,26.55,.52,16.68-.38,33.39-.07,50.02-1.02,8.69-.5,17.43-.03,26.04-.98,9.24-1.02,18.53-.16,27.67-1.16,7.44-.82,14.91-.04,22.22-1.03,9.07-1.23,18.16-.13,27.14-1.06,18.13-1.87,36.3-.04,54.39-1.12,10.87-.65,21.78-1.61,32.58-.76,20.68,1.64,41.4-.14,62.01,1.22,8.25,.54,16.58,.32,24.87,1.59,6.35,.97,12.97,1.14,19.46,1.27,11.41,.23,22.73,1.1,34.09,2.09,6.67,.58,13.31,.99,19.88,2.37,11.38,2.4,21.6,7.38,30.76,14.39,4.49,3.44,7.69,8.25,10.37,13.17,5.98,10.99,11.1,22.37,14.71,34.43,2.49,8.32,5.11,16.6,6.46,25.19,.78,4.98,1.26,10.02,1.85,15.03,1.07,8.99,.11,18.1,1.89,27.02,.14,.7,.11,1.45,.11,2.17,0,10.14,.78,20.22,2.13,30.27,.19,1.43,.06,2.9,.06,4.36,0,16.72,0,33.44,0,50.16h0ZM368.5,375.33c0,5.8-.2,10.87,.04,15.92,.43,9.17,2.41,18.03,7.04,26.05,5.41,9.37,13.55,12.18,23.66,8.49,3.26-1.19,6.28-2.85,9.19-4.72,5.84-3.73,11.22-8.06,16.03-13.05,5.04-5.23,10.14-10.44,14.81-15.99,8.48-10.09,19.37-15.5,32.09-18.03,11.31-2.25,22.74-2.42,34.18-2.45,40.33-.12,80.66-1.44,120.99-.71,5.82,.11,5.78-.05,6.99,5.75,1.23,5.92,1.27,11.9,1.34,17.9,.08,6.36,.22,12.76,2.12,18.89,2.71,8.78,10.05,12.04,18.49,8.35,3.7-1.62,6.87-4.07,9.83-6.77,4.98-4.54,9.51-9.5,13.9-14.59,5.48-6.35,11.56-12.05,18.38-16.97,6.76-4.88,14.25-7.97,22.5-9.07,6.12-.81,12.28-1.19,18.46-1.42,12.38-.46,24.68,.7,37.02,1.14,9.62,.34,17.6,3.9,24.42,10.45,6.3,6.04,12.43,12.24,17.88,19.07,2.15,2.7,4.3,5.41,6.59,7.99,6.11,6.86,13.8,8.32,22.16,4.32,4.84-2.31,8.78-5.78,12.37-9.68,5.42-5.89,10.53-12.03,15.42-18.36,2.45-3.17,5.11-6.14,7.94-8.97,2.75-2.74,5.9-4.75,9.64-5.92,10.38-3.25,18.68-9.58,25.55-17.83,11.24-13.49,17.21-29.32,20.15-46.42,2.72-15.82,2.9-31.8,3.11-47.8,.44-32.89-1.99-65.77-1.02-98.64,.83-27.93-2.15-55.49-4.96-83.14-1.1-10.79-5.81-19.24-13.67-26.37-9.96-9.02-21.73-14.39-34.58-17.65-20.34-5.15-41.19-6.78-61.99-8.58-32.05-2.77-64.2-3.9-96.36-4.09-67.78-.41-135.53,1.67-203.28,3.07-43.59,.9-87.17,2.55-130.79,2.17-18.17-.16-36.34,.36-54.45,1.96-19.6,1.73-38.8,5.43-57.43,11.99-25.6,9.01-44.48,25.53-56.35,49.95-5.03,10.36-8.16,21.34-10.12,32.67-3.06,17.66-2.91,35.46-2.24,53.27,1.23,32.69,4.44,65.24,7.26,97.81,.74,8.51,1.62,17,3.7,25.31,5.57,22.22,18.54,38.21,39.77,47.29,3,1.28,5.92,2.77,8.84,4.22,9.28,4.59,18.67,8.91,28.3,12.73,12.71,5.04,26.04,7.91,39.24,11.15,9.05,2.22,18.37,.95,27.8-.67Zm-204.42,31.07c.88,1.27,.58,2.18,.36,3.03-3.35,13.1-6,26.24-3.2,39.83,.4,1.95-.76,2.56-2.37,2.84-3.04,.54-6.08,1.07-9.11,1.68-11.45,2.32-22.9,5.3-32.81,11.37-9.6,5.88-19.77,10.75-29.1,17.06-5.87,3.97-11.8,7.85-17.39,12.21-11.06,8.61-19.92,19.05-26.31,31.56-6.62,12.97-8.33,26.52-5.15,40.75,2.43,10.86,6.42,21.2,10.1,31.64,8.53,24.25,12.61,49.18,12.48,74.87-.11,21.64-1.36,43.21-3.25,64.76-1.2,13.76-2.2,27.53-2.14,41.35,.05,11.52,1.46,22.84,4.91,33.85,6.43,20.52,19.24,35.07,39.76,42.48,14.24,5.14,28.79,8.89,43.87,10.48,16.73,1.77,33.41,.78,50.01-1.42,30.3-4.01,59.23-12.33,86.69-26.13,26.67-13.4,44.84-33.67,55.52-61.51,9.59-24.98,15.22-50.76,18.44-77.16,2.79-22.82,3.2-45.69-.56-68.45-8.01-48.42-28.46-91.53-58.54-129.79-22.48-28.59-53.1-44.57-89.02-50.26-11.01-1.74-22.1-1.44-33.18-1.08-4.95,.16-4.95,.12-3.45-4.79,.05-.17,.12-.34,.18-.52,4.05-11.7,6.68-23.77,9.16-35.87,.25-1.22,.15-2.58,1.75-3.74,4.15,2.89,8.77,5.31,13.89,6.68,13.63,3.63,27.05,2.72,40.15-2.14,9.04-3.35,16.82-8.56,21.77-17.23,10.68-18.74-.1-40.22-21.53-42.65-17.13-1.94-32.37,2.6-45.54,13.85-5,4.27-9.25,9.22-13.32,14.37-4.08,5.16-4.19,5.14-9.24,.73-6.71-5.85-13.41-11.72-20.92-16.57-6.15-3.97-12.64-7.17-19.91-8.52-12.18-2.25-23.18,.2-32.38,8.74-12.61,11.71-11.24,30.01,2.82,39.93,4.06,2.87,8.59,4.73,13.32,6.1,13.21,3.81,26.54,3.79,39.9,.95,4.43-.94,8.8-2.17,13.34-3.3Zm716.84,181.05c-.02-2.53,1.61-3.91,2.66-5.53,4.39-6.73,7.71-13.99,10.72-21.41,1.35-3.33,1.64-6.71,.19-10.07-1.17-2.72-2.4-3.17-5.16-1.96-3.1,1.36-5.36,3.67-7.18,6.47-5.43,8.34-9.29,17.29-10.34,27.26-.33,3.14-1.48,4.52-4.8,4.27-3.11-.24-6.14,.52-8.91,2.08-1.28,.72-2.66,1.12-4.13,1.29-14.96,1.74-28.34,7.74-40.79,15.82-17.27,11.21-28.44,26.75-32.14,47.27-.58,3.22-1.26,6.44-1.49,9.69-1.3,18.66-7.08,35.88-16.18,52.12-2.66,4.75-4.94,9.72-7.28,14.63-5.17,10.83-10.07,21.77-12.97,33.48-3.33,13.45-2.96,26.49,3.22,39.3,9.07,18.8,23.69,30.27,43.79,35.32,17.23,4.33,34.36,4.02,51.87,1.35,25.17-3.85,48.03-12.53,68.21-28.15,8.06-6.24,15.76-12.86,23.15-19.87,34.58-32.77,47.22-86.51,33.62-131.18-8.45-27.78-25.35-48.24-51.68-60.75-7.9-3.76-16.11-6.66-24.56-8.9-3.28-.87-6.58-1.7-9.84-2.54Zm-309.89-91.42c-2.27,1.23-3.94,.9-5.54,.95-23.42,.77-45.49,6.82-66.65,16.67-14.44,6.72-24.25,17.54-29.78,32.39-2.23,5.99-3.97,12.16-4.44,18.49-.67,9.13-2.88,17.88-5.1,26.69-3.41,13.56-6.53,27.14-6.01,41.34,.33,8.86-2.2,17.1-7.22,24.69-5.71,8.62-10.99,17.54-14.69,27.29-6.91,18.2-8.07,37.16-7.62,56.33,.74,31.42,14.71,56.41,37.85,76.77,6.17,5.43,13.28,9.54,20.99,12.45,15.55,5.86,31.72,9.12,48.13,11.34,9.16,1.24,18.16,.48,26.9-2.45,19.93-6.67,37.76-16.93,52.51-32.05,17.72-18.16,31.27-39.22,40.98-62.54,13.7-32.92,25.06-66.63,30.77-102,3.93-24.34,5.54-48.73,1.51-73.22-4.8-29.15-20.09-50.15-47.99-61.18-17.05-6.74-34.81-10.18-53.09-11.04-5.79-.27-5.93-.28-4.77-6.16,2.83-14.3,2.34-28.95,4.55-43.32,.2-1.28,.71-2.89-1.08-3.9-1.88,.83-2.41,2.65-3.1,4.25-3.31,7.68-6.05,15.55-8.17,23.66-2.15,8.24-3.29,16.4,1.05,24.54Z"/>
      <path class="cls-14" d="M368.5,375.33c-9.43,1.62-18.75,2.89-27.8,.67-13.2-3.23-26.53-6.1-39.24-11.15-9.63-3.82-19.02-8.14-28.3-12.73-2.93-1.45-5.84-2.93-8.84-4.22-21.23-9.07-34.2-25.07-39.77-47.29-2.08-8.31-2.97-16.8-3.7-25.31-2.82-32.57-6.04-65.12-7.26-97.81-.67-17.8-.83-35.6,2.24-53.27,1.97-11.33,5.09-22.31,10.12-32.67,11.87-24.42,30.74-40.94,56.35-49.95,18.63-6.56,37.83-10.26,57.43-11.99,18.11-1.6,36.28-2.12,54.45-1.96,43.62,.39,87.2-1.26,130.79-2.17,67.75-1.4,135.5-3.48,203.28-3.07,32.16,.19,64.31,1.32,96.36,4.09,20.8,1.8,41.65,3.43,61.99,8.58,12.85,3.25,24.62,8.63,34.58,17.65,7.86,7.12,12.57,15.58,13.67,26.37,2.81,27.65,5.79,55.21,4.96,83.14-.98,32.86,1.45,65.74,1.02,98.64-.21,16-.4,31.98-3.11,47.8-2.94,17.11-8.9,32.93-20.15,46.42-6.88,8.25-15.18,14.58-25.55,17.83-3.74,1.17-6.88,3.18-9.64,5.92-2.84,2.82-5.5,5.8-7.94,8.97-4.89,6.33-10,12.47-15.42,18.36-3.59,3.9-7.53,7.36-12.37,9.68-8.35,4-16.05,2.54-22.16-4.32-2.29-2.58-4.44-5.29-6.59-7.99-5.46-6.83-11.59-13.03-17.88-19.07-6.82-6.54-14.8-10.1-24.42-10.45-12.34-.44-24.65-1.61-37.02-1.14-6.18,.23-12.34,.61-18.46,1.42-8.25,1.1-15.74,4.19-22.5,9.07-6.81,4.92-12.89,10.62-18.38,16.97-4.39,5.09-8.93,10.05-13.9,14.59-2.97,2.71-6.13,5.15-9.83,6.77-8.44,3.7-15.78,.44-18.49-8.35-1.89-6.14-2.04-12.53-2.12-18.89-.07-6-.11-11.99-1.34-17.9-1.21-5.8-1.17-5.65-6.99-5.75-40.34-.73-80.66,.6-120.99,.71-11.44,.03-22.87,.2-34.18,2.45-12.71,2.53-23.61,7.95-32.09,18.03-4.67,5.56-9.76,10.76-14.81,15.99-4.81,4.98-10.18,9.31-16.03,13.05-2.91,1.86-5.93,3.52-9.19,4.72-10.11,3.7-18.26,.89-23.66-8.49-4.63-8.03-6.61-16.88-7.04-26.05-.24-5.05-.04-10.13-.04-15.92Zm5.46-12.07c.86,1.6,2.63,.86,3.88,1.51,2.71,1.42,3.12,3.3,1.09,5.68-.47,.55-1,1.13-1.63,1.43-2.23,1.08-2.44,2.85-2.05,5.01,1.71,9.48,3.59,18.91,7.32,27.86,1.05,2.52,2.14,5.02,3.79,7.21,2.21,2.92,4.06,3.53,7.59,2.51,2.64-.77,4.96-2.23,7.24-3.73,5.79-3.83,10.97-8.38,15.72-13.42,5.23-5.56,10.37-11.19,15.53-16.81,8.11-8.84,18.14-14.32,29.66-17.35,11.16-2.94,22.59-3.94,34.01-3.97,44.5-.09,89-2.1,133.51-.26,7.72,.32,11.54,3.15,13.74,10.7,1.79,6.15,2.25,12.49,2.4,18.86,.13,5.45,.3,10.9,.64,16.33,.16,2.63-.26,6.1,2.51,7.25,2.72,1.13,5.02-1.49,7.11-3.14,5.59-4.41,10.22-9.8,14.9-15.12,6.14-6.98,12.84-13.36,20.26-18.96,7.21-5.45,15.21-9.15,24.15-10.76,5.55-1,11.14-1.55,16.77-1.9,15.64-.98,31.23,.12,46.82,1.19,8.62,.59,16.25,3.65,22.96,8.99,2.55,2.03,4.93,4.3,7.26,6.59,7.93,7.79,14.85,16.45,21.14,25.6,3.99,5.81,8.58,6.32,14.64,3.16,3.59-1.87,6.46-4.67,9.19-7.61,5.44-5.87,10.29-12.22,15.18-18.55,5.97-7.72,12.84-14.13,22.49-17.33,7.38-2.44,13.16-7.59,18.08-13.58,7.53-9.17,12.02-19.82,14.81-31.23,3.21-13.14,4.22-26.55,3.98-40.02-.29-15.98-.84-31.96-1.5-47.94-1.2-29.22-3.2-58.41-2.43-87.68,.56-21.49-2.95-42.74-4.06-64.13-.33-6.43-3.3-11.34-7.78-15.66-7.8-7.52-17.22-11.96-27.54-14.77-17.28-4.71-35.06-5.94-52.78-7.4-35.33-2.9-70.74-3.88-106.18-3.82-63.78,.1-127.51,2.33-191.27,3.78-44.86,1.02-89.71,2.77-134.6,2.36-19.81-.18-39.61,.25-59.36,1.86-19.62,1.6-38.84,5.19-57.37,12.1-20.99,7.83-35.97,22.11-45.7,42.08-3.76,7.71-6.26,15.86-8,24.25-3.54,17.02-3.88,34.27-3.33,51.54,1.13,35.05,3.98,70,6.86,104.94,.72,8.69,2.04,17.35,5.22,25.54,4.86,12.53,13.47,22.06,25.31,28.08,8.23,4.19,16.72,7.93,25.07,11.92,10.99,5.25,22.16,10.04,33.95,13.2,4.38,1.18,8.86,2.09,13.13,3.59,10.08,3.53,20.3,3.32,30.68,1.95,3.28-.43,4.94-1.81,4.95-5.1,.68,1.07,1.36,2.13,2.05,3.2Z"/>
      <path class="cls-14" d="M164.08,406.4c-4.53,1.13-8.9,2.36-13.34,3.3-13.36,2.84-26.69,2.85-39.9-.95-4.73-1.36-9.26-3.23-13.32-6.1-14.06-9.93-15.44-28.23-2.82-39.93,9.2-8.54,20.2-10.99,32.38-8.74,7.27,1.35,13.76,4.55,19.91,8.52,7.5,4.85,14.2,10.71,20.92,16.57,5.05,4.41,5.16,4.42,9.24-.73,4.07-5.14,8.32-10.09,13.32-14.37,13.17-11.25,28.41-15.79,45.54-13.85,21.43,2.43,32.21,23.91,21.53,42.65-4.94,8.67-12.72,13.88-21.77,17.23-13.11,4.86-26.53,5.77-40.15,2.14-5.12-1.37-9.74-3.79-13.89-6.68-1.6,1.16-1.5,2.52-1.75,3.74-2.48,12.1-5.11,24.17-9.16,35.87-.06,.17-.12,.34-.18,.52-1.5,4.91-1.5,4.95,3.45,4.79,11.09-.36,22.18-.66,33.18,1.08,35.91,5.68,66.54,21.67,89.02,50.26,30.09,38.26,50.53,81.37,58.54,129.79,3.77,22.76,3.35,45.63,.56,68.45-3.23,26.4-8.86,52.18-18.44,77.16-10.68,27.83-28.85,48.11-55.52,61.51-27.46,13.8-56.39,22.12-86.69,26.13-16.6,2.2-33.27,3.18-50.01,1.42-15.08-1.59-29.63-5.33-43.87-10.48-20.52-7.41-33.33-21.96-39.76-42.48-3.45-11.01-4.86-22.33-4.91-33.85-.06-13.83,.94-27.59,2.14-41.35,1.88-21.55,3.14-43.12,3.25-64.76,.13-25.69-3.95-50.62-12.48-74.87-3.67-10.44-7.67-20.79-10.1-31.64-3.19-14.23-1.47-27.78,5.15-40.75,6.39-12.51,15.25-22.95,26.31-31.56,5.6-4.36,11.52-8.24,17.39-12.21,9.33-6.31,19.5-11.18,29.1-17.06,9.91-6.07,21.36-9.05,32.81-11.37,3.03-.61,6.07-1.14,9.11-1.68,1.61-.29,2.77-.9,2.37-2.84-2.81-13.59-.16-26.74,3.2-39.83,.22-.85,.52-1.75-.36-3.03Zm42.95,442.02c1.62-.08,3.31,.11,4.87-.27,22.04-5.3,43.82-11.34,63.79-22.51,1.68-.94,3.9-1.27,4.44-3.63,.96-1.45,2.58-1.96,3.98-2.76,14.96-8.53,26.23-20.47,33.61-36.07,7.72-16.32,13.32-33.31,16.95-51,3.73-18.14,6.44-36.41,7.38-54.9,.61-12.15-.16-24.27-1.71-36.37-2.3-17.92-6.93-35.19-13.27-52.05-6.41-17.05-14.75-33.16-23.98-48.82-11.8-20.03-25.39-38.42-45.18-51.53-19.69-13.05-41.18-20.42-64.73-21.61-13.46-.68-26.8,.62-40.04,3.15-12.38,2.36-24.23,6.4-35.58,11.69-6.71,3.13-13,7.25-19.25,11.28-11.89,7.67-23.79,15.38-32.83,26.61-11.09,13.77-16.36,28.87-11.26,46.62,3.41,11.87,7.71,23.44,11.55,35.17,6.3,19.26,9.81,38.99,10.59,59.23,.38,9.75,.47,19.49,.27,29.26-.27,13.08-.81,26.13-1.7,39.16-.31,4.51-.54,9.06-1.05,13.55-1.55,13.73-2.42,27.49-1.83,41.29,.49,11.47,2.5,22.69,7.4,33.24,4.02,8.64,9.73,15.7,18.21,20.29,16.25,8.82,33.95,12.56,52.11,14.17,12.12,1.07,24.34,.57,36.4-1.14,4.1-.58,8.38-.27,12.31-1.94l8.53-.11Zm6.97-447.89c9.34,.35,18.21-2.25,26.15-7.96,3.18-2.29,5.34-5.32,6.97-8.86,4.82-10.43-4.17-19.75-12.19-20.4-16.88-1.36-30.99,4.08-41.89,17.25-3.58,4.32-6.76,8.98-11.03,12.7-.78,.68-1.9,1.36-1.37,2.64,.49,1.17,1.72,1.11,2.8,1.28,6.07,.95,12.31,.58,18.29,2.19,3.9,1.05,7.86,1.23,12.26,1.16Zm-52.36-9.15c-6.91-7.18-13.32-13.75-20.92-19.1-6.33-4.46-12.95-7.78-20.87-8.31-9.01-.6-15.83,3.02-20.84,10.18-1.89,2.71-2.31,5.88-1.3,9.34,1.65,5.64,5.59,8.69,10.73,10.63,11.5,4.34,23.32,4.73,35.26,2.46,5.83-1.11,11.66-2.31,17.94-5.2Z"/>
      <path class="cls-14" d="M880.93,587.45c3.26,.84,6.56,1.67,9.84,2.54,8.45,2.24,16.65,5.14,24.56,8.9,26.33,12.51,43.23,32.97,51.68,60.75,13.6,44.67,.95,98.41-33.62,131.18-7.39,7.01-15.09,13.63-23.15,19.87-20.18,15.62-43.04,24.3-68.21,28.15-17.51,2.68-34.64,2.99-51.87-1.35-20.09-5.06-34.72-16.52-43.79-35.32-6.18-12.82-6.56-25.85-3.22-39.3,2.9-11.71,7.8-22.65,12.97-33.48,2.35-4.92,4.62-9.88,7.28-14.63,9.1-16.24,14.88-33.47,16.18-52.12,.23-3.25,.91-6.47,1.49-9.69,3.69-20.52,14.86-36.05,32.14-47.27,12.45-8.08,25.83-14.08,40.79-15.82,1.47-.17,2.85-.58,4.13-1.29,2.77-1.55,5.8-2.31,8.91-2.08,3.32,.25,4.47-1.13,4.8-4.27,1.05-9.97,4.91-18.92,10.34-27.26,1.82-2.8,4.08-5.12,7.18-6.47,2.76-1.21,3.98-.76,5.16,1.96,1.45,3.36,1.15,6.75-.19,10.07-3.01,7.42-6.33,14.67-10.72,21.41-1.05,1.62-2.68,3-2.66,5.53Zm-63.52,237.25c10,.46,20.05-2.13,30.19-4.09,9.64-1.86,19.06-4.41,28.01-8.6,19.56-9.15,35.81-22.59,50.38-38.28,20.02-21.55,27.77-47.58,27.52-76.36-.09-10.71-1.66-21.33-5.02-31.57-5.02-15.33-12.94-28.66-26.18-38.51-11.59-8.63-24.82-13.4-38.43-17.51-8-2.42-16.56-2.13-24.41-5.24-1.28-.51-2.48,.27-3.69,.6-11.63,3.15-22.78,7.6-33.11,13.72-12.2,7.23-21.59,17.02-25.58,31.2-2.03,7.23-2.33,14.66-3.31,22.01-1.03,7.73-2.02,15.43-4.5,22.9-2.94,8.84-7.32,17-11.48,25.26-5.97,11.83-12.33,23.48-16.91,35.96-2.89,7.87-5.82,16.05-4.82,24.35,2.28,18.81,12.29,32.22,30.48,38.82,9.8,3.55,19.92,5.48,30.85,5.33Z"/>
      <path class="cls-14" d="M571.04,496.03c-4.35-8.14-3.21-16.29-1.05-24.54,2.12-8.1,4.86-15.98,8.17-23.66,.69-1.6,1.22-3.42,3.1-4.25,1.79,1.01,1.28,2.62,1.08,3.9-2.22,14.37-1.72,29.01-4.55,43.32-1.16,5.88-1.02,5.89,4.77,6.16,18.28,.85,36.04,4.29,53.09,11.04,27.91,11.04,43.19,32.04,47.99,61.18,4.03,24.49,2.42,48.88-1.51,73.22-5.71,35.37-17.07,69.08-30.77,102-9.71,23.33-23.26,44.39-40.98,62.54-14.75,15.12-32.58,25.37-52.51,32.05-8.74,2.93-17.74,3.68-26.9,2.45-16.41-2.22-32.59-5.47-48.13-11.34-7.72-2.91-14.82-7.03-20.99-12.45-23.14-20.36-37.12-45.35-37.85-76.77-.45-19.16,.71-38.13,7.62-56.33,3.71-9.75,8.98-18.67,14.69-27.29,5.03-7.58,7.55-15.82,7.22-24.69-.53-14.2,2.59-27.78,6.01-41.34,2.22-8.81,4.43-17.56,5.1-26.69,.47-6.33,2.21-12.5,4.44-18.49,5.53-14.85,15.34-25.67,29.78-32.39,21.16-9.85,43.23-15.91,66.65-16.67,1.6-.05,3.27,.28,5.54-.95Zm-75.76,326.18c2.97-.12,5.66,1.13,8.44,1.83,9.99,2.53,20.07,4.65,30.33,5.64,9.98,.97,19.35-1.68,28.41-5.63,8.3-3.62,15.94-8.46,23.88-12.75,6.02-1.76,9.99-6.8,15.36-9.61,.28-.15,.35-.67,.62-.88,2.99-2.25,3.89-5.98,6.24-8.72,9.72-11.29,17.68-23.8,24.69-36.91,11.06-20.72,17.21-43.36,25.16-65.28,2.27-6.27,3.62-12.86,5.47-19.29,1.81-6.27,3.5-12.5,4.34-19.04,.91-7.13,2.81-14.16,3.34-21.34,.42-5.75,.4-11.49,2.95-16.84,.28-.58,.17-1.42,.06-2.11-1.24-7.56-1.16-15.12-.03-22.67,.14-.93,.35-1.89-.4-2.54-1.44-1.24-1.17-2.89-1.48-4.48-1.15-6.02-1.51-12.16-3.21-18.09-3.02-10.58-7.31-20.33-15.09-28.48-6.56-6.88-14.67-11.02-23.16-14.58-9.35-3.92-19.14-6.25-29.14-8.17-9.12-1.75-18.24-2.31-27.4-2.83-5.94-.34-11.91,.44-17.85,.78-6.92,.4-13.59,1.84-20.31,3.04-12.23,2.18-23.45,7.21-34.02,13.65-6.37,3.89-11.85,8.7-16.63,14.58-7.8,9.61-7.24,21.54-10.12,32.53,1.3,5.03-.97,9.51-2.06,14.19-.65,2.78-1.9,5.44-1.39,8.49,2.01,12.19,1.49,24.09-3.73,35.6-1.84,4.06-3.32,8.31-4.32,12.8-2.75,12.35-7.96,23.64-17.19,32.65-2.55,2.49-4.35,5.33-5.43,8.65-1.18,3.61-2.42,7.21-3.31,10.9-.89,3.7-3.97,6.96-2.35,11.22,.14,.37-.22,1.11-.57,1.47-1.66,1.73-.84,3.52-.66,5.53,.35,4.01,.8,7.85-1.86,11.92-2.35,3.6-2.4,8.81,.42,12.79,1.67,2.36,2.14,4.62,1.41,7.1-.55,1.88-.89,3.47,.59,5.02,.66,.7,.98,1.7,.58,2.53-.87,1.76-.28,3.03,.8,4.45,.98,1.29,1.31,2.91,1.73,4.51,1.49,5.62,3.64,11.04,6.55,16.06,5.46,9.42,11.66,18.22,19.63,25.86,6.75,6.47,13.95,11.72,22.88,14.59,2.57,.82,4.89,2.47,7.78,1.86Z"/>
      <path class="cls-2" d="M371.91,360.07c-.01,3.3-1.67,4.67-4.95,5.1-10.38,1.37-20.6,1.58-30.68-1.95-4.27-1.49-8.74-2.41-13.13-3.59-11.8-3.17-22.96-7.96-33.95-13.2-8.35-3.99-16.85-7.74-25.07-11.92-11.84-6.02-20.45-15.55-25.31-28.08-3.18-8.19-4.5-16.86-5.22-25.54-2.88-34.94-5.73-69.89-6.86-104.94-.56-17.27-.21-34.52,3.33-51.54,1.74-8.39,4.25-16.54,8-24.25,9.74-19.98,24.71-34.26,45.7-42.08,18.53-6.91,37.74-10.5,57.37-12.1,19.75-1.61,39.55-2.05,59.36-1.86,44.89,.42,89.73-1.33,134.6-2.36,63.75-1.45,127.49-3.68,191.27-3.78,35.44-.05,70.85,.92,106.18,3.82,17.72,1.46,35.5,2.69,52.78,7.4,10.31,2.81,19.73,7.25,27.54,14.77,4.48,4.32,7.45,9.23,7.78,15.66,1.11,21.39,4.62,42.65,4.06,64.13-.77,29.28,1.23,58.47,2.43,87.68,.66,15.97,1.21,31.95,1.5,47.94,.24,13.47-.77,26.88-3.98,40.02-2.79,11.41-7.28,22.06-14.81,31.23-4.92,5.99-10.7,11.14-18.08,13.58-9.65,3.2-16.53,9.61-22.49,17.33-4.89,6.33-9.74,12.67-15.18,18.55-2.73,2.95-5.59,5.74-9.19,7.61-6.06,3.15-10.65,2.64-14.64-3.16-6.29-9.15-13.21-17.8-21.14-25.6-2.33-2.29-4.7-4.56-7.26-6.59-6.71-5.34-14.35-8.4-22.96-8.99-15.59-1.07-31.17-2.16-46.82-1.19-5.63,.35-11.22,.9-16.77,1.9-8.93,1.62-16.94,5.31-24.15,10.76-7.42,5.61-14.12,11.98-20.26,18.96-4.68,5.32-9.3,10.71-14.9,15.12-2.09,1.65-4.39,4.26-7.11,3.14-2.77-1.15-2.35-4.62-2.51-7.25-.34-5.44-.51-10.89-.64-16.33-.15-6.38-.61-12.71-2.4-18.86-2.2-7.55-6.02-10.38-13.74-10.7-44.51-1.85-89.01,.17-133.51,.26-11.42,.02-22.85,1.03-34.01,3.97-11.53,3.03-21.56,8.51-29.66,17.35-5.16,5.62-10.3,11.26-15.53,16.81-4.74,5.04-9.93,9.59-15.72,13.42-2.27,1.5-4.59,2.96-7.24,3.73-3.52,1.02-5.38,.41-7.59-2.51-1.66-2.19-2.75-4.69-3.79-7.21-3.72-8.95-5.61-18.38-7.32-27.86-.39-2.16-.18-3.93,2.05-5.01,.63-.3,1.16-.89,1.63-1.43,2.03-2.37,1.61-4.26-1.09-5.68-1.25-.65-3.02,.09-3.88-1.51v-9.35c-2.12,3.29-2.16,3.28-2.05,6.15Zm-26.41-288.96c-.33-1.14-.59-2.78-2.14-2.21-1.28,.48-.11,1.8,.06,2.7,.12,.63,.65,1.18,.99,1.76,1.93,6.99,3.28,14.1,4.48,21.24,1.86,11.06,6.01,21.24,12.46,30.43,5.75,8.19,13.25,14.33,22.39,18.44,3.01,1.35,6.17,2.15,9.48,2.1,3.3-.04,4.01-1.26,2.14-4.01-2.45-3.59-5.15-7.01-7.76-10.49-9.03-12.02-19.45-22.97-27.24-35.94-4.85-8.07-9.9-16.03-14.86-24.04Zm40.27,111.99c.53,1.49-.66,2.37-1.29,3.35-8.04,12.55-17.12,24.37-25.68,36.56-.72,1.03-1.63,1.97-2.59,2.79-6.11,5.26-11.06,11.52-15.68,18.07-9.02,12.77-17.26,26.04-24.89,39.67-1.33,2.37-2.63,4.79-3.63,7.31-1.73,4.33-.64,8.17,2.59,10.11,3.33,2,7.09,1.23,10.08-2.49,2.38-2.96,4.48-6.17,6.53-9.39,10.75-16.85,22.14-33.26,33.58-49.65,1.68-2.4,3.38-4.71,6.18-5.96,3.59-1.6,5.71-1.25,8.18,1.75,2.11,2.55,3.38,5.59,4.53,8.65,2.68,7.15,4.68,14.51,6.69,21.86,1.48,5.43,2.79,10.91,5.36,15.98,4.53,8.95,11.71,14.17,21.75,15.19,4.15,.42,8.33,.65,12.51,.76,12.69,.32,25.43-.69,38.05,1.78,3.46,.68,6.87-.36,9.85-2.36,3.47-2.33,3.96-4.82,1.56-8.28-2.54-3.65-6.26-5.41-10.51-6.2-8.6-1.61-17.26-2.35-26.01-2.22-7.26,.1-14.53,.03-21.79-.42-6.24-.39-10.14-3.49-12.11-9.23-1.59-4.64-3.04-9.32-4.57-13.97-2.67-8.1-5.1-16.3-9.04-23.92-2.8-5.41-6.4-10.13-11.93-13.08-1.07-.57-2.52-.66-3-2.29,.76-1.1,1.57-2.3,2.41-3.48,5.73-7.96,11.53-15.87,16.58-24.3,1.87-3.12,3.74-6.26,4.7-9.8,2.04-7.55-2.58-13.57-10.42-13.51-2.9,.02-5.75,.67-8.56,1.51-7.69,2.31-14.92,5.71-22.02,9.37-16.13,8.32-32.18,16.79-48.27,25.2-.64,.34-1.32,.63-1.92,1.01-1.15,.73-2.06,1.75-1.34,3.15,.72,1.41,2.13,1.16,3.37,.75,1.2-.4,2.39-.87,3.54-1.41,20.82-9.65,42.73-16.2,64.68-22.62,.79-.23,1.64-.88,2.56-.24Zm360.75,41.96c2.56,.25,3.33-.9,4.24-1.72,6.89-6.21,14.87-10.22,23.86-12.5,14.82-3.76,29.81-6.54,45.07-7.5,11.94-.75,23.6,.88,34.51,6.07,14.76,7.01,21.58,20.96,18.2,36.88-2.06,9.72-7.09,17.81-13.92,24.85-7.39,7.61-15.95,13.69-24.86,19.39-7.95,5.09-15.69,10.5-23.49,15.83-1.24,.85-2.8,1.57-3.09,3.16,1.14,1.35,2.24,.92,3.28,.71,6.93-1.4,13.88-2.76,20.79-4.28,3.37-.74,6.64-1.93,9.63-3.68,12.64-7.41,23.98-16.38,33.14-27.93,4.55-5.73,8.12-12.02,10.53-18.96,8.3-23.83-1.53-47.98-24.12-59.28-5.88-2.94-12.08-5.02-18.53-6.21-25.03-4.63-48.77,.18-71.61,10.38-10.94,4.89-17,14.72-23.63,24.78Zm-136.56,1.02c6.95,.22,13.53-1.68,20.09-3.95,18.76-6.49,31.41-20.33,43.12-35.38,.22-.29,.42-.59,.61-.9,.39-.66,.53-1.31-.05-1.96-.46-.51-1-.35-1.49-.18-1.02,.37-2.03,.8-3.01,1.26-9.34,4.43-18.65,8.92-27.63,14.08-5.83,3.35-11.81,6.34-18.16,8.62-12.41,4.46-23.48,2.59-33.36-6.31-5.54-4.99-10.74-10.3-15.9-15.67-4.15-4.32-8.41-8.52-13.08-12.3-29.14-23.65-62.39-10.4-77.87,7.16-3.87,4.39-6.79,9.4-9.44,14.58-.54,1.06-.69,2.13,.3,2.95,1.08,.89,2.07,.26,2.86-.54,2.16-2.22,4.36-4.42,7.03-5.98,9.57-5.58,19.42-10.66,30.15-13.65,12.07-3.37,23.35-1.49,33.63,5.85,3.71,2.64,7.13,5.61,10.32,8.85,4.59,4.65,9.1,9.38,13.72,14.01,4.62,4.63,9.45,9.04,15,12.56,7.04,4.47,14.61,7.24,23.16,6.91Z"/>
      <path class="cls-1" d="M371.91,360.07c-.12-2.87-.07-2.86,2.05-6.15v9.35c-.68-1.07-1.36-2.13-2.05-3.2Z"/>
      <path class="cls-9" d="M198.5,848.53c-3.93,1.67-8.21,1.36-12.31,1.94-12.07,1.71-24.28,2.21-36.4,1.14-18.15-1.61-35.86-5.35-52.11-14.17-8.48-4.6-14.19-11.65-18.21-20.29-4.91-10.55-6.91-21.77-7.4-33.24-.59-13.8,.28-27.56,1.83-41.29,.51-4.5,.74-9.04,1.05-13.55,.89-13.03,1.43-26.09,1.7-39.16,.2-9.77,.11-19.51-.27-29.26-.79-20.24-4.29-39.97-10.59-59.23-3.84-11.73-8.14-23.3-11.55-35.17-5.1-17.75,.18-32.84,11.26-46.62,9.04-11.23,20.93-18.94,32.83-26.61,6.25-4.03,12.53-8.15,19.25-11.28,11.35-5.29,23.19-9.33,35.58-11.69,13.25-2.52,26.58-3.83,40.04-3.15,23.55,1.19,45.04,8.56,64.73,21.61,19.79,13.11,33.38,31.5,45.18,51.53,9.23,15.66,17.56,31.77,23.98,48.82,6.34,16.87,10.97,34.14,13.27,52.05,1.55,12.1,2.32,24.22,1.71,36.37-.94,18.49-3.65,36.76-7.38,54.9-3.64,17.69-9.23,34.68-16.95,51-7.38,15.61-18.66,27.54-33.61,36.07-1.4,.8-3.02,1.32-3.98,2.76-2.94,1.4-5.9,2.74-8.81,4.19-16.26,8.15-33.32,13.98-51.05,17.96-1.19-.18-2.55,.16-3.36-1.14,15.97-10.94,18.51-33.37,12.96-46.81-4.87-11.8-13.5-19.22-26.38-20.69-13.3-1.52-27.11,8.33-31.11,22.86-2.19,7.97-1.2,15.8,.87,23.58,3.25,12.28,10.37,20.95,22.98,24.44,.75,.7,1.51,1.41,2.26,2.11Zm44.69-273.76c.12,.58,.48,.93,1.05,1.07,14.01,16.22,31.99,25.08,52.96,28.09,3.39,.49,7.13,1.74,11.4-.54-6.53-3.64-12.29-6.99-18.17-10.11-13.9-7.39-27.68-15.07-42.89-19.61-.54-.82-1.32-1.06-2.26-.91-.33-.1-.66-.16-.99-.2-.61-.93-1.62-1.21-2.55-1.62-.47-.21-1.05-.37-1.38,.16-.42,.68-.08,1.31,.46,1.77,.38,.32,.85,.54,1.29,.8v.02c.13,.58,.48,.94,1.06,1.06l.03,.03Zm-170.16,13.05c-.51-.09-1.02-.16-1.51-.27-.84-.19-1.88-.49-2.15,.57-.28,1.08,1.02,1.11,1.64,1.58,.25,.2,.63,.23,.96,.33,5,3.22,10.49,2.47,15.86,1.71,15.39-2.16,28.46-9.3,40.17-19.21,6.5-5.5,11.18-12.36,14.44-20.17,.53-1.28,1.9-2.78,.21-4.86-3.32,2.86-6.5,5.73-9.81,8.45-7.14,5.86-13.94,12.15-21.97,16.85-11.84,6.94-24.83,10.96-37.82,15Zm52.97,1.08c-8.14-.23-16,1.4-23.4,5.34-4.91,2.62-8.34,6.32-9.91,11.67-.72,2.45-1.79,4.7-3.11,6.9-4.71,7.85-6.44,16.65-6.21,25.55,.3,11.55,4.58,22.02,11.98,30.9,14.25,17.12,33.52,20.07,51.63,7.44,6.18-4.31,11.05-9.94,14.56-16.62,6.63-12.65,10.22-25.93,7.45-40.32-1.9-9.88-6.74-17.86-15.44-23.29-8.38-5.23-17.47-7.8-27.53-7.57Zm77.97,48.39c.17,6.19,2.25,13.08,6.92,18.93,8.07,10.12,18.41,14.88,31.52,12.42,9.95-1.86,17.65-7.45,23.84-15.08,7.97-9.83,11.95-20.95,9.63-33.83-2.2-12.18-11.79-20.68-24.12-21.02-5.79-.16-11.59,0-17.39-.02-2.79,0-5.32,.94-7.87,1.9-15.36,5.78-22.25,21.66-22.52,36.7Z"/>
      <path class="cls-9" d="M214,400.53c-4.4,.07-8.37-.11-12.26-1.16-5.98-1.62-12.22-1.25-18.29-2.19-1.08-.17-2.31-.11-2.8-1.28-.54-1.28,.58-1.96,1.37-2.64,4.27-3.72,7.46-8.38,11.03-12.7,10.9-13.17,25.01-18.61,41.89-17.25,8.02,.65,17.01,9.97,12.19,20.4-1.63,3.53-3.79,6.57-6.97,8.86-7.94,5.71-16.81,8.31-26.15,7.96Zm-14.47-7.84c.92,.03,1.69-.24,2.19-1.06,12.42-6.94,25.81-11.85,38.64-17.88-.6-1.36-1.28-1.49-2.03-1.35-14.83,2.76-28.87,7.24-39.86,18.33-.57,.05-.89,.39-1.05,.92v.03c-1.11,.77-3.04,.89-2.42,3.09,1.87,.06,3.31-.75,4.51-2.07h.02Z"/>
      <path class="cls-9" d="M161.63,391.38c-6.28,2.9-12.11,4.1-17.94,5.2-11.95,2.27-23.76,1.88-35.26-2.46-5.14-1.94-9.08-4.99-10.73-10.63-1.01-3.46-.6-6.63,1.3-9.34,5.01-7.17,11.83-10.78,20.84-10.18,7.93,.53,14.55,3.84,20.87,8.31,7.59,5.36,14.01,11.92,20.92,19.1Zm-20.05-2.94c3.67,1.91,7.6,2.19,11.61,2.14-2.54-1.8-5.32-2.74-8.24-3.26-2.22-.77-4.42-1.63-6.67-2.31-7.08-2.14-13.97-5.03-21.47-5.52-1.93-1.43-4.08-1.03-7.25-1.36,1.72,1.61,2.69,2.23,3.91,2.47,9.19,3.25,18.48,6.17,28.11,7.84Z"/>
      <path class="cls-14" d="M220.28,844.17c17.72-3.98,34.79-9.81,51.05-17.96,2.91-1.46,5.87-2.8,8.81-4.19-.54,2.36-2.76,2.68-4.44,3.63-19.97,11.17-41.76,17.21-63.79,22.51-1.55,.37-3.24,.19-4.86,.27,1.76-.7,3.47-1.66,5.3-2.04,2.71-.57,5.5-.73,7.95-2.21Z"/>
      <path class="cls-29" d="M220.28,844.17c-2.45,1.48-5.24,1.64-7.95,2.21-1.83,.39-3.54,1.34-5.3,2.04-2.85,.04-5.69,.08-8.53,.11-.75-.7-1.5-1.41-2.26-2.11,7.21,.79,14.14-.12,20.68-3.39,.81,1.3,2.17,.96,3.36,1.14Z"/>
      <path class="cls-9" d="M817.41,824.7c-10.93,.15-21.05-1.78-30.85-5.33-18.19-6.6-28.2-20.01-30.48-38.82-1-8.3,1.92-16.48,4.82-24.35,4.59-12.48,10.94-24.13,16.91-35.96,4.17-8.26,8.55-16.42,11.48-25.26,2.48-7.46,3.46-15.17,4.5-22.9,.98-7.35,1.28-14.78,3.31-22.01,3.98-14.19,13.37-23.98,25.58-31.2,10.33-6.12,21.48-10.57,33.11-13.72,1.21-.33,2.41-1.11,3.69-.6,7.84,3.11,16.41,2.82,24.41,5.24,13.6,4.11,26.84,8.88,38.43,17.51,13.24,9.85,21.15,23.18,26.18,38.51,3.36,10.24,4.93,20.86,5.02,31.57,.25,28.79-7.5,54.81-27.52,76.36-14.57,15.69-30.82,29.13-50.38,38.28-8.95,4.19-18.37,6.73-28.01,8.6-10.14,1.96-20.19,4.55-30.19,4.09Zm5.86-165.92c-.6,.18-.96,.58-1.08,1.19-.31,.85-.6,1.7-.92,2.54-2.15,5.57,.27,11.44,5.74,13.92,5.47,2.48,11.52,.19,14.07-5.4,1.45-3.18,2.06-6.56,1.7-10.05-.39-3.78-3.35-6.85-7.06-7.16-1.57-.13-3.19,.39-4.79,.62-.96-.07-1.79,.12-2.24,1.09,0,0,.01,0,.01,0-1.11-.01-2.22-.03-3.32-.04,.36-.74,.72-1.47,1.08-2.21h0c.98,.01,1.82-.19,2.1-1.3,4.35-3.58,8.19-7.61,11.09-12.47,2.04-3.42,3.97-6.91,5.17-10.73,.37-1.18,.53-2.65-.68-3.49-1.15-.79-2.44-.43-3.55,.34-.89,.62-1.83,1.19-2.64,1.91-3.5,3.14-7.1,6.12-11,8.79-8.57,5.88-15,14.1-22.47,21.19-.87,.83-1.95,1.96-1.15,3.29,.85,1.41,2.21,.54,3.43,.37,4.16-.59,7.78-2.92,11.89-3.65,1,.13,1.88,0,2.32-1.06h-.02c.96,.1,1.79-.1,2.19-1.11h-.02c.76,.05,1.52,.08,2.28,.11-.35,.76-.69,1.52-1.04,2.28l.02-.03c-.59,.14-.97,.5-1.13,1.08l.02-.02Zm85.09,15.11c.15,.63,.54,1.01,1.16,1.14,1.12,.92,2.17,1.92,3.35,2.74,5.62,3.93,11.57,4.88,17.91,1.82,.95-.46,2.15-.82,2.06-2.17-.07-1.15-1.21-1.16-2.01-1.49-2.68-1.12-5.32-2.29-7.73-3.94-7.53-5.15-12.89-12.07-16.84-20.21-.79-1.63-1.14-3.72-3.37-4.65v15.82c-.08,1.27-.35,2.61,1.1,3.39l-.02-.04c-.07,.96,.12,1.78,1.1,2.22l-.02-.03c-.02,.75-.03,1.5-.05,2.25-3.62-2.97-6.91-5.95-12.4-5.63-10.01,.58-16.29,10.16-11.91,19.12,2.69,5.51,8.77,8.72,14.17,7.48,7.83-1.79,11.14-5.69,11.28-12.96,.05-2.76-.38-5.4-1.15-8.02,.4-.03,.81-.06,1.21-.09h-.05c.33,.4,.66,.8,.99,1.19v.02c.04,.93,.26,1.74,1.27,2.06l-.06-.04Zm-66.92,42.88c-.93,1.26-1.67,2.25-2.38,3.25-4.74,6.68-8.91,13.69-12.37,21.11-2.09,4.49-4.95,8.45-8.67,11.76-5.13,4.55-9.08,4.83-14.69,1.05-1.97-1.33-3.71-2.87-5.09-4.85-.69-.99-1.58-2.25-3.09-1.53-1.07,.51-1.17,1.73-1.32,2.83-1.31,9.65,4.35,18.01,13.81,20.63,2.77,.77,6.61-.18,8.16,1.93,1.64,2.23,1.39,5.84,2.02,8.83,.26,1.24,.6,2.47,1,3.67,1.51,4.61,4.24,8.43,7.91,11.52,6.18,5.21,14.92,4.62,22.52-1.26,5.37-4.16,9.59-9.33,13.66-14.68,1.45-1.91,2.75-3.88,2.86-6.34,.12-2.44,1.39-3.34,3.72-3.8,4.49-.88,8.49-3.13,12.47-5.33,.93-.51,2.12-1.06,1.79-2.39-.3-1.22-1.58-1.45-2.61-1.59-4.31-.58-8.62-1.2-12.95-1.5-8.39-.58-13.44-5.21-16.78-12.63-3.46-7.67-5.66-15.67-7.47-23.82-.5-2.26-.83-4.58-2.51-6.86Z"/>
      <path class="cls-9" d="M586.33,811.31c-7.94,4.29-15.58,9.13-23.88,12.75-9.06,3.95-18.43,6.6-28.41,5.63-10.26-1-20.33-3.11-30.33-5.64-2.78-.7-5.47-1.96-8.44-1.83-.77-.89-1.91-.97-2.92-1.34-8.05-2.96-15.88-6.51-22.28-12.27-18.39-16.54-30.86-36.28-33.1-61.65-1.68-18.97-.7-37.63,4.75-55.93,1.28-4.31,2.78-8.51,6.23-11.88,9.07-8.85,14.45-19.82,17.61-31.98,.77-2.97,.74-6.17,2.19-8.94,5.91-11.28,7.68-23.29,6.65-35.86-.27-3.25-.19-6.53-.1-9.79,.08-2.83,1.26-4.54,4.47-5.08,4.45-.75,8.81-2.09,12.96-3.99,1.35,.08,2.18,.67,2.16,2.13-1.19,1.82-2.46,3.6-3.57,5.47-7.68,12.94-9.22,26.58-4.04,40.74,3.44,9.42,9.79,16.01,19.85,18.45,8.42,2.04,16.58,1.03,24.48-2.26,15.27-6.36,25.29-17.97,31.75-32.78,4.01-9.19,5.06-18.86,2.44-28.74-5.1-19.3-27.68-26.55-40.53-17.76-1.52,1.04-3.23,1.68-5.12,1.57-3.56-.21-6.78,1.02-10,2.27-.9,0-1.68,.23-2.11,1.12h-.01c-.88-.49-1.04-1.34-1.14-2.23v.02c.93-.4,1.16-1.19,1.17-2.11,1.4-3.15,3-6.23,3.35-9.75,1.37-1.22,1.05-2.86,1.1-4.4h0c1.27-1.48,1.85-3.1,1.42-5.16-1.82,.52-2.1,1.81-2.62,2.91h0c-.58,.16-.93,.53-1.02,1.13l-.02,.03c-1.78,.88-3.05,2.2-3.53,4.18-8.79,7.99-17.54,16.04-26.93,23.06-1.45-1.16-1.3-2.14-1.04-2.94,1.53-4.73,1.41-9.71,1.78-14.54,.8-10.5,4.91-19.42,12.26-26.59,12.29-12.01,27.65-18.39,44.06-22.46,14.04-3.48,28.36-3.7,42.72-3.46,17.77,.3,34.93,3.71,51.49,10.12,18.19,7.04,30.69,19.63,36.73,38.3,3.09,9.55,4.4,19.47,4.81,29.43,.44,10.69,.24,21.37-.78,32.09-1.42,15.03-4.25,29.76-7.55,44.44-4.11,18.28-10.7,35.8-16.77,53.46-7.7,22.42-17.62,43.74-31.97,62.81-6.79,9.02-14.19,17.44-22.81,24.75-1.79,1.52-4.04,2.48-5.38,4.53Zm-82.24-48.7c-.46,3.16-1.28,5.99-1.23,8.81,.29,16.77,15.68,28.73,31.87,24.2,13.39-3.74,23.92-11.9,31.09-23.98,.94-1.59,1.9-2.37,3.62-2.8,2.63-.66,5.24-1.51,7.74-2.55,2.85-1.19,5.56-2.74,7.58-5.17,1.95-2.35,2.75-6.57,1.38-8.12-1.99-2.25-4.62-2.46-7.48-1.79-1.61,.38-3.11,.93-4.61,1.6-1.82,.81-3.64,1.65-5.54,2.24-6.97,2.16-12.38,.24-16.48-5.86-1.31-1.95-2.64-3.99-3.42-6.17-5.04-14.13-11.66-27.79-13.32-42.97-.06-.53-.15-1.11-.39-1.57-.74-1.4-1.77-1.83-2.98-.53-.48,.52-.89,1.17-1.14,1.83-2.6,6.99-6.69,13.29-9.3,20.28-1.65,4.41-2.87,9.01-5.34,13.09-4.33,7.14-9.92,12.49-18.83,13.02-4.05,.24-6.99-1.34-8.72-5.14-.97-2.14-1.98-4.33-3.36-6.21-2.94-3.99-6.5-3.66-8.93,.69-1.07,1.91-1.92,4.02-1.63,6.23,1.52,11.73,9.07,18.97,18.56,20.79,3.61,.69,7.12-.23,10.87,.1Zm94.24-115.5c19.46-.72,31.33-9.42,39.24-23.98,5.26-9.68,6.56-19.84,2.45-30.39-4.76-12.21-19.57-20.01-32.37-16.9-6.53,1.59-12.53,4.64-16.28,10.16-4.66,6.87-10.36,13.02-14.13,20.49-.41,.81-.81,1.63-1.15,2.47-8.25,20.53,8.12,39.54,22.23,38.15Zm67.33-46.62c.35-.81,.07-1.44-.35-2.05-9.46-13.76-18.91-27.52-28.37-41.27-.31-.45-.67-.86-1.07-1.23-.76-.72-1.47-1.96-2.67-1.39-1.49,.72-.91,2.27-.61,3.38,.52,1.92,1.29,3.78,2.08,5.6,2.72,6.32,4.56,13.1,8.6,18.75,5.01,7,11.49,12.57,18.51,17.49,1.1,.78,2.38,1.87,3.88,.71Z"/>
      <path class="cls-14" d="M491.71,583.49c-4.14,1.9-8.5,3.25-12.96,3.99-3.2,.54-4.39,2.25-4.47,5.08-.09,3.26-.16,6.55,.1,9.79,1.03,12.57-.74,24.58-6.65,35.86-1.45,2.77-1.42,5.97-2.19,8.94-3.16,12.16-8.54,23.14-17.61,31.98-3.45,3.37-4.94,7.57-6.23,11.88-5.45,18.3-6.43,36.96-4.75,55.93,2.24,25.37,14.71,45.11,33.1,61.65,6.4,5.76,14.23,9.31,22.28,12.27,1.01,.37,2.15,.45,2.92,1.34-2.89,.61-5.22-1.04-7.78-1.86-8.93-2.87-16.13-8.11-22.88-14.59-7.97-7.64-14.17-16.44-19.63-25.86-2.91-5.02-5.06-10.44-6.55-16.06-.42-1.6-.75-3.23-1.73-4.51-1.08-1.42-1.67-2.68-.8-4.45,.41-.82,.08-1.83-.58-2.53-1.48-1.56-1.14-3.14-.59-5.02,.73-2.48,.26-4.74-1.41-7.1-2.81-3.98-2.77-9.19-.42-12.79,2.66-4.07,2.21-7.92,1.86-11.92-.17-2.01-1-3.8,.66-5.53,.34-.36,.71-1.09,.57-1.47-1.62-4.26,1.45-7.52,2.35-11.22,.89-3.69,2.13-7.29,3.31-10.9,1.08-3.32,2.88-6.17,5.43-8.65,9.23-9.01,14.44-20.3,17.19-32.65,1-4.49,2.48-8.73,4.32-12.8,5.21-11.52,5.73-23.41,3.73-35.6-.5-3.05,.75-5.71,1.39-8.49,1.09-4.69,3.37-9.17,2.06-14.19,2.88-10.98,2.32-22.92,10.12-32.53,4.78-5.88,10.26-10.69,16.63-14.58,10.57-6.45,21.79-11.48,34.02-13.65,6.72-1.2,13.39-2.64,20.31-3.04,5.94-.34,11.91-1.12,17.85-.78,9.16,.52,18.29,1.08,27.4,2.83,10,1.92,19.79,4.25,29.14,8.17,8.48,3.56,16.59,7.7,23.16,14.58,7.78,8.15,12.07,17.9,15.09,28.48,1.69,5.93,2.06,12.07,3.21,18.09,.3,1.58,.04,3.24,1.48,4.48,.75,.65,.54,1.6,.4,2.54-1.13,7.55-1.21,15.11,.03,22.67,.11,.69,.22,1.52-.06,2.11-2.55,5.36-2.53,11.1-2.95,16.84-.53,7.18-2.43,14.22-3.34,21.34-.84,6.54-2.53,12.77-4.34,19.04-1.85,6.42-3.2,13.02-5.47,19.29-7.95,21.93-14.1,44.56-25.16,65.28-7,13.11-14.96,25.62-24.69,36.91-2.36,2.74-3.25,6.47-6.24,8.72-.27,.21-.34,.73-.62,.88-5.37,2.81-9.33,7.86-15.36,9.61,1.34-2.05,3.59-3.02,5.38-4.54,8.63-7.31,16.02-15.73,22.81-24.75,14.35-19.07,24.27-40.39,31.97-62.81,6.07-17.66,12.66-35.18,16.77-53.46,3.3-14.67,6.13-29.41,7.55-44.44,1.01-10.72,1.22-21.39,.78-32.09-.41-9.97-1.73-19.89-4.81-29.43-6.04-18.67-18.54-31.26-36.73-38.3-16.56-6.41-33.71-9.81-51.49-10.12-14.36-.24-28.69-.02-42.72,3.46-16.41,4.07-31.77,10.45-44.06,22.46-7.35,7.18-11.46,16.09-12.26,26.59-.37,4.84-.25,9.81-1.78,14.54-.26,.8-.41,1.78,1.04,2.94,9.39-7.02,18.14-15.07,26.93-23.06,2.01-.69,3.28-2,3.52-4.18,0,0,.02-.03,.01-.03,.34-.38,.68-.75,1.02-1.13,0,0,0,0,0,0,.89,.49,1.03,1.38,1.2,2.26,0,0,0,0,0,0-1.74,1.12-1.1,2.84-1.1,4.4-.35,3.51-1.95,6.59-3.35,9.75-.88,.43-1.16,1.2-1.18,2.11,0,0,0-.02,.01-.02-2.13,1.24-2.79,3.68-4.36,5.37-.67,.09-1.34,.17-2.01,.26,.48-.75,.9-1.56,1.47-2.24,2.7-3.22,4.64-6.89,6.42-10.66,.66-1.4,1.17-2.87-.46-3.81-1.23-.71-1.96,.61-2.62,1.34-3.12,3.48-7,6.13-10.28,9.37-3.49,3.44-7.27,6.39-11.18,9.24-.87,.64-1.72,1.33-2.5,2.07-.63,.6-1.48,1.29-.78,2.28,.59,.83,1.48,.58,2.43,.49,3.45-.34,6.27-2.88,9.84-2.72-.04,.34-.08,.69-.12,1.03Z"/>
      <path class="cls-14" d="M385.77,183.11c-.92-.64-1.77,0-2.56,.24-21.95,6.42-43.86,12.97-64.68,22.62-1.15,.53-2.34,1.01-3.54,1.41-1.24,.41-2.64,.65-3.37-.75-.72-1.4,.19-2.41,1.34-3.15,.61-.39,1.28-.68,1.92-1.01,16.08-8.41,32.14-16.89,48.27-25.2,7.1-3.66,14.33-7.06,22.02-9.37,2.81-.84,5.66-1.49,8.56-1.51,7.84-.06,12.46,5.96,10.42,13.51-.96,3.53-2.83,6.68-4.7,9.8-5.04,8.43-10.85,16.34-16.58,24.3-.84,1.17-1.65,2.38-2.41,3.48,.49,1.63,1.94,1.72,3,2.29,5.53,2.95,9.13,7.67,11.93,13.08,3.94,7.62,6.37,15.82,9.04,23.92,1.54,4.65,2.98,9.34,4.57,13.97,1.97,5.74,5.87,8.84,12.11,9.23,7.26,.45,14.53,.53,21.79,.42,8.76-.12,17.42,.62,26.01,2.22,4.25,.79,7.97,2.55,10.51,6.2,2.4,3.46,1.91,5.94-1.56,8.28-2.98,2-6.39,3.04-9.85,2.36-12.61-2.47-25.35-1.45-38.05-1.78-4.17-.11-8.35-.34-12.51-.76-10.04-1.01-17.21-6.23-21.75-15.19-2.56-5.07-3.88-10.55-5.36-15.98-2.01-7.36-4-14.72-6.69-21.86-1.15-3.06-2.42-6.1-4.53-8.65-2.47-3-4.59-3.35-8.18-1.75-2.8,1.25-4.51,3.55-6.18,5.96-11.43,16.39-22.83,32.79-33.58,49.65-2.05,3.21-4.14,6.42-6.53,9.39-3,3.72-6.75,4.49-10.08,2.49-3.23-1.94-4.31-5.78-2.59-10.11,1-2.52,2.3-4.94,3.63-7.31,7.64-13.64,15.88-26.9,24.89-39.67,4.62-6.54,9.57-12.81,15.68-18.07,.96-.82,1.86-1.76,2.59-2.79,8.55-12.19,17.64-24.01,25.68-36.56,.63-.99,1.82-1.86,1.29-3.35Z"/>
      <path class="cls-14" d="M746.53,225.06c6.63-10.06,12.69-19.89,23.63-24.78,22.84-10.2,46.58-15.01,71.61-10.38,6.45,1.19,12.65,3.27,18.53,6.21,22.59,11.29,32.42,35.45,24.12,59.28-2.41,6.93-5.99,13.22-10.53,18.96-9.16,11.54-20.5,20.52-33.14,27.93-3,1.76-6.26,2.94-9.63,3.68-6.91,1.52-13.85,2.88-20.79,4.28-1.03,.21-2.14,.64-3.28-.71,.3-1.59,1.85-2.31,3.09-3.16,7.79-5.33,15.53-10.75,23.49-15.83,8.9-5.7,17.47-11.78,24.86-19.39,6.84-7.04,11.86-15.14,13.92-24.85,3.38-15.93-3.44-29.87-18.2-36.88-10.92-5.19-22.57-6.82-34.51-6.07-15.26,.96-30.24,3.74-45.07,7.5-8.99,2.28-16.98,6.29-23.86,12.5-.91,.82-1.68,1.97-4.24,1.72Z"/>
      <path class="cls-14" d="M609.97,226.08c-8.55,.34-16.12-2.44-23.16-6.91-5.55-3.52-10.38-7.93-15-12.56-4.61-4.63-9.13-9.35-13.72-14.01-3.19-3.24-6.62-6.21-10.32-8.85-10.28-7.33-21.56-9.21-33.63-5.85-10.73,2.99-20.57,8.07-30.15,13.65-2.67,1.56-4.87,3.76-7.03,5.98-.78,.81-1.78,1.43-2.86,.54-.99-.82-.85-1.89-.3-2.95,2.66-5.18,5.58-10.2,9.44-14.58,15.48-17.56,48.73-30.8,77.87-7.16,4.67,3.79,8.93,7.98,13.08,12.3,5.16,5.37,10.36,10.68,15.9,15.67,9.88,8.91,20.96,10.77,33.36,6.31,6.35-2.28,12.33-5.27,18.16-8.62,8.97-5.16,18.28-9.65,27.63-14.08,.98-.47,1.99-.89,3.01-1.26,.48-.18,1.03-.34,1.49,.18,.58,.65,.45,1.3,.05,1.96-.19,.31-.39,.61-.61,.9-11.7,15.04-24.36,28.88-43.12,35.38-6.56,2.27-13.14,4.17-20.09,3.95Z"/>
      <path class="cls-14" d="M345.51,71.11c4.96,8.01,10.01,15.97,14.86,24.04,7.79,12.96,18.22,23.92,27.24,35.94,2.61,3.48,5.31,6.9,7.76,10.49,1.87,2.75,1.16,3.96-2.14,4.01-3.31,.04-6.47-.75-9.48-2.1-9.14-4.11-16.63-10.25-22.39-18.44-6.45-9.19-10.6-19.37-12.46-30.43-1.2-7.15-2.55-14.25-4.48-21.24,.29-.79,.15-1.78,1.08-2.25Z"/>
      <path class="cls-17" d="M345.51,71.11c-.93,.48-.79,1.47-1.08,2.25-.35-.58-.87-1.13-.99-1.76-.18-.9-1.35-2.23-.06-2.7,1.55-.58,1.81,1.07,2.14,2.21Z"/>
      <path class="cls-14" d="M126,588.9c10.06-.23,19.15,2.34,27.53,7.57,8.7,5.43,13.54,13.41,15.44,23.29,2.77,14.39-.81,27.67-7.45,40.32-3.5,6.68-8.38,12.31-14.56,16.62-18.11,12.63-37.37,9.68-51.63-7.44-7.39-8.88-11.68-19.35-11.98-30.9-.23-8.91,1.5-17.7,6.21-25.55,1.32-2.2,2.39-4.45,3.11-6.9,1.57-5.35,5-9.05,9.91-11.67,7.41-3.94,15.26-5.58,23.4-5.34Zm25.52,66.56c.96-.38,1.33-1.1,1.2-2.1,4.19-7.83,6.59-16.11,6.3-25.07-.42-12.99-6.93-21.06-19.48-24.18-6.83-1.7-13.68-1.46-20.56-.41-8.83,1.34-15.19,6.53-20.59,13.2-1.17,1.45-1.89,3.11-2.15,4.94-.66,4.86-1.48,9.7-1.35,14.64,.26,10.21,3.66,19.27,10.45,26.85,6.4,7.14,14.21,11.26,24.21,9.46,1.36,.3,2.47,.14,2.78-1.75-2.32-.81-4.65-1.63-6.98-2.44-5.37-4.15-6.79-9.66-4.83-15.89,1.85-5.87,6.29-9.05,12.34-9.93,3.14-.45,6.07,.46,8.88,1.79,1.36,2.36,3.83,3.73,5.22,6.12,1.37,2.36,1.08,5.16,2.12,7.94,1.48-.99,2.41-1.72,2.43-3.17h0Z"/>
      <path class="cls-14" d="M216.92,843.03c-6.54,3.27-13.47,4.18-20.68,3.39-12.61-3.49-19.72-12.17-22.98-24.44-2.06-7.79-3.06-15.61-.87-23.58,4-14.53,17.81-24.38,31.11-22.86,12.88,1.47,21.51,8.89,26.38,20.69,5.54,13.44,3.01,35.87-12.96,46.81Zm2.59-31.27c.07-3.87-.61-7.57-2.37-11.05-2.83-5.62-8.5-9.32-13.88-8.74-6.11,.66-9.74,4.56-11.65,10.05-1.12,3.23-1.42,6.74-2.46,10-1.96,6.2,.42,10.95,4.64,15.17,6.22,6.2,14.86,5.86,20.51-.85,3.53-4.19,4.91-9.2,5.2-14.58Z"/>
      <path class="cls-14" d="M203.98,637.28c.27-15.05,7.16-30.93,22.52-36.7,2.55-.96,5.08-1.91,7.87-1.9,5.8,.02,11.6-.14,17.39,.02,12.33,.35,21.92,8.84,24.12,21.02,2.32,12.87-1.66,24-9.63,33.83-6.19,7.64-13.89,13.22-23.84,15.08-13.1,2.45-23.44-2.3-31.52-12.42-4.66-5.85-6.74-12.74-6.92-18.93Zm49.29,12.63c6.73-6.58,11.71-14,11.83-23.95,.13-10.42-5.13-16.32-15.52-17.27-3.43-.31-6.9-.31-10.35-.25-9.9,.17-17.08,4.75-20.83,13.92-3.89,9.49-3.93,18.81,3.09,27.15,1.5,1.79,2.98,3.55,5.94,2.88,2.75-.63,2.37-2.79,2.97-4.58,1.54-4.56,4.66-7.29,9.5-7.8,4.79-.51,8.78,1.82,11.14,6.24,.57,1.07,.43,2.51,2.22,3.65Z"/>
      <path class="cls-15" d="M73.03,587.82c12.99-4.04,25.98-8.07,37.82-15,8.03-4.7,14.83-10.99,21.97-16.85,3.31-2.72,6.5-5.59,9.81-8.45,1.69,2.07,.32,3.58-.21,4.86-3.26,7.81-7.94,14.66-14.44,20.17-11.71,9.91-24.78,17.05-40.17,19.21-5.37,.75-10.86,1.5-15.86-1.71,.36-.74,.71-1.48,1.07-2.21Z"/>
      <path class="cls-15" d="M247.54,573.66c15.21,4.54,28.99,12.22,42.89,19.61,5.88,3.13,11.65,6.47,18.17,10.11-4.27,2.28-8.02,1.03-11.4,.54-20.97-3.01-38.95-11.87-52.96-28.09-.35-.36-.7-.71-1.05-1.07,0,0-.03-.03-.03-.03-.35-.35-.71-.71-1.06-1.06,0,0,0-.02,0-.02,.46-.9,1.34-.98,2.19-1.11,.34,.04,.67,.1,.99,.2,.54,.82,1.34,1,2.26,.91Z"/>
      <path class="cls-16" d="M244.29,572.55c-.85,.13-1.73,.21-2.19,1.11-.43-.26-.91-.48-1.29-.8-.54-.46-.88-1.08-.46-1.77,.33-.53,.91-.37,1.38-.16,.93,.41,1.95,.69,2.55,1.62Z"/>
      <path class="cls-11" d="M73.03,587.82c-.36,.74-.71,1.48-1.07,2.21-.32-.11-.7-.14-.96-.33-.61-.47-1.91-.5-1.64-1.58,.27-1.06,1.31-.76,2.15-.57,.5,.11,1.01,.18,1.51,.27Z"/>
      <path class="cls-16" d="M247.54,573.66c-.91,.09-1.71-.1-2.26-.91,.94-.15,1.71,.09,2.26,.91Z"/>
      <path class="cls-16" d="M242.1,573.68c.35,.35,.71,.71,1.06,1.06-.58-.13-.93-.48-1.06-1.06Z"/>
      <path class="cls-16" d="M243.19,574.77c.35,.36,.7,.72,1.05,1.07-.57-.14-.93-.49-1.05-1.07Z"/>
      <path class="cls-22" d="M198.46,390.72c11-11.09,25.03-15.57,39.86-18.33,.75-.14,1.43,0,2.03,1.35-12.83,6.03-26.22,10.94-38.64,17.88-.92-.03-1.71,.19-2.19,1.06,0,0-.02,0-.02,0-.84-.06-1.66-.15-2.1-1.03,0,0,0-.03,0-.03,.35-.31,.7-.61,1.05-.92Z"/>
      <path class="cls-23" d="M197.4,391.67c.44,.88,1.26,.96,2.1,1.03-1.2,1.32-2.64,2.12-4.51,2.07-.62-2.2,1.31-2.32,2.41-3.09Z"/>
      <path class="cls-23" d="M199.52,392.69c.48-.87,1.27-1.09,2.19-1.06-.5,.83-1.27,1.1-2.19,1.06Z"/>
      <path class="cls-23" d="M198.46,390.72c-.35,.31-.7,.61-1.05,.92,.15-.53,.48-.87,1.05-.92Z"/>
      <path class="cls-18" d="M116.81,379.49c7.5,.49,14.39,3.38,21.47,5.52,2.25,.68,4.45,1.53,6.67,2.31-.82,1.29-2.19,.92-3.37,1.12-9.63-1.67-18.92-4.59-28.11-7.83,.82-1.25,2.19-.86,3.34-1.11Z"/>
      <path class="cls-20" d="M141.58,388.44c1.18-.21,2.55,.17,3.37-1.12,2.93,.52,5.7,1.46,8.24,3.26-4.01,.05-7.94-.23-11.61-2.14Z"/>
      <path class="cls-25" d="M116.81,379.49c-1.15,.25-2.52-.14-3.34,1.11-1.21-.24-2.18-.86-3.9-2.47,3.17,.32,5.32-.07,7.25,1.36Z"/>
      <path class="cls-14" d="M841.44,716.78c1.68,2.28,2,4.6,2.51,6.86,1.81,8.15,4.01,16.16,7.47,23.82,3.34,7.41,8.39,12.05,16.78,12.63,4.33,.3,8.64,.92,12.95,1.5,1.02,.14,2.31,.37,2.61,1.59,.32,1.33-.87,1.87-1.79,2.39-3.97,2.21-7.97,4.45-12.47,5.33-2.33,.46-3.6,1.36-3.72,3.8-.12,2.46-1.41,4.43-2.86,6.34-4.07,5.35-8.29,10.52-13.66,14.68-7.6,5.88-16.34,6.47-22.52,1.26-3.67-3.1-6.4-6.91-7.91-11.52-.39-1.2-.74-2.43-1-3.67-.63-2.99-.38-6.59-2.02-8.83-1.55-2.11-5.38-1.16-8.16-1.93-9.46-2.62-15.12-10.98-13.81-20.63,.15-1.1,.26-2.32,1.32-2.83,1.5-.72,2.39,.53,3.09,1.53,1.38,1.98,3.12,3.52,5.09,4.85,5.61,3.78,9.55,3.51,14.69-1.05,3.72-3.3,6.58-7.26,8.67-11.76,3.46-7.43,7.63-14.44,12.37-21.11,.71-1.01,1.46-1.99,2.38-3.25Zm-1.69,36.47c-4.53,6.94-9.25,12.86-16.33,16.34-1.55,.76-1.26,1.91-.64,3.2,2.52,5.29,5.75,10.11,9.85,14.29,2.65,2.7,4.43,2.84,7.84,1.1,2.29-1.17,4.18-2.87,5.98-4.69,3.84-3.88,6.8-8.44,10.12-12.76q-10.21-5.75-16.81-17.49Z"/>
      <path class="cls-15" d="M818.65,657.53c-4.11,.73-7.72,3.06-11.89,3.65-1.22,.17-2.59,1.05-3.43-.37-.8-1.33,.28-2.46,1.15-3.29,7.47-7.09,13.9-15.31,22.47-21.19,3.9-2.68,7.49-5.66,11-8.79,.8-.72,1.74-1.3,2.64-1.91,1.12-.77,2.41-1.13,3.55-.34,1.22,.84,1.06,2.31,.68,3.49-1.2,3.81-3.13,7.3-5.17,10.73-2.9,4.86-6.74,8.89-11.09,12.48-.88,.14-1.67,.43-2.1,1.3,0,0,0,0,0,0-1.5,.08-2.62,.78-3.35,2.09,0,0,.02-.01,.02-.01-.92,.01-1.71,.26-2.19,1.12,0,0,.02-.01,.02-.01-.94,0-1.75,.27-2.32,1.06Z"/>
      <path class="cls-15" d="M830.94,654.45c1.6-.23,3.22-.75,4.79-.62,3.71,.31,6.66,3.38,7.06,7.16,.36,3.48-.25,6.87-1.7,10.05-2.56,5.6-8.61,7.89-14.07,5.4-5.47-2.49-7.89-8.35-5.74-13.92,.32-.84,.62-1.69,.92-2.54,.36-.4,.72-.8,1.08-1.19,0,0-.02,.02-.02,.02,.38-.36,.76-.72,1.13-1.08,0,0-.02,.03-.02,.03,1.69-.27,3.23-.84,4.35-2.22,0,0-.01,0-.01,0,.93,.02,1.72-.26,2.24-1.09Z"/>
      <path class="cls-15" d="M902.9,662.96v-15.82c2.23,.94,2.58,3.02,3.37,4.65,3.95,8.14,9.3,15.06,16.84,20.21,2.42,1.65,5.06,2.82,7.73,3.94,.8,.33,1.94,.34,2.01,1.49,.09,1.35-1.11,1.71-2.06,2.17-6.34,3.06-12.29,2.11-17.91-1.82-1.18-.83-2.24-1.82-3.36-2.74-.39-.38-.78-.76-1.16-1.14,0,0,.06,.04,.06,.04-.05-.91-.38-1.65-1.26-2.06,0,0-.01-.02-.01-.02-.11-.58-.43-.99-.99-1.2,0,0,.05,0,.04,0-.04-.9-.29-1.68-1.15-2.15,0,0,.02,.03,.02,.03-.02-.91-.25-1.72-1.09-2.22,0,0,.02,.04,.02,.04,0-1.25-.05-2.48-1.1-3.39Z"/>
      <path class="cls-27" d="M904.99,670.74c.77,2.62,1.2,5.25,1.15,8.02-.14,7.27-3.46,11.17-11.28,12.96-5.4,1.24-11.48-1.97-14.17-7.48-4.37-8.95,1.9-18.53,11.91-19.12,5.49-.32,8.77,2.66,12.4,5.63,0,0,0,0,0,0Zm-12.12,19.61c6.81-.12,12.11-5.44,12.03-12.11-.07-6.65-5.49-11.85-12.31-11.84-6.66,.01-11.72,5.43-11.58,12.39,.13,6.6,5.34,11.67,11.86,11.56Z"/>
      <path class="cls-19" d="M828.71,655.53c-1.12,1.38-2.66,1.95-4.35,2.22,.35-.76,.69-1.52,1.04-2.28,0,0-.02,.01-.02,.01,1.11,.01,2.22,.03,3.32,.04Z"/>
      <path class="cls-19" d="M823.12,655.37c.73-1.31,1.85-2.01,3.35-2.09-.36,.74-.72,1.47-1.08,2.21,0,0,.02-.01,.02-.01-.76-.03-1.52-.07-2.28-.1Z"/>
      <path class="cls-27" d="M902.9,662.96c1.05,.91,1.09,2.14,1.1,3.39-1.45-.78-1.18-2.11-1.1-3.39Z"/>
      <path class="cls-19" d="M830.94,654.45c-.52,.83-1.3,1.11-2.24,1.09,.45-.97,1.28-1.16,2.24-1.09Z"/>
      <path class="cls-19" d="M820.96,656.48c.48-.86,1.28-1.11,2.19-1.12-.4,1.01-1.23,1.21-2.19,1.12Z"/>
      <path class="cls-19" d="M818.65,657.53c.57-.79,1.39-1.07,2.32-1.06-.45,1.07-1.33,1.19-2.32,1.06Z"/>
      <path class="cls-19" d="M826.47,653.28c.43-.87,1.22-1.16,2.1-1.3-.28,1.11-1.13,1.31-2.1,1.3Z"/>
      <path class="cls-27" d="M903.97,666.31c.84,.51,1.08,1.31,1.09,2.22-.97-.44-1.17-1.27-1.09-2.22Z"/>
      <path class="cls-27" d="M905.05,668.51c.86,.46,1.11,1.25,1.15,2.15-.4,.03-.8,.06-1.21,.09,0,0,0,0,0,0l.05-2.25Z"/>
      <path class="cls-27" d="M907.16,671.87c.88,.41,1.21,1.15,1.26,2.06-1.01-.33-1.23-1.14-1.26-2.06Z"/>
      <path class="cls-19" d="M824.38,657.72c-.38,.36-.76,.72-1.13,1.08,.17-.58,.54-.95,1.13-1.08Z"/>
      <path class="cls-19" d="M823.27,658.79c-.36,.4-.72,.8-1.08,1.19,.12-.62,.48-1.01,1.08-1.19Z"/>
      <path class="cls-27" d="M906.15,670.65c.56,.21,.88,.61,.99,1.2-.33-.4-.66-.8-.99-1.2Z"/>
      <path class="cls-27" d="M908.36,673.9c.39,.38,.78,.76,1.16,1.14-.63-.14-1.02-.52-1.16-1.14Z"/>
      <path class="cls-14" d="M504.1,762.6c-3.74-.33-7.26,.59-10.87-.1-9.49-1.82-17.04-9.06-18.56-20.79-.29-2.21,.56-4.32,1.63-6.23,2.43-4.36,5.99-4.68,8.93-.69,1.38,1.88,2.38,4.07,3.36,6.21,1.73,3.8,4.67,5.39,8.72,5.14,8.91-.53,14.5-5.88,18.83-13.02,2.47-4.07,3.7-8.68,5.34-13.09,2.61-7,6.7-13.29,9.3-20.28,.25-.66,.66-1.32,1.14-1.83,1.21-1.3,2.24-.87,2.98,.53,.24,.46,.33,1.04,.39,1.57,1.67,15.18,8.28,28.84,13.32,42.97,.78,2.19,2.11,4.22,3.42,6.17,4.09,6.11,9.51,8.02,16.48,5.86,1.9-.59,3.72-1.43,5.54-2.24,1.5-.67,2.99-1.22,4.61-1.6,2.86-.67,5.49-.46,7.48,1.79,1.37,1.55,.57,5.78-1.38,8.12-2.02,2.43-4.73,3.98-7.58,5.17-2.5,1.04-5.11,1.89-7.74,2.55-1.72,.43-2.68,1.21-3.62,2.8-7.17,12.08-17.7,20.24-31.09,23.98-16.19,4.53-31.57-7.43-31.87-24.2-.05-2.82,.76-5.65,1.23-8.81Zm27.35-21.97c-2.41,3.81-4.78,7.66-7.96,10.91-3.34,3.41-7.21,6.05-11.44,8.21-1.93,.99-1.06,2.49-.47,3.74,2.18,4.6,4.78,8.96,7.83,13.04,4.94,6.63,10.8,7.97,18.09,4.06,4.69-2.52,8.48-6.17,12-10.13,1.6-1.79,1.44-2.91-.66-4.23-7.91-5-12.38-12.52-15.24-21.2-.48-1.46-.21-3.33-2.14-4.4Z"/>
      <path class="cls-14" d="M509.12,572.58c3.22-1.25,6.44-2.48,10-2.27,1.89,.11,3.6-.52,5.12-1.57,12.85-8.79,35.43-1.53,40.53,17.76,2.61,9.88,1.57,19.55-2.44,28.74-6.46,14.81-16.48,26.41-31.75,32.78-7.9,3.29-16.06,4.31-24.48,2.26-10.06-2.44-16.41-9.03-19.85-18.45-5.17-14.16-3.64-27.8,4.04-40.74,1.11-1.87,2.38-3.65,3.57-5.47,2.59-1.74,3.83-4.91,6.7-6.34,.35-.39,.69-.78,1.04-1.17,1.8-1.47,3.6-2.94,5.39-4.41,0,0,.01,0,.01,0,.91,.02,1.67-.25,2.11-1.12Zm-3.48,63.73c-1.01-3.55-1.13-6.89,.21-10.25,3.51-8.78,16.26-16.41,25.64-15.28,5.79,.7,9.15,4.14,9.77,9.88,.1,.89-.86,2.2,.99,2.73,5.27-5.35,9.12-11.63,11.17-18.93,1.09-3.88,1.39-7.86,.63-11.87-1.5-7.86-6.35-12.62-14.24-13.56-5.41-.64-10.86-.91-16.29-1.38-2.67-.23-5.03,.49-7.13,2.12-8.28,6.44-15.36,13.85-19.6,23.65-2.77,6.39-3.47,12.99-1.72,19.71,1.51,5.77,4.42,10.65,10.56,13.19Zm16.12,.83c.41-1.06-.4-1.58-.96-2.17-.65-.67-1.47-1.14-2.13-.11-.48,.74,.14,1.34,.75,1.68,.71,.4,1.4,1.05,2.35,.6Z"/>
      <path class="cls-14" d="M598.34,647.11c-14.11,1.38-30.48-17.62-22.23-38.15,.34-.84,.74-1.66,1.15-2.47,3.76-7.47,9.47-13.62,14.13-20.49,3.75-5.53,9.75-8.57,16.28-10.16,12.79-3.12,27.6,4.69,32.37,16.9,4.11,10.54,2.81,20.71-2.45,30.39-7.91,14.56-19.78,23.26-39.24,23.98Zm-1.99-45.16c-1.66,2.81-3.4,5.58-4.95,8.45-1.56,2.88-2.75,5.91-2.92,9.27-.43,8.7,5.37,14.61,14.02,14.19,6.86-.34,12.6-3.25,17.44-7.95,5.22-5.07,8.63-11.2,9.85-18.42,1-5.92-.86-10.97-5.11-14,.53,7.57-1.11,14.09-8.75,17.03-5.84,2.25-11.05,.81-15.12-4.13-.05-2.08-1.17-3.82-2.25-5.38-1.22-1.76-2.01-.69-2.21,.94Z"/>
      <path class="cls-13" d="M665.68,600.49c-1.51,1.16-2.78,.06-3.88-.71-7.02-4.93-13.5-10.5-18.51-17.49-4.05-5.65-5.88-12.43-8.6-18.75-.79-1.83-1.56-3.69-2.08-5.6-.3-1.11-.87-2.67,.61-3.38,1.2-.58,1.91,.67,2.67,1.39,.39,.37,.76,.79,1.07,1.23,9.46,13.75,18.91,27.51,28.37,41.27,.42,.62,.7,1.25,.35,2.05Z"/>
      <path class="cls-30" d="M500.57,579.29c-2.88,1.44-4.11,4.6-6.7,6.34,.03-1.46-.81-2.06-2.16-2.13,.04-.34,.08-.69,.12-1.03,.86-.04,1.63-.25,2.1-1.05,1.49-.16,2.65-.81,3.32-2.21l-.03,.02,1.09-1.14s-.01,.02-.01,.01c.34-.02,.68-.05,1.02-.1,.42,.43,.83,.86,1.25,1.29Z"/>
      <path class="cls-24" d="M507,573.7c-1.8,1.47-3.6,2.94-5.39,4.41-.03-.42-.07-.85-.1-1.27,1.57-1.69,2.23-4.13,4.36-5.37,.1,.89,.26,1.74,1.14,2.23Z"/>
      <path class="cls-26" d="M511.47,555.24c-.17-.87-.31-1.77-1.2-2.26,.52-1.1,.8-2.39,2.62-2.91,.43,2.06-.14,3.68-1.42,5.17Z"/>
      <path class="cls-26" d="M509.23,554.14c-.25,2.17-1.52,3.49-3.52,4.18,.48-1.98,1.75-3.29,3.52-4.18Z"/>
      <path class="cls-26" d="M510.38,559.63c0-1.56-.65-3.28,1.1-4.4-.04,1.55,.27,3.19-1.1,4.4Z"/>
      <path class="cls-24" d="M505.85,571.49c.02-.91,.29-1.68,1.18-2.11,0,.92-.23,1.71-1.18,2.11Z"/>
      <path class="cls-24" d="M509.12,572.58c-.44,.87-1.2,1.14-2.11,1.12,.43-.89,1.21-1.12,2.11-1.12Z"/>
      <path class="cls-26" d="M510.27,552.98c-.34,.38-.68,.75-1.02,1.13,.09-.6,.44-.97,1.02-1.13Z"/>
      <path class="cls-14" d="M493.94,581.41c-.47,.81-1.25,1.02-2.1,1.05-3.56-.16-6.38,2.38-9.84,2.72-.95,.09-1.84,.34-2.43-.49-.7-.99,.15-1.68,.78-2.28,.78-.75,1.62-1.44,2.5-2.07,3.92-2.85,7.69-5.8,11.18-9.24,3.28-3.23,7.16-5.89,10.28-9.37,.66-.74,1.39-2.06,2.62-1.34,1.63,.94,1.12,2.42,.46,3.81-1.78,3.77-3.73,7.44-6.42,10.66-.57,.68-.98,1.49-1.47,2.24,0,0-.02-.07-.02-.07l-1.19,1.07s.01-.02,.01-.02c-.36,.38-.72,.76-1.09,1.14,0,0,.03-.02,.03-.02-1.64-.06-2.74,.68-3.32,2.21Z"/>
      <path class="cls-8" d="M501.5,576.84c.03,.42,.07,.85,.1,1.27-.35,.39-.69,.78-1.04,1.17-.42-.43-.83-.86-1.25-1.29,.12-.31,.17-.63,.16-.97,0,0,.02,.07,.02,.07,.67-.09,1.34-.17,2.01-.26Z"/>
      <path class="cls-2" d="M129.56,672.78c-10,1.8-17.81-2.32-24.21-9.46-6.79-7.58-10.18-16.64-10.45-26.85-.13-4.94,.69-9.78,1.35-14.64,.25-1.83,.97-3.49,2.15-4.94,5.41-6.67,11.76-11.85,20.59-13.2,6.88-1.05,13.73-1.29,20.56,.41,12.55,3.13,19.07,11.19,19.48,24.18,.29,8.95-2.12,17.24-6.3,25.07-.93,.4-1.37,1.07-1.2,2.1,0,0,0,0,0,0-2.09-.05-1.79-1.84-2.33-3.09-1.49-3.52-3.21-6.88-7.45-7.8-2.81-1.34-5.73-2.25-8.88-1.79-6.05,.87-10.49,4.05-12.34,9.93-1.96,6.23-.54,11.74,4.83,15.89,.57,2.23,3.74,1.85,4.2,4.19Z"/>
      <path class="cls-10" d="M141.74,644.57c4.25,.91,5.96,4.28,7.45,7.8,.53,1.25,.24,3.04,2.33,3.09-.02,1.45-.95,2.18-2.43,3.17-1.04-2.78-.75-5.58-2.12-7.94-1.39-2.39-3.86-3.76-5.22-6.12Z"/>
      <path class="cls-7" d="M129.56,672.78c-.47-2.34-3.63-1.96-4.2-4.19,2.33,.82,4.66,1.63,6.98,2.44-.31,1.89-1.41,2.05-2.78,1.75Z"/>
      <path class="cls-10" d="M151.52,655.45c-.17-1.03,.28-1.7,1.2-2.1,.12,1-.25,1.72-1.2,2.1Z"/>
      <path class="cls-4" d="M219.51,811.76c-.29,5.38-1.67,10.39-5.2,14.58-5.65,6.71-14.29,7.06-20.51,.85-4.23-4.22-6.6-8.96-4.64-15.17,1.03-3.27,1.33-6.78,2.46-10,1.91-5.49,5.54-9.39,11.65-10.05,5.39-.58,11.05,3.13,13.88,8.74,1.75,3.48,2.44,7.18,2.37,11.05Z"/>
      <path class="cls-2" d="M253.27,649.91c-1.79-1.14-1.65-2.58-2.22-3.65-2.36-4.42-6.35-6.75-11.14-6.24-4.84,.51-7.97,3.25-9.5,7.8-.6,1.79-.22,3.95-2.97,4.58-2.96,.67-4.44-1.1-5.94-2.88-7.03-8.34-6.98-17.66-3.09-27.15,3.75-9.16,10.93-13.74,20.83-13.92,3.45-.06,6.92-.06,10.35,.25,10.39,.94,15.65,6.85,15.52,17.27-.12,9.95-5.1,17.37-11.83,23.95Z"/>
      <path class="cls-6" d="M839.75,753.25q6.61,11.74,16.81,17.49c-3.32,4.32-6.28,8.88-10.12,12.76-1.8,1.81-3.69,3.52-5.98,4.69-3.41,1.74-5.19,1.6-7.84-1.1-4.1-4.18-7.33-8.99-9.85-14.29-.62-1.29-.91-2.44,.64-3.2,7.08-3.48,11.8-9.4,16.33-16.34Z"/>
      <path class="cls-12" d="M892.87,690.36c-6.52,.11-11.73-4.96-11.86-11.56-.14-6.96,4.92-12.37,11.58-12.39,6.82-.02,12.24,5.19,12.31,11.84,.07,6.66-5.22,11.99-12.03,12.11Z"/>
      <path class="cls-5" d="M531.45,740.64c1.94,1.07,1.66,2.93,2.14,4.4,2.86,8.68,7.33,16.2,15.24,21.2,2.1,1.33,2.25,2.44,.66,4.23-3.52,3.96-7.31,7.61-12,10.13-7.28,3.91-13.15,2.57-18.09-4.06-3.04-4.08-5.65-8.44-7.83-13.04-.59-1.25-1.46-2.75,.47-3.74,4.23-2.16,8.1-4.8,11.44-8.21,3.18-3.25,5.55-7.1,7.96-10.91Z"/>
      <path class="cls-2" d="M505.64,636.31c-6.14-2.54-9.06-7.42-10.56-13.19-1.75-6.72-1.05-13.31,1.72-19.71,4.24-9.79,11.33-17.21,19.6-23.65,2.1-1.63,4.46-2.35,7.13-2.12,5.43,.47,10.88,.74,16.29,1.38,7.89,.93,12.75,5.7,14.24,13.56,.76,4.01,.46,7.99-.63,11.87-2.05,7.3-5.9,13.58-11.17,18.93-1.86-.52-.9-1.84-.99-2.73-.62-5.74-3.98-9.18-9.77-9.88-9.37-1.13-22.12,6.5-25.64,15.28-1.35,3.36-1.22,6.69-.21,10.25Z"/>
      <path class="cls-21" d="M521.77,637.14c-.95,.45-1.64-.2-2.35-.6-.6-.34-1.22-.94-.75-1.68,.67-1.03,1.48-.56,2.13,.11,.57,.58,1.37,1.1,.96,2.17Z"/>
      <path class="cls-3" d="M600.81,606.39c4.07,4.94,9.28,6.38,15.12,4.13,7.64-2.94,9.28-9.46,8.75-17.03,4.25,3.03,6.1,8.08,5.11,14-1.21,7.21-4.63,13.34-9.85,18.42-4.84,4.71-10.58,7.62-17.44,7.95-8.65,.42-14.45-5.49-14.02-14.19,.16-3.36,1.36-6.38,2.92-9.27,1.55-2.87,3.3-5.64,4.95-8.45,2.56,.4,2.07,3.86,4.45,4.44Z"/>
      <path class="cls-28" d="M600.81,606.39c-2.38-.58-1.89-4.04-4.45-4.44,.2-1.63,.98-2.7,2.21-.94,1.08,1.56,2.2,3.3,2.25,5.38Z"/>
      <path class="cls-14" d="M493.94,581.41c.57-1.53,1.68-2.27,3.32-2.21-.66,1.4-1.82,2.05-3.32,2.21Z"/>
      <path class="cls-14" d="M499.48,577.02c0,.33-.05,.66-.16,.97-.34,.04-.68,.08-1.02,.1,.4-.36,.79-.71,1.19-1.07Z"/>
      <path class="cls-14" d="M497.22,579.22c.36-.38,.72-.76,1.09-1.14-.36,.38-.72,.76-1.09,1.14Z"/>
    </g>
  </g>
</svg>