<?xml version="1.0" encoding="utf-8"?>
<!-- Generator: Adobe Illustrator 27.0.0, SVG Export Plug-In . SVG Version: 6.00 Build 0)  -->
<svg version="1.1" id="レイヤー_1" xmlns="http://www.w3.org/2000/svg" xmlns:xlink="http://www.w3.org/1999/xlink" x="0px"
	 y="0px" viewBox="0 0 1000 1000" style="enable-background:new 0 0 1000 1000;" xml:space="preserve">
<style type="text/css">
	.st0{fill:#8CC88C;}
</style>
<g>
	<g id="レイヤー_4">
		<g id="レイヤー_1-2">
			<path class="st0" d="M487.3,174.6c-171,0-264.8,121.6-264.8,181.2c0,60,33.4,104.7,33.4,179.5s-35.5,148.2-35.5,196.4
				c0,48.1,12.7,250,279.1,250s280-175.7,280-243.7c0-67.6,0-308.8-81.9-451.9C626.8,174.6,597.5,174.6,487.3,174.6z"/>
			<path class="st0" d="M520.7,205C483.5,184.7,402,69,421,34.4c19-34.6,49.8-11.8,70.5,59.5"/>
			<path class="st0" d="M488.6,210.5C497,169.1,583.2,56.7,622,64.8s25.8,44.3-35.9,85.3"/>
			<path d="M573.8,392.2c20.7,0,37.2,12.3,37.2,48.2c0,34.4-16.9,48.2-37.2,48.2c-20.4,0-37.2-21.7-37.2-48.2
				C536.6,413.9,553.1,392.2,573.8,392.2z"/>
			<path d="M442.3,429.8c-0.5,31.9-21.2,57.7-45.7,57.3c-24.5-0.4-44.5-17.3-43.8-58.7c0.7-43.2,20.8-57.7,45.7-57.3
				C423.4,371.5,442.8,397.9,442.3,429.8z"/>
		</g>
	</g>
</g>
</svg>
