<?xml version="1.0" encoding="UTF-8"?>
<svg id="_レイヤー_2" data-name="レイヤー 2" xmlns="http://www.w3.org/2000/svg" viewBox="0 0 707.1 852.1">
  <defs>
    <style>
      .cls-1 {
        fill: #e9e3eb;
      }

      .cls-2 {
        fill: #e7e1e9;
      }

      .cls-3 {
        fill: #fdbdbd;
      }

      .cls-4 {
        fill: #b1b1b1;
      }

      .cls-5 {
        fill: #a7a4a8;
      }

      .cls-6 {
        fill: #cacaca;
      }

      .cls-7 {
        fill: #c9c9c9;
      }

      .cls-8 {
        fill: #c4c4c4;
      }

      .cls-9 {
        fill: #d6d6d6;
      }

      .cls-10 {
        fill: #d3ced5;
      }

      .cls-11 {
        fill: #c5c5c5;
      }

      .cls-12 {
        fill: #222;
      }

      .cls-13 {
        fill: #6e6e6e;
      }
    </style>
  </defs>
  <g id="_レイヤー_1-2" data-name="レイヤー 1">
    <g>
      <g>
        <path class="cls-1" d="M129.37,155.74c-6.59-14.87-11.11-29.94-13.04-45.65-2.91-23.68-1.56-47.1,11.66-67.66,8.7-13.53,22.12-21.62,38.48-24.37,8.87-1.49,17.48-.51,26.15,.89,3.87,.63,6.8-1.2,9.42-3.6C213.22,5.11,226.51,.65,241.49,.08c20.91-.79,40.2,3.99,57.63,15.71,6.17,4.15,10.65,9.94,14.79,16.01,4.43,6.49,4.79,6.74,11.23,2.1,11.2-8.06,23.51-13.31,37.31-13.62,16.45-.36,25.89,7.95,30.97,20.83,11.28,28.65,8.46,56.98-5.34,84.25-3.73,7.37-10.63,12.27-16.17,18.22-3.5,3.76-6.92,7.57-8.2,12.84-2.98,12.37,7.34,23.8,19.82,21.55,20.99-3.79,41.75-3.09,62.56,1.66,12.24,2.79,24.7,5.25,37.41,2.52,6.27-1.35,12.02-3.86,17.2-7.6,2.22-1.6,3.57-3.77,4.16-6.57,1.08-5.18,2.59-10.26,3.35-15.53,2.81-19.5,13.92-33.25,30.23-43.44,13.37-8.35,25.2-18.93,38.84-26.94,9.86-5.78,20.28-7.6,31.51-6.15,5.09,.66,10.29,1.49,15.34,1.08,10.94-.87,20.25,3.28,29.21,8.53,17.73,10.38,28.37,26.52,36.15,45.01,7.57,17.99,8.42,36.9,7.09,55.84-1.14,16.21-5.57,31.94-10.2,47.53-3.72,12.55-7.21,25.21-8.3,38.29-.54,6.47,1.22,12.75,4.68,18.49,4.17,6.93,10.23,12.22,15.5,18.16,8.86,10,9.93,21.7,8.06,33.72-3.88,24.89-17.16,44.64-35.68,61.14-1.48,1.32-3.23,2.33-4.89,3.43-7.22,4.8-8.61,7.59-6.74,16.01,3.64,16.44,5.26,33.04,4.72,49.85-.14,4.38,.5,8.67,1.54,12.8,2.52,10.03,3.39,20.06,2.76,30.42-.34,5.68,1.17,11.52,2.04,17.2,1.55,10.12,.12,19.79-1.7,29.6-1.08,5.85-2.54,11.79-2.41,17.66,.23,10.64-1.45,20.94-4.6,30.88-6.17,19.45-11.81,39.08-19.13,58.18-3.54,9.25-5.57,19.09-8.02,28.74-2.29,9.01-4.43,18.1-8.36,26.54-3.96,8.5-4.8,17.92-8.64,26.43-3.33,7.38-6.89,14.45-11.85,21.01-4.42,5.85-8.54,11.65-14.42,16.24-4.52,3.53-9.87,4.67-14.89,6.72-8.52,3.48-14.61,11.11-23.72,13.49-8.32,2.17-16.71,3.95-25.21,5.27-18.19,2.82-36.63,2.61-54.92,4.52-18.11,1.89-36.95,2.24-52.66-9.81-11.15-8.55-22.71-16.77-31.58-27.95-1.45-1.83-3.2-2.09-5.34-1.23-21.98,8.86-45.37,13.86-66.74,24.39-.74,.37-1.54,.96-2.29,.93-6.78-.29-10.06,4.36-14.24,8.73-8.02,8.38-15.32,17.68-25.41,23.85-10.19,6.23-21.56,9.33-33.16,11.48-6.98,1.29-14.05,2.27-21.12,2.83-9.34,.75-18.51-.83-27.4-3.6-19.21-5.98-31.66-19.79-41.44-36.53-.44-.76-.77-1.46-1.71-1.57-6.67-.79-11.48-5.73-17.63-7.83-13.06-4.47-22.8-13.86-32.88-22.82-16.13-14.33-28.4-31.88-41.38-48.83-7.62-9.95-11.21-21.96-14.11-33.84-3.54-14.54-7.81-28.78-12.87-42.82-3.19-8.85-4.13-18.02-4.5-27.34-.54-13.76,.48-27.9-2.47-41.14-3.12-14.01-2.71-27.8-2.24-41.6,.8-23.29,.16-46.84,6.76-69.59,2.73-9.4,4.89-19.02,9.3-27.84,7.04-14.07,18.64-21.44,34.13-23.5,14-1.86,27.7,.95,41.53,1.83,11.11,.71,22.36,1.29,32.51-4.76,4.24-2.53,8.29-5.57,7.45-11.32-.8-5.51-5.31-7.82-9.89-9.47-11.26-4.04-22.79-7.5-34.61-9.04-21.97-2.87-43.33-7.98-64.65-13.88-22.67-6.27-30.15-29.32-22.08-48.8,4.19-10.12,10.89-18.6,17.02-27.44,2.53-3.65,2.45-6.03-.95-8.82-10.46-8.56-19.65-18.34-27.46-29.4-3.85-5.45-7.54-11.01-9.22-17.52-3.93-15.2,5.98-26.48,17.35-30.79,11.08-4.2,22.71-6.54,34.58-2.94,4.32,1.31,4.45-1.84,4.85-4.26,1.44-8.56,3.69-16.78,7.69-24.59,10.77-21.04,30.3-30.87,53.66-26.98,3.18,.53,6.4,1.97,10.37,.85ZM505.06,760.69c10.94,11.4,23.18,19.01,39.37,19.25,8.49,.12,16.41-1.59,23.19-6.08,16.72-11.09,26.11-26.7,26.38-47.18,.03-2.47,.76-4.3,2.62-6.13,10.35-10.22,18.22-22.04,21.85-36.31,.88-3.46,2.36-6.49,4.21-9.5,6.56-10.69,8.9-22.92,10.95-34.92,1.67-9.79,3.77-19.52,5.24-29.35,1.35-9.02,4.29-17.87,4.95-26.91,1.24-16.93,1.46-33.93,1.86-50.91,.32-13.46-2.51-26.44-6.28-39.31-5.24-17.93-12.47-35.16-18.27-52.86-10.28-31.38-21.78-62.03-37.4-91.34-12.31-23.09-28-42.75-47.34-59.88-1.69-1.5-1.91-2.27-.17-3.74,5.2-4.38,8.62-10.1,11.7-16.04,6.38-12.34,10-25.67,13.99-38.87,1.54-5.1,.14-9.69-1.93-14.46-3.41-7.84-10.99-11.27-16.62-16.74-7.61-7.4-16.71-9.32-26.78-6.16-8.47,2.66-15.69,7.3-20.96,14.58-2.67,3.68-5.93,6.71-9.23,9.78-3.01,2.8-5.31,3-8.93,.54-11.42-7.75-23.41-14.5-37.04-17.77-10.4-2.5-20.37-7.57-31.65-4.18-4.1,1.23-8.53,1.45-12.84,1.85-13.32,1.24-26.27,3.81-38.81,8.77-18.08,7.15-30.78,21.32-45.09,33.41-1.32,1.11-1.84,3.13-4.25,1.22-6.36-5.05-13.94-7.64-21.57-10.09-7.26-2.33-13.52-.34-18.95,4.45-4.12,3.63-7.83,7.72-11.74,11.58-13.96,13.78-16.9,30-8.83,47.49,4.26,9.24,8.33,18.15,8.01,28.53-.04,1.26,.62,2.57,1.1,3.8,4.2,10.89,9.7,21.12,15.36,31.32,9.1,16.4,11.19,33.11,1.39,50.26-6.73,11.8-15.72,18.96-30.06,17.54-4.74-.47-9.14,1.03-13.37,3.33-4.53,2.46-8.47,6.77-13.53,7.31-12.2,1.3-24.24,4.56-36.73,2.97-7.17-.91-14.35,.08-21.01,2.98-2.44,1.06-4.59,1.42-7.15,1.11-5.58-.68-11.21-2.24-16.81-.24-8.62,3.08-17.3,6.07-24.82,11.5-1.74,1.26-2.86,1.52-4.51-.39-3.46-4.02-8.12-6.35-13.21-7.64-25.97-6.57-48.91,9.58-43.49,39.97,1.08,6.03,4.26,11.51,10.22,13.23,6.26,1.81,5.04,4.53,2.71,8.38-.77,1.28-1.46,2.62-2.11,3.97-5.66,11.89-11.9,23.71-12.42,37.16-.47,12.31-1.48,24.59-1.94,36.88-.88,23.63,3.19,46.92,9.55,69.49,7.22,25.64,17.36,50.27,32.63,72.47,5.77,8.38,12.38,16,19.64,23.04,12.82,12.43,29.32,19.53,43.66,29.77,4.48,3.2,9.95,2.17,14.9,3.41,4.14,1.04,7.99,1.11,11.9-1.54,3.78-2.56,7.83-.3,8.46,3.94,2.57,17.16,7.3,33.37,18.7,47.16,7.86,9.5,15.01,12.3,26.75,9,2.39-.67,4.9-1.18,7.36-1.24,11.16-.25,17.77-6.06,22.23-16.06,5.86-13.11,9.94-26.82,14.85-40.24,.6-1.64,.67-3.49,3.19-3.84,7.08-.99,12.48-5.4,17.71-9.72,12.16-10.06,24.61-19.14,41.42-19.27,4.28-.03,8.54-1.53,12.83-1.68,9.12-.31,19.03-1.29,26.02,5.59,7.88,7.74,17.62,8.66,27.34,10.23,2.63,.43,4.7,.89,6.41,2.95,7.39,8.92,16.1,16.21,25.93,22.44,22.27,14.09,45.94,5.54,59.93-12.79,4.34-5.69,7.22-12.24,9.36-19.26Zm119.75-497.05c-.96,10.28-.36,19.94,4.58,28.98,1.68,3.07,2.09,6.64,2.27,10.17,.19,3.54,1.12,6.9,2.92,9.97,3.08,5.26,8.74,7.38,14.09,5.34,5.12-1.96,8.12-7.76,6.62-13.53-.92-3.53-2.23-6.98-3.68-10.33-2.31-5.33-3.25-10.65-2.22-16.52,.98-5.55,1.47-11.26,1.44-16.89-.06-9.76,2.23-18.91,6.87-27.31,8.14-14.74,13.13-30.52,16.7-46.85,2.63-12.02,4.07-23.8-1.72-35.6-6.17-12.59-15.84-22.1-25.76-31.45-3.4-3.2-7.83-5.17-12.45-6.1-9.79-1.96-19.69-3.88-29.69-3.44-20.2,.87-37.59,9.55-53.34,21.4-6.86,5.16-9.96,13.19-9.93,22.05,.02,4.77,1.93,8.65,6.44,10.33,4.65,1.73,9.02,.47,11.99-3.66,8.62-12,21.24-18.44,34.03-24.57,3.91-1.87,8.35-2.85,12.67-2.09,13.19,2.32,26.96,3.63,34.87,16.92,.41,.69,1.19,1.16,1.74,1.78,6.44,7.29,10.16,15.72,9.16,25.52-1.4,13.81-5.58,26.69-14.54,37.65-3.09,3.77-5.25,8.05-7.23,12.49-5.15,11.53-6.82,23.59-5.84,35.74ZM282.16,98.57c-15.66-1.64-25.6,4.71-28.11,17.24-2.68,13.34,3.14,23.22,14.48,24.39,5.96,.62,11.49-.75,16.8-3.64,19.09-10.41,17.64-38.56,7.26-51.51-6.07-7.56-12.68-15.18-22.14-19.03-3.21-1.3-3.73-2.76-2.22-5.91,4.13-8.61,4.88-17.54,1.51-26.66-3.38-9.15-11.33-13.46-20.61-10.94-7.79,2.11-14.82,5.93-21.6,10.19-3.13,1.96-4.91,4.84-3.25,8.47,1.74,3.81,5.19,4.43,8.9,3.23,4.27-1.37,8.45-3.03,12.71-4.46,2.58-.87,5.51-3.4,7.85-1.14,2.16,2.09,1.48,5.67,.98,8.63-.3,1.78-1.04,3.5-1.71,5.2-2.08,5.32-5.26,10-8.67,14.54-4.31,5.72-9.68,10.59-13.37,16.79-3.98,6.71-3.42,12.95,1.4,16.06,5.02,3.24,10.38,1.13,14.74-5.82,.88-1.41,1.72-2.85,2.55-4.3,1.59-2.77,3.46-5.29,6.05-7.23,4.48-3.36,8.26-3.56,12.14,.27,4.81,4.75,9.17,9.95,14.33,15.63Zm-105.02,229.49c2.16,0,4.38,.32,6.46-.07,3.44-.65,6.31-2.41,7.02-6.2,.69-3.67-1.45-5.9-4.34-7.69-2.91-1.79-6.13-3.14-9.42-2.84-7.91,.71-15.58-.18-23.13-2.32-6.09-1.72-12.26-.24-18.39-.86-7.94-.81-13.47-6.23-19.92-9.83-10.13-5.64-20.97-10.09-29.52-18.42-12.5-12.18-25.32-24.03-37.97-36.05-4.8-4.56-10.43-8.38-13.49-14.55-1.04-2.09-2.37-3.71-5-3.14-2.89,.62-3.43,3.02-3.45,5.38-.04,5.19,1.9,9.76,5.18,13.72,13.68,16.53,26.84,33.49,41.2,49.45,17.83,19.82,40.31,30.16,66.78,31.13,12.69,.46,25.04,6.69,37.98,2.28Zm-4.3-294.01c-3.08-.02-5.32,1.67-7.38,3.68-4.79,4.69-8.4,10.34-12.39,15.66-13.37,17.8-16.47,38.58-14.64,59.8,1.5,17.35,12.73,30.1,25.91,40.6,4.86,3.88,10.76,6.76,17.17,7.71,4.52,.67,8.83-.14,11.32-4.46,2.52-4.39,.4-8.06-2.75-11.16-2.25-2.21-4.57-4.45-7.19-6.16-6.5-4.23-11.85-9.72-17.18-15.2-6.31-6.49-9.45-14.08-8.75-23.51,.99-13.25,4.66-25.4,11.45-36.82,3.81-6.42,6.95-13.28,10.03-20.1,2.41-5.33-.4-10-5.58-10.05ZM77.49,220.99c-.12,23.71,5.03,36.53,19.06,45.96,10.18,6.84,20.97,11.32,32.57,14.45,6.55,1.77,13.15,1.49,19.74,.45,2.19-.35,4.22-1.36,4.74-3.84,.5-2.41-.78-4.22-2.58-5.57-1.18-.88-2.56-1.68-3.98-2.02-14.37-3.52-26.16-11.88-38.16-19.94-6.59-4.43-9.27-10.72-9.22-18.29,.1-17.46-.29-34.99,5.8-51.81,.72-2,1.16-4.45-1.22-5.82-2.13-1.22-4.26-.41-6,1.06-1.25,1.07-2.34,2.36-3.34,3.67-11.12,14.59-17.93,30.71-17.42,41.69Zm65.18,153.53c2.99-.14,6.01-.1,8.97-.47,4.44-.56,9.03-.62,13.09-2.82,3.79-2.05,6.19-5.18,5.67-9.68-.5-4.34-3.67-5.95-7.59-6.7-7.38-1.42-14.81-2.22-22.33-1.87-3.13,.15-5.99-.45-8.5-2.28-8.66-6.28-18.56-9.63-28.77-12.21-4.21-1.06-8.26-2.42-12.27-4.1-12.58-5.25-25.67-6.93-39.12-4.65-7.19,1.22-10.23,3.9-9.99,7.86,.27,4.31,3.84,6.46,11.34,6.2,12.29-.42,23.78,2.11,34.43,8.37,1.99,1.17,4.18,2.07,6.37,2.83,8.54,2.95,16.68,6.68,23.99,12.04,7.37,5.41,15.31,8.77,24.7,7.47ZM354.57,48.35c-7.81,1.33-16.45,3.5-22.6,11-2.05,2.5-3.06,5.35-.99,8.23,1.96,2.74,4.63,1.68,7.24,.85,4.58-1.46,9.22-2.75,13.83-4.12,2.92-.87,5.15-.05,6.89,2.49,3.59,5.24,5.81,10.42,1.4,16.44-2.04,2.79-2.9,6.29-.48,9.29,2.65,3.28,6.34,3.18,10.05,1.85,5.5-1.97,8.71-6.04,9.96-11.55,1.82-8.02-1.15-15.13-5.13-21.75-4.26-7.1-9.9-12.6-20.18-12.72Zm328.27,304.78c2.21-10.79-9.61-23.23-19.76-23.99-15-1.11-26.51,8.1-27.28,21.93-.71,12.77,9.5,24.29,23.33,24.78,11.28,.4,24.09-7.84,23.72-22.72Z"/>
        <path class="cls-12" d="M505.06,760.69c-2.14,7.02-5.01,13.56-9.36,19.26-13.99,18.33-37.66,26.88-59.93,12.79-9.83-6.22-18.54-13.52-25.93-22.44-1.71-2.06-3.78-2.53-6.41-2.95-9.72-1.58-19.46-2.49-27.34-10.23-7-6.88-16.9-5.9-26.02-5.59-4.29,.15-8.55,1.65-12.83,1.68-16.81,.13-29.26,9.21-41.42,19.27-5.22,4.32-10.63,8.73-17.71,9.72-2.53,.35-2.59,2.2-3.19,3.84-4.91,13.42-8.98,27.13-14.85,40.24-4.47,10-11.07,15.8-22.23,16.06-2.47,.06-4.98,.57-7.36,1.24-11.74,3.3-18.89,.51-26.75-9-11.4-13.79-16.14-30-18.7-47.16-.64-4.24-4.68-6.5-8.46-3.94-3.91,2.65-7.76,2.58-11.9,1.54-4.94-1.25-10.41-.21-14.9-3.41-14.34-10.25-30.84-17.34-43.66-29.77-7.26-7.04-13.88-14.66-19.64-23.04-15.27-22.2-25.41-46.84-32.63-72.47-6.36-22.57-10.43-45.86-9.55-69.49,.46-12.29,1.47-24.57,1.94-36.88,.52-13.45,6.75-25.28,12.42-37.16,.64-1.35,1.33-2.69,2.11-3.97,2.33-3.85,3.55-6.57-2.71-8.38-5.96-1.73-9.14-7.2-10.22-13.23-5.42-30.39,17.52-46.54,43.49-39.97,5.1,1.29,9.75,3.62,13.21,7.64,1.65,1.92,2.77,1.65,4.51,.39,7.52-5.43,16.2-8.42,24.82-11.5,5.6-2,11.23-.44,16.81,.24,2.56,.31,4.71-.05,7.15-1.11,6.66-2.9,13.84-3.9,21.01-2.98,12.49,1.59,24.53-1.67,36.73-2.97,5.06-.54,9-4.85,13.53-7.31,4.22-2.29,8.62-3.8,13.37-3.33,14.34,1.42,23.33-5.74,30.06-17.54,9.79-17.16,7.71-33.87-1.39-50.26-5.66-10.2-11.16-20.43-15.36-31.32-.48-1.23-1.14-2.55-1.1-3.8,.32-10.38-3.75-19.29-8.01-28.53-8.07-17.49-5.13-33.7,8.83-47.49,3.91-3.86,7.62-7.95,11.74-11.58,5.43-4.78,11.69-6.78,18.95-4.45,7.63,2.45,15.21,5.03,21.57,10.09,2.41,1.91,2.93-.1,4.25-1.22,14.31-12.1,27.01-26.27,45.09-33.41,12.54-4.96,25.49-7.52,38.81-8.77,4.31-.4,8.74-.62,12.84-1.85,11.28-3.39,21.25,1.68,31.65,4.18,13.63,3.27,25.62,10.02,37.04,17.77,3.62,2.46,5.93,2.26,8.93-.54,3.3-3.07,6.57-6.11,9.23-9.78,5.28-7.28,12.5-11.92,20.96-14.58,10.06-3.16,19.17-1.23,26.78,6.16,5.63,5.47,13.21,8.9,16.62,16.74,2.07,4.76,3.48,9.36,1.93,14.46-3.99,13.2-7.6,26.54-13.99,38.87-3.08,5.95-6.5,11.66-11.7,16.04-1.74,1.47-1.52,2.24,.17,3.74,19.34,17.13,35.03,36.79,47.34,59.88,15.62,29.31,27.12,59.96,37.4,91.34,5.8,17.7,13.03,34.93,18.27,52.86,3.76,12.87,6.6,25.86,6.28,39.31-.4,16.98-.62,33.99-1.86,50.91-.66,9.04-3.6,17.89-4.95,26.91-1.47,9.84-3.57,19.56-5.24,29.35-2.05,12-4.39,24.23-10.95,34.92-1.85,3.02-3.33,6.04-4.21,9.5-3.62,14.27-11.49,26.08-21.85,36.31-1.85,1.83-2.58,3.66-2.62,6.13-.27,20.48-9.66,36.08-26.38,47.18-6.78,4.5-14.7,6.21-23.19,6.08-16.19-.24-28.43-7.85-39.37-19.25ZM416.72,236.12c2.34-8.08,6.94-14.97,11.87-21.78-9.35-2.84-10.05-2.45-11.38,6.2-.28,1.79-.35,3.61-.52,5.42-.98,1.62-.98,3.38-.79,5.17-.07,.62-.13,1.24-.2,1.86-1.26,3.28-1.77,6.7-1.81,10.2-1.46,5.05-2.92,10.11-4.4,15.15-.64,2.2-1.01,5.65-3.46,5.37-3.05-.34-2.1-3.86-2.26-6.22-.17-2.46,.83-4.95-.19-7.39-.71-10.54,2.44-20.66,3.41-31.03,.56-6.01,.84-6-5.39-5.15-1.56,.21-3.87-.58-2.87,2.76,2.86,9.61,3.64,19.47,3.06,29.46-1.38,6.33-2.4,12.71-2.83,19.18-.18,2.69-1.35,4.61-4.15,4.63-2.63,.02-3.63-2.17-4.02-4.35-.28-1.6-.27-3.37,.09-4.96,1-4.44,.88-8.93,.89-13.41,.02-9.88-1.75-19.46-4.88-28.84-1.28-3.85-3.5-1.16-5.19-1.02-2.46,.21-1.59,1.81-.88,3.21,1.95,3.87,2.21,8.03,1.6,12.19-1.22,8.29-.96,16.61-.61,24.91,.4,9.42,6.07,16.32,12.26,22.65,2.12,2.16,5.09,3.71,8.22,.35,7-7.48,10.1-16.56,11.55-26.4,1.12-1.58,.97-3.37,.84-5.15,.18-.29,.22-.6,.12-.92,1.51-3.9,1.09-8.1,1.89-12.11Zm-15.91,520.17c-.39-2.88-.94-5.3-.98-7.73-.07-4.22,2.35-5.65,6.17-3.89,1.57,.72,2.67,1.94,3.64,3.31,2.13,3.01,4.46,6.09,7.62,7.83,9.97,5.48,18.92,12.57,27.55,19.64,12.79,10.46,28.78,3.97,36.78-5.93,7.53-9.33,12.6-19.8,16.44-31.03,.82-2.41,1.64-5.62,5.09-5.25,3.41,.37,6.45,1.79,6.71,6.02,.13,2.18,1.6,3.5,3.1,4.9,7.1,6.6,15.18,11.79,23.19,17.18,8.97,6.05,28.24,5.34,35.6-7.51,4.86-8.47,7.47-17.61,9.93-26.87,.43-1.61-.37-2.76-1.4-4-4.88-5.9-4.41-11.05,.75-16.8,8.34-9.3,16.15-18.94,18.22-31.9,.58-3.66,2.78-6.71,4.99-9.66,1.29-1.72,2.7-3.43,3.57-5.36,4.69-10.34,10.51-20.38,9.01-32.46-.1-.79,.1-1.68,.39-2.44,5.44-14.45,6.38-29.81,7.41-44.85,1.3-19.07,.3-38.31,.1-57.47-.04-3.96-.8-7.93-1.49-11.85-2.41-13.58-6.88-26.61-11.54-39.52-6.93-19.17-10.23-39.41-17.94-58.36-9.51-23.37-21.01-45.67-32.8-67.94-8.77-16.56-20.03-30.79-32.59-44.3-2.02-2.17-3.6-3.67-7.05-1.58-3.29,2-7.17,1.45-9.68-2.23-2.1-3.08-1.15-7.58,2.23-10.14,2.4-1.81,4.75-3.63,6.71-5.94,11.84-13.93,20.34-29.66,26.13-47.01,2.17-6.51-.16-10.85-4.45-15-1.19-1.15-2.61-2.08-3.78-3.25-8.78-8.73-22.88-7.93-29.92,2.37-6.18,9.04-14.03,16.44-21.64,24.09-3.42,3.44-7.61,5.96-12.43,7-4.35,.94-7.65-2.53-6.34-6.73,.78-2.5,2.07-4.91,3.48-7.14,1.3-2.04,.84-2.98-1.07-4.27-5.23-3.52-10.35-7.18-15.99-10.08-9.52-4.9-9.62-5.13-17,2.15-4.65,4.59-8.13,9.97-8.88,16.81-2.02,18.49-6.34,36.04-19.99,49.97-5.06,5.16-10.32,6.36-16.37,2.33-14.63-9.75-22.76-26.89-19.85-45.1,1.04-6.49,1.14-13.23-2.23-19.43-2.01-3.69-4.12-5.61-8.55-2.96-13.13,7.84-25.4,16.95-37.91,25.7-3.26,2.28-4.34,4.41-1.06,7.64,1.5,1.48,2.09,3.67,2.26,5.92,.39,5.14-1.31,8.24-5.49,9.22-4.53,1.06-7.7-1.28-9.06-5.13-1.88-5.32-6.04-8.21-10.19-11.19-6.41-4.6-13.84-7.84-21.44-8.3-4.91-.3-9.21,4.75-13.46,7.92-.13,.1-.26,.21-.37,.33-7.23,7.59-11.98,15.52-7.4,26.77,2.99,7.34,6.56,14.04,11.59,20.12,3.45,4.17,1.96,9.93-2.63,10.03-4.61,.1-5.16,1.43-3.87,5.41,.61,1.86,.99,3.81,1.9,5.58,4.49,8.7,9.81,16.9,15.01,25.18,7.9,12.58,12.54,26.07,12.32,41.19-.35,23.59-17.6,53.32-49.02,52.9-1.24-.02-2.67,.47-3.72,1.17-9.77,6.54-19.93,11.05-32.18,11.63-11.36,.53-22.57,3.84-34.13,3.13-2.33-.14-4.61,.2-6.89,.85-6.03,1.71-12.16,1.5-18.3,.57-3.14-.47-6.5-1.3-9.42-.17-19.98,7.68-38.05,18.15-50.13,36.62-10.28,15.71-19.83,32.05-24.34,50.32-3.46,14-2.35,28.77-3.16,43.21-.73,12.98,3.47,25.25,5.19,37.87,3.11,22.81,11.32,44.07,19.67,65.31,5.55,14.1,14.69,25.96,23.44,38.01,8.86,12.21,20.11,21.99,33.62,28.98,3.04,1.57,6.68,1.77,9.18,4.65,5.96,6.9,12.91,9.53,21.88,5.4,3.87-1.78,8.18-1.12,11.78,2.12,.51-1.58,1.05-2.95,1.37-4.37,.68-2.98,1.91-5.43,5.45-5.36,4,.08,4.19,3.52,4.5,6.09,1.54,12.88,5.18,25.23,9.09,37.52,2.25,7.08,5.38,14,11,18.63,13.45,11.06,22.32,12.05,30.02-3.8,7-14.4,10.58-29.88,14-45.4,1.1-5,2.6-9.91,3.87-14.87,.82-3.2,2.63-5.72,5.99-5.78,3.56-.06,5.32,2.52,6.58,5.78,.74,1.92-.72,5.03,1.68,5.58,1.74,.4,3.98-1.17,5.93-2,1.35-.57,2.72-1.23,3.88-2.11,7.79-5.94,15.5-11.97,23.28-17.92,2.37-1.81,4.89-3.91,8-3.66,15.26,1.25,29.87-4.69,45.33-3.28,10.51,.96,18.89,4.25,25.88,11.67,2.68,2.84,5.8,4.77,9.61,6.67ZM72.31,489.22c5.46-8.82,11.67-16.35,20.01-22.64-6.14-4.71-12.56-5.93-19.45-3.75-7.44,2.36-9.59,6.92-7.05,14.33,1.4,4.09,3.33,7.96,6.48,12.06Z"/>
        <path class="cls-13" d="M624.81,263.65c-.98-12.15,.69-24.21,5.84-35.74,1.98-4.44,4.14-8.72,7.23-12.49,8.97-10.96,13.14-23.84,14.54-37.65,.99-9.8-2.72-18.23-9.16-25.52-.55-.62-1.33-1.09-1.74-1.78-7.91-13.29-21.69-14.61-34.87-16.92-4.32-.76-8.75,.21-12.67,2.09-12.8,6.13-25.41,12.57-34.03,24.57-2.97,4.13-7.34,5.39-11.99,3.66-4.51-1.68-6.42-5.55-6.44-10.33-.03-8.86,3.06-16.88,9.93-22.05,15.75-11.85,33.15-20.52,53.34-21.4,10-.43,19.89,1.49,29.69,3.44,4.62,.92,9.06,2.89,12.45,6.1,9.92,9.35,19.59,18.87,25.76,31.45,5.78,11.8,4.34,23.58,1.72,35.6-3.57,16.33-8.55,32.11-16.7,46.85-4.64,8.4-6.92,17.55-6.87,27.31,.03,5.63-.46,11.34-1.44,16.89-1.03,5.87-.09,11.18,2.22,16.52,1.45,3.35,2.76,6.8,3.68,10.33,1.5,5.77-1.5,11.57-6.62,13.53-5.35,2.04-11.01-.08-14.09-5.34-1.8-3.07-2.74-6.43-2.92-9.97-.19-3.53-.6-7.1-2.27-10.17-4.94-9.04-5.54-18.69-4.58-28.98Z"/>
        <path class="cls-13" d="M282.16,98.57c-5.16-5.67-9.52-10.88-14.33-15.63-3.88-3.83-7.66-3.63-12.14-.27-2.59,1.94-4.45,4.46-6.05,7.23-.83,1.44-1.66,2.89-2.55,4.3-4.36,6.95-9.72,9.06-14.74,5.82-4.82-3.11-5.38-9.34-1.4-16.06,3.68-6.21,9.06-11.07,13.37-16.79,3.42-4.54,6.59-9.22,8.67-14.54,.66-1.7,1.41-3.42,1.71-5.2,.5-2.96,1.18-6.53-.98-8.63-2.33-2.26-5.27,.27-7.85,1.14-4.25,1.43-8.44,3.08-12.71,4.46-3.71,1.19-7.16,.58-8.9-3.23-1.66-3.63,.12-6.51,3.25-8.47,6.79-4.26,13.81-8.08,21.6-10.19,9.28-2.51,17.23,1.8,20.61,10.94,3.37,9.11,2.62,18.04-1.51,26.66-1.51,3.15-.99,4.61,2.22,5.91,9.46,3.84,16.07,11.46,22.14,19.03,10.38,12.94,11.84,41.09-7.26,51.51-5.31,2.9-10.84,4.26-16.8,3.64-11.34-1.18-17.16-11.05-14.48-24.39,2.52-12.53,12.45-18.89,28.11-17.24Zm3.51,21.31c.06-4.35-3.38-7.86-7.83-7.97-4.97-.13-8.26,3.02-8.26,7.89,0,4.52,3.33,8.08,7.65,8.2,4.38,.12,8.38-3.72,8.44-8.12Z"/>
        <path class="cls-13" d="M177.14,328.07c-12.94,4.41-25.29-1.82-37.98-2.28-26.47-.97-48.96-11.3-66.78-31.13-14.35-15.96-27.52-32.92-41.2-49.45-3.28-3.96-5.22-8.53-5.18-13.72,.02-2.36,.56-4.76,3.45-5.38,2.63-.57,3.96,1.05,5,3.14,3.06,6.17,8.69,9.98,13.49,14.55,12.65,12.02,25.48,23.87,37.97,36.05,8.54,8.33,19.39,12.78,29.52,18.42,6.45,3.59,11.98,9.02,19.92,9.83,6.13,.62,12.3-.86,18.39,.86,7.55,2.14,15.23,3.03,23.13,2.32,3.29-.3,6.52,1.05,9.42,2.84,2.89,1.78,5.03,4.01,4.34,7.69-.71,3.79-3.59,5.54-7.02,6.2-2.08,.4-4.3,.07-6.46,.07Z"/>
        <path class="cls-13" d="M172.84,34.06c5.18,.04,7.98,4.71,5.57,10.04-3.08,6.82-6.22,13.68-10.03,20.1-6.78,11.42-10.46,23.57-11.45,36.82-.7,9.43,2.44,17.02,8.75,23.51,5.33,5.49,10.68,10.97,17.18,15.2,2.62,1.71,4.95,3.94,7.19,6.16,3.15,3.1,5.28,6.77,2.75,11.16-2.48,4.32-6.79,5.13-11.32,4.46-6.41-.95-12.31-3.83-17.17-7.71-13.17-10.51-24.41-23.25-25.91-40.6-1.83-21.21,1.28-42,14.64-59.8,3.99-5.32,7.6-10.96,12.39-15.66,2.06-2.02,4.3-3.71,7.39-3.68Z"/>
        <path class="cls-13" d="M77.49,220.99c-.51-10.98,6.3-27.1,17.42-41.69,1-1.31,2.09-2.61,3.34-3.67,1.73-1.47,3.87-2.28,6-1.06,2.38,1.36,1.95,3.81,1.22,5.82-6.09,16.82-5.69,34.35-5.8,51.81-.05,7.58,2.63,13.87,9.22,18.29,11.99,8.06,23.79,16.42,38.16,19.94,1.41,.35,2.8,1.14,3.98,2.02,1.8,1.34,3.08,3.15,2.58,5.57-.52,2.48-2.55,3.5-4.74,3.84-6.59,1.04-13.19,1.32-19.74-.45-11.61-3.14-22.39-7.61-32.57-14.45-14.03-9.43-19.18-22.24-19.06-45.96Z"/>
        <path class="cls-13" d="M142.67,374.52c-9.39,1.3-17.33-2.06-24.7-7.47-7.31-5.36-15.45-9.09-23.99-12.04-2.19-.76-4.38-1.66-6.37-2.83-10.65-6.26-22.14-8.79-34.43-8.37-7.5,.26-11.07-1.89-11.34-6.2-.24-3.95,2.8-6.64,9.99-7.86,13.45-2.28,26.55-.6,39.12,4.65,4.01,1.67,8.06,3.03,12.27,4.1,10.2,2.58,20.11,5.93,28.77,12.21,2.51,1.82,5.37,2.42,8.5,2.28,7.51-.35,14.95,.45,22.33,1.87,3.92,.75,7.09,2.37,7.59,6.7,.52,4.51-1.88,7.63-5.67,9.68-4.06,2.2-8.65,2.27-13.09,2.82-2.96,.37-5.98,.33-8.97,.47Z"/>
        <path class="cls-13" d="M354.57,48.35c10.28,.12,15.92,5.62,20.18,12.72,3.98,6.62,6.95,13.73,5.13,21.75-1.25,5.52-4.46,9.58-9.96,11.55-3.72,1.33-7.41,1.44-10.05-1.85-2.42-2.99-1.56-6.5,.48-9.29,4.4-6.02,2.19-11.21-1.4-16.44-1.74-2.54-3.98-3.36-6.89-2.49-4.61,1.37-9.25,2.66-13.83,4.12-2.61,.83-5.28,1.89-7.24-.85-2.07-2.89-1.06-5.74,.99-8.23,6.15-7.49,14.79-9.67,22.6-11Z"/>
        <path class="cls-10" d="M682.84,353.13c.37,14.88-12.44,23.12-23.72,22.72-13.83-.49-24.04-12-23.33-24.78,.77-13.83,12.28-23.04,27.28-21.93,10.16,.75,21.98,13.2,19.76,23.99Zm-43.12,8.05c3.12,8.41,10.12,11.47,18.15,12.67,12.94,1.93,25.55-11.21,23.34-24.05-2.82-16.4-17.89-23.45-33.42-15.64-9.54,4.35-13.61,17.98-8.07,27.03Z"/>
        <path class="cls-9" d="M400.81,756.29c-3.81-1.9-6.93-3.83-9.61-6.67-6.99-7.42-15.37-10.71-25.88-11.67-15.46-1.41-30.07,4.53-45.33,3.28-3.1-.25-5.62,1.84-8,3.66-7.78,5.95-15.49,11.98-23.28,17.92-1.16,.88-2.53,1.54-3.88,2.11-1.96,.83-4.19,2.39-5.93,2-2.4-.55-.93-3.66-1.68-5.58-1.26-3.26-3.02-5.85-6.58-5.78-3.36,.06-5.17,2.59-5.99,5.78-1.27,4.96-2.76,9.88-3.87,14.87-3.43,15.52-7,31-14,45.4-7.7,15.84-16.57,14.86-30.02,3.8-5.62-4.62-8.74-11.55-11-18.63-3.91-12.3-7.55-24.64-9.09-37.52-.31-2.58-.5-6.02-4.5-6.09-3.54-.07-4.77,2.38-5.45,5.36-.33,1.42-.87,2.79-1.37,4.37-3.6-3.24-7.91-3.9-11.78-2.12-8.97,4.14-15.92,1.5-21.88-5.4-2.49-2.88-6.14-3.08-9.18-4.65-13.51-6.99-24.76-16.78-33.62-28.98-8.75-12.05-17.89-23.9-23.44-38.01-8.36-21.24-16.57-42.5-19.67-65.31-1.72-12.62-5.92-24.89-5.19-37.87,.81-14.44-.3-29.21,3.16-43.21,4.51-18.27,14.06-34.61,24.34-50.32,12.08-18.47,30.15-28.94,50.13-36.62,2.92-1.12,6.28-.3,9.42,.17,6.14,.92,12.27,1.13,18.3-.57,2.29-.65,4.56-.99,6.89-.85,11.56,.71,22.77-2.6,34.13-3.13,12.25-.58,22.4-5.09,32.18-11.63,1.05-.7,2.47-1.19,3.72-1.17,31.41,.42,48.67-29.31,49.02-52.9,.22-15.12-4.42-28.61-12.32-41.19-5.2-8.28-10.52-16.48-15.01-25.18-.91-1.77-1.3-3.72-1.9-5.58-1.3-3.98-.74-5.31,3.87-5.41,4.59-.1,6.08-5.86,2.63-10.03-5.03-6.08-8.6-12.77-11.59-20.12-4.57-11.25,.17-19.18,7.4-26.77,.11-.12,.24-.23,.37-.33,4.25-3.17,8.54-8.22,13.46-7.92,7.6,.46,15.03,3.7,21.44,8.3,4.14,2.97,8.31,5.86,10.19,11.19,1.36,3.85,4.53,6.18,9.06,5.13,4.18-.98,5.88-4.07,5.49-9.22-.17-2.25-.76-4.44-2.26-5.92-3.27-3.23-2.2-5.36,1.06-7.64,12.51-8.75,24.77-17.85,37.91-25.7,4.43-2.65,6.54-.73,8.55,2.96,3.37,6.2,3.27,12.94,2.23,19.43-2.91,18.21,5.22,35.35,19.85,45.1,6.04,4.03,11.3,2.83,16.37-2.33,13.65-13.92,17.97-31.48,19.99-49.97,.75-6.85,4.23-12.23,8.88-16.81,7.38-7.28,7.48-7.05,17-2.15,5.64,2.9,10.76,6.55,15.99,10.08,1.91,1.28,2.37,2.22,1.07,4.27-1.41,2.23-2.7,4.64-3.48,7.14-1.32,4.2,1.99,7.67,6.34,6.73,4.82-1.04,9.01-3.56,12.43-7,7.62-7.65,15.46-15.05,21.64-24.09,7.05-10.3,21.14-11.1,29.92-2.37,1.18,1.17,2.59,2.1,3.78,3.25,4.28,4.15,6.62,8.49,4.45,15-5.79,17.36-14.29,33.08-26.13,47.01-1.96,2.31-4.31,4.12-6.71,5.94-3.38,2.56-4.33,7.06-2.23,10.14,2.5,3.68,6.39,4.23,9.68,2.23,3.44-2.09,5.03-.59,7.05,1.58,12.57,13.51,23.83,27.74,32.59,44.3,11.8,22.27,23.3,44.58,32.8,67.94,7.71,18.95,11.01,39.19,17.94,58.36,4.66,12.9,9.13,25.93,11.54,39.52,.7,3.92,1.45,7.89,1.49,11.85,.2,19.16,1.21,38.4-.1,57.47-1.03,15.04-1.97,30.4-7.41,44.85-.29,.76-.48,1.65-.39,2.44,1.5,12.08-4.32,22.12-9.01,32.46-.88,1.93-2.29,3.64-3.57,5.36-2.21,2.95-4.4,6-4.99,9.66-2.06,12.96-9.87,22.6-18.22,31.9-5.16,5.75-5.63,10.9-.75,16.8,1.03,1.24,1.82,2.39,1.4,4-2.46,9.27-5.07,18.4-9.93,26.87-7.36,12.85-26.63,13.55-35.6,7.51-8.01-5.4-16.09-10.58-23.19-17.18-1.5-1.39-2.97-2.72-3.1-4.9-.25-4.23-3.3-5.65-6.71-6.02-3.45-.37-4.27,2.84-5.09,5.25-3.84,11.23-8.91,21.7-16.44,31.03-8,9.91-23.99,16.4-36.78,5.93-8.64-7.07-17.58-14.16-27.55-19.64-3.16-1.74-5.49-4.81-7.62-7.83-.97-1.37-2.08-2.59-3.64-3.31-3.82-1.77-6.24-.34-6.17,3.89,.04,2.43,.6,4.85,.98,7.73Zm20.45-375.34c-1.46-3.69-.82-6.96-.11-10.15,1.58-7.11-.58-13.02-5.29-18.29-2.15-2.4-4.86-3.37-7.59-2.01-2.93,1.46-3.9,4.46-3.26,7.69,.74,3.74,1.87,7.37,3.36,10.9,1.22,2.88,2.46,5.82,3.15,8.85,1.02,4.48-.61,5.82-4.91,4.32-9.21-3.22-18.78-4.04-28.41-4.05-11.36-.02-22.51,8.9-23.96,20.04-2.15,16.54,1.65,32.01,12.1,45.19,3.17,4,7.76,7.43,13.14,8.52,9.19,1.86,17.82,.9,24.82-6.83,1.59,3.69,4.6,4.67,7.9,5.49,9.3,2.32,18.18,.76,27.43-1.19,16.92-3.56,25.18-15.22,28.62-30.21,1.7-7.44,5.49-12.85,9.71-18.11,5.96-7.42,7.11-15.54,5.46-24.15-.97-5.05-3.96-9.71-9.55-11.17-10.6-2.77-21.37-3.82-31.58,1.09-7.46,3.58-14.52,8.03-21.02,14.08Zm-49.46-69.73c.05-12.01-3.89-17.97-10.88-18.92-5.88-.8-16.55,4.9-19.04,10.39-6.8,14.97-6.05,29.84,1.22,44.39,2.34,4.68,6.37,8,11.8,7.88,5.67-.12,8.64-4.31,10.7-9.13,.32-.76,.69-1.52,.85-2.32,2.22-11.51,4.82-22.96,5.35-32.3Zm83.96,11.64c0,.83,0,1.67,0,2.5,0,6.82,3.49,13.01,8.26,14.64,5.27,1.8,11.24-.19,15.11-6.8,5.06-8.63,9.18-17.97,10.51-27.96,1.3-9.86-3.48-16.95-11.1-18.6-6.6-1.44-15.96,5.3-18.91,12.88-2.94,7.58-3.73,15.37-3.87,23.34Z"/>
        <path class="cls-6" d="M413.87,254.31c-1.45,9.85-4.54,18.92-11.55,26.4-3.14,3.36-6.11,1.81-8.22-.35-6.19-6.33-11.86-13.23-12.26-22.65-.35-8.3-.61-16.62,.61-24.91,.61-4.16,.35-8.32-1.6-12.19-.71-1.41-1.58-3.01,.88-3.21,1.69-.14,3.9-2.83,5.19,1.02,3.13,9.38,4.9,18.96,4.88,28.84-.01,4.48,.11,8.97-.89,13.41-.36,1.59-.37,3.35-.09,4.96,.38,2.19,1.38,4.38,4.02,4.35,2.8-.02,3.97-1.94,4.15-4.63,.43-6.47,1.45-12.85,2.83-19.18,1.56,.88,.38,3.01,1.79,3.96,1.01,2.44,.02,4.93,.19,7.39,.16,2.36-.79,5.88,2.26,6.22,2.45,.27,2.82-3.18,3.46-5.37,1.47-5.05,2.93-10.1,4.4-15.15,1.53,1.45,.45,3.38,.92,5.02,.1,.33,.06,.63-.12,.92-1.5,1.52-.89,3.38-.84,5.15Z"/>
        <path class="cls-7" d="M72.31,489.22c-3.15-4.1-5.08-7.97-6.48-12.06-2.55-7.41-.4-11.97,7.05-14.33,6.88-2.18,13.3-.96,19.45,3.75-8.34,6.29-14.55,13.82-20.01,22.64Z"/>
        <path class="cls-8" d="M403.6,250.12c-1.42-.95-.23-3.08-1.79-3.96,.58-9.99-.2-19.85-3.06-29.46-.99-3.34,1.32-2.55,2.87-2.76,6.23-.85,5.95-.86,5.39,5.15-.96,10.36-4.12,20.49-3.41,31.03Z"/>
        <path class="cls-11" d="M415.71,233c.07-.62,.13-1.24,.2-1.86,1.45-1.54,.83-3.4,.79-5.17,.17-1.81,.24-3.63,.52-5.42,1.33-8.65,2.03-9.04,11.38-6.2-4.93,6.8-9.53,13.7-11.87,21.78-1.15-.78-.75-2.06-1.01-3.12Z"/>
        <path class="cls-4" d="M415.71,233c.26,1.06-.14,2.34,1.01,3.12-.81,4.01-.38,8.21-1.89,12.11-.47-1.64,.61-3.57-.92-5.02,.03-3.5,.54-6.92,1.81-10.2Z"/>
        <path class="cls-4" d="M416.69,225.97c.04,1.77,.66,3.63-.79,5.17-.19-1.79-.19-3.56,.79-5.17Z"/>
        <path class="cls-4" d="M413.87,254.31c-.05-1.77-.66-3.63,.84-5.15,.13,1.78,.28,3.57-.84,5.15Z"/>
        <path class="cls-2" d="M285.67,119.88c-.07,4.4-4.06,8.24-8.44,8.12-4.33-.12-7.65-3.68-7.65-8.2,0-4.87,3.3-8.02,8.26-7.89,4.45,.12,7.89,3.63,7.83,7.97Z"/>
        <path class="cls-13" d="M647.78,334.15c15.53-7.81,30.6-.75,33.42,15.64,2.21,12.85-10.4,25.98-23.34,24.05-8.03-1.2-15.03-4.25-18.15-12.67-1.07-6.66-2.18-13.24,1.73-19.56,1.77-2.86,4.71-4.58,6.34-7.47Z"/>
        <path class="cls-5" d="M647.78,334.15c-1.63,2.89-4.57,4.61-6.34,7.47-3.9,6.32-2.8,12.9-1.73,19.56-5.54-9.05-1.47-22.68,8.07-27.03Z"/>
        <path class="cls-12" d="M421.26,380.95c6.5-6.06,13.56-10.5,21.02-14.08,10.21-4.91,20.98-3.86,31.58-1.09,5.6,1.46,8.58,6.12,9.55,11.17,1.65,8.6,.5,16.73-5.46,24.15-4.22,5.26-8.01,10.67-9.71,18.11-3.43,14.99-11.7,26.65-28.62,30.21-9.25,1.95-18.13,3.5-27.43,1.19-3.3-.82-6.32-1.8-7.9-5.49-6.99,7.73-15.63,8.69-24.82,6.83-5.38-1.09-9.96-4.51-13.14-8.52-10.45-13.18-14.25-28.65-12.1-45.19,1.45-11.14,12.6-20.06,23.96-20.04,9.62,.01,19.2,.83,28.41,4.05,4.3,1.5,5.93,.16,4.91-4.32-.69-3.03-1.93-5.97-3.15-8.85-1.5-3.53-2.62-7.16-3.36-10.9-.64-3.23,.33-6.23,3.26-7.69,2.73-1.36,5.45-.39,7.59,2.01,4.71,5.27,6.88,11.18,5.29,18.29-.71,3.19-1.35,6.46,.11,10.15Zm32.89,22.02c1.6,0,3.94,.15,6.26-.05,1.74-.15,3.4-.4,4.66-2.21,2.27-3.26,4.92-6.27,7.51-9.3,3.19-3.74,4.44-8.59,2.6-12.51-1.74-3.72-6.75-3.11-10.77-3.06-9.83,.12-18.02,4.52-26.58,8.75-6.77,3.34-11.16,12.72-20.96,9.17-.17-.06-.51,.38-.79,.56-5.06,3.33-10.17,2.52-15-.29-4.06-2.36-8.38-3.81-12.82-5.12-14.43-4.28-25.75,3.76-26.35,18.72-.38,9.63,3.53,17.69,8.2,25.86,5.29,9.24,22.12,9.41,28.18,2.11,1.79-2.16,3.4-4.46,5.07-6.72,5.86-7.96,12.47-15.45,15.69-25.06,1.51-4.53,4.43-4.87,8.95-4.48,8.57,.75,16.66,4.52,26.14,3.63Zm2.54,13.93c-9.71,2.21-18.26-1.02-26.65-4.4-3.44-1.38-5.11-.41-6.83,2.34-3.15,5.05-6.39,10.05-9.76,14.96-2.54,3.7-2.06,6.65,2.23,8.44,3.17,1.32,6.65,2.22,10.18,1.73,14.18-1.97,24.3-9.54,30.82-23.07Z"/>
        <path class="cls-12" d="M371.79,311.22c-.54,9.34-3.13,20.79-5.35,32.3-.15,.8-.52,1.56-.85,2.32-2.06,4.82-5.02,9.01-10.7,9.13-5.43,.11-9.46-3.21-11.8-7.88-7.28-14.55-8.03-29.42-1.22-44.39,2.49-5.49,13.16-11.19,19.04-10.39,6.99,.95,10.93,6.91,10.88,18.92Z"/>
        <path class="cls-12" d="M455.75,322.87c.15-7.97,.93-15.76,3.87-23.34,2.94-7.58,12.31-14.32,18.91-12.88,7.62,1.66,12.41,8.75,11.1,18.6-1.32,9.99-5.45,19.33-10.51,27.96-3.87,6.6-9.84,8.6-15.11,6.8-4.77-1.63-8.26-7.82-8.26-14.64,0-.83,0-1.67,0-2.5Z"/>
        <path class="cls-3" d="M456.69,416.9c-6.52,13.53-16.64,21.09-30.82,23.07-3.53,.49-7.01-.41-10.18-1.73-4.3-1.79-4.78-4.74-2.23-8.44,3.37-4.9,6.61-9.91,9.76-14.96,1.72-2.75,3.38-3.73,6.83-2.34,8.4,3.38,16.94,6.61,26.65,4.4Z"/>
      </g>
      <path class="cls-1" d="M454.27,402.67c1.6,0,3.94,.15,6.26-.05,1.74-.15,3.4-.4,4.66-2.21,2.27-3.26,4.92-6.27,7.51-9.3,3.19-3.74,4.44-8.59,2.6-12.51-1.74-3.72-6.75-3.11-10.77-3.06-9.83,.12-18.02,4.52-26.58,8.75-6.77,3.34-11.16,12.72-20.96,9.17-.17-.06-.51,.38-.79,.56-5.06,3.33-10.17,2.52-15-.29-4.06-2.36-8.38-3.81-12.82-5.12-14.43-4.28-25.75,3.76-26.35,18.72-.38,9.63,3.53,17.69,8.2,25.86,5.29,9.24,22.12,9.41,28.18,2.11,1.79-2.16,3.4-4.46,5.07-6.72,5.86-7.96,12.47-15.45,15.69-25.06,1.51-4.53,4.43-4.87,8.95-4.48,8.57,.75,16.66,4.52,26.14,3.63Z"/>
    </g>
  </g>
</svg>