<?xml version="1.0" encoding="UTF-8"?>
<svg id="_レイヤー_2" data-name="レイヤー 2" xmlns="http://www.w3.org/2000/svg" viewBox="0 0 873.54 777.9">
  <defs>
    <style>
      .cls-1 {
        fill: #eae4ec;
      }

      .cls-2 {
        fill: #6b956e;
      }

      .cls-3 {
        fill: #8c8285;
      }

      .cls-4 {
        fill: #a5a7ad;
      }

      .cls-5 {
        fill: #bfbbc2;
      }

      .cls-6 {
        fill: #222;
      }

      .cls-7 {
        fill: #424749;
      }

      .cls-8 {
        fill: #5c5d5f;
      }

      .cls-9 {
        fill: #3a473b;
      }

      .cls-10 {
        fill: #5a4446;
      }

      .cls-11 {
        fill: #82898d;
      }

      .cls-12 {
        fill: #7c797d;
      }
    </style>
  </defs>
  <g id="_レイヤー_1-2" data-name="レイヤー 1">
    <g>
      <path class="cls-1" d="M108.91,589.58c-.61-6.44,.27-16.41,1.37-26.28,1.8-16.15,4.76-32.1,9.47-47.73,4.82-15.98,10.43-31.65,16.58-47.13,5.15-12.95,10.85-25.69,16.18-38.57,5.61-13.55,11.05-27.21,12.96-41.87,.68-5.18,.56-10.56,.04-15.77-.61-6.18-4.09-7.52-9.48-4.19-4.78,2.96-9.18,6.45-13.46,10.07-16.14,13.65-34.51,22.33-55.5,25.42-5.53,.81-11.04,2.04-16.63,2.01-11-.05-21.06-2.91-29.42-10.59-2.25-2.07-4.7-3.77-6.6-6.33-5.3-7.14-5.88-15.02-4.43-23.31,2.31-13.22,7.69-25.62,10.47-38.73,2.24-10.59,4.86-21.02,5.62-31.96,.68-9.7-.13-19-2.19-28.37-1.25-5.68-4.27-10.29-7.71-14.78-5.99-7.82-13.41-14.27-20.24-21.28-3.55-3.65-6.88-7.52-9.48-11.84-5.81-9.65-7.56-20.06-5.83-31.32,1.66-10.8,6.58-20.28,10.89-30.01,3.77-8.49,5.06-16.86,1.6-25.77-1.96-5.05-3.08-10.39-4.5-15.62-2.14-7.9,.59-14.61,4.35-21.13,2.85-4.94,6.99-8.93,11.47-12.25,10.6-7.88,21.49-15.42,33.27-21.45,10.01-5.13,20.66-8.68,31.78-10.64,12.61-2.22,25.3-3.9,38-5.55,12.69-1.65,25.34-3.61,38.03-5.26,3.75-.49,7.54-.54,11.32-1.02,11.81-1.5,23.72-2.16,35.54-3.57,10.57-1.26,21.15-2.31,31.76-3.29,19.3-1.78,38.15-5.71,56.61-11.84,16.47-5.47,32.94-11.11,50-14.59,8.48-1.73,16.91-3.51,25.62-4.19C382.33,.39,388.27,.02,394.24,0c8.16-.03,16.18,1.38,24.2,2.64,12.11,1.9,24.13,4.17,36.41,5.19,9.68,.8,19.39,1.66,29.07,2.82,12.72,1.53,25.38,3.23,38,5.53,16.82,3.07,32.35,8.99,46.56,18.52,7.39,4.96,15.1,9.45,24.07,10.94,15.05,2.5,29.9,1.64,44.49-3.04,16.75-5.37,33.16-11.61,49.23-18.76,8.97-3.99,18.14-7.34,28.29-6.43,12.83,1.14,25.78,8.58,29.45,22.67,.95,3.64,1.59,7.44,1.75,11.2,.71,16.51-1.09,32.83-4.06,49.07-2.44,13.3-5.11,26.61-6.54,40.03-1.9,17.81,1.26,34.61,12.99,49.1,7.02,8.68,11.52,18.8,15.16,29.3,5.18,14.95,11.64,29.35,19.28,43.17,8.83,15.97,23.09,25.11,40.21,30.17,6.06,1.79,12.32,2.94,18.35,4.83,9.75,3.06,19.04,7.05,26.22,14.79,4.76,5.13,7.03,11.2,5.86,17.96-4.12,23.72-16.32,41.64-37.97,53.14-14.36,7.63-29.52,9.59-45.29,8.48-7.17-.51-14.26-2.08-21.42-2.95-5.2-.63-10.43-1.13-15.66-1.22-3.83-.07-7.62-1.25-11.3-1-9.91,.69-19.86,.51-29.74,1.76-5.73,.72-11.46,1.33-17.15,2.36-7.99,1.45-15.19,4.63-21.74,9.35-3.61,2.6-5.29,6.51-6.2,10.59-1.33,5.98-2.33,12.03-2.77,18.17-.37,5.03-1.14,10.02-1.84,15.02-.65,4.65-.52,9.34-1.17,14.04-1.31,9.45-2.35,18.97-3.27,28.47-.97,10.09-2.59,20.03-4.55,29.94-3.2,16.19-7.85,31.95-14.37,47.13-11.51,26.8-26.9,51.28-44.53,74.42-6.69,8.78-13.77,17.21-21.02,25.54-7.41,8.52-15.34,16.49-23.54,24.15-9.76,9.13-19.96,17.82-30.94,25.54-15.58,10.96-31.78,20.83-48.54,29.9-25.52,13.81-52.4,23.65-80.77,29.62-14.35,3.02-28.76,4.79-43.44,5.61-8.19,.46-16.2-.49-24.28-.59-7.68-.1-15.38-1.86-23-3.27-19.18-3.55-38.26-7.6-57.08-12.76-23.07-6.33-45.88-13.39-67.78-23.17-7.96-3.56-15.8-7.2-22.79-12.51-10.97-8.33-18.77-19.08-24.26-31.55-6.38-14.47-10.44-29.69-13.15-45.21-1.79-10.29-2.95-20.69-3.78-31.16-.64-8.16-.64-16.28-1-27.97ZM715.17,54.45c-2.6,2.02-4.64,4.57-6.68,7.12-6.05,7.57-10.65,16.02-14.92,24.66-15.08,30.5-27.03,62.27-38.24,94.34-16.3,46.63-30.9,93.82-46.87,140.55-.56,1.65-1.17,3.28-1.72,4.81-1.83-.25-2.02-1.5-2.5-2.38-8-14.69-18.61-27.29-30.89-38.52-13.54-12.39-27.58-24.2-42.44-35.02-1.12-.82-2.69-1.25-3.02-3.1,.7-.47,1.43-.99,2.19-1.45,21.58-13.16,42.22-27.69,62.43-42.86,2.18-1.63,4.3-3.36,6.31-5.19,4.84-4.42,7.87-9.98,9.35-16.3,1.19-5.09-1.1-7.61-6.36-7.42-.9,.03-1.79,.27-2.69,.39-6.52,.91-11.92,4.17-17.03,8.07-16.33,12.45-33.26,24.07-50.34,35.45-7.72,5.14-15.7,9.82-23.8,14.34-2.14,1.2-3.85,1.3-6.01,0-4.67-2.8-9.45-5.42-14.28-7.94-24.41-12.74-50.13-21.06-77.74-23.02-3.49-.25-3.67-.39-2.74-3.98,.99-3.86,2.18-7.68,3.49-11.45,3.11-8.92,6.87-17.59,10.93-26.11,6.19-12.96,11.39-26.31,15.77-39.98,2.38-7.44,5.13-14.74,8.4-21.84,.49-1.06,.53-2.47,2.19-2.87,8.03,9.21,18.62,13.56,30.33,15.63,13.47,2.39,26.78,1.12,39.97-2.04,10.14-2.43,19.78-6.08,28.2-12.41,5.3-3.98,9.8-8.68,12.4-14.9,3.5-8.39,1.38-15.79-5.98-21.11-2.66-1.92-5.56-3.41-8.65-4.54-7.12-2.6-14.5-3.54-21.98-2.71-25.01,2.77-48.66,9.85-70.34,22.92-.73,.44-1.4,1.15-2.49,.54-.76-1.76-1.45-3.64-2.35-5.41-10.79-21.26-26-36.66-51.33-38.64-24.91-1.94-47.51,4.32-67.56,19.28-7.25,5.41-12.84,12.3-16.21,20.81-3.67,9.27-1.38,17.59,6.51,23.72,3.76,2.92,7.98,5.02,12.46,6.6,13.76,4.86,28.01,6.51,42.41,4.99,21.01-2.23,41.39-7.43,61.2-14.84,1.06-.4,2.12-1.65,3.51-.45-.15,.5-.25,1.02-.44,1.49-8.07,19.44-15.81,39.02-25.91,57.57-8.2,15.06-14.57,30.85-16.89,48.02-.38,2.82-2.19,3.56-4.46,1.73-1.83-1.47-3.38-3.3-5.01-5-9.56-9.99-19.45-19.62-30.85-27.54-13.31-9.24-27.93-14.59-44.27-14.76-24.97-.25-45.98,8.9-63.52,26.52-7.32,7.35-12.86,15.7-15.55,25.8-1.17,1.12-1.65,2.52-1.79,4.11,1.1,.06,1.74-.35,1.93-1.35,3.27-2.89,6.58-5.76,10.42-7.87,7.81-4.3,15.19-9.26,22.61-14.18,4.09-2.71,8.19-5.45,12.7-7.4,24.87-10.73,48.39-9.67,69.91,8.24,5.31,4.42,10.39,9.1,15.07,14.19,.77,.84,2.18,1.44,1.72,3.1-4.77,1.06-9.72,1.63-14.27,3.3-5.93,2.17-12.01,2.62-18.13,3.13-29.04,2.4-56.83,9.76-83.38,21.62-14.06,6.28-26.18,15.59-37.28,26.19-5.02,4.8-9.03,10.4-12.19,16.62-4.62,9.11-5.15,18.32-1.4,27.89,3.2,8.17,7.75,15.59,12.19,23.08,4.74,7.99,8.92,16.23,11.17,25.31,4.4,17.7,3.1,35.33-.75,52.9-3.54,16.12-10.39,30.92-18.44,45.21-7.93,14.08-16,28.09-22.86,42.73-9.82,20.96-18.1,42.45-20.77,65.64-2.27,19.67-.24,38.76,8.59,56.84,6.73,13.78,15.04,26.54,24.29,38.7,24.08,31.65,54.84,54.2,92.5,67.19,15.82,5.46,32,7.88,48.77,6.33,16.52-1.53,32.74-4.69,48.5-9.67,37.55-11.87,73.48-27.62,106.41-49.24,36.98-24.28,67.1-55.46,88.58-94.5,11.4-20.72,21.01-42.25,28.83-64.57,8.19-23.4,13.03-47.6,16.76-72.03,4.08-26.76,5.9-53.48-2.41-79.88-.58-1.85-.6-3.43,1.12-4.86,2.33-1.93,3.26-4.75,4.13-7.54,3.22-10.41,7.05-20.61,11.03-30.75,6.85-17.44,14.8-34.35,24.84-50.22,4.88-7.71,10.35-14.94,17.36-20.87,4.07-3.44,8.55-6.07,13.85-7.25,4.61-1.02,8.21,.33,11.08,3.96,2.74,3.47,4.58,7.4,5.92,11.58,2.64,8.18,4.03,16.58,4.32,25.16,.18,5.27,.53,10.53,1.64,15.7,5.56,25.99,28.26,49.55,54.52,56.36,19.01,4.94,38.35,6.05,57.87,4.11,2.72-.27,5.4-.81,7.77-2.31,3.83-2.42,5.63-6.49,4.77-10.74-.79-3.88-3.97-6.87-8.34-7.51-1.96-.29-3.99-.23-5.98-.16-15.68,.54-31.12-.89-46.57-3.92-21.51-4.21-44.2-27.57-44.11-51.8,.04-11.09-2.51-21.99-6.24-32.51-2.51-7.09-5.96-13.66-11.15-19.17-7.1-7.53-15.79-10.64-26.09-9.4-9.54,1.15-17.58,5.48-24.94,11.36-.45-.42-.91-.85-1.36-1.27,12.02-37.53,24.68-74.84,37.85-111.98,6.69-18.86,12.08-38.06,14.79-57.94,.72-.82,1.56-2.11,.7-2.75-1.12-.83-1.55,.68-2.02,1.51ZM26.15,186.61c10.74,.11,18.98-4.93,27.23-9.93,.16-.09,.32-.17,.48-.26,15.53-9.79,32.44-16.14,50.33-19.99,14.38-3.09,28.74-3.89,43.09,.33,14.94,4.4,22.76,14.73,25.08,29.72,1.44,9.31,.38,18.5-1.81,27.55-7.47,30.9-22.08,58.24-41.83,82.95-9.42,11.78-19.51,22.99-29.95,33.86-8.25,8.59-12.98,19.16-17.71,29.78-.58,1.3-1.33,2.91,.05,4.03,1.16,.95,2.43-.17,3.48-.73,6.73-3.57,13.51-7.06,19.9-11.23,3.21-2.1,6.09-4.58,8.75-7.33,9.49-9.78,18.79-19.72,27.61-30.11,22.15-26.08,38.69-55.24,48.32-88.16,4.16-14.24,6.39-28.76,3.84-43.58-3.76-21.85-15.62-37.13-36.97-44.37-6.73-2.29-13.69-3.58-20.79-4.01-30.39-1.82-58.13,6.69-84.04,21.93-7.54,4.43-14.19,10.11-19.93,16.78-3.14,3.65-5.31,7.69-5.15,12.78ZM114.62,77.21c0,.5,0,.99,0,1.49-9.25,0-18.5-.2-27.74,.06-8.89,.24-17.71,1.26-26.3,3.84-6.04,1.81-10.54,5.45-13.86,10.73-1.08,1.72-1,2.94,.93,3.97,7.49,3.98,15.33,6.52,23.94,5.83,6.7-.53,13.41-.5,20.12-.42,12.53,.16,25.02-.61,37.5-1.54,6.87-.51,13.74-1.05,20.59-1.71,4.65-.45,8.68-2.5,12.22-5.48,3.39-2.85,3.5-3.71,1.03-7.22-4.37-6.21-10.33-9.51-17.98-9.53-10.15-.03-20.31,0-30.46,0Z"/>
      <path class="cls-6" d="M231.15,206.04c2.69-10.1,8.23-18.44,15.55-25.8,17.53-17.62,38.55-26.77,63.52-26.52,16.34,.16,30.96,5.52,44.27,14.76,11.41,7.92,21.29,17.55,30.85,27.54,1.63,1.71,3.18,3.53,5.01,5,2.27,1.83,4.08,1.09,4.46-1.73,2.32-17.18,8.69-32.96,16.89-48.02,10.1-18.55,17.84-38.12,25.91-57.57,.2-.48,.3-.99,.44-1.49-1.4-1.2-2.45,.06-3.51,.45-19.81,7.41-40.19,12.61-61.2,14.84-14.4,1.53-28.65-.12-42.41-4.99-4.48-1.58-8.69-3.68-12.46-6.6-7.89-6.13-10.19-14.45-6.51-23.72,3.37-8.51,8.96-15.39,16.21-20.81,20.05-14.96,42.65-21.22,67.56-19.28,25.32,1.97,40.54,17.37,51.33,38.64,.9,1.77,1.59,3.65,2.35,5.41,1.09,.61,1.76-.1,2.49-.54,21.68-13.07,45.32-20.15,70.34-22.92,7.48-.83,14.86,.11,21.98,2.71,3.09,1.13,5.99,2.62,8.65,4.54,7.36,5.32,9.48,12.72,5.98,21.11-2.6,6.23-7.11,10.92-12.4,14.9-8.42,6.33-18.06,9.98-28.2,12.41-13.19,3.16-26.5,4.42-39.97,2.04-11.71-2.08-22.3-6.42-30.33-15.63-1.66,.4-1.71,1.81-2.19,2.87-3.26,7.1-6.01,14.4-8.4,21.84-4.38,13.68-9.58,27.02-15.77,39.98-4.07,8.52-7.83,17.18-10.93,26.11-1.31,3.77-2.49,7.59-3.49,11.45-.92,3.59-.75,3.73,2.74,3.98,27.6,1.97,53.33,10.28,77.74,23.02,4.83,2.52,9.61,5.14,14.28,7.94,2.16,1.3,3.87,1.2,6.01,0,8.09-4.52,16.08-9.2,23.8-14.34,17.09-11.38,34.01-23,50.34-35.45,5.11-3.9,10.51-7.16,17.03-8.07,.9-.12,1.79-.36,2.69-.39,5.26-.19,7.55,2.33,6.36,7.42-1.47,6.32-4.51,11.88-9.35,16.3-2.01,1.84-4.13,3.56-6.31,5.19-20.2,15.16-40.84,29.7-62.43,42.86-.76,.46-1.48,.98-2.19,1.45,.34,1.85,1.9,2.29,3.02,3.1,14.86,10.81,28.9,22.62,42.44,35.02,12.27,11.23,22.89,23.83,30.89,38.52,.48,.87,.67,2.12,2.5,2.38,.55-1.53,1.16-3.16,1.72-4.81,15.97-46.74,30.57-93.93,46.87-140.55,11.21-32.07,23.16-63.84,38.24-94.34,4.27-8.64,8.87-17.09,14.92-24.66,2.04-2.55,4.08-5.1,6.68-7.12,.44,.41,.88,.82,1.32,1.23-2.72,19.88-8.11,39.08-14.79,57.94-13.17,37.14-25.83,74.45-37.85,111.98-.98,.76-1.51,1.89-.49,2.66,.65,.48,1.57-.42,1.85-1.39,7.36-5.88,15.41-10.21,24.94-11.36,10.3-1.24,19,1.87,26.09,9.4,5.2,5.52,8.64,12.09,11.15,19.17,3.73,10.52,6.28,21.42,6.24,32.51-.09,24.23,22.59,47.59,44.11,51.8,15.45,3.02,30.89,4.45,46.57,3.92,1.99-.07,4.02-.12,5.98,.16,4.37,.64,7.56,3.63,8.34,7.51,.86,4.25-.94,8.32-4.77,10.74-2.37,1.5-5.05,2.04-7.77,2.31-19.52,1.94-38.85,.82-57.87-4.11-26.26-6.82-48.96-30.37-54.52-56.36-1.11-5.17-1.46-10.43-1.64-15.7-.29-8.58-1.68-16.98-4.32-25.16-1.35-4.18-3.18-8.11-5.92-11.58-2.87-3.63-6.47-4.98-11.08-3.96-5.3,1.17-9.78,3.8-13.85,7.25-7.01,5.93-12.49,13.16-17.36,20.87-10.04,15.87-17.99,32.78-24.84,50.22-3.98,10.14-7.81,20.34-11.03,30.75-.87,2.79-1.8,5.61-4.13,7.54-1.73,1.43-1.7,3.01-1.12,4.86,8.3,26.4,6.49,53.13,2.41,79.88-3.73,24.43-8.57,48.63-16.76,72.03-7.81,22.32-17.43,43.85-28.83,64.57-21.48,39.04-51.59,70.22-88.58,94.5-32.93,21.62-68.86,37.37-106.41,49.24-15.77,4.98-31.98,8.14-48.5,9.67-16.76,1.55-32.95-.87-48.77-6.33-37.66-12.99-68.41-35.54-92.5-67.19-9.25-12.16-17.56-24.92-24.29-38.7-8.83-18.08-10.86-37.17-8.59-56.84,2.67-23.19,10.95-44.68,20.77-65.64,6.86-14.65,14.93-28.65,22.86-42.73,8.05-14.29,14.9-29.09,18.44-45.21,3.86-17.57,5.15-35.2,.75-52.9-2.26-9.08-6.43-17.32-11.17-25.31-4.44-7.49-8.99-14.91-12.19-23.08-3.75-9.57-3.22-18.78,1.4-27.89,3.16-6.22,7.17-11.83,12.19-16.62,11.1-10.6,23.22-19.91,37.28-26.19,26.55-11.85,54.34-19.22,83.38-21.62,6.12-.51,12.21-.96,18.13-3.13,4.55-1.67,9.51-2.24,14.27-3.3,.45-1.66-.95-2.26-1.72-3.1-4.69-5.08-9.76-9.77-15.07-14.19-21.52-17.91-45.04-18.98-69.91-8.24-4.51,1.95-8.61,4.69-12.7,7.4-7.42,4.92-14.8,9.88-22.61,14.18-3.83,2.11-7.14,4.98-10.42,7.87-.05-.92-.09-1.84-.14-2.75Zm381.86,193.31c1.12-15.77-2.79-32.67-9.04-49.09-6.79-17.84-16.49-33.87-30.01-47.54-14.09-14.25-29.7-26.68-45.61-38.76-13.19-10.02-27.69-18-42.06-26.14-20.72-11.72-42.8-19.77-66.27-23.75-5.49-.93-11.1-1.79-16.79-1.16-6.66,.74-13.35,1.2-20.02,1.94-7.74,.85-15.53,1.28-23.18,2.88-8.9,1.87-17.84,3.13-26.99,2.41-2.87-.23-5.85-.12-8.69,.37-13.57,2.34-27.17,4.51-40.39,8.55-20.54,6.27-40.8,13.03-57.89,26.85-7.1,5.75-13.92,11.59-18.92,19.36-5.88,9.13-6.88,18.46-2.01,28.35,3.05,6.2,6.27,12.3,10.08,18.06,14.99,22.71,18.52,47.67,14.56,74.07-3.16,21.09-10.9,40.56-21.27,59.08-7.37,13.15-14.92,26.21-21.25,39.9-9.92,21.47-18.48,43.36-20.86,67.23-1.56,15.66-.04,30.83,6.36,45.26,9.75,21.99,23.63,41.26,40.24,58.47,16.16,16.75,35.07,29.8,56.37,39.36,22.12,9.93,44.89,15.03,69.31,11.5,17.84-2.58,35.25-6.6,52.28-12.41,13.59-4.64,26.67-10.52,39.77-16.32,17.12-7.58,33.83-15.94,49.63-26.03,18.33-11.71,34.32-26.16,49.42-41.7,14.92-15.35,27.28-32.54,37.35-51.36,17.82-33.3,31.68-68.05,38.62-105.37,3.82-20.52,7.44-41.04,7.23-64ZM363.91,100.08c5.1-1.28,10.95-.78,16.72-1.76,20.26-3.46,40.03-8.64,59.28-15.83,2.4-.9,2.95-2,2.09-4.48-1.93-5.55-4.72-10.61-7.91-15.48-8.91-13.61-20.95-22.6-37.51-24.24-20.71-2.04-40.11,2.26-57.83,13.29-8.93,5.56-16.46,12.58-20.27,22.77-2.47,6.6-.95,11.62,4.74,15.75,2.8,2.03,5.87,3.56,9.11,4.83,9.98,3.9,20.51,4.34,31.58,5.15Zm131.7,3.58c2.47,.35,6.76-.72,11.05-1.28,12.15-1.59,23.78-4.88,34.11-11.79,4.75-3.17,8.79-7.02,11.14-12.34,2.33-5.27,1.16-9.51-3.51-12.87-7.94-5.7-17.05-7.21-26.41-6.2-17.4,1.87-34.07,6.76-50.15,13.63-5.85,2.5-11.43,5.54-16.59,9.27-3.64,2.63-3.69,3.37-.66,6.83,2.77,3.17,5.99,5.71,9.76,7.7,9.21,4.87,19.1,6.56,31.27,7.05Z"/>
      <path class="cls-6" d="M26.15,186.61c-.17-5.08,2.01-9.13,5.15-12.78,5.74-6.66,12.39-12.34,19.93-16.78,25.91-15.24,53.65-23.75,84.04-21.93,7.1,.42,14.06,1.72,20.79,4.01,21.35,7.25,33.21,22.52,36.97,44.37,2.55,14.82,.32,29.34-3.84,43.58-9.63,32.92-26.17,62.09-48.32,88.16-8.82,10.39-18.13,20.33-27.61,30.11-2.67,2.75-5.54,5.23-8.75,7.33-6.39,4.17-13.17,7.66-19.9,11.23-1.06,.56-2.33,1.68-3.48,.73-1.37-1.12-.63-2.72-.05-4.03,4.73-10.62,9.45-21.18,17.71-29.78,10.44-10.87,20.53-22.08,29.95-33.86,19.75-24.72,34.36-52.05,41.83-82.95,2.19-9.05,3.25-18.24,1.81-27.55-2.32-14.99-10.14-25.32-25.08-29.72-14.35-4.23-28.72-3.42-43.09-.33-17.89,3.85-34.79,10.2-50.33,19.99-.15,.1-.32,.17-.48,.26-8.25,5-16.49,10.04-27.23,9.93Z"/>
      <path class="cls-6" d="M114.62,77.21c10.15,0,20.31-.02,30.46,0,7.65,.02,13.6,3.32,17.98,9.53,2.47,3.52,2.36,4.37-1.03,7.22-3.55,2.98-7.57,5.03-12.22,5.48-6.86,.66-13.72,1.2-20.59,1.71-12.48,.93-24.97,1.69-37.5,1.54-6.71-.08-13.42-.11-20.12,.42-8.62,.68-16.45-1.85-23.94-5.83-1.93-1.03-2.01-2.25-.93-3.97,3.32-5.28,7.83-8.91,13.86-10.73,8.59-2.58,17.41-3.6,26.3-3.84,9.24-.25,18.49-.06,27.74-.06,0-.5,0-.99,0-1.49Z"/>
      <path class="cls-8" d="M231.15,206.04c.05,.92,.09,1.84,.14,2.75-.19,1.01-.83,1.42-1.93,1.35,.14-1.59,.62-2.99,1.79-4.11Z"/>
      <path class="cls-10" d="M716.5,55.68c-.44-.41-.88-.82-1.32-1.23,.47-.83,.89-2.34,2.02-1.51,.86,.64,.02,1.92-.7,2.75Z"/>
      <path class="cls-3" d="M665.21,226.87c-.28,.96-1.2,1.87-1.85,1.39-1.02-.76-.49-1.9,.49-2.66,.45,.42,.91,.85,1.36,1.27Z"/>
      <path class="cls-2" d="M613.01,399.36c.21,22.96-3.41,43.48-7.23,64-6.94,37.32-20.8,72.07-38.62,105.37-10.07,18.83-22.43,36.01-37.35,51.36-15.11,15.54-31.09,29.99-49.42,41.7-15.81,10.09-32.51,18.46-49.63,26.03-13.11,5.8-26.19,11.68-39.77,16.32-17.03,5.81-34.45,9.84-52.28,12.41-24.42,3.53-47.19-1.58-69.31-11.5-21.3-9.56-40.21-22.61-56.37-39.36-16.61-17.21-30.5-36.49-40.24-58.47-6.4-14.44-7.92-29.6-6.36-45.26,2.38-23.86,10.94-45.76,20.86-67.23,6.33-13.69,13.88-26.75,21.25-39.9,10.37-18.52,18.11-37.99,21.27-59.08,3.96-26.4,.43-51.36-14.56-74.07-3.81-5.76-7.02-11.86-10.08-18.06-4.87-9.89-3.87-19.22,2.01-28.35,5-7.77,11.82-13.61,18.92-19.36,17.09-13.82,37.34-20.58,57.89-26.85,13.22-4.03,26.82-6.2,40.39-8.55,2.84-.49,5.82-.6,8.69-.37,9.15,.72,18.09-.54,26.99-2.41,7.65-1.61,15.44-2.03,23.18-2.88,6.66-.73,13.36-1.2,20.02-1.94,5.68-.63,11.29,.23,16.79,1.16,23.47,3.98,45.55,12.02,66.27,23.75,14.38,8.13,28.87,16.12,42.06,26.14,15.9,12.08,31.52,24.5,45.61,38.76,13.52,13.68,23.21,29.7,30.01,47.54,6.25,16.42,10.16,33.32,9.04,49.09Zm-343.73,188.29c2.91-5.65,6.05-11.14,10.04-16.14,6.81-8.55,14.87-15.9,22.58-23.57,7.49-7.45,15.7-14.03,24.89-19.27,19.88-11.34,40.81-18.65,64.2-16.31,17.28,1.73,33.85,6.01,49.64,13.28,10.11,4.65,19.23,10.93,28.36,17.18,3.04,2.08,6.2,2.91,9.76,2.35,2.32-.37,4.06-1.72,4.97-3.82,1.02-2.36-.9-3.72-2.32-5.03-3.09-2.84-6.79-4.83-10.31-7.06-15.37-9.76-31.3-18.28-49.12-22.83-12.52-3.19-25.21-5.61-38.08-5.44-17.62,.23-34.34,5.04-50.24,12.6-20.94,9.95-37.76,24.9-51.87,43.05-6.87,8.84-12.06,18.53-13.75,29.8-1.16,2.14-2.29,4.29-1.69,7.19,1.94-1.82,2.11-4.07,2.94-5.99Zm94.89-226.64c.2-1.89-.52-5.48-1.01-9.06-3.02-22.19-13.75-38.83-35.17-47.15-14.11-5.48-28.1-5.38-40.97,3.75-7.78,5.52-12.66,13.36-16.49,21.93-3.21,7.17-4.58,14.9-6.7,22.39-3.12,11.04-5.05,22.14-3.51,33.81,1.41,10.73,4.63,20.52,11.38,28.96,6.69,8.35,14.47,15.47,25.18,18.16,16.16,4.05,30.43-.67,42.33-11.45,17.43-15.81,24.2-36.52,24.96-61.33Zm47.92,6.54c-.13,10.71,3.43,23.36,9.16,35.44,3.8,7.99,10.14,13.43,18.81,15.17,14.12,2.83,26.58-.48,36.5-11.53,9.07-10.1,14.52-22.08,17.91-35.01,4.7-17.94,3.15-35.23-6.67-51.3-6.04-9.88-14.17-17.49-25.48-20.95-11.35-3.47-22.6-3.76-32.66,3.73-5.76,4.29-9.51,10-8.95,17.62,.2,2.67-.72,4.98-1.52,7.37-3.94,11.91-7.03,23.98-7.12,39.45Z"/>
      <path class="cls-2" d="M363.91,100.08c-11.07-.81-21.6-1.25-31.58-5.15-3.24-1.27-6.32-2.8-9.11-4.83-5.69-4.13-7.21-9.15-4.74-15.75,3.81-10.19,11.33-17.21,20.27-22.77,17.72-11.03,37.12-15.33,57.83-13.29,16.57,1.63,28.6,10.62,37.51,24.24,3.18,4.87,5.98,9.94,7.91,15.48,.86,2.48,.31,3.58-2.09,4.48-19.26,7.19-39.02,12.37-59.28,15.83-5.76,.98-11.61,.49-16.72,1.76Z"/>
      <path class="cls-2" d="M495.61,103.66c-12.17-.49-22.06-2.18-31.27-7.05-3.76-1.99-6.98-4.53-9.76-7.7-3.03-3.46-2.98-4.2,.66-6.83,5.17-3.74,10.74-6.77,16.59-9.27,16.08-6.88,32.75-11.76,50.15-13.63,9.37-1.01,18.48,.5,26.41,6.2,4.68,3.36,5.84,7.6,3.51,12.87-2.35,5.32-6.4,9.17-11.14,12.34-10.34,6.91-21.96,10.21-34.11,11.79-4.29,.56-8.58,1.63-11.05,1.28Z"/>
      <path class="cls-6" d="M364.17,361c-.76,24.81-7.53,45.52-24.96,61.33-11.89,10.78-26.17,15.51-42.33,11.45-10.71-2.69-18.49-9.81-25.18-18.16-6.76-8.44-9.97-18.23-11.38-28.96-1.53-11.67,.39-22.77,3.51-33.81,2.12-7.49,3.49-15.21,6.7-22.39,3.84-8.57,8.71-16.41,16.49-21.93,12.87-9.14,26.86-9.23,40.97-3.75,21.42,8.32,32.15,24.96,35.17,47.15,.49,3.59,1.2,7.17,1.01,9.06Zm-75.21-38.26c-.95,.93-2.03,1.75-2.32,3.16-3.17,3.34-5.5,7.29-7.05,11.52-5.67,15.43-9.64,31.18-8.14,47.87,1.29,14.32,8.08,25.43,19.55,33.72,7.15,5.17,15.14,6.34,23.82,4.43,11.89-2.62,20.63-9.43,27.22-19.34,11.83-17.79,15.03-37.34,9.95-57.81-3.97-15.99-13.97-27.29-30.44-31.79-2.77-.76-5.64-1.43-9.49-1.37,3.04,3.12,4.76,5.78,5.4,9.14,1.89,9.93-3.62,20.74-13.02,25.25-8.56,4.1-16.84-.67-17.68-10.16-.31-3.5,.43-6.85,1.16-10.22,.83-1.47,1.65-2.95,2.48-4.42,.84-.37,1.69-1.04,1.15-1.88-.45-.68-1.27,.04-1.74,.57-.34,.38-.56,.87-.84,1.32Z"/>
      <path class="cls-6" d="M412.09,367.54c.09-15.47,3.18-27.54,7.12-39.45,.79-2.4,1.72-4.7,1.52-7.37-.57-7.62,3.19-13.34,8.95-17.62,10.06-7.49,21.3-7.2,32.66-3.73,11.3,3.45,19.44,11.06,25.48,20.95,9.82,16.07,11.37,33.36,6.67,51.3-3.39,12.94-8.84,24.91-17.91,35.01-9.92,11.05-22.38,14.36-36.5,11.53-8.67-1.74-15.01-7.17-18.81-15.17-5.74-12.08-9.3-24.73-9.16-35.44Zm23.01-52.44c.54-.36,1.27-.99,.47-1.39-.8-.41-1.3,.58-1.64,1.31l-.83,1.31c-.54,.99-1.53,1.79-1.34,3.1-1.58,2.69-2.55,5.61-3.16,8.64-1.4,6.93-2.81,13.87-4.08,20.82-2.96,16.17-.88,31.76,5.33,46.93,4.75,11.58,14.85,15.83,27.11,13.25,8.76-1.85,14.59-7.8,19.34-14.88,6.18-9.22,9.55-19.62,10.79-30.52,1.96-17.11-2.21-32.44-15.07-44.68-1.93-1.83-3.9-3.67-6.88-4.78-.23,1.42-.39,2.45-.56,3.48-.96,5.8-3.79,10.57-8.26,14.3-4.73,3.95-10.13,6.1-16.1,3.3-5.56-2.61-7.31-7.71-7.25-13.56,1.02-1.27,1.06-2.8,1.15-4.32,.6-.65,.91-1.43,.96-2.32Z"/>
      <path class="cls-6" d="M268.02,586.44c1.69-11.27,6.87-20.96,13.75-29.8,14.12-18.15,30.94-33.1,51.87-43.05,15.9-7.56,32.62-12.37,50.24-12.6,12.87-.17,25.57,2.25,38.08,5.44,17.82,4.54,33.75,13.07,49.12,22.83,3.52,2.23,7.22,4.22,10.31,7.06,1.42,1.31,3.34,2.67,2.32,5.03-.91,2.1-2.65,3.45-4.97,3.82-3.57,.56-6.73-.27-9.76-2.35-9.13-6.25-18.25-12.53-28.36-17.18-15.79-7.27-32.36-11.55-49.64-13.28-23.39-2.34-44.32,4.97-64.2,16.31-9.19,5.24-17.4,11.82-24.89,19.27-7.71,7.68-15.77,15.02-22.58,23.57-3.98,5-7.13,10.49-10.04,16.15-.42-.4-.84-.8-1.26-1.21Z"/>
      <path class="cls-9" d="M268.02,586.44c.42,.4,.84,.8,1.26,1.21-.83,1.92-1,4.17-2.94,5.99-.6-2.91,.53-5.05,1.69-7.19Z"/>
      <path class="cls-1" d="M287.92,327.16c-.72,3.37-1.47,6.72-1.16,10.22,.84,9.49,9.12,14.26,17.68,10.16,9.41-4.51,14.92-15.32,13.02-25.25-.64-3.35-2.36-6.01-5.4-9.14,3.85-.07,6.72,.61,9.49,1.37,16.47,4.5,26.47,15.81,30.44,31.79,5.08,20.46,1.88,40.02-9.95,57.81-6.59,9.9-15.33,16.72-27.22,19.34-8.68,1.91-16.68,.74-23.82-4.43-11.47-8.29-18.26-19.4-19.55-33.72-1.5-16.69,2.47-32.44,8.14-47.87,1.55-4.23,3.88-8.18,7.05-11.52,.42,.42,.85,.83,1.27,1.25Z"/>
      <path class="cls-5" d="M287.92,327.16c-.42-.42-.85-.83-1.27-1.25,.29-1.41,1.37-2.23,2.32-3.16,.48,0,.95,0,1.43,0-.83,1.47-1.65,2.95-2.48,4.42Z"/>
      <path class="cls-11" d="M290.4,322.74c-.48,0-.95,0-1.43,0,.28-.44,.5-.93,.84-1.32,.47-.52,1.29-1.25,1.74-.57,.54,.83-.31,1.51-1.15,1.88Z"/>
      <path class="cls-1" d="M432.98,321.74c-.06,5.85,1.69,10.96,7.25,13.56,5.97,2.8,11.37,.64,16.1-3.3,4.46-3.73,7.29-8.5,8.26-14.3,.17-1.03,.33-2.06,.56-3.48,2.98,1.11,4.95,2.95,6.88,4.78,12.86,12.24,17.03,27.56,15.07,44.68-1.25,10.9-4.61,21.29-10.79,30.52-4.74,7.08-10.57,13.04-19.34,14.88-12.27,2.58-22.36-1.66-27.11-13.25-6.22-15.17-8.29-30.76-5.33-46.93,1.27-6.96,2.68-13.89,4.08-20.82,.61-3.03,1.58-5.95,3.16-8.64,1.09,.4,.83,1.53,1.23,2.31Z"/>
      <path class="cls-4" d="M432.98,321.74c-.4-.78-.13-1.9-1.23-2.31-.19-1.31,.8-2.11,1.34-3.1,.35,.36,.69,.72,1.04,1.09-.09,1.52-.13,3.05-1.15,4.32Z"/>
      <path class="cls-7" d="M433.92,315.02c.34-.73,.83-1.72,1.64-1.31,.8,.4,.07,1.03-.47,1.39-.39-.03-.78-.05-1.17-.08Z"/>
      <path class="cls-12" d="M433.92,315.02c.39,.03,.78,.05,1.17,.08-.05,.89-.36,1.66-.96,2.32-.35-.36-.69-.72-1.04-1.09,.28-.44,.55-.87,.83-1.31Z"/>
    </g>
  </g>
</svg>