<?xml version="1.0" encoding="UTF-8"?>
<svg id="_レイヤー_2" data-name="レイヤー 2" xmlns="http://www.w3.org/2000/svg" viewBox="0 0 763.24 915.11">
  <defs>
    <style>
      .cls-1 {
        fill: #efd794;
      }

      .cls-2 {
        fill: #efd693;
      }

      .cls-3 {
        fill: #efd694;
      }

      .cls-4 {
        fill: #ecd189;
      }

      .cls-5 {
        fill: #f1b476;
      }

      .cls-6 {
        fill: #eae4ec;
      }

      .cls-7 {
        fill: #e8d190;
      }

      .cls-8 {
        fill: #e9d291;
      }

      .cls-9 {
        fill: #ffbebe;
      }

      .cls-10 {
        fill: #ebd089;
      }

      .cls-11 {
        fill: #f0d794;
      }

      .cls-12 {
        fill: #919595;
      }

      .cls-13 {
        fill: #65624b;
      }

      .cls-14 {
        fill: #6c614a;
      }

      .cls-15 {
        fill: #6b956e;
      }

      .cls-16 {
        fill: #7e7163;
      }

      .cls-17 {
        fill: #98986c;
      }

      .cls-18 {
        fill: #945f49;
      }

      .cls-19 {
        fill: #c39363;
      }

      .cls-20 {
        fill: #b5a977;
      }

      .cls-21 {
        fill: #b78c5f;
      }

      .cls-22 {
        fill: #b4895d;
      }

      .cls-23 {
        fill: #b7895d;
      }

      .cls-24 {
        fill: #312322;
      }

      .cls-25 {
        fill: #312423;
      }

      .cls-26 {
        fill: #342a27;
      }

      .cls-27 {
        fill: #a67f57;
      }

      .cls-28 {
        fill: #b2afaf;
      }

      .cls-29 {
        fill: #bd9061;
      }

      .cls-30 {
        fill: #aac6c6;
      }

      .cls-31 {
        fill: #a6b4b4;
      }

      .cls-32 {
        fill: #aea776;
      }

      .cls-33 {
        fill: #b3885d;
      }

      .cls-34 {
        fill: #b2b1b1;
      }

      .cls-35 {
        fill: #a49b6e;
      }

      .cls-36 {
        fill: #bc8e60;
      }

      .cls-37 {
        fill: #bcb57e;
      }

      .cls-38 {
        fill: #c59564;
      }

      .cls-39 {
        fill: #ccb981;
      }

      .cls-40 {
        fill: #d3a06b;
      }

      .cls-41 {
        fill: #d49f6a;
      }

      .cls-42 {
        fill: #dca56d;
      }

      .cls-43 {
        fill: #acbc8a;
      }

      .cls-44 {
        fill: #d6a16b;
      }

      .cls-45 {
        fill: #b0aab0;
      }

      .cls-46 {
        fill: #d6a26b;
      }

      .cls-47 {
        fill: #a89b6e;
      }

      .cls-48 {
        fill: #242323;
      }

      .cls-49 {
        fill: #222;
      }

      .cls-50 {
        fill: #232222;
      }

      .cls-51 {
        fill: #232323;
      }

      .cls-52 {
        fill: #232322;
      }

      .cls-53 {
        fill: #403931;
      }

      .cls-54 {
        fill: #403930;
      }

      .cls-55 {
        fill: #433931;
      }

      .cls-56 {
        fill: #413b32;
      }

      .cls-57 {
        fill: #372d29;
      }

      .cls-58 {
        fill: #3e3830;
      }

      .cls-59 {
        fill: #6e7d5c;
      }

      .cls-60 {
        fill: #2a2222;
      }

      .cls-61 {
        fill: #292725;
      }

      .cls-62 {
        fill: #564a45;
      }

      .cls-63 {
        fill: #4a4643;
      }

      .cls-64 {
        fill: #2d2926;
      }

      .cls-65 {
        fill: #302323;
      }

      .cls-66 {
        fill: #322926;
      }

      .cls-67 {
        fill: #322825;
      }

      .cls-68 {
        fill: #322c28;
      }

      .cls-69 {
        fill: #312d29;
      }

      .cls-70 {
        fill: #3a312b;
      }

      .cls-71 {
        fill: #3b342d;
      }

      .cls-72 {
        fill: #584c3c;
      }

      .cls-73 {
        fill: #3d3830;
      }

      .cls-74 {
        fill: #574f3f;
      }

      .cls-75 {
        fill: #2f2c28;
      }

      .cls-76 {
        fill: #494337;
      }

      .cls-77 {
        fill: #71614a;
      }

      .cls-78 {
        fill: #52493b;
      }

      .cls-79 {
        fill: #838686;
      }

      .cls-80 {
        fill: #516d55;
      }
    </style>
  </defs>
  <g id="_レイヤー_1-2" data-name="レイヤー 1">
    <g>
      <g>
        <path class="cls-6" d="M490.66,193.88c0,7.93-.05,13.75,.01,19.56,.09,8.88-.65,17.77-1.38,26.56-1.67,20.35-5.82,40.35-11.16,60.08-2.18,8.03-4.21,16.1-6.2,24.17-.78,3.15-1.46,6.34-1.88,9.55-.81,6.21,1.88,11.2,10.32,11.82,7.88,.58,15.87,.66,23.87-.54,5.56-.83,11.1-1.16,16.31-3.54,6.7-3.06,12.09-7.59,17.11-13.03,9.39-10.18,16.55-21.93,24.78-32.93,3.26-4.36,8.12-7.17,12.45-10.43,13.3-10.03,27.7-17.84,44.13-21.51,6.36-1.42,12.87-2.68,19.26-2.62,12.97,.11,25.59,2.4,36.14,10.98,5.01,4.08,8.49,9.35,11.86,14.74,2.78,4.46,5.58,8.9,8.32,13.38,1.73,2.82,4.05,3.88,7.47,4.46,16.78,2.82,32.92,7.47,45.15,20.39,6.39,6.76,12.01,14.14,14.1,23.48,1.41,6.32,2.83,12.59,1.22,19.26-.88,3.63-.99,7.49-2.1,11.15-4.28,14.11-13.66,23.98-25.93,31.54-10.57,6.52-22.42,10.12-33.71,14.98-2.16,.93-4.42,1.63-6.59,2.53-3.12,1.29-3.35,2.04-.74,4.53,12.41,11.86,21.16,26.24,28.09,41.69,7.42,16.55,12.75,33.78,15.75,51.78,2.4,14.36,3.68,28.74,2.95,43.22-.51,10.25-1.38,20.49-2.77,30.71-1.85,13.6-4.17,27.1-6.88,40.54-3.54,17.62-8.93,34.69-15.01,51.56-5.41,15.01-11.87,29.58-18.33,44.15-4.78,10.78-10.72,20.99-16.79,31.1-6.43,10.73-13.45,21.07-20.85,31.14-5.68,7.73-12.09,14.86-18.79,21.78-11.8,12.19-25.05,22.49-39.16,31.76-18.86,12.39-39.03,22.2-60.03,30.42-21.12,8.26-42.69,15.03-64.79,20.01-13.55,3.05-27.2,5.54-40.98,7.48-11.08,1.56-22.2,2.63-33.28,4.08-12.97,1.7-26.06,1.21-39.11,1.17-22.36-.08-43.77-4.73-64.35-13.4-17.68-7.45-31.73-19.41-42.94-34.77-12.05-16.51-19.03-35.28-23.89-54.96-2.64-10.7-5.15-21.47-6.28-32.4-1.24-12.01-1.8-24.04-.66-36.26,1.5-16.07,5.28-31.67,7.7-47.52,.79-5.15,.77-10.59,.06-15.76-1.17-8.55-10.12-13.25-19.2-10.9-4.16,1.08-7.37,3.83-11.09,5.69-1.61,.81-3.09,1.9-4.69,2.73-12.89,6.64-20,4.46-30.62-4.47-6.47-5.44-10.54-12.86-14.56-20.17-7.51-13.65-15.16-27.24-23.57-40.35-11.72-18.26-26.06-34.37-42.09-48.9-20.43-18.51-42.44-34.98-66.15-49.11-5.65-3.37-10.78-7.46-14.92-12.55-5.43-6.67-7.16-14.38-5.74-22.94,2.43-14.64,9.34-27.34,16.9-39.75,9.43-15.47,20.17-30.04,31.39-44.24,3.12-3.95,6.48-7.78,9.96-11.49,9.04-9.65,18.52-18.9,26.99-29.08,1.27-1.53,2.37-3.2,3.45-4.87,1.37-2.11,1.5-4.2,.47-6.68-1.89-4.53-3.93-8.98-6.21-13.31-4.69-8.89-6.89-18.38-5.9-28.33,.87-8.73,3.66-17.06,8.54-24.39,10.34-15.55,23.98-27.04,42.06-32.69,8.18-2.56,14.59-7.07,20.08-13.95,13.35-16.72,27.72-32.62,43.59-47,5.65-5.12,11.38-10.17,16.49-15.78,7.92-8.7,15.18-17.98,19.74-29.02,1.94-4.71,2.82-9.61,3.27-14.74,1.4-15.78,1.1-31.83,7.28-46.92,6.08-14.85,14.59-27.72,27.26-37.94,9.97-8.04,20.63-14.7,32.14-20.16,1.96-.93,3.99-1.72,6.01-2.52,9.07-3.64,18.25-7.05,27.19-10.99,5.1-2.24,10.48-2.68,15.77-3.7,4.05-.79,8.2-1.12,12.38-1.33,14.96-.75,28.09,4.53,40.74,11.61,17.79,9.95,32.59,23.58,46.13,38.53,10.26,11.33,18.07,24.48,24.3,38.44,5.98,13.41,10.85,27.23,13.95,41.65,2.47,11.48,4.07,23.05,5.38,34.73,1.16,10.36,.29,20.66,.86,28.85Zm-225.38,394.07c.94-.48,1.62-1.17,1.75-2.27,.01-.36,.03-.72,.04-1.08,1.45,2.49,3.26,2.77,5.89,1.54,4.74-2.22,8.49-5.41,11.32-9.78,8.63-13.37,18.15-26.12,27.46-39.02,6.97-9.66,13.83-19.42,20.99-28.95,1.27-.69,2.55-1.35,3.81-2.06,6.81-3.85,8.24-9.28,4.14-15.94-.85-1.39-1.85-2.7-2.89-3.96-6.16-7.4-12.3-14.81-18.92-21.81-26.35-27.85-52.9-55.48-82.93-79.51-10.78-8.63-20.73-18.24-30.7-27.78-6.74-6.45-14.44-9.31-23.78-8.37-8.93,.9-17.5,3.07-25.85,6.2-4.75,1.78-9.45,3.72-14.14,5.66-1.84,.76-3.4,.86-4.88-.78-1.78-1.97-2.23-1.94-4.09-1.7-2.41,.32-4.14,1.43-4.89,3.72-.56,1.7-1.85,2.64-3.13,3.64-7.48,5.82-14.2,12.45-20.63,19.38-25.18,27.19-46.1,57.46-64.63,89.45-1.45,2.5-2.68,5.16-3.82,7.82-1.08,2.51-1.74,5.14-1.76,7.92-.03,6.3,3.12,10.31,9.25,11.59,2.68,.56,5.4,.73,8.13,.65,8.43-.25,16.08,2.24,23.24,6.56,7.8,4.71,15.09,10.08,21.69,16.38,9.33,8.91,18.68,17.79,28.1,26.6,6.78,6.33,13.27,12.93,19.51,19.78,12.12,13.31,22.01,27.94,26.66,45.62,.23,.87,.59,1.72,.98,2.53,1.69,3.42,4.41,5.63,8.25,4.81,2.78-.59,3.91,.73,5.37,2.44,2.82,3.32,5.74,6.56,8.72,9.74,4.84,5.18,10.56,5.93,16.88,3.08,1.65-.75,3.28-1.57,4.82-2.52,9.1-5.65,18.23-11.28,26.38-18.3,1.62-1.4,3.66-2.39,4.65-4.35-.25-1.55-2.41-.94-2.56-2.6,1.24-1.22,2.52-2.5,3.8-3.77,2.58-.63,3.34-4.1,6.36-4.03,6.37,13.69,13.79,26.79,22.27,39.28,2.03,3,4.04,6.1,7.27,8,1.4,.83,1.58,1.82,.88,3.16-.5,.97-.97,1.95-1.42,2.95-14.28,31.63-22.9,64.65-23.9,99.44-.53,18.51,1.83,36.68,9.27,53.82,11.53,26.55,29.77,46.3,57.99,55.36,17.04,5.47,34.61,8.37,52.45,9.05,40.75,1.55,80.27-4.87,118.79-18.36,50.51-17.69,95.48-43.99,132.83-82.79,24.16-25.1,44.92-52.36,57.41-85.28,4-10.53,7.78-21.13,10.87-31.96,5.35-18.71,10-37.61,11.05-57.12,1.92-35.64-4.4-69.71-19.39-102.27-12.73-27.67-30.33-51.59-52.69-72.1-6.69-6.13-13.8-11.77-22.11-15.66-.79-1.1-3.16-1.87-.56-3.62,1.49-1,2.62-2.56,4.12-3.54,12.25-7.95,21.54-18.86,30.41-30.2,.71-.91,1.09-2.31,2.95-2.4,1.73,3.78,4.34,7,7.33,9.93,9.59,9.38,20.93,15.55,34.02,18.45,5.97,1.32,11.92,1.12,17.78-.61,18.81-5.56,28.25-24.19,20.77-42.26-6.57-15.86-19.4-24.56-35.89-27.7-7.94-1.51-15.38,1.55-22.59,4.77-1.69,.75-3.19,2.31-5.4,1.89-.33-4.06,.81-7.77,.98-11.57,.85-18.62-12.55-33.54-31.19-34.1-17.88-.53-33.35,5.98-46.89,17.39-2.65,2.23-4.79,4.96-6.74,7.83-9.79,14.38-7.68,29.67,5.94,40.59,8.64,6.93,18.46,11.49,29.59,12.89,2.95,.37,5.89,.85,9.72,1.41-10.04,11.14-15.46,23.86-20.11,37.2-1.98-.93-3.61-1.7-5.24-2.46-9.22-4.28-18.46-8.54-28.18-11.6-3.83-1.2-7.78-2.52-11.74-1.23-3.62,1.18-7.12,.93-10.73,.49-3.25-.39-6.5-.71-9.75-1.06-19.12-2.09-38.12-.63-57.01,2.35-10.72,1.69-21.44,3.59-31.71,7.34-14.66,3.17-28.43,8.62-41.2,16.46-16.72,10.27-25.68,25.1-26.1,44.96-.18,8.71-.83,17.4-2.65,25.97-3.79,17.85-11.62,33.91-21.51,49.07-7.84,12.02-16.55,23.42-24.81,35.14-15.57,22.11-32.32,43.39-46.17,66.7-.22,.37-.84,.52-1.38,.83-.67-1-1.33-1.86-1.87-2.8-8.37-14.65-16.72-29.32-25.12-43.96-.68-1.19-.81-2.36-.74-3.64,.84,.18,1.16-.4,1.46-1.01ZM197.74,252.41c1.63,1.09,1.98,2.8,2.83,4.16,2.64,4.24,5.98,7.81,10.37,10.22,8.63,4.73,17.4,5.16,25.82-.27,8.38-5.41,11.92-13.48,11.11-23.34-1.17-14.11-14.69-24.2-29.6-22.3-1.72,.22-3.42,1.16-5.22,.34,6.36-14.68,30.94-40.87,51.51-51.9,1.32,1.45,1.15,3.34,1.44,5.07,3.23,19.35,9.39,37.65,19.55,54.5,8.26,13.71,18.56,25.54,32.06,34.38,27.23,17.82,58.72,16.22,83.98-4.27,12.96-10.52,22.48-23.71,29.17-38.87,17.67-40.07,18.35-80.95,4.72-122.21-7.01-21.21-18.24-39.93-35.26-54.78-12.94-11.29-27.8-18.32-45.14-19.58-6.41-.46-12.68,.37-18.91,1.78-3.05,.69-5.04,3.31-8.09,4.22-7.37,2.2-13.94,6.09-20.04,10.76-14.82,11.35-24.94,26.23-32.18,43.2-10.48,24.59-13.6,50.34-11.55,76.8,.26,3.38-.63,4.82-3.42,6.18-5.21,2.55-10.26,5.44-15.36,8.21-11.77,6.39-22.14,14.58-31.02,24.59-8.03,9.05-14.75,18.9-17.62,30.91-.44,1.84-1.48,3.25-2.74,4.61-5.35,5.77-9.5,12.37-13.11,19.33-4.19,8.07-7.81,16.39-10.86,24.95-1,2.82-2.14,3.52-5.12,2.61-5.89-1.79-11.87-3.43-18.06-3.92-9.24-.73-15,4.43-15.22,13.6-.12,4.98,.73,9.8,2.84,14.3,2.31,4.93,4.75,9.81,7.34,14.59,2.82,5.21,6.68,9.54,12.1,12.16,1.4,.68,2.23,1.7,3.15,2.83,2.21,2.69,5.06,3.42,8.3,2.05,2-.84,3.99-1.74,5.89-2.8,9.36-5.21,18.7-10.45,28.01-15.74,3.15-1.79,6.34-3.58,9.27-5.7,6.94-5.02,6.63-11.01-.7-15.48-4.36-2.65-9.07-4.56-13.86-6.28-3.24-1.16-6.51-2.26-9.79-3.34-1.55-.51-2.62-1.15-1.84-3.11,4.39-11.14,8.9-22.23,15.26-32.49Z"/>
        <path class="cls-49" d="M263.83,588.96c-.07,1.28,.06,2.45,.74,3.64,8.4,14.64,16.75,29.31,25.12,43.96,.54,.94,1.2,1.8,1.87,2.8,.54-.31,1.16-.46,1.38-.83,13.85-23.3,30.6-44.59,46.17-66.7,8.26-11.72,16.97-23.13,24.81-35.14,9.89-15.16,17.72-31.22,21.51-49.07,1.82-8.57,2.47-17.26,2.65-25.97,.42-19.86,9.37-34.69,26.1-44.96,12.77-7.84,26.54-13.29,41.2-16.46,1.82,.18,3.54-.06,5.34-.57,3.63-1.02,7.34-2.15,11.07-2.34,3.18-.16,6.12-1.06,9.05-1.82,5.6-1.46,11.25-2.6,16.99-2.53,2.47,.03,4.53,.91,7.05-.83,1.92-1.32,5.1-1.2,7.3,.14,2.4,1.47,4.21,2.01,5.93-.67,.54-.85,1.45-1.04,2.38-1.04,3.08-.01,6.17,.1,9.25-.03,2.5-.11,2.98,4,5.32,2.89,2.16-1.02,4.11-1.77,6.54-1.88,4.31-.18,8.3,2.23,12.67,1.27,.58-.13,1.45,.31,1.97,.74,1.95,1.65,3.89,.97,6.11,.62,3.35-.52,6.92-2.74,10.06-1.13,3.82,1.96,8.35,1.41,11.73,3.64,3.34,2.19,8.22,1.57,10.36,5.81,.17,.34,1.08,.65,1.47,.5,3.27-1.21,5.47,1.25,8.09,2.24,3.86,1.47,7.06,4.52,11.43,4.76,8.31,3.89,15.42,9.53,22.11,15.66,22.36,20.51,39.96,44.43,52.69,72.1,14.98,32.57,21.31,66.63,19.39,102.27-1.05,19.51-5.7,38.41-11.05,57.12-3.1,10.83-6.88,21.43-10.87,31.96-12.49,32.92-33.25,60.18-57.41,85.28-37.34,38.8-82.31,65.1-132.83,82.79-38.52,13.49-78.04,19.92-118.79,18.36-17.84-.68-35.42-3.58-52.45-9.05-28.23-9.06-46.46-28.81-57.99-55.36-7.44-17.14-9.8-35.31-9.27-53.82,.99-34.79,9.62-67.81,23.9-99.44,.45-.99,.92-1.98,1.42-2.95,.7-1.35,.52-2.34-.88-3.16-3.24-1.9-5.24-5-7.27-8-8.48-12.49-15.9-25.59-22.27-39.28-.27-1.36-.68-2.66-1.84-3.57-6.84-12.23-9.59-26.03-14.6-39.33-1.26,.8-2.06,1.22-2.76,1.76-18.67,14.37-33.61,31.95-45.11,52.5-1.03,1.84-.72,2.88,.68,4.17,3.2,2.95,6.26,6.06,9.47,9,3.37,3.09,4.27,3.37,8.16,1.13,5.18-2.98,10.16-6.33,15.18-9.59,2.89-1.87,5.56-4.48,8.91-5.14,5.79-1.13,10.19-4.41,14.6-7.88,.31,.32,.63,.64,.94,.96-1.28,1.27-2.57,2.54-3.8,3.77,.16,1.66,2.31,1.05,2.56,2.6-.99,1.96-3.03,2.95-4.65,4.35-8.15,7.02-17.27,12.65-26.38,18.3-1.54,.95-3.17,1.77-4.82,2.52-6.32,2.85-12.04,2.1-16.88-3.08-2.97-3.19-5.9-6.42-8.72-9.74-1.45-1.71-2.59-3.03-5.37-2.44-3.84,.82-6.57-1.39-8.25-4.81-.4-.81-.76-1.66-.98-2.53-4.66-17.68-14.54-32.31-26.66-45.62-6.24-6.85-12.74-13.45-19.51-19.78-9.42-8.81-18.77-17.69-28.1-26.6-6.6-6.3-13.89-11.67-21.69-16.38-7.16-4.32-14.81-6.81-23.24-6.56-2.73,.08-5.45-.09-8.13-.65-6.13-1.28-9.28-5.29-9.25-11.59,.01-2.78,.68-5.42,1.76-7.92,1.14-2.66,2.37-5.31,3.82-7.82,18.53-31.99,39.46-62.26,64.63-89.45,6.42-6.94,13.15-13.57,20.63-19.38,1.28-1,2.57-1.94,3.13-3.64,.75-2.29,2.48-3.41,4.89-3.72,1.86-.24,2.31-.28,4.09,1.7,1.48,1.64,3.03,1.54,4.88,.78,4.69-1.94,9.39-3.88,14.14-5.66,8.35-3.13,16.92-5.3,25.85-6.2,9.33-.94,17.04,1.92,23.78,8.37,9.97,9.55,19.92,19.16,30.7,27.78,30.03,24.03,56.58,51.66,82.93,79.51,6.62,7,12.76,14.41,18.92,21.81,1.04,1.25,2.03,2.57,2.89,3.96,4.1,6.65,2.67,12.08-4.14,15.94-1.26,.71-2.54,1.37-3.81,2.06-1.9,.14-3.97-.76-5.62,.91-.39,.37-.78,.74-1.18,1.11-4.97,1.53-9.95,3.06-14.92,4.59-.94-.17-1.82-.1-2.48,.71-.86,.21-1.72,.43-2.27,1.22-5.23,1.66-10.25,3.79-15.66,6.23,2.79,2.93,5.51,5.3,5.17,9.29,.76-.23,.99-.23,1.09-.34,2.48-2.83,4.95-5.66,7.42-8.5,.4,.44,.79,.88,1.19,1.31l-4.61,7.28c-1.8,1.55-3.1,3.46-4.1,5.59-.08,.37-.15,.73-.23,1.1l.08-.09c-.8-.14-1.07,.34-1.18,1.01-.69,.1-1.04,.56-1.23,1.19-1.04,.41-1.57,1.22-1.84,2.26-.06,.36-.13,.73-.19,1.09l.08-.1c-.83-.09-1.13,.49-1.4,1.11-1.42,.72-2.3,1.92-2.91,3.35-.04,.37-.08,.73-.13,1.1l.07-.09c-.82-.12-1.11,.43-1.34,1.06-1.8,1.07-3.21,2.53-4.18,4.39-3.95,3.79-7.89,7.58-11.84,11.37-.1-.64-.21-1.29-.31-1.93,.02-.34,.19-.57,.52-.68,.27-.31,.55-.61,.82-.92,0,0,.1-.13,.1-.13,.31-.37,.63-.73,.94-1.1l.02-.03c.56-.19,.9-.57,1.02-1.15l-.02,.02c.6-.18,.96-.58,1.04-1.21l-.05,.06c.69-.21,1.05-.68,1.1-1.39,4.11-6.51,9.84-11.76,14.17-18.1,.52-.23,1.01-.63,.2-.95-.88-.36-1.69,.11-2.3,.83-15.72,2.58-30.23,8.28-43.56,17-4.08,2.66-4.15,2.7-1.17,6.35,6.5,7.98,13.32,15.71,18.62,24.59,.52,.87,1.29,1.2,2.23,1.27l-.06-.09Zm-32.65-105.73c-3.91-4.05-8.04-7.9-11.63-12.21-2.22-2.67-4.28-2.82-6.95-1.3-.72,.41-1.86,.33-2.04,2.18,7.08,5.91,14.39,12.04,22.75,16.8,14.78,10.58,30.57,19.5,46.27,28.58,2.02,1.16,3.25,.71,4.68-.83,3.67-3.95,8.32-6.4,13.34-8.18,8.89-3.15,17.81-6.24,26.7-9.38,1.78-.63,3.8-.89,5.18-2.64-.7-.95-1.21-1.69-1.76-2.39-14.16-17.57-30.45-33.18-45.78-49.67-2.35-2.53-2.48-2.41-5.92,.61,5.83,6.48,11.77,12.86,17.45,19.46,6.15,7.15,12.23,14.38,16.43,22.94-.53,.55-1.06,1.1-1.59,1.65-12.43-11.22-23.75-23.49-34.14-36.61-1.02-1.28-2.05-2.55-3.08-3.82-1.53-1.88-2.98-1.57-4.72,.28,11.6,12.06,22,24.82,29.26,39.86-.44,.42-.87,.85-1.31,1.27-8.91-11.97-19.47-22.47-29.77-33.19-6.39-6.65-3.77-6.13-12.66-2.71-.54,.21-.83,.63-.93,1.97,1,.85,2.41,1.97,3.74,3.19,9.21,8.48,18.46,16.92,27.58,25.49,4.08,3.84,8.26,7.64,11.25,12.48l-1.58,1.63c-15.36-12.19-30.66-24.44-44.76-38.1-3.85-3.73-3.92-3.65-9.22-.33,3.34,3.18,6.62,6.29,9.89,9.41,3.28,3.13,6.58,6.26,9.83,9.43,3.38,3.3,6.75,6.6,10.05,9.99,3.17,3.25,6.32,6.52,9.32,9.93,2.83,3.22,6.22,6.05,8.29,10.2-1.63,.25-2.2-.56-2.86-1.12-16.71-14.54-35.06-27.12-50.84-42.76-1.88-1.86-3.54-2.16-5.77-.94-1.5,.82-3.45,.87-4.64,2.6,3.8,5.15,7.45,10.1,11.1,15.05-.38,.39-.76,.78-1.14,1.17Zm461.24,105.48c-.07-5.99-.48-11.95-.89-17.92-1.6-23.14-8.29-44.81-17.68-65.84-8.3-18.57-19.25-35.39-32.83-50.46-8.63-9.59-17.74-18.7-28.71-25.76-8.45-5.43-17.57-9.47-26.71-13.48-7.97-3.49-16.04-7.28-24.68-8.28-16.92-1.95-33.89-2.87-51.02-1.46-18.16,1.5-35.93,4.64-53.46,9.35-12.29,3.3-24.29,7.38-35.23,14.16-12.16,7.55-18.78,17.96-19.09,32.67-.2,9.56-.66,19.17-2.63,28.66-3.89,18.75-11.41,35.97-21.75,51.92-17.38,26.82-36.82,52.2-55.43,78.16-18.48,25.77-32.99,53.37-40.58,84.34-5.68,23.17-9.71,46.43-7.11,70.5,1.96,18.13,7.73,34.63,18.44,49.35,9.8,13.46,22.41,23.27,38.51,27.97,17.84,5.21,36.12,7.77,54.73,7.85,6.9,.03,13.77-.36,20.66-.78,15.43-.95,30.69-2.96,45.71-6.43,34.52-7.97,67.18-20.9,98.08-38.17,16.52-9.23,31.8-20.29,46.06-32.77,12.59-11.02,24.42-22.79,35.36-35.46,12.5-14.48,23.72-29.83,32.09-47.12,8.81-18.2,15.27-37.27,20.32-56.8,4.6-17.75,8.27-35.69,7.85-54.2ZM126.97,368.81c-1.75,.67-2.34,1.86-3.11,2.82-26.85,33.47-51.75,68.3-73.27,105.47-1.36,2.35-2.67,4.75-3.84,7.2-3.17,6.64-2.89,7.28,4.56,7.26,12.04-.02,22.75,3.74,32.75,10.24,9.19,5.97,17.45,13.02,25.32,20.58,1.51,1.45,3.1,2.82,4.97,4.52,4.1-7.24,7.8-14.1,12.31-20.45,1.81-2.55,3.11-5.16,3.7-8.3,.96-5.12,3.78-9.39,7.24-13.21,3.31-3.64,7-6.86,10.98-9.75,1.47-1.07,2.88-2.17,4-3.65,4.91-6.53,9.8-13.08,14.87-19.48,1.5-1.89,1.62-3.19,.16-5.19-17.51-23.87-30.72-50-40.63-78.07Zm145.56,161.35c-1.57-2.07-3.55-2.59-5.23-3.54-21.33-12.08-42.57-24.32-61.75-39.73-2.69-2.16-5.31-4.41-7.82-6.77-1.54-1.45-2.75-1.45-4.08,.13-.47,.55-1.03,1.02-1.53,1.55-18.71,19.8-37.15,39.84-54.81,60.59-2.67,3.13-2.66,3.18,.28,5.95,7.81,7.34,15.51,14.8,22.44,22.99,8.35,9.86,15.15,20.74,20.72,33.61,10.8-17.91,23.66-33.06,39.02-45.99,15.56-13.09,32.75-23.35,52.76-28.78Zm2.34-93.11c-1.21-1.33-2.35-2.67-3.59-3.91-7.29-7.33-14.83-14.39-22.48-21.35-2.33-2.12-4.17-2.51-7.12-1.2-19.06,8.5-37.32,18.5-55.11,29.37-5.34,3.26-6.12,7.42-2.04,12.16,3.18,3.7,7.18,6.71,10.28,10.46,5.38,6.53,11.47,6.64,18.35,3.01,.8-.42,1.65-.75,2.48-1.11,14.47-6.25,28.87-12.67,43.44-18.68,5.52-2.28,10.83-4.72,15.79-8.76Zm-159.19,91.26c5.05,4.66,9.89,9.02,14.6,13.52,1.89,1.81,3.01,1.09,4.35-.59,3.06-3.82,6.28-7.52,9.36-11.33,13.59-16.79,27.05-33.68,41.76-49.52,1.72-1.85,4.43-3.55,4.82-5.67,.51-2.74-2.97-4.19-4.69-6.19-4.11-4.78-8.49-9.32-13.01-14.24-1.51,1.9-2.79,3.41-3.97,5-13.41,18.06-26.84,36.11-40.17,54.23-3.87,5.26-8.21,10.08-13.06,14.79Zm90.47-106.3c-.67-.81-1.09-1.39-1.58-1.9-14.34-14.81-26.69-31.12-37.07-48.93-.72-1.24-1.43-2.52-1.94-3.86-.35-.9,.06-1.86,.88-2.37,.86-.54,1.83-.32,2.46,.43,1.05,1.24,2.04,2.55,2.91,3.92,9.81,15.35,21.09,29.54,33.65,42.71q7.37,7.73,16.94,2.57c.24-.13,.34-.51,.6-.94-1.22-1.3-2.42-2.64-3.69-3.92-13.52-13.71-26.47-27.95-38.72-42.8-.92-1.11-2.37-2.21-2.53-3.44-.41-3.1-2.29-2.58-4.28-2.35-6.85,.79-13.73,1.37-20.54,2.39-3.89,.58-7.92,.78-11.62,2.47,.08,.62,.04,1.21,.24,1.68,9.69,23.14,20.37,45.76,34.85,66.39,.63,.89,1.28,1.76,1.94,2.63,.66,.88,1.55,1.01,2.35,.35,4.12-3.39,9.31-5.26,13.49-9.01-4.13-4.37-7.99-8.46-11.86-12.54-11.4-12.04-21.53-25.04-29.67-39.54-.71-1.27-1.45-2.53-2.02-3.85-.73-1.7-.42-3.29,1.26-4.23,1.63-.91,3.22-.49,4.37,.95,1.01,1.27,1.88,2.67,2.72,4.06,11.3,18.66,26.55,34,41.46,49.64,1.91,2,3.36,1.47,5.39-.49Zm-25.85-61.51c15.14,17.72,31.55,33.37,47.68,49.29,.92,.91,1.87,1.88,3.31,1.27,3.59-1.52,7.57-2.09,10.97-4.2-.34-.59-.45-.97-.7-1.19-14.54-12.88-28.4-26.48-41.95-40.38-5.38-5.52-11.57-7-19.3-4.79Z"/>
        <path class="cls-49" d="M197.74,252.41c-6.36,10.27-10.87,21.35-15.26,32.49-.77,1.96,.29,2.59,1.84,3.11,3.27,1.08,6.54,2.18,9.79,3.34,4.79,1.71,9.51,3.62,13.86,6.28,7.33,4.47,7.64,10.46,.7,15.48-2.93,2.12-6.12,3.9-9.27,5.7-9.31,5.29-18.65,10.53-28.01,15.74-1.9,1.06-3.89,1.96-5.89,2.8-3.24,1.37-6.09,.64-8.3-2.05-.93-1.13-1.75-2.15-3.15-2.83-5.42-2.63-9.28-6.96-12.1-12.16-2.6-4.78-5.04-9.66-7.34-14.59-2.11-4.5-2.96-9.32-2.84-14.3,.22-9.17,5.98-14.33,15.22-13.6,6.19,.49,12.17,2.13,18.06,3.92,2.98,.91,4.11,.2,5.12-2.61,3.05-8.55,6.68-16.88,10.86-24.95,3.61-6.96,7.76-13.56,13.11-19.33,1.26-1.36,2.3-2.76,2.74-4.61,2.87-12.01,9.59-21.87,17.62-30.91,8.88-10.01,19.25-18.19,31.02-24.59,5.1-2.77,10.15-5.66,15.36-8.21,2.79-1.37,3.69-2.8,3.42-6.18-2.05-26.45,1.07-52.21,11.55-76.8,7.24-16.98,17.36-31.85,32.18-43.2,6.1-4.67,12.67-8.56,20.04-10.76,3.06-.91,5.05-3.53,8.09-4.22,6.22-1.41,12.5-2.25,18.91-1.78,17.34,1.26,32.2,8.28,45.14,19.58,17.01,14.85,28.25,33.57,35.26,54.78,13.63,41.26,12.96,82.14-4.72,122.21-6.68,15.15-16.21,28.35-29.17,38.87-25.26,20.5-56.75,22.1-83.98,4.27-13.5-8.83-23.8-20.66-32.06-34.38-10.16-16.86-16.32-35.15-19.55-54.5-.29-1.74-.12-3.62-1.44-5.07-20.57,11.03-45.15,37.22-51.51,51.9,1.81,.82,3.5-.12,5.22-.34,14.91-1.9,28.43,8.19,29.6,22.3,.82,9.85-2.72,17.93-11.11,23.34-8.42,5.43-17.2,5-25.82,.27-4.39-2.41-7.72-5.98-10.37-10.22-.85-1.37-1.2-3.08-2.83-4.16ZM426.42,96.11c.05-.99-.15-1.88-1-2.51-7.26-19.48-18.65-36-35.29-48.65-10.17-7.74-21.61-12.44-34.44-13.7-6.24-.61-12.32,1.15-18.38,1.04-8.32-.14-14.31,4.19-20.77,8-.93,.55-1.8,1.23-2.67,1.88-14.3,10.77-24.18,24.92-31.31,41.12-10.85,24.66-14.05,50.59-11.77,77.21,1.76,20.61,7.19,40.32,17.05,58.64,8.66,16.09,19.89,29.91,35.7,39.52,28.48,17.32,58.98,9.96,78.91-10.81,6.44-5.46,11.3-12.16,15.31-19.53,3.44-4.6,5.82-9.74,7.69-15.14,1.21-1.6,1.95-3.4,2.17-5.4,1.12-1.42,1.39-3.17,1.85-4.84,.32-1.11,.65-2.21,.97-3.32,.11-.69,.23-1.37,.34-2.06,1.33-1.99,1.53-4.31,1.89-6.58,.14-.65,.27-1.3,.41-1.95,1.33-2.47,1.6-5.19,1.84-7.91l.37-3.84c.71-1.18,.83-2.46,.7-3.79,.09-1.66,.19-3.32,.28-4.97,1.14-2.58,.83-5.31,.76-8.01,0-.4,.01-.8,.02-1.2,.36-3.63,.34-7.26-.01-10.88,.11-2.74,.46-5.51-.78-8.13,.1-3.27,.34-6.55-1.03-9.67-.8-8.53-2.37-16.89-5.55-24.89,.09-.33,.02-.63-.2-.89,.14-.96-.07-1.8-.86-2.44,.09-.32,.02-.6-.21-.83,.12-.96-.11-1.78-.89-2.4,.08-.33,0-.62-.24-.87,.12-.92-.14-1.68-.9-2.24l.02,.04ZM224.6,233.57c-7.47-.05-11.76,2.07-15.64,5.25-1.03,.85-1.59,1.8-1.53,3.25,.27,6.33,5.46,13.89,11.46,15.98,4.88,1.71,9.69,1.58,13.56-2.46,3.68-3.85,4.81-8.44,3.07-13.53-1.81-5.29-6.93-8.49-10.92-8.5Z"/>
        <path class="cls-49" d="M615.48,410.02c-4.37-.24-7.57-3.29-11.43-4.76-2.62-1-4.82-3.45-8.09-2.24-.39,.15-1.3-.16-1.47-.5-2.15-4.24-7.03-3.61-10.36-5.81-3.38-2.22-7.92-1.68-11.73-3.64-3.14-1.61-6.71,.61-10.06,1.13-2.22,.35-4.16,1.02-6.11-.62-.52-.44-1.39-.87-1.97-.74-4.37,.96-8.36-1.46-12.67-1.27-2.43,.1-4.38,.86-6.54,1.88-2.34,1.11-2.82-3-5.32-2.89-3.08,.13-6.17,.02-9.25,.03-.93,0-1.84,.19-2.38,1.04-1.72,2.69-3.52,2.14-5.93,.67-2.21-1.35-5.39-1.46-7.3-.14-2.52,1.74-4.58,.86-7.05,.83-5.74-.08-11.39,1.07-16.99,2.53-2.93,.76-5.87,1.67-9.05,1.82-3.72,.18-7.43,1.32-11.07,2.34-1.8,.5-3.52,.74-5.34,.57,10.27-3.75,20.99-5.65,31.71-7.34,18.89-2.97,37.89-4.43,57.01-2.35,3.25,.35,6.5,.67,9.75,1.06,3.61,.44,7.11,.69,10.73-.49,3.95-1.29,7.91,.03,11.74,1.23,9.72,3.06,18.96,7.32,28.18,11.6,1.64,.76,3.27,1.53,5.24,2.46,4.64-13.33,10.06-26.05,20.11-37.2-3.84-.56-6.77-1.04-9.72-1.41-11.13-1.4-20.95-5.96-29.59-12.89-13.62-10.92-15.74-26.22-5.94-40.59,1.95-2.86,4.1-5.6,6.74-7.83,13.53-11.41,29-17.92,46.89-17.39,18.64,.55,32.04,15.47,31.19,34.1-.17,3.8-1.31,7.51-.98,11.57,2.22,.42,3.72-1.14,5.4-1.89,7.21-3.21,14.65-6.28,22.59-4.77,16.49,3.14,29.32,11.84,35.89,27.7,7.48,18.07-1.96,36.7-20.77,42.26-5.86,1.73-11.82,1.93-17.78,.61-13.09-2.91-24.43-9.07-34.02-18.45-2.99-2.93-5.6-6.15-7.33-9.93-1.86,.09-2.24,1.49-2.95,2.4-8.88,11.34-18.16,22.24-30.41,30.2-1.51,.98-2.63,2.54-4.12,3.54-2.6,1.75-.23,2.51,.56,3.62Zm56.27-54.28c6.89-1.68,13.84-2.73,20.97-2.28,6.09,.39,11.2,2.74,15.18,7.4,.77,.91,2,1.74,.96,3.45-13.21,1.08-26.42-.77-39.8-1.76,8.25,9.74,18.09,16.65,30.9,18.15,7.03,.82,13.24-1.73,16.47-8.17,3.12-6.21,1.29-12.5-2.86-17.81-4-5.12-9.3-8.51-15.64-10.24-2.54-.69-4.91-.62-7.47-.04-7.8,1.75-14.24,6.14-20.85,10.24-2.41,1.41-4.82,2.82-7.22,4.23,.16,.34,.33,.68,.49,1.02,2.96-1.4,5.92-2.79,8.88-4.19Zm-23.77-8.28c4.54-8.57,5.65-16.85,6.16-25.14,.67-10.76-6.36-18.21-17.09-17.91-13.16,.37-24.66,5.25-34.13,14.58-2.1,2.07-3.65,4.49-4.89,7.15-2.43,5.22-1.79,9.4,2.61,13.2,5.81,5.01,12.26,8.95,19.81,10.94,6.16,1.63,12.47,2.19,18.75,2.94,1.04,.12,2.53,.79,3.36-1.05-3.64-3.22-7.4-6.33-10.9-9.71-5.07-4.9-9.28-10.69-15.29-14.61-.95-.62-1.65-1.56-1.17-2.76,.64-1.58,2.05-1.28,3.25-.92,1.38,.41,2.71,1.02,4.04,1.61,10.29,4.53,19.57,10.31,25.49,21.68Z"/>
        <path class="cls-50" d="M327.11,509.29c1.65-1.67,3.72-.77,5.62-.91-7.16,9.53-14.01,19.28-20.99,28.95-9.31,12.9-18.83,25.65-27.46,39.02-2.82,4.37-6.58,7.57-11.32,9.78-2.62,1.23-4.44,.95-5.88-1.54,0,0,.1,.08,.1,.08,3.62-10.51,10.25-19.3,16.3-28.42,1.73-1.54,3.1-3.36,4.1-5.45,.1-.37,.21-.73,.31-1.1,0,0-.07,.09-.07,.09,.78,.03,1.12-.48,1.36-1.11,1.42-.73,2.28-1.94,2.86-3.38,.07-.35,.15-.71,.22-1.06,0,0-.08,.1-.08,.1,.78,.05,1.12-.46,1.36-1.1,1.06-.37,1.63-1.19,2.04-2.17,.75-.57,1.32-1.23,1.05-2.28,0,0-.08,.09-.08,.09,.84,.14,1.21-.42,1.54-1.04,1.68-1.15,3.06-2.57,4.03-4.37,7.78-7.94,16.23-15.12,25.02-21.92,.91-.21,1.79-.77,1.74-1.64-.04-.66-1.11-.51-1.76-.62Z"/>
        <path class="cls-62" d="M252.04,600.94c1.16,.91,1.56,2.2,1.84,3.57-3.01-.07-3.78,3.41-6.36,4.03-.31-.32-.62-.64-.94-.96,1.45-2.52,5.43-2.95,5.46-6.64Z"/>
        <path class="cls-16" d="M267.04,585.67c-.13,1.11-.81,1.79-1.75,2.27-.41,0-.83,.01-1.24,.02,.33-1.11,.9-1.99,2.12-2.26l.43-.11,.44,.07Z"/>
        <path class="cls-50" d="M267.04,585.67s-.44-.07-.44-.07c0,0-.43,.11-.43,.11,.04-.64,.4-.96,1.01-1.04,0,0-.1-.08-.1-.08-.01,.36-.03,.72-.04,1.08Z"/>
        <path class="cls-63" d="M264.05,587.97c.41,0,.83-.01,1.24-.02-.29,.61-.61,1.19-1.46,1.01,0,0,.07,.09,.07,.09,.05-.36,.1-.72,.15-1.08Z"/>
        <path class="cls-15" d="M692.41,588.71c.43,18.5-3.25,36.44-7.85,54.2-5.06,19.53-11.52,38.6-20.32,56.8-8.36,17.29-19.59,32.65-32.09,47.12-10.93,12.67-22.77,24.43-35.36,35.46-14.25,12.48-29.53,23.54-46.06,32.77-30.9,17.27-63.57,30.19-98.08,38.17-15.02,3.47-30.28,5.49-45.71,6.43-6.89,.42-13.76,.81-20.66,.78-18.61-.08-36.89-2.64-54.73-7.85-16.11-4.7-28.72-14.51-38.51-27.97-10.71-14.71-16.48-31.22-18.44-49.35-2.6-24.07,1.43-47.33,7.11-70.5,7.59-30.97,22.1-58.57,40.58-84.34,18.61-25.96,38.05-51.34,55.43-78.16,10.34-15.96,17.86-33.17,21.75-51.92,1.97-9.49,2.44-19.1,2.63-28.66,.3-14.7,6.92-25.12,19.09-32.67,10.93-6.78,22.93-10.86,35.23-14.16,17.53-4.71,35.31-7.85,53.46-9.35,17.12-1.41,34.09-.49,51.02,1.46,8.64,1,16.71,4.78,24.68,8.28,9.14,4,18.27,8.05,26.71,13.48,10.97,7.05,20.08,16.17,28.71,25.76,13.58,15.08,24.54,31.89,32.83,50.46,9.39,21.03,16.09,42.7,17.68,65.84,.41,5.98,.82,11.94,.89,17.92Zm-341.67,170.38c-.28,4.63,.62,12.73,2.61,20.69,2.87,11.42,7.45,22.01,15.74,30.62,13.03,13.54,29.41,19.58,47.8,20.47,13.23,.64,25.99-2.18,38.17-7.26,12.35-5.15,23.52-11.94,31.83-22.95,11.47-15.21,14.37-31.88,9.01-49.87-3.94-13.22-12.69-21.81-26.75-24.02-4.86-.76-9.74-.36-14.64,.17-6.09,.66-12.15,1.47-18.38,.75-6.86-.79-11.96-3.76-15.64-9.49-5.02-7.81-9.38-15.96-12.47-24.73-.79-2.25-1.76-4.38-2.96-6.41-6.53-11-18.63-12.95-28.17-4.53-3.97,3.5-7.4,7.47-9.99,12.14-10.49,18.92-16.03,39.15-16.16,64.42Zm168.11-127.77c-.2,4.48,.29,10.42,2.42,16.12,4.51,12.1,12.59,19.98,25.67,22.52,10.44,2.03,20.16,.12,29.67-3.99,13.8-5.96,26.1-14.24,37.22-24.28,9.77-8.82,18.45-18.53,23.56-30.92,7.34-17.82,7.08-35.02-4.52-51.13-11.32-15.72-26.12-24.87-46.15-23.79-.89,.05-2.01,.6-2.59-.17-2.3-3-4.46-1.07-6.67,.01-14.6,7.18-26.67,17.3-36.27,30.51-13.8,19-22.29,39.77-22.36,65.11Zm-112.36-58.01c.04,7.55-.05,13.18,1.28,18.72,2.02,8.45,5.09,16.38,12.09,21.99,8.38,6.72,18.13,8.08,28.34,5.92,11.25-2.39,21.05-7.93,29.65-15.41,14.95-13.01,25.54-29.17,32.96-47.43,3.65-8.99,5.61-18.41,4.89-28.19-.59-8.09-2.21-16.06-7.83-22.19-11.77-12.83-26.05-20.86-44.02-20.27-11.74,.38-21.59,4.82-27.74,15.36-4.58,7.85-9.97,15.18-14.49,23.03-8.98,15.57-16,31.83-15.12,48.48Z"/>
        <path class="cls-11" d="M126.97,368.81c9.91,28.07,23.13,54.19,40.63,78.07,1.46,2,1.34,3.29-.16,5.19-5.07,6.4-9.96,12.95-14.87,19.48-1.12,1.48-2.52,2.58-4,3.65-3.98,2.89-7.67,6.11-10.98,9.75-3.47,3.82-6.28,8.09-7.24,13.21-.59,3.14-1.89,5.75-3.7,8.3-4.51,6.35-8.21,13.21-12.31,20.45-1.87-1.7-3.46-3.07-4.97-4.52-7.87-7.56-16.13-14.61-25.32-20.58-10-6.5-20.71-10.26-32.75-10.24-7.44,.01-7.73-.62-4.56-7.26,1.17-2.45,2.48-4.85,3.84-7.2,21.52-37.17,46.42-72,73.27-105.47,.77-.96,1.36-2.16,3.11-2.82Zm19.55,85.75c.33-8.39-5.64-13.23-13.83-11.14-5.29,1.35-10.02,4.07-12.79,8.66-2.85,4.72-6.47,8.71-9.81,12.98-1.91,2.44-3.45,5.11-4.79,7.9-1.11,2.32-1.93,4.71-2.09,7.28-.36,5.95,3.02,9.29,8.92,8.84,2.76-.21,5.33-1.06,7.79-2.28,8.81-4.36,16.08-10.53,21.71-18.58,2.85-4.08,4.66-8.61,4.89-13.67Zm-62.65,15.62c.3-1.26,1.13-1.71,1.81-2.26,12.01-9.5,21.85-21.15,32.09-32.39,1.45-1.59,2.79-3.35,3.43-5.49,1.06-3.54-.4-5.73-4.06-5.89-2.93-.13-5.8,.47-8.53,1.46-2.04,.74-4.54,1.1-5.38,3.64,2.76,2.59,6.23,1.35,10,2.08-4.7,4.92-8.85,9.18-12.9,13.53-5.8,6.22-12.35,11.83-17.02,19-2.02,3.11-3.9,4.21-7.42,2.69-1.49-.65-3.38-.39-5.26-.55,3.64,8.27,9.59,12.48,18.44,13.26-.69-4.18-3.49-6.45-5.21-9.08Z"/>
        <path class="cls-11" d="M272.54,530.16c-20.01,5.43-37.2,15.69-52.76,28.78-15.36,12.92-28.22,28.08-39.02,45.99-5.58-12.87-12.37-23.75-20.72-33.61-6.93-8.19-14.63-15.64-22.44-22.99-2.95-2.77-2.95-2.81-.28-5.95,17.66-20.75,36.11-40.79,54.81-60.59,.5-.53,1.07-1,1.53-1.55,1.33-1.58,2.54-1.57,4.08-.13,2.51,2.36,5.13,4.61,7.82,6.77,19.19,15.42,40.42,27.65,61.75,39.73,1.68,.95,3.66,1.47,5.23,3.54Zm-79.4-28.4c.77-.42,2.13-.61,1.3-1.89-.31-.48-1.19,0-1.45,.74-3.52,1.42-7.09,2.75-10.56,4.28-8.36,3.67-14.1,10.06-18.15,18.04-2.31,4.54-3.46,9.37,0,13.86,3.41,4.41,8.35,4.61,13.39,4.07,.54-.06,1.07-.2,1.59-.34,11.5-3.15,18.72-10.74,22.09-21.95,1.98-6.6-.12-11.09-5.99-14.8-.83-.53-2.18-.56-2.23-2Zm2.22,64.47c.62-.07,1.93-.02,3.14-.36,10.38-2.93,18.7-8.67,24.11-18.17,2.28-4,3.36-8.33,3.31-13.02-.07-6.52-5.47-9.15-9.4-12.45-2.65-2.23-4.84,1.93-7.29,3.1-1.63,.78-3.18,1.74-4.72,2.69-6.57,4.08-11.96,9.41-16.4,15.71-2.44,3.47-4.09,7.25-4.12,11.61-.05,6.85,3.9,10.87,11.38,10.88Z"/>
        <path class="cls-11" d="M232.32,482.06c-3.65-4.95-7.31-9.9-11.1-15.05,1.18-1.73,3.14-1.78,4.64-2.6,2.23-1.22,3.89-.92,5.77,.94,15.78,15.63,34.13,28.22,50.84,42.76,.65,.57,1.23,1.37,2.86,1.12-2.06-4.14-5.46-6.98-8.29-10.2-3-3.41-6.15-6.68-9.32-9.93-3.29-3.38-6.67-6.69-10.05-9.99-3.25-3.17-6.55-6.29-9.83-9.43-3.27-3.12-6.55-6.23-9.89-9.41,5.3-3.32,5.37-3.4,9.22,.33,14.11,13.66,29.41,25.91,44.76,38.1,1.4,1.88,2.81,3.76,6.22,4.93-1.74-3.01-2.7-5.12-4.64-6.55-3-4.84-7.17-8.64-11.25-12.48-9.12-8.57-18.37-17.01-27.58-25.49-1.33-1.22-2.74-2.35-3.74-3.19,.1-1.34,.39-1.76,.93-1.97,8.9-3.41,6.28-3.93,12.66,2.71,10.3,10.72,20.86,21.22,29.78,33.19,.49,1.26,1.21,3.19,2.55,2.41,1.48-.86-.28-2.27-.83-3.39-.06-.13-.27-.2-.42-.29-7.26-15.03-17.66-27.8-29.26-39.86,1.75-1.85,3.19-2.16,4.72-.28,1.03,1.27,2.06,2.54,3.08,3.82,10.4,13.12,21.71,25.39,34.14,36.61,.8,1.28,1.59,2.57,3.53,2.87,.38-2.05-.74-3.3-1.94-4.51-4.21-8.56-10.29-15.79-16.43-22.94-5.68-6.6-11.62-12.98-17.45-19.46,3.44-3.02,3.57-3.14,5.92-.61,15.33,16.49,31.63,32.09,45.78,49.67,.56,.69,1.06,1.43,1.76,2.39-1.37,1.76-3.39,2.01-5.18,2.64-8.9,3.14-17.81,6.23-26.7,9.38-5.02,1.78-9.66,4.23-13.34,8.18-1.43,1.54-2.66,1.99-4.68,.83-15.7-9.08-31.49-18-46.27-28.58,.37-.37,.74-.75,1.11-1.12,.72-.12,2.1,.2,1.41-1.18-.83-1.66-1.85-3.3-3.52-4.33Z"/>
        <path class="cls-43" d="M274.87,437.05c-4.96,4.04-10.26,6.48-15.79,8.76-14.57,6.01-28.97,12.42-43.44,18.68-.83,.36-1.68,.69-2.48,1.11-6.88,3.63-12.97,3.52-18.35-3.01-3.1-3.76-7.09-6.77-10.28-10.46-4.08-4.74-3.3-8.9,2.04-12.16,17.79-10.87,36.05-20.87,55.11-29.37,2.96-1.32,4.79-.93,7.12,1.2,7.64,6.96,15.19,14.02,22.48,21.35,1.24,1.24,2.37,2.58,3.59,3.91Z"/>
        <path class="cls-43" d="M115.69,528.3c4.85-4.71,9.19-9.53,13.06-14.79,13.33-18.12,26.76-36.16,40.17-54.23,1.18-1.59,2.46-3.1,3.97-5,4.52,4.91,8.9,9.46,13.01,14.24,1.72,2,5.2,3.45,4.69,6.19-.39,2.12-3.11,3.82-4.82,5.67-14.71,15.84-28.17,32.73-41.76,49.52-3.08,3.81-6.3,7.51-9.36,11.33-1.35,1.68-2.46,2.4-4.35,.59-4.71-4.5-9.55-8.86-14.6-13.52Z"/>
        <path class="cls-11" d="M206.16,422.01c-2.03,1.96-3.48,2.49-5.39,.49-14.91-15.64-30.16-30.98-41.46-49.64-.84-1.39-1.71-2.79-2.72-4.06-1.14-1.45-2.74-1.86-4.37-.95-1.68,.94-1.99,2.53-1.26,4.23,.57,1.33,1.31,2.59,2.02,3.85,8.13,14.5,18.26,27.5,29.67,39.54,3.86,4.08,7.72,8.16,11.86,12.54-4.18,3.75-9.37,5.62-13.49,9.01-.8,.66-1.69,.53-2.35-.35-.66-.87-1.31-1.74-1.94-2.63-14.49-20.62-25.16-43.24-34.85-66.39-.2-.48-.16-1.06-.24-1.68,3.71-1.69,7.74-1.89,11.62-2.47,6.82-1.01,13.69-1.6,20.54-2.39,1.99-.23,3.87-.75,4.28,2.35,.16,1.24,1.61,2.33,2.53,3.44,12.25,14.86,25.2,29.09,38.72,42.8,1.27,1.28,2.47,2.63,3.69,3.92-.26,.42-.36,.81-.6,.94q-9.56,5.15-16.94-2.57c-12.57-13.17-23.85-27.36-33.65-42.71-.87-1.37-1.87-2.67-2.91-3.92-.63-.75-1.6-.97-2.46-.43-.82,.51-1.23,1.47-.88,2.37,.51,1.34,1.22,2.62,1.94,3.86,10.38,17.81,22.73,34.12,37.07,48.93,.49,.51,.91,1.08,1.58,1.9Z"/>
        <path class="cls-11" d="M252.04,600.94c-.03,3.69-4.01,4.12-5.46,6.64-4.41,3.47-8.81,6.75-14.6,7.88-3.35,.65-6.01,3.26-8.91,5.14-5.02,3.25-10,6.6-15.18,9.59-3.9,2.24-4.8,1.96-8.16-1.13-3.21-2.95-6.27-6.05-9.47-9-1.4-1.29-1.71-2.33-.68-4.17,11.49-20.56,26.43-38.13,45.11-52.5,.7-.54,1.5-.96,2.76-1.76,5,13.3,7.76,27.1,14.6,39.33Zm-45.26,26.08c-.59,.1-.96,.37-.86,1.04-.31,.27-.63,.53-.94,.8,.12,.1,.23,.29,.35,.3,.52,.03,.8-.29,.93-.77,.93,.04,1.49-.47,1.89-1.24,3.38-2.05,6.4-4.53,9.03-7.48,8.01-6.25,15.6-12.99,22.85-20.11,.77-.75,1.5-1.59,2.03-2.51,.46-.81,.35-1.78-.35-2.51-.7-.74-1.61-.89-2.47-.39-.77,.45-1.52,1-2.13,1.64-7.12,7.48-14.22,14.99-21.32,22.5-2.8,2.16-5.33,4.6-7.63,7.3-.46,.48-.93,.96-1.39,1.43Zm27.59-55.84c-2.12,1.65-3.97,3.54-5.39,5.84-2.47,2.3-4.82,4.69-6.68,7.53-10.08,10.17-18.75,21.58-28.11,32.37-.35,.41-.67,.86-.9,1.35-.35,.73-.22,1.5,.46,1.9,.37,.22,1.17,.19,1.48-.07,.96-.81,1.86-1.72,2.66-2.7,8.59-10.51,17.15-21.04,25.72-31.56,2.64-2.17,4.56-4.96,6.54-7.7,1.83-1.48,3.17-3.37,4.37-5.36,.65-.31,1.09-.82,.87-1.53-.19-.62-.65-.53-1.01-.05Zm-30.42,51.72c1.88-2.14,3.91-4.16,5.34-6.66,7.62-9.2,15.25-18.4,22.86-27.6,.57-.7,1.09-1.44,1.59-2.19,.6-.91,.37-1.76-.42-2.37-.63-.49-1.39-.36-1.97,.17-.53,.49-1.02,1.03-1.45,1.6-7.3,9.68-14.87,19.16-21.74,29.16-2.25,1.86-3.61,4.42-5.31,6.72-.37,.38-.84,.7-1.08,1.15-.3,.54-1.1,1.15-.43,1.8,.63,.6,1.31,.2,1.77-.44,.31-.43,.57-.89,.86-1.33Z"/>
        <path class="cls-3" d="M264.05,587.97c-.05,.36-.1,.72-.15,1.08-.94-.08-1.71-.4-2.23-1.27-5.31-8.88-12.12-16.62-18.62-24.59-2.98-3.66-2.91-3.69,1.17-6.35,13.33-8.71,27.84-14.42,43.56-17,.7,.04,1.4,.08,2.09,.12-4.33,6.34-10.06,11.59-14.17,18.1-.64,.25-1,.71-1.1,1.39,0,0,.05-.06,.05-.06-.63,.16-.96,.58-1.04,1.21,0,0,.02-.02,.02-.02-.61,.15-.95,.53-1.02,1.15,0,0-.02,.03-.02,.03-.58,.14-.93,.48-.94,1.1,0,0-.1,.13-.1,.13-.51,.09-.8,.39-.82,.92-.33,.11-.5,.34-.52,.68-2.03,1.65-3.74,3.58-5,5.88-.37,.16-.54,.44-.52,.84-.54,.32-1.22,.61-.41,1.3,.05,.04,.62-.51,.94-.78,.66-.16,1.03-.63,1.27-1.23,1.7-1.01,3.02-2.39,4.04-4.07,3.95-3.79,7.89-7.58,11.84-11.37,.37,.36,.74,.73,1.12,1.09-6.06,9.12-12.68,17.91-16.3,28.42-.61,.08-.97,.4-1.01,1.04-1.22,.27-1.79,1.15-2.12,2.26Zm-11.25-22.01c-.71,.06-1.1,.39-1.01,1.15-.48,0-.87,.15-.97,.66-.02,.08,.21,.32,.32,.31,.53-.02,.74-.37,.78-.86,.71,.02,1.1-.31,1.14-1.03,.68,0,1.07-.34,1.15-1.02,.89-.03,1.42-.54,1.75-1.32,.56-.16,.94-.51,1.08-1.09l1.2-1.13c3.38-3.18,6.78-6.35,10.14-9.55,.82-.78,1.44-1.79,.44-2.77-1.06-1.05-1.99-.17-2.71,.6-3.18,3.39-6.11,6.98-8.72,10.83-.75,.46-1.31,1.06-1.53,1.94-.61,.12-.95,.51-1.06,1.11-.63,.06-.95,.4-.94,1.05-.67,.07-1.04,.44-1.06,1.12Z"/>
        <path class="cls-1" d="M180.31,360.49c7.73-2.21,13.91-.73,19.3,4.79,13.56,13.9,27.41,27.5,41.95,40.38,.25,.22,.37,.61,.7,1.19-3.4,2.11-7.38,2.68-10.97,4.2-1.44,.61-2.39-.36-3.31-1.27-16.13-15.92-32.54-31.57-47.68-49.29Z"/>
        <path class="cls-7" d="M327.13,511.55c-8.79,6.8-17.24,13.97-25.02,21.92-.41-.43-.83-.85-1.24-1.28,1.54-2.43,3.07-4.85,4.61-7.28,2.4-3,5.43-5.65,5.54-9.92,4.97-1.53,9.95-3.06,14.92-4.59,.4,.38,.8,.76,1.19,1.15Z"/>
        <path class="cls-8" d="M234.43,487.57c-.37,.37-.74,.75-1.11,1.12-8.36-4.76-15.67-10.89-22.75-16.8,.18-1.85,1.32-1.77,2.04-2.18,2.67-1.52,4.72-1.37,6.95,1.3,3.59,4.31,7.73,8.16,11.63,12.21,1.08,1.45,2.17,2.9,3.25,4.34Z"/>
        <path class="cls-7" d="M304.29,523.6c-2.47,2.84-4.94,5.67-7.42,8.5-.1,.11-.33,.11-1.09,.34,.35-3.99-2.37-6.36-5.17-9.29,5.41-2.44,10.44-4.57,15.66-6.23,.74,.04,1.47,.07,2.21,.11l-4.19,6.57Z"/>
        <path class="cls-53" d="M304.29,523.6l4.19-6.57c1.05-.39,.63-.86,.06-1.33,.66-.82,1.53-.88,2.48-.71-.11,4.28-3.14,6.93-5.54,9.92-.4-.44-.79-.88-1.19-1.31Z"/>
        <path class="cls-55" d="M293.51,497.07c1.94,1.44,2.91,3.54,4.64,6.55-3.41-1.17-4.82-3.04-6.22-4.93,.53-.54,1.05-1.08,1.58-1.63Z"/>
        <path class="cls-74" d="M234.43,487.57c-1.08-1.45-2.17-2.9-3.25-4.34,.38-.39,.76-.78,1.14-1.17,1.67,1.04,2.69,2.67,3.52,4.33,.69,1.38-.69,1.06-1.41,1.18Z"/>
        <path class="cls-20" d="M300.87,532.19c.41,.43,.83,.85,1.24,1.28-.97,1.8-2.35,3.23-4.03,4.38-.44-.02-.87-.04-1.31-.06,1-2.13,2.3-4.04,4.1-5.59Z"/>
        <path class="cls-70" d="M265.21,570.47c1.26-2.31,2.97-4.23,5-5.88,.1,.64,.21,1.29,.31,1.93-1.02,1.68-2.34,3.06-4.04,4.07-.43-.04-.85-.08-1.28-.12Z"/>
        <path class="cls-47" d="M283.48,556.25c-.37-.36-.74-.73-1.12-1.09,.98-1.86,2.38-3.32,4.19-4.39,.34,.01,.69,.03,1.03,.03-1,2.09-2.37,3.91-4.1,5.45Z"/>
        <path class="cls-13" d="M295.62,488.57c.14,.1,.35,.16,.42,.29,.54,1.12,2.31,2.53,.83,3.39-1.34,.78-2.07-1.15-2.55-2.41,.44-.42,.87-.85,1.31-1.27Z"/>
        <path class="cls-58" d="M309.9,487.21c1.2,1.22,2.31,2.47,1.94,4.51-1.94-.3-2.73-1.58-3.53-2.87,.53-.55,1.06-1.1,1.59-1.65Z"/>
        <path class="cls-79" d="M292.04,545.3c-.59,1.44-1.44,2.65-2.86,3.38-.41,0-.82,0-1.23,.01,.61-1.43,1.49-2.62,2.92-3.35,.39-.02,.79-.03,1.18-.05Z"/>
        <path class="cls-35" d="M327.13,511.55c-.4-.38-.8-.76-1.19-1.15,.39-.37,.78-.74,1.18-1.11,.65,.11,1.72-.04,1.76,.62,.05,.87-.83,1.42-1.74,1.64Z"/>
        <path class="cls-12" d="M295.57,541.07c-.4,.98-.98,1.8-2.04,2.17-.39,0-.77,0-1.16,0,.27-1.03,.8-1.85,1.84-2.26,.39-.13,.78-.26,1.17-.39,0,0,.19,.47,.19,.47Z"/>
        <path class="cls-17" d="M308.54,515.7c.57,.47,.99,.93-.06,1.33-.74-.04-1.47-.07-2.21-.11,.55-.79,1.41-1.01,2.27-1.22Z"/>
        <path class="cls-59" d="M289.86,539.95c-.7-.04-1.4-.08-2.09-.12,.61-.73,1.41-1.19,2.3-.83,.8,.33,.32,.72-.2,.95Z"/>
        <path class="cls-37" d="M296.62,538.79c.27,1.04-.29,1.7-1.05,2.28,0,0-.19-.47-.19-.47,.01-.27,.03-.53,.05-.8,.11-.67,.38-1.15,1.18-1.01Z"/>
        <path class="cls-32" d="M287.58,550.8c-.34,0-.68-.02-1.03-.03,.23-.63,.52-1.18,1.34-1.06-.1,.37-.21,.73-.31,1.1Z"/>
        <path class="cls-34" d="M287.95,548.69c.41,0,.82,0,1.23-.01-.24,.63-.57,1.15-1.36,1.11,.04-.37,.08-.73,.13-1.1Z"/>
        <path class="cls-31" d="M292.04,545.3c-.39,.02-.79,.03-1.18,.05,.27-.62,.57-1.2,1.4-1.11-.07,.35-.15,.71-.22,1.06Z"/>
        <path class="cls-70" d="M272.62,561.73c.06-.63,.41-1.01,1.02-1.15-.12,.58-.46,.96-1.02,1.15Z"/>
        <path class="cls-30" d="M295.44,539.8c-.02,.27-.04,.54-.05,.8-.39,.13-.78,.26-1.17,.39,.18-.63,.53-1.09,1.22-1.19Z"/>
        <path class="cls-39" d="M296.77,537.78c.44,.02,.87,.04,1.31,.06-.33,.62-.7,1.18-1.54,1.04,.08-.37,.15-.73,.23-1.1Z"/>
        <path class="cls-70" d="M274.6,559.45c.09-.68,.45-1.15,1.1-1.39-.04,.72-.41,1.18-1.1,1.39Z"/>
        <path class="cls-70" d="M270.74,563.91c.02-.53,.31-.83,.82-.92-.27,.31-.55,.61-.82,.92Z"/>
        <path class="cls-70" d="M271.65,562.86c.02-.62,.36-.97,.94-1.1-.31,.37-.63,.74-.94,1.1Z"/>
        <path class="cls-70" d="M273.61,560.59c.08-.63,.4-1.05,1.04-1.21-.08,.63-.44,1.03-1.04,1.21Z"/>
        <path class="cls-28" d="M292.37,543.24c.39,0,.77,0,1.16,0-.23,.63-.57,1.14-1.35,1.1,.06-.36,.13-.73,.19-1.09Z"/>
        <path class="cls-5" d="M402.46,247.86c-19.93,20.77-50.43,28.12-78.91,10.81-15.81-9.61-27.04-23.43-35.7-39.52-9.86-18.33-15.29-38.03-17.05-58.64-2.28-26.61,.92-52.54,11.77-77.21,7.13-16.2,17.01-30.36,31.31-41.12,.87-.65,1.73-1.33,2.67-1.88,6.46-3.81,12.45-8.14,20.77-8,6.05,.1,12.14-1.65,18.38-1.04,12.83,1.26,24.26,5.95,34.44,13.7,16.63,12.66,28.03,29.17,35.28,48.66-.18,1.04-.07,1.96,1,2.51,0,0-.02-.04-.02-.04-.11,.91,.06,1.71,.9,2.24,.24,.25,.32,.54,.24,.87-.15,.97-.03,1.84,.89,2.4,.23,.24,.3,.52,.21,.83-.16,.97-.06,1.85,.86,2.43,.23,.26,.29,.56,.2,.89-.23,1.19,.15,2.58-1.08,3.46-.23-.25-.3-.54-.21-.87,.14-.95,0-1.8-.86-2.38-.23-.26-.31-.55-.23-.89,.14-.96,.02-1.83-.91-2.39-.24-.22-.31-.48-.23-.79,.17-1.02,.05-1.92-.98-2.47v.02c.09-.91-.09-1.7-.94-2.2-1.19-2.44-2.37-4.89-3.57-7.33-6.54-13.36-15.02-25.26-26.34-35.02-27.45-23.67-62.12-22.95-87.96,1.96-10.36,9.99-17.73,22.02-22.95,35.37-10.61,27.13-12.43,55.03-6.96,83.49,3.54,18.39,10.18,35.57,21.08,50.92,9.55,13.44,21.31,24.23,36.97,30.23,3.48,1.33,7.38,1.74,10.07,4.89,.7,.81,2.31,.94,3.54,1.18,7.61,1.5,15.15,1.02,22.69-.66,11.28-2.51,20.76-8.4,29.56-15.59,.89,.04,1.64,.31,2.03,1.19Z"/>
        <path class="cls-42" d="M428.63,109.21c1.23-.88,.85-2.27,1.08-3.46,3.18,8,4.75,16.36,5.55,24.89-.47,1.55,.33,3.4-1.11,4.72-1.21-8.85-3.52-17.47-5.51-26.16Z"/>
        <path class="cls-46" d="M402.46,247.86c-.4-.88-1.15-1.15-2.03-1.19,5.97-6.08,11.41-12.6,16.15-19.68,.4,.45,.79,.89,1.19,1.34-4.01,7.37-8.87,14.07-15.31,19.53Z"/>
        <path class="cls-19" d="M434.14,135.37c1.44-1.32,.64-3.17,1.11-4.72,1.37,3.11,1.13,6.4,1.03,9.67,.14,2.72-.95,5.56,.78,8.12,.36,3.63,.37,7.26,.01,10.88-1.4-1.32-.77-3.04-.93-4.6-.17-1.74,.54-3.65-.93-5.15-.36-4.73-.72-9.46-1.08-14.2Z"/>
        <path class="cls-38" d="M417.77,228.33c-.4-.45-.79-.89-1.19-1.34,2.59-5.08,5.18-10.17,7.77-15.25,.37,.48,.74,.97,1.11,1.45-1.87,5.4-4.25,10.54-7.69,15.14Z"/>
        <path class="cls-36" d="M435.22,149.56c1.47,1.51,.76,3.41,.93,5.15,.15,1.57-.47,3.29,.93,4.6,0,.4-.01,.8-.02,1.2-1.72,2.53-.68,5.32-.76,8.01-.09,1.66-.19,3.32-.28,4.97-1.22-.93-.87-2.38-1.19-3.61,.13-6.78,.26-13.56,.39-20.33Z"/>
        <path class="cls-27" d="M434.94,181.14c-.24,2.72-.51,5.44-1.84,7.91-.39-.42-.78-.84-1.18-1.27,.39-3.09,.63-6.21,1.79-9.15,.23,.93,.3,1.93,1.23,2.51Z"/>
        <path class="cls-21" d="M425.46,213.2c-.37-.48-.74-.97-1.11-1.45,.71-1.82,1.43-3.64,2.14-5.47,.38,.51,.76,1.01,1.14,1.52-.21,2-.96,3.8-2.17,5.4Z"/>
        <path class="cls-40" d="M432.69,191c-.37,2.27-.56,4.59-1.89,6.58-.38-.01-.76-.02-1.14-.03,.29-2.3,.72-4.56,1.88-6.61,.39,.02,.77,.04,1.16,.06Z"/>
        <path class="cls-33" d="M436.3,168.53c.08-2.69-.95-5.48,.76-8.01,.07,2.7,.38,5.42-.76,8.01Z"/>
        <path class="cls-36" d="M437.06,148.44c-1.73-2.57-.64-5.4-.78-8.12,1.25,2.61,.89,5.38,.78,8.12Z"/>
        <path class="cls-33" d="M434.83,169.9c.32,1.23-.03,2.67,1.19,3.61,.12,1.33,0,2.62-.71,3.79-.23-.96-.29-2.01-1.22-2.64-.11-1.64-.05-3.26,.74-4.76Z"/>
        <path class="cls-22" d="M427.63,207.8c-.38-.51-.76-1.01-1.14-1.52,.55-1.6,.73-3.34,1.84-4.72,.39,.47,.77,.94,1.16,1.4-.47,1.67-.73,3.42-1.85,4.84Z"/>
        <path class="cls-23" d="M434.09,174.65c.94,.64,.99,1.68,1.22,2.64-.12,1.28-.24,2.56-.37,3.85-.93-.58-1-1.59-1.23-2.51,.13-1.33,.25-2.65,.37-3.98Z"/>
        <path class="cls-29" d="M429.48,202.96c-.39-.47-.77-.94-1.16-1.4,.07-1.17,.16-2.33,1.12-3.19,.34,.42,.68,.85,1.02,1.27-.32,1.11-.65,2.21-.97,3.32Z"/>
        <path class="cls-44" d="M432.69,191c-.39-.02-.77-.04-1.16-.06,.13-1.05,.26-2.1,.39-3.16,.39,.42,.78,.84,1.18,1.27-.14,.65-.27,1.3-.41,1.95Z"/>
        <path class="cls-42" d="M429.5,104.86c-.92-.59-1.02-1.46-.86-2.43,.79,.63,1,1.47,.86,2.43Z"/>
        <path class="cls-42" d="M427.3,98.31c-.84-.53-1.01-1.33-.9-2.24,.77,.56,1.02,1.32,.9,2.24Z"/>
        <path class="cls-41" d="M430.45,199.64c-.34-.42-.68-.85-1.02-1.27-.06-.31,0-.58,.22-.82,.38,.01,.76,.02,1.14,.03-.11,.69-.23,1.37-.34,2.06Z"/>
        <path class="cls-42" d="M426.42,96.11c-1.07-.54-1.17-1.47-1-2.51,.85,.63,1.04,1.52,1,2.51Z"/>
        <path class="cls-42" d="M428.43,101.59c-.92-.57-1.04-1.44-.89-2.4,.78,.62,1.01,1.45,.89,2.4Z"/>
        <path class="cls-15" d="M647.98,347.45c-5.91-11.37-15.2-17.15-25.49-21.68-1.33-.58-2.66-1.19-4.04-1.61-1.2-.36-2.61-.67-3.25,.92-.48,1.19,.21,2.14,1.17,2.76,6.01,3.92,10.22,9.72,15.29,14.61,3.5,3.38,7.26,6.49,10.9,9.71-.82,1.84-2.31,1.18-3.36,1.05-6.28-.75-12.59-1.31-18.75-2.94-7.55-2-14-5.94-19.81-10.94-4.4-3.8-5.04-7.98-2.61-13.2,1.23-2.65,2.79-5.08,4.89-7.15,9.47-9.34,20.96-14.21,34.13-14.58,10.74-.3,17.76,7.14,17.09,17.91-.51,8.28-1.62,16.57-6.16,25.14Z"/>
        <path class="cls-15" d="M669.61,354.67c6.61-4.1,13.06-8.49,20.85-10.24,2.56-.58,4.93-.65,7.47,.04,6.35,1.73,11.64,5.13,15.64,10.24,4.15,5.31,5.98,11.6,2.86,17.81-3.23,6.44-9.44,9-16.47,8.17-12.82-1.5-22.65-8.42-30.9-18.15,13.38,.99,26.59,2.84,39.8,1.76,1.05-1.71-.19-2.54-.96-3.45-3.98-4.66-9.09-7.01-15.18-7.4-7.13-.45-14.08,.6-20.97,2.28-.82-.15-1.69-.18-2.14-1.06Z"/>
        <path class="cls-80" d="M669.61,354.67c.45,.88,1.32,.91,2.14,1.06-2.96,1.4-5.92,2.79-8.88,4.19-.16-.34-.33-.68-.49-1.02,2.41-1.41,4.82-2.82,7.22-4.23Z"/>
        <path class="cls-49" d="M350.74,759.09c.13-25.27,5.67-45.5,16.16-64.42,2.59-4.66,6.02-8.63,9.99-12.14,9.54-8.42,21.65-6.47,28.17,4.53,1.2,2.03,2.17,4.16,2.96,6.41,3.09,8.77,7.45,16.92,12.47,24.73,3.68,5.73,8.78,8.7,15.64,9.49,6.23,.72,12.29-.09,18.38-.75,4.9-.53,9.79-.93,14.64-.17,14.06,2.21,22.81,10.8,26.75,24.02,5.36,17.99,2.46,34.66-9.01,49.87-8.31,11.01-19.47,17.8-31.83,22.95-12.18,5.07-24.94,7.89-38.17,7.26-18.39-.89-34.76-6.94-47.8-20.47-8.29-8.61-12.88-19.21-15.74-30.62-2-7.96-2.9-16.05-2.61-20.69Zm37.94-61.05c-2.91,2.62-4.76,5.72-6.42,8.94-3.34,6.47-5.89,13.27-7.87,20.26-4.89,17.22-6.46,34.55-1.49,52.08,5.66,19.94,20.85,32.54,41.56,34.43,17.91,1.63,34.13-3.29,49.11-12.76,6.9-4.36,12.19-10.42,15.71-17.73,4.9-10.19,4.96-20.69,.32-31.05-2.53-5.65-7.02-8.61-13.34-8.57-3.45,.03-6.89,.16-10.3,.77-7.7,1.38-15.43,2.33-23.28,1.61-11.95-1.09-21.43-6.4-28.01-16.53-4.27-6.57-7.85-13.5-9.97-21.08-1.1-3.93-3.2-7.19-6.01-10.38Z"/>
        <path class="cls-49" d="M518.86,631.32c.07-25.34,8.56-46.11,22.36-65.11,9.6-13.21,21.67-23.33,36.27-30.51,2.2-1.08,4.37-3.01,6.67-.01,.58,.76,1.7,.21,2.59,.17,20.02-1.09,34.83,8.07,46.15,23.79,11.6,16.1,11.86,33.3,4.52,51.13-5.11,12.4-13.79,22.1-23.56,30.92-11.12,10.04-23.42,18.32-37.22,24.28-9.51,4.11-19.23,6.02-29.67,3.99-13.08-2.54-21.16-10.41-25.67-22.52-2.13-5.71-2.62-11.65-2.42-16.12Zm33.05-48.7c1.09-.08,2.17-.22,3.26-.22,9.55,0,15.92,7.67,14.18,17.02-1.74,9.39-13.17,16.71-22.42,14.32-2.51-.65-4.66-1.94-6.42-3.89-.83-.92-1.18-2.29-2.48-2.8-3.69,8.35-5.64,26.07-3.31,34.1,1.33,4.57,2.25,9.77,8.12,11.26,.61,.16,1.23,.83,1.56,1.43,1.21,2.19,3.35,2.56,5.48,3.08,7,1.69,13.71,.49,20.22-2.15,19.5-7.93,35.17-20.81,47.88-37.41,4.48-5.85,7.23-12.59,8.51-19.84,1.32-7.47,1.11-14.85-2.62-21.73-4.43-8.18-10.65-14.64-18.85-19.11-3.53-1.93-7.29-3.38-11.33-3.59-8.56-.43-17.04,.22-25.37,2.41-2.34,.62-4.22,1.74-5.6,3.91-4.58,7.19-9.34,14.26-13.3,21.83-.76,.53-1.53,1.39-.74,2.07,1.09,.94,2.27,.18,3.22-.68Z"/>
        <path class="cls-49" d="M406.5,573.31c-.87-16.65,6.14-32.91,15.12-48.48,4.53-7.85,9.91-15.19,14.49-23.03,6.15-10.54,16-14.97,27.74-15.36,17.97-.59,32.25,7.44,44.02,20.27,5.62,6.13,7.24,14.1,7.83,22.19,.71,9.79-1.24,19.2-4.89,28.19-7.41,18.26-18,34.42-32.96,47.43-8.61,7.49-18.41,13.03-29.65,15.41-10.21,2.17-19.96,.81-28.34-5.92-7-5.61-10.07-13.54-12.09-21.99-1.33-5.54-1.24-11.16-1.28-18.72Zm16-16.08c-2.04,8.42-2.66,16.66-2.08,25.04,.32,4.57,1.44,8.92,2.92,13.18,2.68,7.72,8.34,11.52,16.64,11.41,3.67-.05,7.17-.87,10.6-2.18,9.32-3.55,17.39-8.96,24.16-16.27,9.59-10.36,16.94-22.18,22.16-35.28,2.85-7.15,4.23-14.6,3.67-22.36-.56-7.67-3.46-13.97-9.95-18.44-3.3-2.27-6.69-4.33-10.34-5.99-9.91-4.49-19.61-4.8-29.04,1.31-1.21,.79-2.48,1.54-3.82,2.07-6.52,2.6-9.69,7.78-11.2,14.37,.47,.2,.93,.47,1.43,.59,8.09,2.06,11.88,7.98,13.36,15.56,1.43,7.34-1.13,13.66-6.55,18.65-5.43,5.01-12.54,5.07-18.4,.55-.96-.74-1.51-2.07-3.56-2.23Z"/>
        <path class="cls-52" d="M146.53,454.56c-.22,5.06-2.03,9.59-4.89,13.67-5.62,8.05-12.9,14.22-21.71,18.58-2.46,1.22-5.04,2.07-7.79,2.28-5.9,.45-9.28-2.89-8.92-8.84,.16-2.58,.98-4.97,2.09-7.28,1.34-2.8,2.88-5.46,4.79-7.9,3.34-4.27,6.96-8.26,9.81-12.98,2.77-4.59,7.5-7.31,12.79-8.66,8.19-2.08,14.16,2.75,13.83,11.14Zm-35.84,27.15c2.31,.93,4,.15,5.65-.56,8.77-3.77,15.58-9.8,20.5-17.96,1.33-2.21,2.03-4.67,2.4-7.18,.68-4.62-1.61-6.51-6.1-5.01-3.5,1.17-6.52,3.22-8.86,6.08-5.07,6.21-9.19,13.02-12.6,20.26-.61,1.3-1.07,2.69-.99,4.36Z"/>
        <path class="cls-48" d="M83.88,470.18c1.71,2.63,4.52,4.91,5.21,9.08-8.85-.78-14.8-4.98-18.44-13.26,1.89,.17,3.77-.09,5.26,.55,3.52,1.52,5.39,.42,7.42-2.69,4.67-7.17,11.22-12.78,17.02-19,4.06-4.35,8.21-8.61,12.9-13.53-3.76-.73-7.24,.51-10-2.08,.84-2.55,3.34-2.9,5.38-3.64,2.72-.99,5.6-1.59,8.53-1.46,3.66,.16,5.12,2.35,4.06,5.89-.64,2.14-1.98,3.89-3.43,5.49-10.25,11.24-20.09,22.89-32.09,32.39-.69,.54-1.51,.99-1.81,2.26Z"/>
        <path class="cls-52" d="M195.36,566.23c-7.48,0-11.42-4.03-11.38-10.88,.03-4.36,1.67-8.14,4.12-11.61,4.44-6.3,9.84-11.62,16.4-15.71,1.54-.96,3.09-1.91,4.72-2.69,2.45-1.17,4.64-5.33,7.29-3.1,3.93,3.3,9.33,5.92,9.4,12.45,.05,4.69-1.03,9.02-3.31,13.02-5.41,9.5-13.73,15.24-24.11,18.17-1.2,.34-2.51,.29-3.14,.36Zm18.57-39.76c-8.51,7.57-15.59,16.12-21.07,26-.17,.31-.32,.65-.43,1-.54,1.74-1.2,3.61,.11,5.17,1.36,1.63,3.36,1.08,5.1,.72,10.17-2.13,19.42-12.9,19.94-23.21,.18-3.52-.52-6.8-3.64-9.68Z"/>
        <path class="cls-51" d="M193.14,501.76c.04,1.44,1.39,1.47,2.23,2,5.87,3.71,7.97,8.2,5.99,14.8-3.36,11.21-10.58,18.8-22.09,21.95-.52,.14-1.06,.29-1.59,.34-5.04,.54-9.98,.34-13.39-4.07-3.47-4.49-2.31-9.31,0-13.86,4.05-7.98,9.79-14.37,18.15-18.04,3.48-1.53,7.04-2.86,10.56-4.28,.05,.38,.1,.77,.15,1.15Zm.83,11.18c.28-2.7-1.19-5.15-2.95-7.54-.89-1.21-1.78-1.03-2.73-.27-8.02,6.35-13.72,14.42-17.33,23.93-1.17,3.08-.09,4.3,3.27,4.57,1.82,.14,3.62-.07,5.36-.68,7.55-2.64,14.09-11.57,14.38-20.01Z"/>
        <path class="cls-18" d="M193.14,501.76c-.05-.38-.1-.77-.15-1.15,.27-.73,1.14-1.21,1.45-.74,.83,1.28-.53,1.46-1.3,1.89Z"/>
        <path class="cls-75" d="M223.6,585.83c-8.57,10.52-17.13,21.05-25.72,31.56-.8,.98-1.69,1.89-2.66,2.7-.31,.26-1.11,.29-1.48,.07-.67-.4-.81-1.17-.46-1.9,.23-.48,.55-.94,.9-1.35,9.36-10.8,18.03-22.2,28.11-32.37,.43,.43,.87,.86,1.3,1.29Z"/>
        <path class="cls-61" d="M215.8,618.28c7.1-7.5,14.2-15.01,21.32-22.5,.61-.64,1.36-1.19,2.13-1.64,.86-.5,1.77-.35,2.47,.39,.69,.73,.81,1.7,.35,2.51-.53,.92-1.26,1.76-2.03,2.51-7.25,7.12-14.83,13.86-22.85,20.11-.46-.46-.93-.92-1.39-1.38Z"/>
        <path class="cls-69" d="M208.15,614.99c6.87-10,14.44-19.48,21.74-29.16,.43-.57,.92-1.12,1.45-1.6,.58-.53,1.34-.66,1.97-.17,.79,.61,1.03,1.47,.42,2.37-.5,.75-1.02,1.5-1.59,2.19-7.61,9.21-15.24,18.4-22.86,27.6-.38-.41-.76-.82-1.14-1.24Z"/>
        <path class="cls-56" d="M215.8,618.28c.46,.46,.93,.92,1.39,1.38-2.63,2.96-5.65,5.43-9.03,7.48,0,0-.3-.13-.3-.13,.1-.48,.2-.96,.31-1.44,2.29-2.69,4.82-5.14,7.63-7.3Z"/>
        <path class="cls-76" d="M223.6,585.83c-.43-.43-.87-.86-1.3-1.29,1.86-2.84,4.21-5.23,6.68-7.53l.3,.39c.03,.27,.17,.41,.44,.43l.42,.29c-1.98,2.74-3.9,5.53-6.54,7.7Z"/>
        <path class="cls-78" d="M208.15,614.99c.38,.41,.76,.82,1.14,1.24-1.42,2.51-3.46,4.52-5.34,6.66-.06-.18-.15-.35-.27-.49-.06-.24-.2-.39-.44-.45l-.41-.23c1.69-2.3,3.06-4.86,5.31-6.72Z"/>
        <path class="cls-72" d="M228.98,577.01c1.41-2.3,3.27-4.19,5.39-5.84,.05,.53,.1,1.06,.15,1.59-1.21,1.99-2.54,3.88-4.37,5.36,0,0-.42-.29-.42-.29,0,0-.07-.37-.07-.37l-.37-.05-.3-.39Z"/>
        <path class="cls-14" d="M203.95,622.9c-.29,.44-.55,.9-.86,1.33-.46,.64-1.14,1.04-1.77,.44-.67-.65,.13-1.25,.43-1.8,.24-.45,.71-.77,1.08-1.15,0,0,.41,.23,.41,.23,0,0,.04,.42,.04,.42l.4,.04c.12,.15,.21,.31,.27,.49Z"/>
        <path class="cls-25" d="M205.93,628.06c-.1-.67,.27-.94,.86-1.04,0,0,.54,.04,.54,.04l.54-.04s.3,.13,.3,.13c-.4,.77-.96,1.28-1.89,1.24l-.35-.33Z"/>
        <path class="cls-77" d="M234.52,572.76c-.05-.53-.1-1.06-.15-1.59,.37-.48,.82-.57,1.01,.05,.22,.71-.21,1.23-.87,1.53Z"/>
        <path class="cls-24" d="M207.87,627.02l-.54,.04s-.54-.04-.54-.04c.46-.48,.92-.96,1.39-1.44-.1,.48-.2,.96-.31,1.44Z"/>
        <path class="cls-49" d="M206.27,628.39c-.13,.48-.41,.8-.93,.77-.12,0-.24-.19-.35-.3,.31-.27,.63-.53,.94-.8,0,0,.35,.33,.35,.33Z"/>
        <path class="cls-54" d="M257.39,560.74c2.61-3.85,5.54-7.44,8.72-10.83,.72-.77,1.65-1.65,2.71-.6,1,.99,.38,1.99-.44,2.77-3.36,3.2-6.76,6.37-10.14,9.55,0,0-.23-.17-.23-.17l-.06-.38-.38-.07-.18-.28Z"/>
        <path class="cls-67" d="M255.86,562.68c.22-.87,.78-1.48,1.53-1.94,0,0,.18,.28,.18,.28,.02,.27,.16,.42,.44,.45,0,0,.23,.17,.23,.17-.4,.38-.8,.75-1.2,1.13-.39-.03-.78-.06-1.18-.09Z"/>
        <path class="cls-66" d="M255.86,562.68c.39,.03,.78,.06,1.18,.09-.15,.58-.52,.93-1.08,1.09-.38-.02-.77-.04-1.15-.06,.11-.6,.45-.99,1.06-1.11Z"/>
        <path class="cls-57" d="M254.8,563.79c.38,.02,.77,.04,1.15,.06-.33,.78-.86,1.29-1.76,1.32,0,0-.34-.33-.34-.33-.01-.64,.31-.98,.94-1.05Z"/>
        <path class="cls-26" d="M265.22,571.83c-.33,.27-.89,.83-.94,.78-.81-.69-.13-.98,.42-1.3,.18,.16,.36,.34,.53,.52Z"/>
        <path class="cls-68" d="M265.21,570.47c.42,.04,.85,.08,1.28,.12-.23,.61-.6,1.07-1.27,1.23-.17-.18-.34-.35-.53-.52-.02-.4,.15-.68,.52-.84Z"/>
        <path class="cls-73" d="M251.91,567.22c-.04,.49-.25,.85-.78,.86-.11,0-.33-.23-.32-.31,.1-.51,.5-.66,.97-.66l.12,.11Z"/>
        <path class="cls-73" d="M251.79,567.11c-.09-.76,.3-1.09,1.01-1.15l.26,.23c-.04,.72-.43,1.05-1.14,1.03,0,0-.12-.11-.12-.11Z"/>
        <path class="cls-71" d="M252.8,565.96c.03-.68,.39-1.05,1.06-1.13,0,0,.34,.33,.34,.33-.08,.69-.47,1.02-1.15,1.02,0,0-.25-.23-.25-.23Z"/>
        <path class="cls-49" d="M429.66,197.55c-.21,.24-.28,.51-.22,.82-.96,.86-1.06,2.02-1.12,3.19-1.1,1.38-1.28,3.12-1.84,4.72-.71,1.82-1.43,3.64-2.14,5.47-2.59,5.08-5.18,10.17-7.76,15.25-4.74,7.09-10.19,13.6-16.15,19.68-8.8,7.2-18.28,13.08-29.56,15.59-7.53,1.68-15.08,2.16-22.69,.66-1.23-.24-2.85-.37-3.54-1.18-2.7-3.15-6.59-3.55-10.07-4.89-15.66-6.01-27.42-16.79-36.97-30.23-10.9-15.35-17.55-32.53-21.08-50.92-5.47-28.46-3.65-56.36,6.96-83.49,5.22-13.35,12.59-25.38,22.95-35.37,25.84-24.91,60.51-25.63,87.96-1.96,11.32,9.76,19.8,21.66,26.34,35.02,1.19,2.44,2.38,4.89,3.57,7.33-.1,.91,.21,1.65,.94,2.2,0,0,0-.02,0-.02-.06,.98,.15,1.85,.98,2.47-.08,.31,0,.57,.23,.79-.11,.95,.13,1.77,.91,2.39-.08,.34,0,.63,.23,.89-.13,.94,.1,1.76,.86,2.38-.09,.33-.02,.62,.21,.87,2,8.68,4.31,17.3,5.51,26.16,.36,4.73,.72,9.46,1.08,14.2-.13,6.78-.26,13.56-.39,20.33-.79,1.5-.85,3.11-.74,4.76-.12,1.33-.25,2.65-.37,3.98-1.15,2.94-1.4,6.06-1.79,9.15-.13,1.05-.26,2.1-.39,3.16-1.16,2.05-1.59,4.31-1.88,6.61Zm-149.58-48.42c-.12,4.72,.78,13.75,2.37,22.69,3.71,20.84,11.06,40.2,23.96,57.18,8.14,10.71,17.96,19.46,30.28,25.14,2.9,1.34,5.77,2.97,9.25,1.32,1.01-.48,2.51-.06,3.76,.14,15.46,2.45,29.09-1.94,41.35-11.18,11.45-8.62,19.47-19.99,25.31-32.89,9.79-21.62,13.16-44.36,11.41-67.97-1.49-19.99-6.39-38.99-15.9-56.68-7.6-14.13-17.54-26.26-31.39-34.76-21.1-12.95-45.14-11.35-64.44,4.16-9.81,7.88-17.08,17.77-22.62,28.95-9.28,18.73-13.14,38.71-13.34,63.9Z"/>
        <path class="cls-42" d="M425.22,99.45c-.73-.56-1.05-1.29-.94-2.2,.84,.51,1.03,1.3,.94,2.2Z"/>
        <path class="cls-42" d="M427.32,105.08c-.78-.61-1.02-1.43-.91-2.39,.93,.56,1.05,1.42,.91,2.39Z"/>
        <path class="cls-42" d="M428.42,108.34c-.76-.62-.99-1.43-.86-2.38,.87,.58,1.01,1.43,.86,2.38Z"/>
        <path class="cls-42" d="M426.19,101.9c-.83-.62-1.04-1.5-.98-2.47,1.02,.55,1.15,1.45,.98,2.47Z"/>
        <path class="cls-9" d="M388.69,698.04c2.81,3.2,4.91,6.45,6.01,10.38,2.12,7.58,5.7,14.51,9.97,21.08,6.58,10.12,16.06,15.43,28.01,16.53,7.85,.72,15.58-.24,23.28-1.61,3.41-.61,6.85-.74,10.3-.77,6.32-.05,10.81,2.91,13.34,8.57,4.64,10.35,4.59,20.86-.32,31.05-3.52,7.31-8.8,13.37-15.71,17.73-14.99,9.47-31.2,14.39-49.11,12.76-20.71-1.89-35.9-14.49-41.56-34.43-4.97-17.53-3.41-34.86,1.49-52.08,1.99-6.99,4.53-13.79,7.87-20.26,1.66-3.22,3.51-6.32,6.42-8.94Z"/>
        <path class="cls-6" d="M549.43,581.23c3.96-7.56,8.72-14.64,13.3-21.83,1.38-2.17,3.26-3.29,5.6-3.91,8.32-2.19,16.81-2.84,25.37-2.41,4.04,.21,7.8,1.66,11.33,3.59,8.19,4.47,14.41,10.92,18.85,19.11,3.73,6.89,3.94,14.26,2.62,21.73-1.28,7.25-4.04,13.99-8.51,19.84-12.71,16.6-28.38,29.49-47.88,37.41-6.51,2.65-13.21,3.84-20.22,2.15-2.13-.52-4.27-.89-5.48-3.08-.33-.6-.95-1.27-1.56-1.43-5.86-1.5-6.79-6.69-8.12-11.26-2.33-8.03-.38-25.75,3.31-34.1,1.3,.51,1.64,1.88,2.48,2.8,1.76,1.95,3.91,3.24,6.42,3.89,9.25,2.39,20.67-4.92,22.42-14.32,1.73-9.36-4.63-17.02-14.18-17.02-1.09,0-2.17,.14-3.26,.22-.88-.36-1.99-.33-2.48-1.39Z"/>
        <path class="cls-45" d="M549.43,581.23c.49,1.06,1.6,1.02,2.48,1.39-.95,.87-2.13,1.62-3.22,.69-.79-.68-.03-1.55,.74-2.07Z"/>
        <path class="cls-6" d="M422.49,557.23c2.05,.16,2.59,1.49,3.56,2.23,5.86,4.51,12.96,4.45,18.4-.55,5.42-4.99,7.97-11.31,6.55-18.65-1.47-7.57-5.26-13.49-13.36-15.56-.5-.13-.96-.4-1.43-.59,1.52-6.6,4.68-11.77,11.2-14.37,1.34-.53,2.61-1.28,3.82-2.07,9.43-6.11,19.13-5.8,29.04-1.31,3.65,1.65,7.04,3.71,10.34,5.99,6.49,4.47,9.39,10.77,9.95,18.44,.56,7.77-.82,15.21-3.67,22.36-5.22,13.1-12.57,24.92-22.16,35.28-6.76,7.3-14.84,12.71-24.16,16.27-3.42,1.3-6.93,2.13-10.6,2.18-8.29,.11-13.95-3.69-16.64-11.41-1.48-4.26-2.61-8.61-2.92-13.18-.58-8.38,.04-16.62,2.08-25.04Z"/>
        <path class="cls-2" d="M110.69,481.71c-.08-1.67,.38-3.06,.99-4.36,3.41-7.24,7.53-14.06,12.6-20.26,2.34-2.86,5.36-4.92,8.86-6.08,4.49-1.5,6.77,.39,6.1,5.01-.37,2.51-1.07,4.97-2.4,7.18-4.92,8.16-11.73,14.2-20.5,17.96-1.65,.71-3.33,1.48-5.65,.56Z"/>
        <path class="cls-3" d="M213.93,526.47c3.13,2.88,3.82,6.16,3.64,9.68-.52,10.31-9.78,21.08-19.94,23.21-1.74,.36-3.73,.91-5.1-.72-1.31-1.56-.64-3.43-.11-5.17,.11-.34,.25-.68,.43-1,5.49-9.88,12.56-18.43,21.07-26Z"/>
        <path class="cls-2" d="M193.97,512.93c-.28,8.44-6.83,17.37-14.38,20.01-1.74,.61-3.54,.82-5.36,.68-3.35-.26-4.43-1.49-3.27-4.57,3.6-9.51,9.31-17.58,17.33-23.93,.96-.76,1.85-.94,2.73,.27,1.76,2.39,3.23,4.84,2.95,7.54Z"/>
        <path class="cls-60" d="M229.28,577.41l.37,.05s.07,.37,.07,.37c-.27-.02-.42-.16-.44-.43Z"/>
        <path class="cls-65" d="M203.69,622.4l-.4-.04s-.04-.42-.04-.42c.24,.07,.38,.22,.44,.45Z"/>
        <path class="cls-64" d="M258.01,561.46c-.27-.02-.42-.17-.44-.45,0,0,.38,.07,.38,.07l.06,.38Z"/>
        <path class="cls-4" d="M280.08,149.13c.2-25.19,4.06-45.16,13.34-63.9,5.54-11.18,12.81-21.07,22.62-28.95,19.31-15.51,43.34-17.11,64.44-4.16,13.85,8.5,23.79,20.62,31.39,34.76,9.52,17.69,14.41,36.69,15.9,56.68,1.76,23.62-1.62,46.35-11.41,67.97-5.84,12.9-13.87,24.27-25.31,32.89-12.26,9.24-25.89,13.63-41.35,11.18-1.25-.2-2.75-.62-3.76-.14-3.48,1.65-6.35,.02-9.25-1.32-12.32-5.69-22.15-14.44-30.28-25.14-12.91-16.98-20.25-36.34-23.96-57.18-1.59-8.95-2.49-17.98-2.37-22.69Zm68-80.7c-4.01,4.89-8.6,8.4-5.93,14.84,.8,1.93-.63,2.52-2,3.16-4.63,2.18-8.91,4.92-12.76,8.28-7.38,6.43-13.44,13.81-16.05,23.48-3.67,13.58,2.55,24.33,16.12,28,2.98,.81,6.02,1.4,9.13,1.44,2.63,.03,3.83,.98,3.83,3.9,.02,14.71,.29,29.43,.37,44.14,.02,4.18-.14,4.26-4.41,3.12-7.03-1.88-13.8-4.48-20.41-7.5-.8-.37-1.78-.81-2.57-.19-1.1,.87-.45,2.02-.02,2.95,4.18,8.97,10.22,15.76,20.43,17.98,6.29,1.37,6.23,1.54,6.61,8.2,.2,3.46,.67,6.9,2.23,10.04,.96,1.92,1.9,4.17,4.45,4.34,2.78,.18,4.06-2.04,5.33-4.04,.97-1.54,1.61-3.24,2.03-5.03,.62-2.67,1.11-5.38,.77-8.1-.38-3.1,1.02-4.33,3.89-4.43,.72-.03,1.45-.13,2.16-.27,15.75-3.14,27.76-11.52,35-25.96,10.28-20.5-.66-43.67-22.93-49.16-4.96-1.22-10.03-1.6-15.1-1.97-3.97-.29-3.99-.29-4.21-4.44-.64-12.15-.5-24.35-2.61-36.38-.38-2.19,.38-3.27,2.36-4.16,7.35-3.34,14.94-4.31,22.86-2.8,1.11,.21,2.31,.5,2.69-.89,.28-1.05-.71-1.49-1.56-1.86-6.93-2.98-14.01-5.02-21.68-3.59-1.53,.29-3.12,.94-4.93-.03,.32-4.26-1.63-7.99-3.08-13.08Z"/>
        <path class="cls-49" d="M348.08,68.43c1.45,5.09,3.4,8.82,3.08,13.08,1.81,.97,3.4,.32,4.93,.03,7.67-1.44,14.75,.61,21.68,3.59,.85,.37,1.85,.81,1.56,1.86-.38,1.39-1.58,1.1-2.69,.89-7.91-1.51-15.51-.54-22.86,2.8-1.98,.9-2.74,1.97-2.36,4.16,2.11,12.04,1.97,24.24,2.61,36.38,.22,4.15,.24,4.14,4.21,4.44,5.07,.37,10.14,.75,15.1,1.97,22.27,5.49,33.21,28.66,22.93,49.16-7.24,14.44-19.24,22.82-35,25.96-.71,.14-1.44,.25-2.16,.27-2.88,.11-4.28,1.33-3.89,4.43,.34,2.72-.15,5.43-.77,8.1-.42,1.79-1.05,3.48-2.03,5.03-1.26,2-2.55,4.22-5.33,4.04-2.54-.17-3.49-2.42-4.45-4.34-1.56-3.14-2.03-6.58-2.23-10.04-.38-6.67-.32-6.83-6.61-8.2-10.21-2.22-16.25-9.01-20.43-17.98-.44-.94-1.09-2.08,.02-2.95,.78-.62,1.76-.18,2.57,.19,6.61,3.02,13.39,5.62,20.41,7.5,4.27,1.14,4.43,1.07,4.41-3.12-.08-14.71-.35-29.43-.37-44.14,0-2.92-1.21-3.87-3.83-3.9-3.1-.04-6.14-.63-9.13-1.44-13.57-3.67-19.79-14.43-16.12-28,2.61-9.67,8.68-17.05,16.05-23.48,3.85-3.36,8.13-6.1,12.76-8.28,1.37-.64,2.8-1.23,2-3.16-2.68-6.44,1.92-9.95,5.93-14.84Zm6.29,105.83c.11,0,.23,0,.34,0,0,7.63,.04,15.26-.02,22.89-.02,2.58,.73,3.5,3.55,3.05,12.17-1.92,21.34-8.05,26.74-19.17,6.02-12.4-.09-26.08-13.23-30.12-4.53-1.39-9.26-1.75-13.95-2.29-2.65-.3-3.52,.65-3.48,3.29,.13,7.45,.05,14.9,.05,22.34Zm-13.36-77.02c-8.79,5.83-15.91,12.55-18.93,22.56-2.48,8.2,.5,12.78,8.96,14.69,1.76,.4,3.56,.71,5.36,.82,3.64,.22,3.84,.12,3.8-3.37-.11-10.89,.21-21.76,1.23-32.6,.04-.47-.18-.96-.42-2.1Z"/>
        <path class="cls-4" d="M354.37,174.27c0-7.45,.08-14.9-.05-22.34-.05-2.64,.82-3.59,3.48-3.29,4.69,.53,9.42,.89,13.95,2.29,13.14,4.04,19.25,17.72,13.23,30.12-5.4,11.12-14.57,17.25-26.74,19.17-2.81,.44-3.57-.47-3.55-3.05,.07-7.63,.02-15.26,.02-22.89-.11,0-.23,0-.34,0Z"/>
        <path class="cls-10" d="M341.01,97.25c.24,1.13,.47,1.63,.42,2.1-1.02,10.85-1.34,21.71-1.23,32.6,.03,3.49-.16,3.58-3.8,3.37-1.8-.11-3.6-.42-5.36-.82-8.46-1.91-11.44-6.48-8.96-14.69,3.02-10.02,10.14-16.73,18.93-22.56Z"/>
      </g>
      <path class="cls-6" d="M224.74,233.46c-7.47-.05-11.76,2.07-15.64,5.25-1.03,.85-1.59,1.8-1.53,3.25,.27,6.33,5.46,13.89,11.46,15.98,4.88,1.71,9.69,1.58,13.56-2.46,3.68-3.85,4.81-8.44,3.07-13.53-1.81-5.29-6.93-8.49-10.92-8.5Z"/>
    </g>
  </g>
</svg>