<?xml version="1.0" encoding="UTF-8"?>
<svg id="_レイヤー_2" data-name="レイヤー 2" xmlns="http://www.w3.org/2000/svg" viewBox="0 0 769.19 784.78">
  <defs>
    <style>
      .cls-1 {
        fill: #040404;
      }

      .cls-2 {
        fill: #030303;
      }

      .cls-3 {
        fill: #020202;
      }

      .cls-4 {
        fill: #e9e3eb;
      }

      .cls-5 {
        fill: #9c989e;
      }

      .cls-6 {
        fill: #6c956f;
      }
    </style>
  </defs>
  <g id="_レイヤー_1-2" data-name="レイヤー 1">
    <g>
      <path class="cls-4" d="M.06,613.05c-.62-33.79,3.77-66.88,14.85-98.86,11.96-34.5,29.72-65.91,51.43-95.22,20.15-27.2,42.23-52.83,63.37-79.23,5.26-6.57,9.24-13.84,12.54-21.47,3.89-9.02,.13-17.36-3.71-25.18-5.2-10.58-11.08-20.84-17-31.05-7.94-13.69-12.74-28.43-15.45-43.91-4.41-25.16,5.2-46.39,19.34-65.99,17.86-24.76,41.87-42.32,68.67-56.31,16.96-8.85,34.12-17.28,52.77-22.02,17.15-4.36,34.45-6.84,51.83-.94,2.11,.72,3.95,1.22,4.35-1.9,2.09-16.43,10.52-29.86,20.1-42.79,6.47-8.74,13.71-16.49,23.16-22.26,19.75-12.06,45.81-5.12,56.57,15.43,6.45,12.32,8.14,25.22,6.51,39.05-1.09,9.26-2.97,18.29-4.8,27.37-1.53,7.56,1.56,13.7,9.05,15.99,9.67,2.96,19.53,5.29,29.26,8.06,25.22,7.19,49.01,17.72,72.08,30.16,22.54,12.15,43.84,26.38,66.53,38.3,9.86,5.18,18.89,5.28,28.55,1.03,19.65-8.65,40.23-12.38,61.61-11.43,15.08,.67,28.65,6.05,41.66,13.6,18.15,10.52,28.39,26.91,35.75,45.71,5.86,14.98,8.59,30.47,9.19,46.58,.91,24.6-1.65,48.58-10.02,71.79-2.14,5.92-4.54,11.88-7.78,17.24-4.86,8.03-3.37,14.98,1.37,22.28,5.78,8.92,13.1,16.69,18.51,25.92,5,8.53,7.85,17.81,8.55,27.32,1.95,26.33-4.22,50.67-21.93,70.88-8.44,9.63-19.57,15-32.81,15.73-19.59,1.07-36.05-5.57-50.35-18.69-3.17-2.91-6.65-5.56-9.48-8.8-2.79-3.2-4.29-2.33-6.21,.83-7.45,12.26-13.29,25.35-19.21,38.35-6.64,14.57-14.6,28.36-23,41.93-9.2,14.86-19.92,28.51-31.99,41.21-10.88,11.44-21.8,22.86-32.49,34.47-19.75,21.45-41.75,40.38-64.64,58.26-18.19,14.2-38.67,24.49-60.35,32.47-23.41,8.61-47.31,15.49-71.59,21.11-18.39,4.26-37.02,7.19-55.71,9.74-20.17,2.76-40.38,5.02-60.74,6.21-23.6,1.38-47.04,1.05-70.54-1.9-17.7-2.22-34.9-6.35-51.84-11.55-32.41-9.96-59.17-28.12-79.07-55.96-13.71-19.19-21.68-40.47-25-63.78-1.79-12.58-1.8-25.15-1.84-37.77ZM677.9,275.78c-3.61,12.68-6.06,25.55-6.71,38.76-.79,16.03,6.18,28.24,18.19,38.09,1.26,1.03,2.77,2.5,4.34,1.74,1.95-.95,1.39-3.18,1.19-4.97-2.29-21.2-1.29-42.19,3.81-62.94,2.82-11.49,5.57-22.99,5.97-34.91,1.13-33.28-22.26-55.4-54.13-50.68-11.8,1.75-23.05,5.51-31.68,14.49-2.64,2.74-4.72,6.12-2.78,9.9,2.02,3.93,5.89,4.46,9.97,3.59,7.25,.26,14.1-2.26,21.19-3.1,23.79-2.81,34.55,7.23,33,31.24-.41,6.29-1.55,12.53-2.35,18.79Zm-505.99,95c-2.29,3.09-3.86,6.56-5.18,10.14-.58,1.57-1.07,3.1-2.53,4.19-12.05,9.01-21.83,20.49-33.11,30.35-11.81,10.32-22.45,21.84-32.78,33.63-12.61,14.4-22.7,30.26-29.14,48.49-6.93,19.62-14.98,38.87-18.05,59.64-3.53,23.83-4.09,47.8-1.62,71.72,1.76,17.07,6.11,33.89,17.59,47.06,18.97,21.75,41.73,38.52,69.53,47.89,36.19,12.19,73.05,11.89,110.18,6.37,27.56-4.1,54.05-12.9,81.07-19.39,43.64-10.48,86.25-23.58,124.94-47.32,29.89-18.33,55.6-41.24,77.41-68.51,4.06-5.07,6.79-11.25,10.66-16.68,14.17-19.92,28.96-39.45,40.59-61.07,2.21-4.1,4.35-8.21,6.88-12.15,14.39-22.37,27.16-45.62,33.75-71.57,11.41-44.93,11.89-89.73-1.33-134.68-9.17-31.14-23.13-58.76-48.7-79.62-2.95-2.41-5.67-5.19-8.11-8.12-7.4-8.92-16.1-16.36-25.45-23.14-53.9-39.07-115.08-55.7-180.69-58.7-2.95-.13-4.19-.82-2.46-3.78,3.8-6.49,4.5-13.51,3.33-20.78-1.57-9.78-.46-19.29,2.96-28.51,2.25-6.08,4.81-12.06,7.25-18.07,2.07-5.1,4.01-10.24,4.87-15.71,.88-5.62-1.88-7.82-7.29-5.85-5.3,1.93-9.6,5.25-13.15,9.6-6.69,8.2-10.59,17.67-12.63,27.95-3.3,16.64-2.04,33.1,2.32,49.87-16.97-1.34-33.77-1.3-50.56-1.5-9.68-.12-19.34,.08-28.88,1.87-34.26,6.4-63.6,23.01-90.68,44.15-6.23,4.86-10.8,11.29-14.4,18.36-8.33,16.39-6.07,30.04,7.16,43.06,5.15,6.27,8.54,13.39,10.51,21.24,10.11,40.28,10.9,80.22-4.28,119.59Zm527.36,65.63c7.83,.04,14.2-6.4,14.2-14.36,0-7.9-6.37-14.24-14.31-14.23-7.87,0-14.24,6.44-14.23,14.35,.02,7.92,6.35,14.2,14.33,14.24Z"/>
      <path class="cls-3" d="M165.68,229.96c-13.23-13.03-15.49-26.67-7.16-43.06,3.59-7.07,8.17-13.49,14.4-18.36,27.07-21.14,56.41-37.75,90.68-44.15,9.54-1.78,19.21-1.98,28.88-1.87,16.79,.2,33.59,.16,50.56,1.5-4.36-16.77-5.62-33.23-2.32-49.87,2.04-10.28,5.93-19.75,12.63-27.95,3.55-4.35,7.84-7.67,13.15-9.6,5.42-1.97,8.18,.23,7.29,5.85-.86,5.47-2.8,10.61-4.87,15.71-2.44,6.01-5,11.99-7.25,18.07-3.42,9.22-4.53,18.73-2.96,28.51,1.16,7.27,.47,14.29-3.33,20.78-1.73,2.95-.49,3.64,2.46,3.78,65.61,2.99,126.79,19.63,180.69,58.7,9.35,6.78,18.04,14.21,25.45,23.14,2.43,2.93,5.16,5.71,8.11,8.12,25.56,20.86,39.53,48.47,48.7,79.62,13.23,44.95,12.75,89.74,1.33,134.68-6.59,25.95-19.37,49.2-33.75,71.57-2.53,3.94-4.68,8.05-6.88,12.15-11.63,21.61-26.42,41.15-40.59,61.07-3.87,5.43-6.6,11.61-10.66,16.68-21.81,27.27-47.52,50.18-77.41,68.51-38.7,23.74-81.3,36.84-124.94,47.32-27.02,6.49-53.5,15.3-81.07,19.39-37.13,5.52-73.98,5.82-110.18-6.37-27.8-9.36-50.56-26.13-69.53-47.89-11.48-13.16-15.83-29.98-17.59-47.06-2.47-23.92-1.9-47.89,1.62-71.72,3.07-20.77,11.12-40.02,18.05-59.64,6.44-18.23,16.52-34.09,29.14-48.49,10.32-11.79,20.97-23.31,32.78-33.63,11.28-9.86,21.06-21.34,33.11-30.35,1.46-1.09,1.95-2.62,2.53-4.19,1.32-3.59,2.89-7.05,5.18-10.14,2.2-.99,3.51-2.92,5.04-4.66,7.33-8.38,15.63-15.93,21.9-25.48,.11,1.42,.22,2.85,.33,4.27v-.07c-2.01,1.73-.79,4.02-1.05,6.06l.04-.06c-1.81,1.28-.86,3.19-1.1,4.83-1.45,9.4-4.35,18.33-8.67,26.8-1.45,2.84-2.76,6.14-5.55,7.55-7.59,3.84-11.88,10.99-17.71,16.57-19.52,18.67-37.41,38.89-55.73,58.7-8.02,8.68-15.82,17.74-20.4,28.82-5.91,14.31-10.93,28.96-15.05,43.91-6.5,23.58-6.99,47.69-6.78,71.88,.03,3.5,.81,7.43-1.25,10.26-3.5,4.82-1.96,9.44-.7,14.18,1.71,6.46,4.06,12.74,7.62,18.4,17.79,28.34,43.1,47.06,75.15,55.83,35.94,9.84,72.45,8.18,108.4,.29,37.85-8.31,75.46-17.88,112.85-28.12,27.66-7.58,54.29-18.29,77.44-35.86,35.42-26.87,69.02-55.33,91.82-94.75,9.89-17.09,22.29-32.74,29.85-51.24,3.37-8.24,8.05-15.7,13.85-22.45,2.19-2.55,3.84-5.41,5.4-8.37,11.29-21.52,17.55-44.49,20.36-68.56,2.2-18.9,3.58-37.9,2.34-56.81-1.49-22.75-8.97-44.28-17.02-65.48-7.02-18.51-18.88-33.25-34.32-45.77-19.72-15.99-40.73-29.94-62.09-43.56-22.23-14.19-45.99-23.96-71.96-28.44-18.55-3.2-37.25-5.3-55.92-7.66-10.08-1.27-19.89-3.15-30.27-2.29-8.15,.68-16.53-1.45-24.82-2.24-17.27-1.63-34.65-3.09-51.8,.21-28,5.38-52.3,19.27-75.74,34.76-4.88,3.23-8.82,7.6-11.72,12.8-4.13,7.42-4.04,13.42,1.61,19.74,7.17,8.01,13.48,16.34,15.81,27.1,.05,3.91-1.82,1.91-3.29,1.06-4.29-2.5-6.78-7.9-11.75-8.77-4.2-.74-7.86-2.03-11.34-4.24Z"/>
      <path class="cls-3" d="M626.06,228.86c-4.08,.87-7.95,.34-9.97-3.59-1.94-3.78,.14-7.16,2.78-9.9,8.63-8.98,19.88-12.75,31.68-14.49,31.88-4.71,55.26,17.4,54.13,50.68-.4,11.92-3.15,23.41-5.97,34.91-5.1,20.75-6.1,41.74-3.81,62.94,.19,1.8,.75,4.03-1.19,4.97-1.56,.76-3.08-.71-4.34-1.74-12.01-9.85-18.99-22.06-18.19-38.09,.65-13.21,3.1-26.08,6.71-38.76,1.69-1.99,1.73-4.49,2.19-6.89,1.68-8.74,1.85-17.66,3.44-26.48,1.58-8.84,2.13-18.46-2.24-27.37-1.94-3.97-4.29-4.87-8.31-3.73-16.13,4.56-32.96,7.18-46.92,17.54Z"/>
      <path class="cls-1" d="M199.17,344.92c-.11-1.42-.22-2.85-.33-4.27-6.27,9.55-14.57,17.1-21.9,25.48-1.52,1.74-2.83,3.67-5.04,4.66,15.18-39.37,14.39-79.31,4.28-119.59-1.97-7.85-5.36-14.97-10.51-21.24,3.48,2.22,7.14,3.51,11.34,4.24,4.98,.87,7.46,6.28,11.75,8.77,1.47,.85,3.34,2.84,3.29-1.06,.88,.4,.98,1.26,1.19,2.04,7.41,27.13,10.57,54.72,8.4,82.8-.47,6.07-.57,12.26-2.48,18.16Z"/>
      <path class="cls-1" d="M626.06,228.86c13.95-10.36,30.79-12.98,46.92-17.54,4.01-1.14,6.36-.24,8.31,3.73,4.37,8.91,3.82,18.53,2.24,27.37-1.58,8.82-1.76,17.73-3.44,26.48-.46,2.4-.5,4.89-2.19,6.89,.8-6.26,1.95-12.5,2.35-18.79,1.55-24.01-9.21-34.05-33-31.24-7.1,.84-13.94,3.36-21.19,3.1Z"/>
      <path class="cls-2" d="M699.26,436.41c-7.99-.04-14.32-6.32-14.33-14.24-.02-7.91,6.35-14.34,14.23-14.35,7.94,0,14.32,6.33,14.31,14.23,0,7.95-6.38,14.39-14.2,14.36Z"/>
      <path class="cls-6" d="M199.17,344.92c1.92-5.9,2.01-12.09,2.48-18.16,2.16-28.08-.99-55.67-8.4-82.8-.22-.79-.31-1.65-1.19-2.04-2.32-10.76-8.64-19.09-15.81-27.1-5.65-6.32-5.75-12.32-1.61-19.74,2.9-5.2,6.83-9.58,11.72-12.8,23.44-15.49,47.74-29.37,75.74-34.76,17.15-3.3,34.53-1.84,51.8-.21,8.29,.78,16.67,2.92,24.82,2.24,10.38-.87,20.19,1.01,30.27,2.29,18.67,2.36,37.36,4.46,55.92,7.66,25.97,4.47,49.73,14.25,71.96,28.44,21.35,13.62,42.36,27.58,62.09,43.56,15.44,12.51,27.3,27.26,34.32,45.77,8.05,21.2,15.52,42.73,17.02,65.48,1.24,18.91-.14,37.92-2.34,56.81-2.81,24.06-9.07,47.04-20.36,68.56-1.55,2.96-3.2,5.82-5.4,8.37-5.8,6.75-10.48,14.2-13.85,22.45-7.56,18.49-19.96,34.14-29.85,51.24-22.8,39.42-56.4,67.88-91.82,94.75-23.15,17.56-49.78,28.28-77.44,35.86-37.38,10.24-74.99,19.81-112.85,28.12-35.94,7.89-72.45,9.55-108.4-.29-32.05-8.78-57.36-27.49-75.15-55.83-3.55-5.66-5.91-11.94-7.62-18.4-1.26-4.74-2.8-9.37,.7-14.18,2.06-2.83,1.28-6.77,1.25-10.26-.21-24.19,.28-48.3,6.78-71.88,4.13-14.95,9.14-29.6,15.05-43.91,4.58-11.09,12.38-20.15,20.4-28.82,18.32-19.81,36.21-40.03,55.73-58.7,5.83-5.58,10.12-12.73,17.71-16.57,2.78-1.41,4.1-4.71,5.55-7.55,4.33-8.47,7.22-17.4,8.67-26.8,1.32-1.39,1.05-3.14,1.1-4.83,0,0-.04,.06-.04,.06,1.18-1.88,1.06-3.98,1.06-6.06v.07Zm91.06-4.67c31.74-.26,53.04-10.07,66.26-34.19,8.3-15.14,9.1-31.43,6.59-48.09-4.04-26.83-16.37-48.26-40.43-62.09-16.3-9.37-34.66-8.91-52.44-10.7-6.3-.63-12.78,2.04-18.55,5.2-26.79,14.66-40.91,38.31-46.66,67.39-3.32,16.79-.53,32.89,11.51,45.74,21.25,22.67,47.37,35.55,73.73,36.75Zm143.38-137.7c-25.81-.04-44.8,13.82-52.85,38.37-4.32,13.18-3.86,26.59-2.08,40.03,1.66,12.57,5.83,24.31,13.52,34.5,13.29,17.64,43.49,25.36,66.03,16.22,22.2-9,36.68-25.91,45.25-47.97,2.43-6.25,2.88-12.89,2.17-19.67-2.92-27.79-33.61-62.64-72.03-61.48Zm-95.54,296.31c1.3,3.24,2.08,5.41,3.03,7.51,5.25,11.64,13.15,20.84,26.04,23.54,17.44,3.65,32.99-1.27,46.22-13.06,4.41-3.93,5.94-9.55,6.6-15.28,.48-4.21-.95-5.3-4.88-3.78-5.45,2.1-10.69,4.65-15.45,8.08-5.51,3.97-11.66,6.45-18.32,7.52-7.85,1.27-14.95-.67-19.4-7.44-8.73-13.27-13.63-28.2-14.75-43.91-.91-12.73-2.24-25.18-7.27-36.98-3.18-7.47-7.64-14.03-14.57-18.61-1.38-.91-2.81-2.31-4.51-1.41-1.84,.97-1.09,2.9-.87,4.5,1.17,8.24,2.54,16.41,5.81,24.17,5.52,13.07,6.53,26.7,4.73,40.67-1.61,12.45-7.76,22.35-17.47,29.8-17.26,13.23-41.35,11.71-54.07-8.21-2.59-4.06-4.75-8.4-7.05-12.64-4.61-8.48-9.17-16.99-13.77-25.48-.71-1.3-1.46-2.91-3.17-2.77-1.57,.13-1.7,1.75-2.01,3.06-5.07,21.31,.38,39.92,14.82,55.95,16.2,17.99,44.82,21.18,67.53,8,9.44-5.48,16.5-13.27,22.77-23.22Z"/>
      <path class="cls-1" d="M199.18,344.85c0,2.08,.12,4.18-1.06,6.06,.26-2.04-.96-4.33,1.06-6.06Z"/>
      <path class="cls-1" d="M198.17,350.85c-.05,1.68,.22,3.44-1.1,4.83,.24-1.64-.71-3.55,1.1-4.83Z"/>
      <path class="cls-3" d="M290.24,340.25c-26.36-1.2-52.48-14.08-73.73-36.75-12.04-12.85-14.83-28.95-11.51-45.74,5.75-29.08,19.87-52.73,46.66-67.39,5.77-3.16,12.26-5.83,18.55-5.2,17.78,1.79,36.14,1.33,52.44,10.7,24.06,13.83,36.4,35.26,40.43,62.09,2.51,16.66,1.71,32.95-6.59,48.09-13.22,24.12-34.52,33.94-66.26,34.19Zm-51.33-108.37c-.12-1.3,.14-2.81-.43-3.87-.96-1.79-1.33-.33-1.64,.6-7.64,13.04-12.1,26.84-10.03,42.18,.82,6.12,3.05,11.77,7.53,15.97,22.97,21.51,48.39,35.93,81.49,26.98,2.74,.39,5.12-.56,7.67-1.55,9.38-3.64,15.27-11.51,22.61-17.69,11.68-9.85,12.62-26.09,6.18-38.14-5.4-10.1-11.18-20.01-16.51-30.15-4.48-8.53-11.66-13.37-20.52-16.21-6.32-2.03-12.67-3.95-18.94-6.12-2.54-.88-4.81-2.65-8.47-2,4.18,2.58,8.06,4.5,11.37,7.13,4.16,3.3,7.95,7.13,7.94,13.1-5.47,16.43-17.08,26.23-33.64,29.9-16.12,3.58-29.5-4.54-34.62-20.14Z"/>
      <path class="cls-3" d="M433.62,202.56c38.42-1.16,69.11,33.69,72.03,61.48,.71,6.78,.26,13.42-2.17,19.67-8.58,22.06-23.05,38.97-45.25,47.97-22.54,9.13-52.74,1.41-66.03-16.22-7.68-10.19-11.86-21.93-13.52-34.5-1.77-13.44-2.24-26.84,2.08-40.03,8.05-24.55,27.04-38.41,52.85-38.37Zm32.47,99.78c5.38-5.29,10.04-10.42,13.69-16.43,5.74-9.46,5.63-18.81,.1-28.33-6.76-11.62-15.79-21.05-27.21-28.02-9.88-6.03-20.76-7.83-32.2-6.11-1.62,.24-3.17,.53-4.55,1.75-19.47,17.13-24.13,55.32-9.29,76.71,3.01,4.34,6.95,7.35,12.18,8.72,1.45-13.07,8.42-21.14,19.52-22.85,12.56-1.94,22.97,3.31,27.78,14.57Z"/>
      <path class="cls-3" d="M338.08,498.86c-6.27,9.96-13.33,17.75-22.77,23.22-22.7,13.17-51.33,9.99-67.53-8-14.44-16.04-19.89-34.65-14.82-55.95,.31-1.3,.44-2.93,2.01-3.06,1.71-.14,2.46,1.47,3.17,2.77,4.6,8.49,9.16,16.99,13.77,25.48,2.3,4.24,4.46,8.58,7.05,12.64,12.72,19.93,36.81,21.44,54.07,8.21,9.71-7.44,15.87-17.35,17.47-29.8,1.8-13.97,.79-27.61-4.73-40.67-3.28-7.76-4.64-15.93-5.81-24.17-.23-1.6-.97-3.53,.87-4.5,1.7-.89,3.13,.5,4.51,1.41,6.93,4.58,11.39,11.14,14.57,18.61,5.02,11.8,6.36,24.25,7.27,36.98,1.12,15.71,6.02,30.64,14.75,43.91,4.45,6.77,11.55,8.71,19.4,7.44,6.66-1.07,12.81-3.55,18.32-7.52,4.76-3.43,10-5.98,15.45-8.08,3.93-1.52,5.36-.43,4.88,3.78-.66,5.73-2.19,11.35-6.6,15.28-13.23,11.79-28.79,16.72-46.22,13.06-12.9-2.7-20.79-11.9-26.04-23.54-.95-2.1-1.73-4.27-3.03-7.51Z"/>
      <path class="cls-4" d="M315.83,313.74c-33.1,8.96-58.52-5.47-81.49-26.98-4.48-4.2-6.71-9.85-7.53-15.97-2.07-15.35,2.39-29.14,10.03-42.18,.69,1.09,1.38,2.18,2.07,3.27,5.12,15.59,18.5,23.71,34.62,20.14,16.56-3.67,28.17-13.47,33.64-29.9,.71-2.15,1.42-4.29,2.14-6.45,13.44,5.73,24.77,20.36,29.43,37.84,7.4,27.79-.2,47.78-22.9,60.24Z"/>
      <path class="cls-1" d="M315.83,313.74c22.71-12.45,30.31-32.45,22.9-60.24-4.66-17.49-15.99-32.11-29.43-37.84-.72,2.16-1.43,4.31-2.14,6.45,0-5.97-3.79-9.8-7.94-13.1-3.31-2.63-7.19-4.55-11.37-7.13,3.67-.65,5.93,1.12,8.47,2,6.27,2.17,12.62,4.09,18.94,6.12,8.86,2.84,16.03,7.68,20.52,16.21,5.33,10.14,11.11,20.05,16.51,30.15,6.45,12.05,5.5,28.3-6.18,38.14-7.33,6.18-13.23,14.05-22.61,17.69-2.54,.99-4.92,1.94-7.67,1.55Z"/>
      <path class="cls-5" d="M238.91,231.88c-.69-1.09-1.38-2.18-2.07-3.27,.31-.93,.68-2.38,1.64-.6,.57,1.06,.32,2.56,.43,3.87Z"/>
      <path class="cls-4" d="M466.08,302.34c-4.81-11.26-15.22-16.51-27.78-14.57-11.1,1.71-18.06,9.78-19.52,22.85-5.23-1.37-9.17-4.38-12.18-8.72-14.84-21.39-10.18-59.58,9.29-76.71,1.38-1.21,2.93-1.5,4.55-1.75,11.44-1.72,22.33,.09,32.2,6.11,11.42,6.97,20.46,16.4,27.21,28.02,5.53,9.52,5.64,18.88-.1,28.33-3.65,6.02-8.3,11.14-13.69,16.43Z"/>
    </g>
  </g>
</svg>