<?xml version="1.0" encoding="UTF-8"?>
<svg id="_レイヤー_2" data-name="レイヤー 2" xmlns="http://www.w3.org/2000/svg" viewBox="0 0 833 812.44">
  <defs>
    <style>
      .cls-1 {
        fill: #eae4ec;
      }

      .cls-2 {
        fill: #ffbebe;
      }

      .cls-3 {
        fill: #6b956e;
      }

      .cls-4 {
        fill: #222;
      }

      .cls-5 {
        fill: #232222;
      }

      .cls-6 {
        fill: #232323;
      }
    </style>
  </defs>
  <g id="_レイヤー_1-2" data-name="レイヤー 1">
    <g>
      <path class="cls-1" d="M477.94,801.41c-12.3,.27-22.33-1.04-32.42-1.89-23.7-1.99-46.62-7.77-69.62-13.31-16.36-3.94-32.78-7.63-48.67-13.25-9.9-3.51-19.74-7.19-29.55-10.94-4.94-1.89-10.12-2.73-15.21-3.93-3.42-.81-6.52,.17-8.91,2.81-3.04,3.35-6.07,6.72-8.94,10.21-8.46,10.28-17.67,19.85-29.25,26.52-12.31,7.09-25.55,11.76-39.77,13.85-9.8,1.44-19.56,.91-29.32,.76-6.64-.1-13.16-2.07-19.6-3.91-19.73-5.64-37.77-14.59-54.15-27-4.9-3.72-10.42-6.29-16.76-7.3-15.33-2.44-28.48-9.45-39.16-20.7-6.49-6.83-11.92-14.59-16.74-22.68-6.31-10.61-11.78-21.69-15.12-33.63-3.37-12.07-5.56-24.41-4.47-36.98,1.09-12.52,5.11-24.4,9.61-36.06,4.61-11.92,11.33-22.6,18.86-32.91,5.6-7.67,8.93-16.6,10.55-25.97,2.29-13.31,6.56-25.95,12.04-38.21,7.7-17.21,14.72-34.62,19.07-53.08,2.83-11.99,3.49-24.06,2.6-36.15-.65-8.81-3.71-17.29-6.54-25.71-6.85-20.43-12.88-41.1-17.82-62.07-1.86-7.9-2.8-15.98-3.84-24.03-.87-6.79-2.19-13.53-2.94-20.33-.49-4.48-.82-8.99-1.31-13.48-1.61-14.99-1.14-30.06-1.18-45.11-.01-6.72-.17-13.45,.06-20.17,.27-8.12,1.07-16.2,1.88-24.29,.63-6.29,1.38-12.54,2.28-18.8,2.47-17.04,5.89-33.81,11.81-50.03,5.34-14.61,12.94-27.84,22.72-39.95,6.28-7.77,12.82-15.26,20.09-22.11,6.64-6.26,13.95-11.67,22.7-14.49,8.52-2.74,17.31-3.41,26.25-1.68,4.78,.93,9.76,.86,14.57,1.09,11.21,.53,22.4,2.17,33.66,1.36,15.21-1.1,29.91-3.65,44.02-10.32,14.29-6.76,27.82-14.87,42-21.78,15.39-7.5,31.62-12.49,48.37-15.85,12.57-2.52,25.29-3.94,37.98-5.69,13.54-1.87,27.09-2.48,40.64-1.77,10.79,.56,21.41,3.05,31.95,5.64,9.29,2.28,18.77,3.61,28.36,4.01,5.7,.24,11.16-.89,16.51-2.7,8.92-3.03,17.81-6.12,27.16-7.57,5.53-.86,11.02-1.94,16.68-1.77,5.45,.17,10.9-.01,16.35,.04,18.55,.18,36.59,3.64,54.52,8.14,15.75,3.95,30.21,10.61,42.42,21.14,10.11,8.72,19.55,18.21,25.79,30.58,5.47,10.85,11.31,21.49,15.18,33.05,.75,2.23,1.33,4.51,1.86,6.8,.84,3.68,2.84,6.23,6.63,7.1,3.34,.77,6.67,1.89,10.05,2.12,11.57,.77,23.14,1.39,34.76,1.26,15.77-.18,31.38,1.7,46.71,5.44,11.29,2.75,21.56,7.85,30,15.76,8.89,8.34,14.7,18.87,17.51,30.77,1.28,5.41,2.35,11.1,2.08,16.59-.29,6.06-.72,12.27-2.37,18.21-3.4,12.26-9.63,22.88-17.93,32.56-7.35,8.57-15.67,16.13-23.39,24.32-6.53,6.93-9.95,15.28-11.83,24.57-1.02,5.01-1.53,10.18-1.5,15.03,.04,6.44-.23,13.08,.92,19.45,.8,4.46,1.12,8.98,1.6,13.42,1.21,11.12,2.53,22.24,3.78,33.34,1.31,11.64,2.4,23.32,3.83,34.95,.86,6.95,.97,14.1,1.59,21.08,.91,10.16,1.37,20.35,.58,30.4-.69,8.82-.42,17.68-1.62,26.5-.94,6.95-1.4,14-2.46,20.96-1.61,10.52-3.07,21.06-4.8,31.56-1.94,11.74-3.91,23.49-6.21,35.16-3.91,19.85-7.58,39.75-13.17,59.23-5.27,18.35-11.92,36.14-20.97,52.98-6.78,12.63-14.44,24.67-23.54,35.8-5.51,6.74-11.03,13.45-17.38,19.41-12.05,11.3-25.12,21.24-39.39,29.63-20.17,11.85-41.99,19.43-64.36,25.86-17.92,5.16-36.13,8.96-54.4,12.4-6.5,1.22-13.22,1.91-19.82,2.8-10.04,1.35-20.15,1.47-30.17,2.86-4.63,.64-9.43,.11-12.01,.11Zm-20.67-700.61c1.01,1.65,.45,2.89,.24,4.11-.89,5.01-1.77,10.01-2.74,15-2.32,11.97-3.11,24.13-4.75,36.18-.78,5.72-.86,5.74-6.49,6.25-12.87,1.18-25.53,3.48-38.04,6.71-24.64,6.36-46.17,18.18-64.22,36.22-11.48,11.47-19.33,24.79-22.17,40.99-2.36,13.43-2.01,26.77,0,40.14,2.83,18.9,7.84,37.31,13.17,55.61,11.15,38.23,12.16,76.47,1.86,115.08-6.08,22.8-12.22,45.59-18.39,68.37-5.94,21.94-11.02,44.07-11.53,66.95-.45,20.38,.05,40.73,4.59,60.71,3.31,14.6,7.95,28.76,17.11,40.91,7.34,9.75,15.58,18.72,24.93,26.6,10.06,8.47,20.95,15.74,33.29,20.44,25.75,9.8,52.38,14.77,80.01,13.34,6.52-.34,13.02-1.2,19.5-2.04,14.95-1.93,29.86-4.07,44.4-8.24,30.5-8.75,58.22-23.34,84.84-40.23,17.6-11.17,33.28-24.61,46.94-40.39,11.9-13.74,23.56-27.67,34.59-42.12,9.51-12.46,17.71-25.73,24.09-40.07,6.13-13.78,11.64-27.8,15.99-42.25,6.61-21.96,12.2-44.19,13.46-67.15,2.25-40.9,1.2-81.76-4.25-122.4-2.39-17.82-5.19-35.71-11.36-52.64-17.15-47.06-47.53-82.26-93.99-102.66-17.52-7.69-35.81-12.96-54.19-18.04-41.45-11.45-83.51-17.43-126.59-14.91-1.16,.07-2.47,.54-3.78-.83,8.08-20.46,16.38-40.98,19.13-63.67,8.52,1.76,16.95,3.07,25.13,5.3,14.95,4.07,30.13,4.63,45.41,3.75,9.93-.57,19.26-3.53,27.79-8.74,6.61-4.03,12.28-9.07,15.98-16.01,5.32-9.98,3.48-21.21-4.74-28.89-5.59-5.22-12.18-8.4-19.75-9.71-8.2-1.42-16.3-.58-24.41,.56-14.73,2.07-28.52,6.92-41.55,14.06-6.84,3.75-13.75,7.38-20.93,10.48-6.1,2.64-12.01,2.31-17.85-.65-3.89-1.97-7.73-4.03-11.57-6.08-12.88-6.88-26.49-11.85-40.61-15.45-8.5-2.17-17.16-3.01-25.93-2.62-14.02,.62-25.67,6.17-34.55,17.08-13.3,16.34-7.44,38.34,12.17,46.12,2.54,1.01,5.15,1.76,7.86,2.13,24.01,3.25,47.84,2.1,71.51-2.89,6.86-1.45,13.71-2.96,20.42-4.42Zm-212.28,200.03c8.37,6.72,17.64,10.6,26.16,15.76,2.17,1.32,4.34,2.64,6.55,3.89,.99,.56,2.1,.79,2.97-.22,.72-.84,.2-1.75-.18-2.52-2.71-5.54-5.41-11.09-8.22-16.58-3.11-6.08-7.42-11.18-12.95-15.22-2.2-1.61-4.3-3.39-6.65-4.74-2.59-1.49-3.2-3.42-2.93-6.3,.66-7.05,.85-14.13,.67-21.23-.42-16.2-2.35-32.23-5.28-48.15-.71-3.84-.69-3.95,3.04-4.62,5.18-.94,10.32-2.12,15.6-2.37,2.39-.11,4.7-.59,6.82-1.69,3.86-1.98,6.12-5.14,6.21-9.53,.09-4.05-2.82-7.76-7.08-9.44-3.86-1.51-7.87-1.33-11.84-.79-4.85,.66-9.68,1.54-14.51,2.4-4.3,.77-4.32,.83-5.75-3.27-3.79-10.86-8.65-21.17-15.63-30.39-.55-.73-1.09-1.46-.67-2.51,9.02-1.92,18.15-3.41,27.31-4.73,3.95-.57,7.96-.95,11.71-2.39,4.13-1.59,6.64-5.23,6.57-9.15-.07-4.16-2.95-7.83-7.32-9.16-2.82-.86-5.72-.93-8.64-.66-6.15,.59-12.32,.98-18.44,1.77-17.69,2.29-35.04,6.13-51.81,12.32-3.57,1.32-7.15,2.75-10.18,5.12-5.48,4.28-4.61,11.06,1.76,13.91,3.07,1.37,6.34,1.51,9.63,1.26,4.73-.36,9.29-1.63,13.89-2.66,5.22-1.17,10.35-2.84,16.03-3.27,1.76,12.57,4.08,24.67,7.11,36.64,.5,1.97-.58,2.6-2.18,2.96-13.64,3.04-26.86,7.74-40.67,10.12-4.48,.77-8.92,1.88-12.72,4.56-4.31,3.04-5.79,8.1-3.81,12.47,1.85,4.09,6.59,6.72,11.38,5.3,6.15-1.82,12.53-1.99,18.7-3.49,10.23-2.49,20.47-4.93,30.71-7.35,3.63-.86,3.75-.81,4.36,2.54,3.32,18.07,5.76,36.23,5.47,54.67-.02,1.35,.44,2.86-.72,4.07-2.14,.08-3.92-.97-5.81-1.5-12.73-3.6-25.58-5.46-38.73-2.61-17.04,3.69-28.71,17.92-27.31,34.36,1.67,19.64,11.33,34.32,29.63,42.36,13.71,6.02,26.63,3.85,38.2-5.7,5.42-4.47,9.26-10.17,12.45-16.37,2.83-5.51,4.81-11.35,7.07-17.85Zm-69.69,249.19c.22-.61,.51-.98,.43-1.26-3.24-12.64-9.53-23.04-21.43-29.42-5.95-3.19-12.06-5.83-18.74-7.12-12.91-2.5-24.89-.35-35.91,6.9-10.02,6.59-16.96,15.73-22.03,26.44-7.25,15.32-8.34,31.38-5.91,47.91,2.43,16.55,3.97,15.02-9.29,27.36-5.99,5.58-11.79,11.32-16.55,18.03-8.49,11.94-11.59,25.27-10.12,39.72,1.28,12.55,5.97,23.89,12.9,34.32,7.15,10.74,16.77,18.47,28.77,23.27,9.36,3.75,19.1,5.89,29.12,6.33,4.65,.21,7.81,1.91,10.29,5.8,3.51,5.51,7.24,10.89,11.11,16.16,13.67,18.56,35.77,23.6,56.13,12.85,9.28-4.9,17.08-11.69,23.76-19.7,6.83-8.19,10-17.99,11.38-28.43,.13-1.01,.48-2.29-.69-2.94-1.17-.65-2.06,.15-2.81,.97-7.75,8.48-17.53,14.69-25.51,22.93-4.56,4.71-9.78,8.66-15.73,11.57-6.69,3.27-13.56,3.89-20.59,1.3-5.11-1.88-8.98-5.39-12.12-9.77-4.02-5.61-8.14-11.15-12.03-16.85-5.01-7.34-11.98-10.78-20.72-11.16-3.8-.16-7.61-.54-11.38-1.03-24.3-3.13-40.18-16.82-46.63-40.37-3.86-14.09-1.43-26.96,8.06-38.3,3.16-3.77,6.61-7.24,10.33-10.45,3.02-2.61,6-5.28,9.04-7.87,9.21-7.82,12.41-17.52,9.45-29.29-.93-3.69-1.67-7.45-2.15-11.23-2.28-17.93,1.22-34.41,13.15-48.42,8.45-9.92,19.2-14.6,32.43-12.77,8.36,1.16,16.12,4.11,23.82,7.39,6.9,2.94,12.38,7.45,16.56,13.66,.86,1.27,1.28,3.09,3.59,3.45ZM121.95,94.22c-4.41,.71-7.31,3.07-9.7,6.16-2.23,2.89-3.92,6.1-5.45,9.4-4.22,9.09-7.18,18.62-9.56,28.32-7.13,29.15-11.84,58.7-14.43,88.59-2.47,28.44-3.63,56.91-.87,85.4,1.12,11.59,3,23.05,7.75,33.83,1.84,4.17,3.97,8.18,7.35,11.36,7.29,6.88,17.14,5.67,22.19-2.93,3.64-6.19,4.72-13.28,6.37-20.15,.2-.84,.21-1.87-.8-2.34-.99-.46-1.75,.21-2.43,.78-1.67,1.4-3.25,2.9-4.95,4.26-1.95,1.56-3.75,3.41-6.58,4.05-2.56-4.36-3.9-9.04-4.93-13.82-3.37-15.71-4.16-31.67-4.23-47.66-.16-35.67,3.07-71.07,9.06-106.23,3.29-19.33,7.56-38.46,11.03-57.75,1.25-6.93,2.65-13.96,.18-21.27Zm637.42,54c-13.21,0-24.26,2.67-35.21,6.13-12.51,3.95-22.65,12.08-33.68,18.65-.3,.18-.62,.42-.8,.71-.17,.28-.3,.68-.23,.98,.13,.58,.6,.87,1.2,.73,.52-.12,1.03-.31,1.53-.52,18.8-8.09,38.95-9.65,58.92-12,6.87-.81,13.84-.44,20.43,1.97,7.43,2.72,12.74,7.53,14.08,15.81,1.42,8.78-.95,16.52-6.28,23.46-2.11,2.75-4.7,5.04-7.38,7.22-5.79,4.72-10.58,10.45-15.91,15.64-.89,.87-1.94,1.84-1.33,3.28,.65,1.53,2.14,1.06,3.33,1.11,4.36,.2,8.72,.18,13.05-.4,6.62-.89,12.6-3.13,17.46-8.02,12.83-12.9,17.21-28.19,13.19-45.89-1.93-8.5-6.63-15.18-13.66-20.31-9.06-6.63-19.38-8.68-28.69-8.54ZM126.23,599.16c4.92,6.05,9.98,9.54,16.08,11.66,7.4,2.57,15.04,4.06,22.74,5.28,26.36,4.16,52.89,6.58,79.51,8.27,12.61,.8,23.99-2.75,34.75-8.91,.94-.54,2.15-1.03,2.12-2.26-.04-1.7-1.7-1.75-2.83-1.99-7.8-1.65-15.63-3.24-23.59-3.86-18.99-1.46-37.99-2.74-56.98-4.2-15.19-1.16-30.37-2.5-45.55-3.71-8.43-.67-16.81,.85-26.24-.28Z"/>
      <path class="cls-4" d="M457.27,100.8c-6.71,1.46-13.56,2.97-20.42,4.42-23.67,4.99-47.5,6.14-71.51,2.89-2.72-.37-5.32-1.12-7.86-2.13-19.61-7.78-25.47-29.79-12.17-46.12,8.88-10.9,20.54-16.45,34.55-17.08,8.77-.39,17.43,.45,25.93,2.62,14.12,3.61,27.73,8.57,40.61,15.45,3.84,2.05,7.69,4.11,11.57,6.08,5.83,2.96,11.74,3.28,17.85,.65,7.18-3.1,14.09-6.73,20.93-10.48,13.03-7.14,26.82-11.98,41.55-14.06,8.11-1.14,16.22-1.98,24.41-.56,7.57,1.31,14.16,4.49,19.75,9.71,8.22,7.68,10.06,18.91,4.74,28.89-3.7,6.94-9.38,11.98-15.98,16.01-8.53,5.21-17.86,8.17-27.79,8.74-15.29,.88-30.46,.32-45.41-3.75-8.18-2.23-16.61-3.53-25.13-5.3-2.75,22.69-11.05,43.21-19.13,63.67,1.31,1.37,2.63,.9,3.78,.83,43.08-2.52,85.14,3.46,126.59,14.91,18.39,5.08,36.67,10.35,54.19,18.04,46.46,20.4,76.85,55.6,93.99,102.66,6.17,16.93,8.97,34.82,11.36,52.64,5.46,40.64,6.5,81.49,4.25,122.4-1.26,22.97-6.85,45.2-13.46,67.15-4.35,14.45-9.86,28.47-15.99,42.25-6.38,14.35-14.58,27.61-24.09,40.07-11.03,14.45-22.69,28.38-34.59,42.12-13.66,15.78-29.34,29.22-46.94,40.39-26.62,16.89-54.34,31.48-84.84,40.23-14.55,4.17-29.45,6.31-44.4,8.24-6.48,.84-12.98,1.7-19.5,2.04-27.63,1.43-54.26-3.54-80.01-13.34-12.34-4.69-23.23-11.97-33.29-20.44-9.35-7.87-17.59-16.85-24.93-26.6-9.16-12.15-13.8-26.31-17.11-40.91-4.53-19.99-5.04-40.33-4.59-60.71,.51-22.88,5.58-45.01,11.53-66.95,6.17-22.78,12.3-45.57,18.39-68.37,10.3-38.61,9.29-76.85-1.86-115.08-5.33-18.3-10.34-36.71-13.17-55.61-2-13.36-2.35-26.71,0-40.14,2.85-16.21,10.69-29.52,22.17-40.99,18.05-18.05,39.58-29.87,64.22-36.22,12.51-3.23,25.18-5.52,38.04-6.71,5.62-.52,5.71-.53,6.49-6.25,1.64-12.05,2.42-24.22,4.75-36.18,.97-4.99,1.86-10,2.74-15,.21-1.21,.77-2.45-.24-4.11Zm274.53,337.89c-.34-13.97,.18-27.94-.81-41.93-1.12-15.75-2.19-31.47-4.68-47.07-2.32-14.51-5.22-28.9-9.23-43.05-4.94-17.4-14.21-32.52-24.9-46.87-6.97-9.35-14.76-17.95-23.75-25.41-16.14-13.41-34.6-22.58-54.29-29.43-19.55-6.8-39.55-12.01-59.69-16.77-20.16-4.77-40.56-8.12-61.24-8.98-14.13-.59-28.29-.63-42.46,.51-15.79,1.26-31.31,3.67-46.54,7.97-21.31,6.02-39.59,17.15-54.8,33.12-8.6,9.03-14.04,19.65-14.77,32.51-.31,5.43-.62,10.86-.8,16.3-.1,3.09-1.47,6.04-.88,9.18,.87,4.63,1.62,9.29,2.65,13.88,3.78,16.82,8.67,33.35,13.02,50.02,6.67,25.58,10.55,51.46,8.3,78.04-1.26,14.87-3.94,29.44-7.32,43.93-6.01,25.8-13.96,51.08-20.5,76.75-4.61,18.13-8.21,36.39-8.77,55.22-.19,6.38,.32,12.67,.35,19,.05,11.09,1.14,22.1,3.39,32.96,2.79,13.43,6.88,26.41,15.39,37.45,5.32,6.9,11.18,13.39,17.64,19.28,12.39,11.29,26.52,19.48,42.65,24.37,14.49,4.39,29.31,6.76,44.29,8.3,6.49,.66,13.09,.63,19.6-.09,10.62-1.18,21.22-2.62,31.82-4,13.89-1.81,27.44-5.08,40.68-9.65,20.17-6.96,39.11-16.58,57.56-27.15,18.83-10.78,36.36-23.35,51.14-39.42,8.97-9.76,17.45-19.95,25.9-30.16,13.82-16.71,26.52-34.14,34.97-54.3,7.59-18.1,14.09-36.56,18.58-55.7,3.73-15.91,6.96-31.91,7.47-48.29,.32-10.17,.06-20.35,.06-30.53ZM389.48,92.49c5.99,0,12.01,.37,17.97-.08,11.22-.84,22.22-3.22,33.26-5.34,4.62-.89,9.31-1.41,13.97-2.14,.9-.14,1.89-.5,2.05-1.49,.18-1.14-.9-1.35-1.72-1.73-2.14-1-4.32-1.94-6.36-3.11-9.79-5.61-19.89-10.52-30.45-14.52-12.66-4.8-25.52-8.22-39.26-7.43-9.55,.55-17.09,4.69-22.64,12.28-5.59,7.65-3.2,16.9,5.21,21.12,1.78,.89,3.73,1.32,5.71,1.72,7.38,1.5,14.85,.81,22.27,.71Zm94.41-10.89c16.61,2.77,32.34,8.67,49.33,8.38,9.35-.16,18.45-.65,27.02-4.41,5.31-2.34,10.22-5.5,13.41-10.68,3.19-5.19,2.41-9.72-2.58-13.22-4.21-2.96-8.87-4.79-14.14-4.98-6.92-.25-13.7,.71-20.5,1.79-19.26,3.05-35.32,13.56-52.25,22.07-.1,.05-.09,.32-.28,1.04Z"/>
      <path class="cls-4" d="M245,300.82c-2.26,6.5-4.24,12.35-7.07,17.85-3.18,6.2-7.03,11.9-12.45,16.37-11.57,9.55-24.5,11.72-38.2,5.7-18.3-8.04-27.96-22.72-29.63-42.36-1.4-16.44,10.27-30.67,27.31-34.36,13.14-2.85,26-.99,38.73,2.61,1.89,.54,3.67,1.58,5.81,1.5,1.15-1.21,.69-2.72,.72-4.07,.29-18.43-2.14-36.6-5.47-54.67-.62-3.35-.73-3.39-4.36-2.54-10.25,2.41-20.49,4.85-30.71,7.35-6.17,1.5-12.55,1.67-18.7,3.49-4.79,1.42-9.53-1.21-11.38-5.3-1.98-4.37-.5-9.43,3.81-12.47,3.8-2.68,8.24-3.79,12.72-4.56,13.81-2.39,27.03-7.08,40.67-10.12,1.61-.36,2.68-1,2.18-2.96-3.03-11.96-5.35-24.07-7.11-36.64-5.68,.43-10.81,2.11-16.03,3.27-4.61,1.03-9.16,2.3-13.89,2.66-3.29,.25-6.56,.11-9.63-1.26-6.37-2.85-7.24-9.63-1.76-13.91,3.04-2.37,6.61-3.8,10.18-5.12,16.77-6.18,34.12-10.03,51.81-12.32,6.12-.79,12.29-1.18,18.44-1.77,2.92-.28,5.82-.21,8.64,.66,4.37,1.34,7.25,5,7.32,9.16,.07,3.93-2.43,7.56-6.57,9.15-3.75,1.45-7.77,1.83-11.71,2.39-9.17,1.31-18.3,2.8-27.31,4.73-.42,1.06,.11,1.78,.67,2.51,6.98,9.22,11.83,19.53,15.63,30.39,1.43,4.1,1.46,4.04,5.75,3.27,4.82-.86,9.65-1.74,14.51-2.4,3.97-.54,7.98-.72,11.84,.79,4.26,1.67,7.17,5.39,7.08,9.44-.1,4.39-2.35,7.54-6.21,9.53-2.13,1.09-4.44,1.57-6.82,1.69-5.28,.25-10.43,1.43-15.6,2.37-3.74,.68-3.75,.79-3.04,4.62,2.93,15.92,4.86,31.95,5.28,48.15,.18,7.1,0,14.18-.67,21.23-.27,2.89,.34,4.81,2.93,6.3,2.35,1.35,4.45,3.14,6.65,4.74,5.53,4.04,9.84,9.14,12.95,15.22,2.81,5.49,5.51,11.04,8.22,16.58,.38,.78,.9,1.69,.18,2.52-.87,1.01-1.98,.78-2.97,.22-2.21-1.25-4.38-2.57-6.55-3.89-8.52-5.16-17.78-9.05-26.16-15.76Zm-48.78-20.17c-3.11,.22-6.92,.38-10.58,1.61-7.28,2.45-11.35,8.33-10.24,15.91,1.7,11.54,7.59,20.29,18.52,25.09,7.63,3.35,14.53,1.92,20.45-3.98,1.94-1.94,3.53-4.15,4.86-6.54,3.57-6.39,5.68-13.33,7.62-20.34,.72-2.61-.1-3.94-2.59-5.01-8.76-3.76-17.83-6.11-28.05-6.74Z"/>
      <path class="cls-4" d="M175.3,550.02c-2.31-.36-2.73-2.18-3.59-3.45-4.18-6.2-9.66-10.72-16.56-13.66-7.7-3.28-15.46-6.24-23.82-7.39-13.23-1.83-23.99,2.85-32.43,12.77-11.93,14-15.43,30.49-13.15,48.42,.48,3.77,1.23,7.53,2.15,11.23,2.96,11.77-.24,21.47-9.45,29.29-3.05,2.59-6.02,5.25-9.04,7.87-3.72,3.21-7.17,6.68-10.33,10.45-9.49,11.34-11.92,24.21-8.06,38.3,6.45,23.54,22.33,37.24,46.63,40.37,3.78,.49,7.58,.86,11.38,1.03,8.74,.38,15.71,3.81,20.72,11.16,3.89,5.7,8.01,11.24,12.03,16.85,3.14,4.38,7.01,7.89,12.12,9.77,7.03,2.59,13.9,1.97,20.59-1.3,5.95-2.9,11.17-6.85,15.73-11.57,7.98-8.24,17.76-14.45,25.51-22.93,.75-.82,1.65-1.62,2.81-.97,1.17,.65,.82,1.93,.69,2.94-1.37,10.44-4.54,20.23-11.38,28.43-6.68,8.01-14.48,14.8-23.76,19.7-20.36,10.75-42.46,5.7-56.13-12.85-3.88-5.26-7.6-10.64-11.11-16.16-2.48-3.89-5.64-5.6-10.29-5.8-10.03-.44-19.76-2.58-29.12-6.33-11.99-4.8-21.62-12.53-28.77-23.27-6.94-10.43-11.62-21.76-12.9-34.32-1.47-14.45,1.63-27.77,10.12-39.72,4.77-6.71,10.56-12.45,16.55-18.03,13.26-12.34,11.73-10.81,9.29-27.36-2.43-16.53-1.35-32.59,5.91-47.91,5.07-10.71,12.01-19.85,22.03-26.44,11.03-7.25,23-9.4,35.91-6.9,6.68,1.29,12.78,3.93,18.74,7.12,11.9,6.38,18.19,16.77,21.43,29.42,.07,.28-.21,.65-.43,1.26Z"/>
      <path class="cls-4" d="M121.95,94.22c2.47,7.31,1.07,14.34-.18,21.27-3.47,19.29-7.73,38.42-11.03,57.75-5.99,35.17-9.22,70.56-9.06,106.23,.07,15.99,.86,31.95,4.23,47.66,1.03,4.78,2.36,9.46,4.93,13.82,2.82-.65,4.62-2.49,6.58-4.05,1.7-1.36,3.28-2.86,4.95-4.26,.68-.57,1.45-1.24,2.43-.78,1.01,.47,1,1.5,.8,2.34-1.65,6.87-2.73,13.96-6.37,20.15-5.06,8.6-14.9,9.8-22.19,2.93-3.37-3.18-5.51-7.19-7.35-11.36-4.75-10.77-6.63-22.24-7.75-33.83-2.76-28.49-1.6-56.96,.87-85.4,2.59-29.89,7.3-59.44,14.43-88.59,2.38-9.71,5.33-19.23,9.56-28.32,1.53-3.3,3.22-6.51,5.45-9.4,2.4-3.1,5.29-5.45,9.7-6.16Z"/>
      <path class="cls-4" d="M759.37,148.22c9.31-.14,19.62,1.91,28.69,8.54,7.02,5.14,11.72,11.81,13.66,20.31,4.03,17.7-.36,32.98-13.19,45.89-4.86,4.89-10.84,7.13-17.46,8.02-4.33,.58-8.69,.6-13.05,.4-1.19-.05-2.68,.42-3.33-1.11-.61-1.45,.44-2.41,1.33-3.28,5.33-5.19,10.11-10.93,15.91-15.64,2.68-2.18,5.26-4.47,7.38-7.22,5.34-6.94,7.7-14.68,6.28-23.46-1.34-8.28-6.65-13.09-14.08-15.81-6.59-2.41-13.56-2.78-20.43-1.97-19.96,2.35-40.11,3.91-58.92,12-.49,.21-1,.4-1.53,.52-.6,.14-1.07-.15-1.2-.73-.07-.3,.06-.71,.23-.98,.18-.29,.5-.53,.8-.71,11.03-6.56,21.17-14.69,33.68-18.65,10.95-3.46,22-6.12,35.21-6.13Z"/>
      <path class="cls-4" d="M126.23,599.16c9.43,1.13,17.81-.39,26.24,.28,15.19,1.21,30.36,2.54,45.55,3.71,18.99,1.45,37.99,2.74,56.98,4.2,7.96,.61,15.79,2.2,23.59,3.86,1.13,.24,2.79,.3,2.83,1.99,.03,1.23-1.18,1.72-2.12,2.26-10.76,6.16-22.14,9.71-34.75,8.91-26.62-1.69-53.15-4.11-79.51-8.27-7.7-1.21-15.34-2.7-22.74-5.28-6.1-2.12-11.16-5.61-16.08-11.66Z"/>
      <path class="cls-3" d="M731.8,438.69c0,10.18,.26,20.36-.06,30.53-.51,16.38-3.74,32.37-7.47,48.29-4.49,19.15-10.99,37.6-18.58,55.7-8.45,20.16-21.15,37.6-34.97,54.3-8.45,10.21-16.93,20.4-25.9,30.16-14.77,16.08-32.31,28.64-51.14,39.42-18.46,10.57-37.39,20.18-57.56,27.15-13.24,4.57-26.79,7.84-40.68,9.65-10.6,1.38-21.2,2.82-31.82,4-6.51,.72-13.11,.76-19.6,.09-14.98-1.53-29.8-3.91-44.29-8.3-16.13-4.89-30.26-13.08-42.65-24.37-6.46-5.88-12.32-12.37-17.64-19.28-8.52-11.04-12.61-24.02-15.39-37.45-2.25-10.86-3.34-21.87-3.39-32.96-.03-6.33-.54-12.62-.35-19,.56-18.83,4.16-37.09,8.77-55.22,6.53-25.66,14.48-50.94,20.5-76.75,3.38-14.49,6.06-29.06,7.32-43.93,2.25-26.59-1.62-52.46-8.3-78.04-4.35-16.67-9.24-33.2-13.02-50.02-1.03-4.59-1.78-9.25-2.65-13.88-.59-3.14,.78-6.09,.88-9.18,.17-5.44,.49-10.87,.8-16.3,.72-12.87,6.17-23.48,14.77-32.51,15.22-15.98,33.5-27.1,54.8-33.12,15.23-4.31,30.75-6.71,46.54-7.97,14.17-1.13,28.33-1.09,42.46-.51,20.68,.86,41.08,4.22,61.24,8.98,20.13,4.76,40.14,9.97,59.69,16.77,19.69,6.85,38.15,16.02,54.29,29.43,8.99,7.47,16.77,16.06,23.75,25.41,10.7,14.35,19.97,29.47,24.9,46.87,4.01,14.15,6.91,28.54,9.23,43.05,2.49,15.59,3.56,31.32,4.68,47.07,.99,13.99,.47,27.96,.81,41.93Zm-310.68-16.51c3.9,.17,9.12-.29,14.32-1.24,11.54-2.12,22.56-5.64,32.22-12.48,12.24-8.66,21.52-20.02,28.52-33.15,10.2-19.12,14.07-39.54,10.83-61.06-1.74-11.56-6.24-22.2-14.7-30.39-11.55-11.17-26.13-15.48-41.87-15.19-8.48,.15-16.89,1.98-25.08,4.49-12.93,3.97-23.86,11.21-34.05,19.89-5.69,4.84-11.26,9.73-15.7,15.78-9.42,12.83-15.72,26.89-16.84,42.97-1.11,16.04,3.72,30.47,12.32,43.74,11.4,17.58,27.26,27.2,50.04,26.63Zm-45.86,181.24c0,3.27-.21,6.55,.04,9.8,.92,12.39,3.26,24.38,9.56,35.38,14.43,25.21,43.82,33.89,69.86,18.49,14.6-8.63,24.63-21.28,31.61-36.45,13.51-29.36,12.59-58.44-2.89-86.77-6.9-12.63-17.1-22.06-30.87-27.03-13.81-4.99-27.1-4.27-39.34,4.51-4.46,3.2-7.92,7.42-11.27,11.74-5,6.44-10.7,12.34-14.65,19.58-8.62,15.83-12.4,32.8-12.04,50.74Zm272.91-288.71c-.29-5.02,0-9.01-.96-12.96-3.71-15.34-12.17-27.5-25.11-36.27-13.91-9.44-29.08-11.69-45.06-5.76-10.62,3.94-18.09,11.93-25,20.42-3.43,4.21-6.33,8.85-9.54,13.24-12,16.38-19.42,34.34-18.95,54.99,.23,10.25,3.91,19.16,11.13,26.41,13.87,13.94,30.93,17.25,49.64,14.07,13.76-2.33,25.75-8.67,36.2-17.75,17.42-15.13,27.42-33.96,27.65-56.4Z"/>
      <path class="cls-3" d="M389.48,92.49c-7.43,.1-14.89,.79-22.27-.71-1.98-.4-3.93-.83-5.71-1.72-8.41-4.22-10.8-13.47-5.21-21.12,5.55-7.59,13.09-11.73,22.64-12.28,13.74-.79,26.6,2.63,39.26,7.43,10.56,4,20.66,8.91,30.45,14.52,2.04,1.17,4.22,2.11,6.36,3.11,.82,.38,1.9,.59,1.72,1.73-.16,.98-1.15,1.35-2.05,1.49-4.65,.73-9.34,1.25-13.97,2.14-11.03,2.12-22.04,4.5-33.26,5.34-5.96,.45-11.98,.08-17.97,.08Zm36.88-10.95c-.35-1.93-1.12-2.42-1.86-2.93-5.18-3.58-11.08-5.38-17.14-6.55-14.48-2.78-28.88-.58-43.27,1.08-.67,.08-1.53,.12-1.6,1.11-.08,1.16,.8,1.63,1.69,1.7,3.07,.27,6.21,.09,9.21,.66,13.35,2.53,26.76,4.55,40.36,4.91,4.09,.11,8.18,.02,12.61,.02Z"/>
      <path class="cls-3" d="M483.89,81.6c.19-.72,.18-.99,.28-1.04,16.93-8.51,32.99-19.02,52.25-22.07,6.81-1.08,13.58-2.04,20.5-1.79,5.28,.19,9.93,2.02,14.14,4.98,4.99,3.5,5.77,8.02,2.58,13.22-3.18,5.18-8.09,8.35-13.41,10.68-8.57,3.77-17.67,4.25-27.02,4.41-16.99,.29-32.72-5.61-49.33-8.38Zm14.2,.97c1.92,.75,3.67,.21,5.44-.06,6.06-.94,12.1-2.34,18.2-2.65,12.13-.61,24.03-2.73,35.93-4.82,1.86-.33,4.37-.02,5.72-2.63-9.57-4.07-19.22-3.83-28.86-1.95-12.09,2.36-23.55,6.95-35.3,10.5-.56,.17-.9,.54-1.13,1.61Z"/>
      <path class="cls-1" d="M196.22,280.65c10.21,.63,19.28,2.98,28.05,6.74,2.48,1.06,3.31,2.39,2.59,5.01-1.93,7.01-4.05,13.95-7.62,20.34-1.33,2.39-2.92,4.6-4.86,6.54-5.93,5.9-12.82,7.33-20.45,3.98-10.93-4.8-16.82-13.55-18.52-25.09-1.11-7.57,2.95-13.46,10.24-15.91,3.66-1.23,7.47-1.39,10.58-1.61Z"/>
      <path class="cls-4" d="M421.12,422.18c-22.77,.57-38.64-9.05-50.04-26.63-8.6-13.27-13.43-27.7-12.32-43.74,1.11-16.08,7.42-30.14,16.84-42.97,4.44-6.05,10.02-10.94,15.7-15.78,10.19-8.68,21.12-15.92,34.05-19.89,8.2-2.52,16.61-4.34,25.08-4.49,15.74-.29,30.32,4.02,41.87,15.19,8.46,8.18,12.96,18.83,14.7,30.39,3.25,21.51-.63,41.93-10.83,61.06-7,13.13-16.28,24.49-28.52,33.15-9.66,6.84-20.69,10.36-32.22,12.48-5.2,.95-10.42,1.41-14.32,1.24Zm31.22-137.87c-2.89,.25-5.79,.41-8.67,.76-18.87,2.32-34.24,12.32-49.41,22.7-.74,.5-1.36,1.21-1.95,1.89-8.52,9.64-15.1,20.4-18.72,32.82-6.02,20.68,2.8,45.09,20.64,57.17,4.7,3.18,9.83,5.3,15.48,6.32,6.74,1.22,13.39,.64,20.05-.31,13.73-1.94,26.52-6.11,36.66-16.19,19.8-19.66,28.55-43.38,25.35-71.14-1.84-15.97-9.96-27.4-25.98-32.16-4.38-1.3-8.86-1.92-13.45-1.86Z"/>
      <path class="cls-4" d="M375.26,603.42c-.36-17.94,3.42-34.91,12.04-50.74,3.94-7.24,9.65-13.14,14.65-19.58,3.36-4.32,6.82-8.55,11.27-11.74,12.24-8.78,25.53-9.5,39.34-4.51,13.77,4.97,23.97,14.4,30.87,27.03,15.48,28.34,16.39,57.41,2.89,86.77-6.98,15.17-17.01,27.82-31.61,36.45-26.04,15.4-55.43,6.71-69.86-18.49-6.3-11.01-8.64-22.99-9.56-35.38-.24-3.25-.04-6.53-.04-9.8Zm13.42,3.12c.31,3.94,.45,7.76,.94,11.53,1.25,9.65,3.75,18.91,9.81,26.78,7.62,9.89,17.56,14.89,30.24,13.96,10.3-.76,18.66-5.61,26.01-12.42,10.52-9.74,17.48-21.8,21.56-35.41,6.51-21.74,3.48-42.42-8.36-61.68-5.71-9.29-13.84-15.87-24.62-18.52-8.1-1.99-16.04-1.37-22.71,4.15-6.43,5.32-11.46,12.12-17.85,17.53-1.06,.9-1.66,2.37-2.39,3.62-9.14,15.63-12.76,32.64-12.63,50.47Z"/>
      <path class="cls-4" d="M648.17,314.7c-.23,22.44-10.23,41.27-27.65,56.4-10.45,9.08-22.44,15.41-36.2,17.75-18.71,3.17-35.77-.13-49.64-14.07-7.22-7.25-10.9-16.17-11.13-26.41-.46-20.66,6.95-38.61,18.95-54.99,3.22-4.39,6.11-9.03,9.54-13.24,6.91-8.5,14.38-16.48,25-20.42,15.98-5.93,31.15-3.68,45.06,5.76,12.94,8.78,21.4,20.93,25.11,36.27,.95,3.95,.67,7.94,.96,12.96Zm-14.29-1.57c-.6-16.67-8.76-28.89-22.81-37.18-14.29-8.43-32.21-5.46-43.18,7-7.09,8.04-13.54,16.65-18.76,26.05-5.68,10.23-9.88,21.03-10.83,32.85-1.02,12.77,3.92,21.73,15.29,27.61,6.64,3.44,13.81,4.73,21.15,3.95,25.96-2.76,43.85-16.81,54.76-40.12,2.95-6.3,4.28-13.09,4.38-20.17Z"/>
      <path class="cls-6" d="M426.36,81.54c-4.43,0-8.52,.09-12.61-.02-13.61-.36-27.01-2.38-40.36-4.91-3-.57-6.15-.39-9.21-.66-.88-.08-1.76-.54-1.69-1.7,.06-.99,.92-1.03,1.6-1.11,14.39-1.66,28.79-3.86,43.27-1.08,6.06,1.16,11.96,2.97,17.14,6.55,.75,.52,1.51,1.01,1.86,2.93Z"/>
      <path class="cls-6" d="M498.09,82.57c.23-1.07,.57-1.45,1.13-1.61,11.76-3.55,23.22-8.15,35.3-10.5,9.64-1.88,19.29-2.13,28.86,1.95-1.35,2.62-3.86,2.31-5.72,2.63-11.91,2.09-23.8,4.21-35.93,4.82-6.1,.31-12.14,1.71-18.2,2.65-1.77,.27-3.53,.82-5.44,.06Z"/>
      <path class="cls-1" d="M452.34,284.3c4.59-.06,9.07,.56,13.45,1.86,16.03,4.76,24.14,16.19,25.98,32.16,3.2,27.76-5.55,51.48-25.35,71.14-10.15,10.08-22.93,14.24-36.66,16.19-6.65,.94-13.31,1.53-20.05,.31-5.66-1.03-10.78-3.14-15.48-6.32-17.84-12.07-26.66-36.49-20.64-57.17,3.62-12.42,10.2-23.18,18.72-32.82,.6-.68,1.22-1.38,1.95-1.89,15.17-10.38,30.54-20.38,49.41-22.7,2.88-.35,5.78-.51,8.67-.76Zm-58.98,64.7c3.76,4.27,8.28,6.13,13.46,6.59,5.81,.52,11.63,.31,17.4-.44,9.9-1.28,19.79-2.66,29.69-3.98,6.23-.83,11.88-3.26,17.25-6.38,2.66-1.54,2.64-2.77-.1-4.14-6.57-3.28-13.39-5.77-20.94-4.49-14.31,2.43-28.63,4.87-42.91,7.47-4.77,.87-9.34,2.48-13.84,5.37Z"/>
      <path class="cls-2" d="M388.68,606.54c-.13-17.82,3.49-34.83,12.63-50.47,.73-1.25,1.33-2.72,2.39-3.62,6.39-5.41,11.43-12.21,17.85-17.53,6.67-5.52,14.61-6.14,22.71-4.15,10.78,2.65,18.91,9.23,24.62,18.52,11.84,19.26,14.87,39.94,8.36,61.68-4.08,13.61-11.04,25.67-21.56,35.41-7.35,6.81-15.72,11.66-26.01,12.42-12.67,.94-22.62-4.06-30.24-13.96-6.06-7.87-8.56-17.13-9.81-26.78-.49-3.78-.63-7.6-.94-11.53Z"/>
      <path class="cls-1" d="M633.88,313.13c-.1,7.07-1.43,13.86-4.38,20.17-10.92,23.31-28.81,37.36-54.76,40.12-7.33,.78-14.5-.51-21.15-3.95-11.37-5.88-16.31-14.84-15.29-27.61,.95-11.83,5.15-22.62,10.83-32.85,5.22-9.4,11.67-18.01,18.76-26.05,10.98-12.46,28.9-15.43,43.18-7,14.05,8.29,22.22,20.52,22.81,37.18Zm-55.6,14.42c9-.89,18.02-1.66,27.01-2.71,5.23-.61,9.08-3.42,11.09-8.43,1.6-3.99,.83-5.59-3.09-7.1-1.92-.74-3.89-.84-5.88-.75-10.5,.49-20.92,1.79-31.25,3.7-6.54,1.21-12.37,4.05-16.73,9.34-1.67,2.03-1.45,2.94,1.14,3.6,5.8,1.48,11.62,2.82,17.71,2.35Z"/>
      <path class="cls-4" d="M393.35,349c4.5-2.89,9.08-4.5,13.84-5.37,14.28-2.6,28.6-5.04,42.91-7.47,7.55-1.28,14.36,1.21,20.94,4.49,2.75,1.37,2.76,2.59,.1,4.14-5.37,3.11-11.02,5.54-17.25,6.38-9.9,1.32-19.78,2.71-29.69,3.98-5.78,.74-11.59,.96-17.4,.44-5.18-.46-9.7-2.32-13.46-6.59Z"/>
      <path class="cls-5" d="M578.28,327.56c-6.08,.46-11.91-.87-17.71-2.35-2.58-.66-2.81-1.57-1.14-3.6,4.36-5.29,10.19-8.13,16.73-9.34,10.32-1.91,20.74-3.21,31.25-3.7,1.99-.09,3.96,0,5.88,.75,3.92,1.51,4.69,3.11,3.09,7.1-2.01,5.01-5.86,7.82-11.09,8.43-8.99,1.05-18,1.82-27.01,2.71Z"/>
    </g>
  </g>
</svg>