<?xml version="1.0" encoding="UTF-8"?>
<svg id="_レイヤー_2" data-name="レイヤー 2" xmlns="http://www.w3.org/2000/svg" viewBox="0 0 964.15 893.47">
  <defs>
    <style>
      .cls-1 {
        fill: #eae4ec;
      }

      .cls-2 {
        fill: #e9e3eb;
      }

      .cls-3 {
        fill: #e3dfe6;
      }

      .cls-4 {
        fill: #e3e3e3;
      }

      .cls-5 {
        fill: #ece6ed;
      }

      .cls-6 {
        fill: #7e8c90;
      }

      .cls-7 {
        fill: #7dbace;
      }

      .cls-8 {
        fill: #81898d;
      }

      .cls-9 {
        fill: #6b956e;
      }

      .cls-10 {
        fill: #9c9094;
      }

      .cls-11 {
        fill: #86c8dd;
      }

      .cls-12 {
        fill: #b4b2b7;
      }

      .cls-13 {
        fill: #a0a3a9;
      }

      .cls-14 {
        fill: #909ba1;
      }

      .cls-15 {
        fill: #939196;
      }

      .cls-16 {
        fill: #84c5da;
      }

      .cls-17 {
        fill: #c6c2c9;
      }

      .cls-18 {
        fill: #dadbe3;
      }

      .cls-19 {
        fill: #d7d4dc;
      }

      .cls-20 {
        fill: #252525;
      }

      .cls-21 {
        fill: #252526;
      }

      .cls-22 {
        fill: #222;
      }

      .cls-23 {
        fill: #232323;
      }

      .cls-24 {
        fill: #6e6e6e;
      }

      .cls-25 {
        fill: #87c9df;
      }

      .cls-26 {
        fill: #63afc2;
      }

      .cls-27 {
        fill: #262525;
      }

      .cls-28 {
        fill: #262626;
      }

      .cls-29 {
        fill: #272626;
      }

      .cls-30 {
        fill: #568593;
      }

      .cls-31 {
        fill: #282727;
      }

      .cls-32 {
        fill: #7b989b;
      }
    </style>
  </defs>
  <g id="_レイヤー_1-2" data-name="レイヤー 1">
    <g>
      <path class="cls-1" d="M498.49,893.2c-8.53,0-15.35,.72-21.95-.17-9.72-1.31-19.49-.48-29.22-1.69-6.04-.75-12.22-1.21-18.35-1.65-7.35-.53-14.67-1.8-21.94-3.1-11.72-2.09-23.54-3.63-35.12-6.45-16.17-3.94-32.36-7.85-48.1-13.3-13.88-4.81-27.67-9.99-39.52-18.99-15.28-11.6-26.21-26.34-28.85-45.66-1.7-12.41-.1-24.89,3.63-37.04,3.31-10.77,7.65-21.07,12.38-31.27,5.63-12.16,11.88-24.06,15.86-36.94,2.46-7.96,3.76-16.12,5.13-24.33,1.33-7.94-.38-15.98,1.72-23.77-1.06-15.88-2.56-31.63-8.4-46.72-5.56-14.38-14.26-26.85-22.74-39.48-7.97-11.87-17.02-22.92-26.07-33.99-8.26-10.1-18.56-15.63-31.41-17.24-11.99-1.5-23.78-1.95-35.34,2.43-8.1,3.07-16.59,3.85-25.15,3.13-8.43-.71-14.65-5.57-18.69-12.53-5.25-9.03-6.38-19.02-4.63-29.39,1.85-10.97,6.66-20.6,12.64-29.78,5.04-7.74,10.11-15.45,14.76-23.45,6.34-10.91,6.75-22.25,4.22-34.14-2.55-12-4.14-24.17-6.26-36.25-1.84-10.48-4.35-20.85-6.33-31.31-2.17-11.45-5.31-22.5-10.8-32.87-2.6-4.91-6.01-9.02-9.97-12.8-2.36-2.25-5.34-3.15-8.32-3.75-16.22-3.28-28.09-12.99-37.77-25.71-14.32-18.84-25.83-39.41-35.78-60.82-5.65-12.15-10.59-24.62-15.82-36.96-4.95-11.67-9.92-23.33-14.79-35.03C3.7,103.1,.99,93.63,.15,83.9c-1.06-12.13,3.73-22.99,9.16-33.59,5.07-9.9,12.64-17.67,20.7-24.98,8.83-8.01,19.24-13.51,30.45-17.49C77.55,1.78,95.22-1.01,113.28,.33c13.58,1.01,25.92,5.98,36.95,14.29,12.76,9.6,22.51,21.83,31.79,34.57,8.11,11.13,15.33,22.86,23.13,34.2,5.66,8.24,11.76,16.1,20.69,21.2,11.93,6.8,24.33,8.71,37.43,3.79,18.49-6.94,36.5-15.05,54.84-22.32,18.85-7.47,38.06-14.06,58.01-18.02,12.48-2.47,25.16-2.45,37.86-2.53,18.62-.12,36.17,4.52,53.39,10.89,18.51,6.85,36.46,15.14,55.04,21.83,5.52,1.99,10.52,4.79,14.74,8.96,3.55,3.51,8.44,4.87,12.58,7.48,14.11,8.88,27.66,18.57,41.42,27.96,7.33,5,14.56,10.22,21.06,16.17,8.5,7.78,18.42,13.41,27.65,20.06,15.99,11.52,32.24,22.69,48.33,34.07,21.82,15.43,44.92,28.68,69.14,39.9,17.59,8.15,35.93,14.43,54.49,20.12,27.16,8.32,54.96,14.42,81.82,23.79,14.67,5.12,28.51,11.7,40.64,21.43,6.24,5,11.37,11.17,15.48,18.1,7.14,12.04,10.72,25.31,12.87,38.97,1.75,11.14,1.76,22.45,1.07,33.65-1.63,26.52-8.29,51.74-21.53,74.97-2.6,4.56-5.93,8.56-10.55,11.48-10.88,6.86-21.59,14.04-33.28,19.49-10.67,4.97-21.61,9.36-32.3,14.3-15.13,6.99-30.58,13.37-44.63,22.55-10.14,6.63-17.44,15.73-23.16,26.17-9.42,17.18-14.74,35.66-17.79,54.98-1.8,11.4-3.56,22.81-5.01,34.24-1.08,8.57-2.04,17.2-2.55,25.87-.53,8.98-1.99,17.91-2.92,26.87-.45,4.31-.89,8.65-1.16,12.94-1.13,17.86-4.9,35.14-11.44,51.68-4.67,11.8-11.46,22.49-19.52,32.48-5.89,7.3-13.09,13.06-19.91,19.2-5.42,4.89-11.98,8.71-18.57,12.16-8.85,4.63-17.9,8.81-27.53,11.59-6.29,1.82-12.1,4.86-18.18,7.2-13.21,5.08-26.95,8.32-40.58,11.91-16.07,4.23-32.42,7.25-48.85,9.6-8,1.14-16.14,1.85-24.21,2.7-14.45,1.52-28.87,2.14-41.56,1.94Zm380.34-471.09c.08-.99-.28-1.71-1.27-2.03-2.05-2.03-3.88-4.36-6.19-6.02-4.67-3.34-9.47-7.32-15.31-1.87-.23,.22-.7,.15-1.03,.29-4.54,1.86-6.47,5.46-6.8,10.16-.39,5.47,2.11,9.74,5.58,13.62-.03,.47-.05,.95-.08,1.42-4.64-.81-9.03-.07-13.11,2.28-8.84,5.08-9.27,17.43-.83,23.14,6.12,4.14,13.89,3.26,19.42-2.12,4.51-4.39,6.82-12.03,.97-19.12,.04-.37,.08-.74,.12-1.11,10,2.38,14.34,.91,19.55-6.61,2.43-3.03,.88-6.52,1.14-9.79,.39,0,.79-.02,1.18-.03,4.67,10,7.13,20.46,6.74,31.56-.3,8.6-2.4,16.82-4.79,25.02-1.89,6.49,1.43,10.95,7.97,10.89,4.09-.04,7.78-1.54,11.21-3.72,6.23-3.97,11.55-8.97,15.09-15.41,13.34-24.24,14.68-48.91,1.74-73.79-2.97-5.71-7.2-10.42-12.61-14.02-12.58-8.37-27.75-7.67-39.43,1.84-3.89,3.17-5.37,6.64-3.74,10.42,2.09,4.82,4.47,9.64,8.74,12.93,2.71,2.08,4.58,4.54,5.83,7.62-.07,.62,.19,1.05,.77,1.28,.27,.22,.39,.5,.35,.84-.09,.63,.18,1.07,.75,1.34,.26,.24,.37,.53,.32,.88-.03,.79-.07,1.59-.1,2.38-.38,0-.75,0-1.13,.01h0c.18-.98-.1-1.74-1.02-2.21l-.02-.05Zm-220.33-8.6c-.72,1.44-2.28,.58-3.3,1.19-5.41-.19-10.39,1.58-15.25,3.61-12.58,5.24-24.58,11.5-36.27,18.6-6.69,4.06-9.42,9.6-11.62,16.18-.25,.73-.05,1.34,.27,2.05,3.59,7.89,9.66,11.83,18.36,12.03,5.87,.14,11.57-.85,17.3-1.82,9.12-1.54,13.13,1.19,15.32,10.25,2.29,9.49,2,19.1,1.49,28.73-.56,10.52-1.43,21.03-.53,31.58,.42,4.96,1.81,9.61,4.17,13.99,1.85,3.44,4.39,6.22,7.86,8.08,7.52,4.04,14.25,2.21,18.61-5.13,3.01-5.07,4.49-10.68,5.51-16.43,4.93-27.8,5.66-55.59-.12-83.39-2.49-11.99-5.3-23.81-14.25-32.99,.43-.4,.86-.8,1.29-1.19,18.9,5.1,34.28-6.1,38.74-21.08,4.23-14.2-2.34-25.97-16.61-29.81-1.75-.47-3.56-.77-5.36-.95-9.46-.91-18.51,3.46-21.98,10.94-1.76,3.8-3.43,7.51-6.6,10.41-1.32,1.2-1.99,3-2.55,4.76-2.52,7.98-.09,14.61,5.52,20.39Zm-148.3,330.27c3.65-.36,7.46,1.11,10.95-1,1.07-.03,2.14-.07,3.21-.1,1.5,.26,3.25-.46,4.43,1.1-.3,.18-.63,.22-.97,.12-1.89,.09-3.95-.79-5.54,.98-1.77,.37-3.53,.84-5.32,1.1-11.5,1.68-23.05,2.86-34.64,3.66-22.17,1.53-44.27,1.32-66.23-2.49-3.85-.67-7.95-.85-10.72-4.41-.57-.73-1.95-.86-2.99-1.18-4.33-1.33-8.65-2.73-13.03-3.93-10.58-2.9-21.34-4.46-32.32-3.43-5.59,.52-11.19,1.18-16.72,2.16-14.87,2.62-28.12,8.5-38.31,20.08-10.09,11.46-11.82,24.77-5.08,38.41,2.35,4.77,5.5,8.95,9.15,12.8,8.25,8.71,18.3,14.85,28.87,20.21,45.46,23.03,93.73,34.77,144.63,35.74,14.17,.27,28.34,.23,42.51,.33,8.37,.06,16.73-.5,24.99-1.65,26.7-3.72,52.69-10.33,77.78-20.27,20.02-7.93,39.16-17.41,55.57-31.68,12.12-10.55,22.13-22.51,26.4-38.47,5.87-21.95-2.9-43.7-28.19-50.94-10.6-3.03-21.44-3.93-32.37-2.93-21.92,1.99-43.46,6.08-64.6,12.29-7.3,2.14-14.47,4.78-22.01,6.08-.92-.19-1.92-.24-2.47-1.2,2.86-1.15,5.71-2.32,8.57-3.44,15.1-5.94,27.22-15.76,37.07-28.52,.72-.94,2.25-1.76,1.32-3.18-.97-1.48-2.58-.98-3.98-.59-3.49,.97-6.99,1.9-10.44,3-10.52,3.36-21.46,5.3-31.65,9.77-5.47,2.4-11.21,4.15-17.03,5.61-9.33,2.35-18.81,3.45-28.35,4.57-12.4,1.46-24.63,.45-36.84-.9-10.23-1.13-20.36-3.14-30.51-4.91-14.22-2.49-28.8-3.19-42.5-8.34-.89-.33-1.86-.44-2.41,.49-.52,.88-.12,1.77,.54,2.47,1.25,1.32,2.49,2.65,3.83,3.87,7.88,7.19,16.94,12.37,27.01,15.85,25.4,8.76,51.47,13.39,78.38,12.88ZM229.49,445.27c1.75,1.38,2.69,3.39,3.93,5.16,15.52,22.27,32.68,43.15,52.46,61.8,11.8,11.12,24.39,21.22,38.49,29.33,6.31,3.63,12.79,6.89,19.91,8.67,6.33,1.59,12.57,1.69,18.57-1.42,1.08-.56,2.04-1.15,3.53-.95,4.13,.54,4.72,.26,5.76-3.63,1.2-4.48,3.45-8.32,5.87-12.19,3.56-5.7,7.05-11.46,9.63-17.68,1.13-2.73,2.59-5.17,4.46-7.42,12.56-15.11,26.08-29.31,40.42-42.73,2.65-2.48,5.53-4.71,8.4-6.94,1.07-.84,2.03-2.14,3.76-1.8,.86,3.37,1.04,6.81,1.32,10.25,1.47,18.17,.37,36.32-.58,54.46-.54,10.39-.21,20.74,1.65,30.95,4.15,22.8,15.99,39.31,38.75,46.94,14.42,4.83,29.05,6.15,44.04,3.95,26-3.82,45.04-16.93,56.07-41.27,8.52-18.8,9.48-38.14,5.64-58.08-4.9-25.43-14.69-48.93-27.59-71.26-.86-1.49-2.3-2.77-2.25-5.01,1.45-.26,2.84-.61,4.26-.74,6.53-.56,12.92-1.9,19.26-3.54,35.27-9.11,56.26-31.84,63.06-67.36,3.96-20.66,2.19-41.39-3.51-61.52-13.5-47.69-37.32-89.68-71.7-125.45-16.18-16.84-35.23-29.67-57.16-38.02-34.8-13.25-70.64-15.77-107.22-10.17-27.2,4.17-53.51,11.74-79.21,21.44-34.36,12.96-66.57,29.85-95.15,53.17-13.71,11.19-26.27,23.49-36.44,38.07-15.89,22.77-23.95,47.88-22.56,75.82,.62,12.41,2.89,24.51,6.19,36.44,8.09,29.28,21.19,56.34,36.65,82.35,.9,1.52,2.15,2.88,2.57,5.13-4.64,.71-8.24,3.5-11.98,6.06-3.03,2.07-6.33,3.55-9.97,4.2-3.39,.61-6.79,1.18-10.19,1.75-8.13,1.36-16.01,3.44-22.71,8.53-5.54,4.2-9.47,9.5-10.43,16.61-.37,2.78-.06,5.47,1.55,7.84,2.33,3.42,5.39,3.84,8.76,1.33,2.64-1.97,4.94-4.27,7.05-6.79,4.42-5.27,10.17-8.06,16.88-9.05,2.69-.4,5.4-.74,8.1-1.1,12.43-1.66,23.53-5.94,31.67-16.11ZM154.34,116.19c-1-2.06-1.9-3.82-2.72-5.62-5.88-12.88-11.66-25.8-17.63-38.64-3.45-7.42-7.42-14.56-12.54-21-6.83-8.59-15.2-15.11-25.77-18.4-14.44-4.51-28.97-4.73-43.38,.06-15.32,5.09-21.95,14.51-21.94,30.55,0,10.51,2.61,20.53,6.14,30.28,14.29,39.46,34.46,75.98,56.42,111.57,4.4,7.13,10.29,13.12,16.42,18.85,22.97,21.47,52.2,11.77,66.63-1.76,10.95-10.27,15.46-30.62,6.91-45.12-1.21-2.04-2.23-4.19-1.62-6.69,.72-2.95-.37-5.32-2.32-7.45-1.43-1.56-2.96-3.09-3.41-5.29,2.02-.99,4-1.35,6-1.37,8.36-.08,16.75-.58,25.06,.04,8.28,.62,16.47,2.46,23.88,6.57,1.65,.91,2.65,.72,3.74-.54,1.07-1.24,1.59-2.62,.1-3.78-1.73-1.34-2.18-3.31-2.91-5.13-1.71-4.24-3.95-8.19-6.82-11.73-10.59-13.04-23.79-22.33-40.03-26.91-10.09-2.84-20.28-4.43-30.21,1.5ZM729.86,453.82c2.6,1.97,3.85,4.59,4.97,7.26,2.03,4.86,3.36,9.94,4.49,15.09,2.49,11.33,4.15,22.84,7.6,33.95,1.57,5.06,3.65,9.86,7.09,13.97,6.06,7.23,13.48,7.53,20.09,.74,4.46-4.59,6.75-10.22,7.73-16.47,1.6-10.18,.77-20.29-1.12-30.31-2.84-15.05-7.55-29.48-15.1-42.89-6.61-11.74-16.77-16.5-29.97-15.43-3.64,.29-7.16,1.1-10.68,1.97-7.79,1.93-14.96,5.28-22.11,8.89-7.83,3.94-12.13,9.66-11.8,18.33,.31,8.39,4.05,15.46,10.14,21,6.05,5.5,14.93,4.63,20.49-1.48,2.47-2.72,4.06-5.98,5.51-9.32,.71-1.63,.87-3.53,2.69-5.29Zm-250.53,239.91c15.89-.28,31.3-2.98,45.96-9.31,10.71-4.62,20.26-11.25,29.87-17.76,.86-.58,2.05-1.36,1.53-2.57-.68-1.6-2.17-.89-3.32-.57-4.53,1.28-9.02,2.66-13.54,3.97-11.15,3.22-22.66,4.54-34.05,6.51-6.05,1.05-12.05,2.62-18.14,3.16-14.26,1.26-28.2-.79-41.68-5.53-5.14-1.8-9.95-4.32-13.74-8.51-2.8-3.11-6.48-5.21-9.81-7.71-.88-.66-1.88-1.42-2.91-.58-1.17,.95-.19,2.01,.29,2.89,2.07,3.82,4.84,7.33,6.13,11.5,2.77,8.94,9.22,14.26,17.41,17.49,11.52,4.54,23.49,7.31,36.02,7.01Zm335.03-248.61c17.48,.83,36.43-15.88,32.56-39.59-.74-4.55-2.91-8.59-6.47-11.71-5.54-4.84-12.35-3.85-16.3,2.34-1.7,2.66-2.46,5.65-3.03,8.68-.51,2.68-1.05,5.35-2.16,7.85-1.95,4.42-3.86,5.26-8.07,3.07-3.68-1.92-7.3-3.93-10.39-6.87-5.28-5.02-12.99-5.55-19.09-1.59-3.93,2.56-6.72,6.11-8.33,10.49-2.37,6.44-2.91,13.07-1.58,19.83,.42,2.15,1.05,4.23,2.1,6.16,3.13,5.81,8.42,6.98,13.6,3.01,1.29-.99,2.49-2.12,3.7-3.22,2.66-2.43,5.47-3.15,8.96-1.6,4.68,2.08,9.61,3.31,14.52,3.14Z"/>
      <path class="cls-5" d="M241.51,80.87c-2.03-.04-3.78-1.84-3.71-3.82,.07-1.79,2.07-3.66,4.04-3.75,2.15-.1,4.5,2.01,4.39,3.93-.12,1.91-2.42,3.69-4.72,3.64Z"/>
      <path class="cls-24" d="M527.81,743.9c.34,.1,.66,.06,.97-.12,10.57-1.32,20.86-3.8,30.87-7.41,7.53-1.3,14.71-3.93,22-6.08,21.14-6.21,42.67-10.3,64.6-12.29,10.94-.99,21.78-.1,32.37,2.93,25.29,7.24,34.06,28.99,28.19,50.94-4.27,15.96-14.28,27.93-26.4,38.47-16.41,14.28-35.55,23.76-55.57,31.68-25.09,9.94-51.08,16.54-77.78,20.27-8.26,1.15-16.62,1.71-24.99,1.65-14.17-.1-28.34-.06-42.51-.33-50.9-.97-99.17-12.71-144.63-35.74-10.57-5.36-20.62-11.5-28.87-20.21-3.65-3.85-6.8-8.04-9.15-12.8-6.74-13.65-5.01-26.96,5.08-38.41,10.19-11.58,23.44-17.46,38.31-20.08,5.53-.97,11.13-1.64,16.72-2.16,10.98-1.02,21.74,.53,32.32,3.43,4.37,1.2,8.69,2.59,13.03,3.93,1.04,.32,2.42,.45,2.99,1.18,2.78,3.56,6.88,3.75,10.72,4.41,21.96,3.8,44.06,4.02,66.23,2.49,11.6-.8,23.14-1.98,34.64-3.66,1.79-.26,3.55-.73,5.32-1.1,1.92,.07,3.86,.25,5.54-.98Zm-9.26,93.43c5.06,.6,9.87-.74,14.78-.76,10.02-.03,19.88-1.58,29.56-4.02,19.86-5,38.2-13.67,56.12-23.4,12.78-6.94,20.67-17.92,26.25-30.91,.53-1.23,1.76-2.55,.29-3.96-1.39-1.33-2.81-.24-4.06,.2-6,2.07-11.94,4.3-17.91,6.46-12.69,4.57-24.25,11.54-36.46,17.12-9.91,4.53-19.98,8.67-30.61,11.19-16.53,3.92-33.35,4.65-50.26,4.35-14.79-.26-29.2-2.64-43.27-7.2-13.49-4.38-26.49-10-39.39-15.77-16.71-7.49-34.98-11.11-50.83-20.69-.9-.54-2.05-1.3-2.86-.04-.7,1.08,.07,2.07,.86,2.87,5.35,5.44,10.33,11.29,16.31,16.04,18.73,14.91,39.56,26.27,61.51,35.68,22.4,9.6,45.99,12.71,69.99,12.84Z"/>
      <path class="cls-22" d="M229.49,445.27c-8.14,10.17-19.24,14.45-31.67,16.11-2.7,.36-5.4,.7-8.1,1.1-6.71,.99-12.46,3.78-16.88,9.05-2.11,2.51-4.41,4.82-7.05,6.79-3.37,2.51-6.43,2.09-8.76-1.33-1.61-2.37-1.93-5.06-1.55-7.84,.95-7.11,4.89-12.41,10.43-16.61,6.71-5.08,14.58-7.16,22.71-8.53,3.4-.57,6.8-1.14,10.19-1.75,3.63-.65,6.94-2.13,9.97-4.2,3.74-2.56,7.34-5.35,11.98-6.06-.42-2.25-1.67-3.61-2.57-5.13-15.46-26-28.56-53.06-36.65-82.35-3.3-11.93-5.57-24.03-6.19-36.44-1.39-27.94,6.67-53.05,22.56-75.82,10.17-14.57,22.74-26.88,36.44-38.07,28.58-23.33,60.79-40.21,95.15-53.17,25.7-9.69,52.01-17.27,79.21-21.44,36.58-5.61,72.41-3.08,107.22,10.17,21.93,8.35,40.97,21.18,57.16,38.02,34.39,35.77,58.2,77.76,71.7,125.45,5.7,20.14,7.47,40.86,3.51,61.52-6.8,35.52-27.79,58.25-63.06,67.36-6.33,1.64-12.72,2.97-19.26,3.54-1.41,.12-2.81,.48-4.26,.74-.05,2.24,1.38,3.52,2.25,5.01,12.9,22.32,22.68,45.83,27.59,71.26,3.84,19.95,2.89,39.28-5.64,58.08-11.03,24.34-30.08,37.45-56.07,41.27-14.99,2.21-29.62,.88-44.04-3.95-22.76-7.62-34.6-24.14-38.75-46.94-1.86-10.21-2.19-20.56-1.65-30.95,.94-18.14,2.05-36.28,.58-54.46-.28-3.44-.46-6.88-1.32-10.25-1.73-.34-2.69,.96-3.76,1.8-2.86,2.23-5.75,4.46-8.4,6.94-14.34,13.42-27.86,27.62-40.42,42.73-1.87,2.25-3.33,4.69-4.46,7.42-2.58,6.22-6.07,11.98-9.63,17.68-2.41,3.86-4.67,7.71-5.87,12.19-1.04,3.89-1.63,4.17-5.76,3.63-1.48-.19-2.45,.39-3.53,.95-6,3.12-12.23,3.01-18.57,1.42-7.11-1.78-13.6-5.04-19.91-8.67-14.1-8.11-26.69-18.21-38.49-29.33-19.78-18.64-36.93-39.53-52.46-61.8-1.23-1.77-2.18-3.78-3.93-5.16Zm182.63-86.34l.32,.18,.36-.07c4.36,3.86,8.22,8.15,11.75,12.81,19.51,25.76,29.85,55.03,33.4,86.9,1.89,17,2.42,34.04,1.46,51.15-.44,7.97-.44,15.99-.19,23.98,.37,11.5,2.26,22.71,7.18,33.32,3.1,6.68,7.56,11.91,13.74,15.77,4.17,2.61,8.55,4.75,13.26,6.26,13.15,4.24,26.46,4.27,39.81,1.37,15.73-3.42,28.68-11.08,37.19-25.25,9.95-16.56,13.15-34.32,10.26-53.4-2.97-19.61-9.65-37.95-18.16-55.72-19.93-41.56-50.67-71.77-93.68-89.04-14.81-5.95-29.99-9.92-46.18-8.24-2.33,.24-4.72-.04-7.08-.08-.95-.95-2.17-1.07-3.41-1.16-.39-.62-1.32-1.13-1.57-.62-.63,1.32,.78,1.43,1.56,1.86Zm29.99-225.85c-5.01-.42-12.99,.58-20.89,1.54-20.93,2.54-41.36,7.51-61.42,13.98-42.86,13.83-83.18,32.52-117.73,62.07-12.6,10.77-24.08,22.6-33.03,36.73-14.89,23.53-19.24,48.91-14.3,76.19,4.01,22.17,11.85,43,21.53,63.19,13.95,29.1,31.25,56.15,51.64,81.15,16.46,20.18,34.34,38.97,55.85,53.96,7.46,5.21,15.13,10.05,23.92,12.77,6.31,1.96,8.75,1.34,12.81-3.83,2.34-2.99,4.33-6.27,6.36-9.49,3.39-5.37,6.14-11.15,10.01-16.21,8.27-10.8,16.37-21.73,25.64-31.76,11.12-12.01,22.04-24.19,36.13-32.88,2.87-1.77,3.39-3.92,2.53-6.89-1.21-4.18-2.18-8.43-3.48-12.58-5.92-18.83-15.7-35.89-24.82-53.24-1.34-2.55-3.25-4.81-4.74-7.29-1.02-1.7-3.21-2.82-3.22-4.92-.01-2.71,3.11-2.68,4.49-4.25,4.59-5.23,10.75-6.23,17.24-6.67,12.14-.82,23.9,1.06,35.36,4.89,34.07,11.37,62.91,30.46,85.6,58.48,1.78,2.19,3.41,3.45,6.34,3.08,10.07-1.27,20.12-2.47,29.93-5.34,25.25-7.4,40.96-23.85,47.26-49.29,3.41-13.79,2.86-27.76,.76-41.64-3.07-20.27-10.05-39.33-18.89-57.73-12.63-26.3-27.56-51.1-47.41-72.74-12.15-13.25-25.81-24.47-41.74-32.8-24.64-12.88-51.13-18.06-81.75-18.48Z"/>
      <path class="cls-22" d="M154.34,116.19c9.94-5.93,20.12-4.34,30.21-1.5,16.24,4.57,29.44,13.86,40.03,26.91,2.87,3.54,5.11,7.49,6.82,11.73,.74,1.82,1.19,3.79,2.91,5.13,1.49,1.16,.98,2.54-.1,3.78-1.09,1.26-2.09,1.45-3.74,.54-7.4-4.11-15.6-5.95-23.88-6.57-8.31-.62-16.7-.12-25.06-.04-2,.02-3.98,.38-6,1.37,.45,2.2,1.97,3.73,3.41,5.29,1.95,2.13,3.04,4.5,2.32,7.45-.61,2.51,.41,4.65,1.62,6.69,8.55,14.49,4.04,34.84-6.91,45.12-14.42,13.53-43.66,23.23-66.63,1.76-6.14-5.74-12.02-11.72-16.42-18.85-21.97-35.58-42.14-72.1-56.42-111.57-3.53-9.75-6.14-19.77-6.14-30.28,0-16.05,6.62-25.46,21.94-30.55,14.42-4.79,28.95-4.57,43.38-.06,10.56,3.3,18.93,9.81,25.77,18.4,5.12,6.44,9.09,13.58,12.54,21,5.96,12.84,11.75,25.76,17.63,38.64,.82,1.8,1.72,3.56,2.72,5.62Zm64.63,35.66c.63,.31,1.24,.68,1.9,.89,.44,.14,.76-.23,.56-.6-.14-.24-.57-.32-.87-.46-.45-1.15-1.28-1.86-2.47-2.17-8.29-7.12-17.23-13.32-26.83-18.53-6.76-3.67-14.03-5.85-21.67-6.87-4.12-.54-7.8-.12-11.42,2.23-3.96,2.58-6.99,1.8-9.81-2.16-1.46-2.05-2.58-4.37-3.71-6.64-7.04-14.14-14.04-28.29-21.6-42.16-3.13-5.74-6.51-11.34-10.79-16.34-6.06-7.07-13.35-12.29-22.48-14.58-10.96-2.76-21.93-2.84-32.8,.46-10.72,3.25-14.36,8.42-14.03,19.65,.03,1.09,.15,2.17,.25,3.26,.83,8.76,3.36,17.09,6.52,25.23,14.29,36.89,33.74,71.13,54.31,104.76,4.28,7,9.93,12.98,16.23,18.27,13.63,11.45,35,10.49,47.6-2.21,5.24-5.28,8.22-11.77,7.23-19.2-1.03-7.73-3.42-15.18-7.6-21.95-1.72-2.77-2.82-5.85-3.93-8.95-1.11-3.11-.14-5.2,2.06-7.22,6.96-6.37,15.01-9.99,24.54-10.26,9.21-.26,18.04,1.47,26.69,4.45,.48,.81,1.27,1.01,2.13,1.07Z"/>
      <path class="cls-22" d="M666.05,420.04c8.95,9.18,11.76,21,14.25,32.99,5.78,27.8,5.05,55.58,.12,83.39-1.02,5.75-2.51,11.36-5.51,16.43-4.35,7.34-11.09,9.17-18.61,5.13-3.47-1.86-6.01-4.65-7.86-8.08-2.35-4.37-3.74-9.02-4.17-13.99-.9-10.55-.03-21.06,.53-31.58,.51-9.63,.8-19.24-1.49-28.73-2.19-9.06-6.2-11.79-15.32-10.25-5.73,.97-11.43,1.96-17.3,1.82-8.7-.2-14.77-4.14-18.36-12.03-.32-.7-.51-1.31-.27-2.05,2.2-6.58,4.93-12.12,11.62-16.18,11.69-7.1,23.69-13.35,36.27-18.6,4.86-2.03,9.84-3.8,15.25-3.61,2.58,.98,5.15,1.95,7.73,2.93,.37,.07,.74,.13,1.11,.2l-.08-.06c.05,1.35,.98,1.89,2.09,2.27Zm-3.68,126.58c1.81-1.05,1.65-2.67,1.95-4.02,1.4-6.22,1.57-12.58,2.24-18.89,2.34-22.05,3.91-44.1,.7-66.21-1.14-7.9-1.91-15.88-5.67-23.12-4.26-8.2-7.1-9.4-15.71-5.93-12.82,5.17-25,11.59-36.31,19.57-.81,.57-1.93,1.08-1.46,2.7,1.78,.91,3.74,.6,5.7,.28,4.3-.69,8.58-1.44,12.88-2.11,15.21-2.37,27,5.38,30.6,20.26,1.45,6,2.26,12.12,2.29,18.32,.04,8.73-.8,17.4-1.6,26.07-.66,7.24-.96,14.5-.5,21.75,.27,4.29,1.19,8.48,4.89,11.32Z"/>
      <path class="cls-22" d="M729.86,453.82c-1.82,1.76-1.98,3.65-2.69,5.29-1.45,3.34-3.04,6.61-5.51,9.32-5.56,6.11-14.44,6.98-20.49,1.48-6.09-5.54-9.82-12.61-10.14-21-.32-8.67,3.97-14.38,11.8-18.33,7.15-3.6,14.32-6.96,22.11-8.89,3.52-.87,7.04-1.67,10.68-1.97,13.2-1.07,23.36,3.69,29.97,15.43,7.55,13.41,12.27,27.84,15.1,42.89,1.89,10.02,2.72,20.13,1.12,30.31-.98,6.25-3.27,11.88-7.73,16.47-6.61,6.79-14.03,6.49-20.09-.74-3.45-4.11-5.52-8.91-7.09-13.97-3.45-11.11-5.11-22.62-7.6-33.95-1.13-5.15-2.46-10.22-4.49-15.09-1.12-2.67-2.37-5.29-4.97-7.26Zm34.73,61.78c3.88-4.07,3.67-8.68,3.48-13.2-.47-11.63-2.48-23.05-4.57-34.47-1.54-8.4-3.55-16.63-6.94-24.52-2.8-6.5-7.6-9.4-14.48-9.33-8.03,.08-15.9,1.29-23.56,3.66-2.74,.85-5.42,2.13-7.89,3.6-6.05,3.62-7.17,8.08-3.75,14.23,.94,1.68,1.73,4.12,4.12,3.77,2.64-.39,3.52-2.85,4.09-5.19,.21-.87,.08-1.81,.19-2.71,.32-2.45,1.39-4.62,3.41-5.98,10.21-6.83,22.41-8.38,28.59,6.34,3.1,7.39,5.11,15.05,6.16,23.03,1.44,10.96,3.69,21.79,6.69,32.44,.81,2.89,1.67,5.91,4.46,8.33Z"/>
      <path class="cls-25" d="M524.36,742.68c-1.07,.03-2.14,.07-3.21,.1-3.65,.31-7.44-.93-10.95,1-26.92,.51-52.99-4.12-78.38-12.88-10.07-3.47-19.13-8.66-27.01-15.85-1.34-1.22-2.58-2.56-3.83-3.87-.66-.69-1.06-1.59-.54-2.47,.55-.93,1.52-.82,2.41-.49,13.7,5.16,28.27,5.86,42.5,8.34,10.15,1.77,20.29,3.78,30.51,4.91,12.22,1.35,24.45,2.36,36.84,.9,9.54-1.12,19.02-2.23,28.35-4.57,5.82-1.46,11.55-3.21,17.03-5.61,10.19-4.46,21.13-6.41,31.65-9.77,3.45-1.1,6.95-2.03,10.44-3,1.4-.39,3.02-.89,3.98,.59,.92,1.42-.6,2.24-1.32,3.18-9.85,12.76-21.97,22.58-37.07,28.52-2.87,1.13-5.71,2.29-8.57,3.44-6.77,1.69-13.55,3.35-20.31,5.09-4.13,1.06-8.52,.72-12.51,2.42Z"/>
      <path class="cls-22" d="M878.9,417.63c-1.24-3.08-3.12-5.54-5.83-7.62-4.27-3.28-6.66-8.11-8.74-12.93-1.64-3.77-.15-7.25,3.74-10.42,11.68-9.51,26.85-10.21,39.43-1.84,5.41,3.6,9.64,8.31,12.61,14.02,12.94,24.89,11.6,49.56-1.74,73.79-3.54,6.43-8.86,11.44-15.09,15.41-3.42,2.18-7.11,3.68-11.21,3.72-6.54,.06-9.86-4.39-7.97-10.89,2.39-8.2,4.49-16.42,4.79-25.02,.39-11.1-2.07-21.56-6.74-31.56,.06-.96-.11-1.82-1.05-2.33,.05-.35-.06-.64-.32-.88,.11-.64-.15-1.08-.75-1.34,.03-.35-.08-.63-.35-.84,.09-.64-.19-1.05-.77-1.28Zm16.79,60.01c4.55-2.6,7.65-5.81,10.08-9.49,9.47-14.35,13.1-30.1,10.01-47.07-1.68-9.22-5.3-17.71-12.6-24.1-6.01-5.26-13.06-7.11-20.75-5.05-5.6,1.5-6.4,5.07-2.42,9.06,2.96,2.97,5.64,6.13,7.78,9.73,10.97,18.41,14.2,38.03,9.18,58.94-.57,2.38-1.32,4.74-1.28,7.98Z"/>
      <path class="cls-25" d="M479.33,693.73c-12.53,.29-24.5-2.47-36.02-7.01-8.19-3.23-14.63-8.54-17.41-17.49-1.29-4.16-4.06-7.67-6.13-11.5-.47-.88-1.46-1.94-.29-2.89,1.03-.84,2.03-.09,2.91,.58,3.33,2.5,7.01,4.6,9.81,7.71,3.79,4.19,8.6,6.71,13.74,8.51,13.48,4.73,27.43,6.79,41.68,5.53,6.09-.54,12.09-2.11,18.14-3.16,11.39-1.98,22.9-3.3,34.05-6.51,4.52-1.31,9.02-2.69,13.54-3.97,1.14-.32,2.63-1.03,3.32,.57,.52,1.22-.67,1.99-1.53,2.57-9.61,6.5-19.16,13.13-29.87,17.76-14.66,6.33-30.07,9.03-45.96,9.31Z"/>
      <path class="cls-22" d="M814.36,445.11c-4.91,.17-9.84-1.06-14.52-3.14-3.49-1.55-6.31-.83-8.96,1.6-1.21,1.1-2.4,2.23-3.7,3.22-5.18,3.97-10.46,2.79-13.6-3.01-1.04-1.93-1.68-4.01-2.1-6.16-1.32-6.76-.78-13.39,1.58-19.83,1.61-4.38,4.39-7.93,8.33-10.49,6.09-3.96,13.81-3.43,19.09,1.59,3.09,2.94,6.71,4.96,10.39,6.87,4.21,2.19,6.11,1.35,8.07-3.07,1.11-2.51,1.66-5.17,2.16-7.85,.57-3.04,1.34-6.02,3.03-8.68,3.95-6.19,10.76-7.19,16.3-2.34,3.56,3.11,5.73,7.15,6.47,11.71,3.87,23.7-15.09,40.42-32.56,39.59Zm-32.04-7.6c1.89-1.34,3.23-2.24,4.52-3.2,4.76-3.54,9.86-4.26,15.4-2.09,2.19,.86,4.4,1.72,6.67,2.32,5.96,1.57,11.78,1.47,17.44-1.45,12.05-6.21,15.11-21.67,11.72-29.3-.87-1.96-1.96-4.44-4.44-4.17-2.01,.22-2.04,2.8-2.45,4.47-1.03,4.23-1.85,8.51-3.7,12.49-4.54,9.79-12.62,12.31-21.86,6.6-3.38-2.09-6.68-4.44-9.58-7.15-5.48-5.12-11.73-3.11-14.16,4.39-1.78,5.49-1.69,11.03,.43,17.09Z"/>
      <path class="cls-22" d="M658.49,413.51c-5.61-5.78-8.04-12.41-5.52-20.39,.55-1.76,1.23-3.55,2.55-4.76,3.17-2.9,4.84-6.61,6.6-10.41,3.47-7.48,12.53-11.84,21.98-10.94,1.8,.17,3.61,.48,5.36,.95,14.28,3.84,20.84,15.61,16.61,29.81-4.46,14.98-19.84,26.18-38.74,21.08-.91-1.03-2.04-1.38-3.38-1.08,0,0,.08,.06,.08,.06,0-.78-.45-1.05-1.17-.98-1.31-1.31-2.63-2.6-4.37-3.34Zm17.79-6.2c10.96-.03,18.28-7.29,18.32-16.67,.01-3.88-1.66-6.51-4.98-8.31-4.03-2.19-8.29-2.37-12.64-1.44-3.9,.83-7.11,2.18-9.53,6.07-2.96,4.77-4.15,9.25-1.65,14.22,2.38,4.73,6.77,6.21,10.49,6.13Z"/>
      <path class="cls-23" d="M853.8,436.25c-3.47-3.88-5.97-8.14-5.58-13.62,.33-4.7,2.27-8.3,6.8-10.16,.33-.14,.8-.07,1.03-.29,5.84-5.45,10.65-1.47,15.31,1.87,2.32,1.66,4.14,3.99,6.19,6.02,.05,.91,.51,1.56,1.27,2.03,0,0,.02,.05,.02,.05-.08,.93,.29,1.65,1.02,2.21,0,0,0,0,0,0,.45,3.25,.52,6.51-.03,9.76-5.2,7.52-9.55,8.99-19.55,6.61-.37-.44-.74-.89-1.11-1.33l-3.17-2c-.74-.39-1.48-.77-2.21-1.16Zm12.68-3.06c3.78-.11,5.08-2.45,3.13-5.79-1.38-2.37-3.45-4.14-5.63-5.73-1.19-.87-2.2-2.77-4.08-1.67-2.03,1.19-2.88,3.15-2.57,5.51,.51,3.97,5.11,7.8,9.15,7.69Z"/>
      <path class="cls-23" d="M856.01,437.41c1.06,.67,2.11,1.33,3.17,2-2.03,1.77,.17,1.83,.99,2.44,5.85,7.09,3.53,14.74-.97,19.12-5.53,5.38-13.3,6.26-19.42,2.12-8.44-5.71-8.01-18.06,.83-23.14,4.08-2.35,8.47-3.09,13.11-2.28,.9,1.12,1.72,1.48,2.29-.26Zm-3.46,11.58c-.09-1.37-4.12-4.5-5.7-4.43-1.23,.06-2.96,3.82-2.68,5.99,.27,2.13,1.55,3.21,3.69,3.03,2.15-.18,4.81-2.86,4.69-4.59Z"/>
      <path class="cls-18" d="M524.36,742.68c4-1.71,8.39-1.37,12.51-2.42,6.76-1.74,13.54-3.4,20.31-5.09,.55,.96,1.55,1.01,2.48,1.2-10.02,3.61-20.3,6.09-30.87,7.41-1.18-1.56-2.93-.84-4.43-1.1Z"/>
      <path class="cls-18" d="M510.19,743.78c3.5-1.93,7.3-.69,10.95-1-3.49,2.11-7.3,.64-10.95,1Z"/>
      <path class="cls-15" d="M658.49,413.51c1.75,.74,3.06,2.04,4.37,3.34,.03,.26,.05,.52,.06,.79-2.58-.98-5.15-1.95-7.73-2.93,1.02-.62,2.57,.24,3.3-1.19Z"/>
      <path class="cls-17" d="M879.83,434.13c.55-3.25,.49-6.5,.03-9.76,.38,0,.75,0,1.13-.01,0,0-.02-.02-.02-.02-.26,3.28,1.29,6.77-1.14,9.79Z"/>
      <path class="cls-18" d="M527.81,743.9c-1.69,1.23-3.62,1.05-5.54,.98,1.59-1.78,3.65-.89,5.54-.98Z"/>
      <path class="cls-14" d="M663.96,417.77c1.34-.3,2.47,.04,3.38,1.08-.43,.4-.86,.8-1.29,1.19-1.11-.38-2.04-.92-2.09-2.27Z"/>
      <path class="cls-13" d="M856.01,437.41c-.58,1.74-1.39,1.38-2.29,.26,.03-.47,.05-.95,.08-1.42l2.21,1.16Z"/>
      <path class="cls-8" d="M860.17,441.85c-.82-.61-3.02-.66-.99-2.44,.37,.44,.74,.89,1.11,1.33-.04,.37-.08,.74-.12,1.11Z"/>
      <path class="cls-17" d="M881.1,421.97c.94,.51,1.12,1.37,1.05,2.33-.39,0-.79,.02-1.18,.03,0,0,.02,.02,.02,.02,.03-.79,.07-1.59,.1-2.38Z"/>
      <path class="cls-17" d="M879.86,424.37c-.72-.56-1.1-1.28-1.02-2.21,.91,.47,1.2,1.23,1.02,2.21Z"/>
      <path class="cls-17" d="M878.83,422.11c-.76-.47-1.22-1.12-1.27-2.03,.99,.33,1.35,1.04,1.27,2.03Z"/>
      <path class="cls-17" d="M880.03,419.76c.59,.25,.85,.69,.75,1.34-.57-.27-.83-.7-.75-1.34Z"/>
      <path class="cls-17" d="M878.9,417.63c.58,.23,.87,.64,.77,1.28-.58-.23-.84-.65-.77-1.28Z"/>
      <path class="cls-25" d="M518.55,837.33c-24-.12-47.59-3.24-69.99-12.84-21.95-9.41-42.78-20.76-61.51-35.68-5.97-4.75-10.96-10.61-16.31-16.04-.79-.8-1.56-1.79-.86-2.87,.81-1.26,1.96-.5,2.86,.04,15.85,9.57,34.11,13.2,50.83,20.69,12.9,5.78,25.9,11.4,39.39,15.77,14.08,4.57,28.49,6.94,43.27,7.2,16.91,.3,33.73-.42,50.26-4.35,10.64-2.53,20.71-6.67,30.61-11.19,12.21-5.58,23.77-12.55,36.46-17.12,5.97-2.15,11.92-4.38,17.91-6.46,1.26-.44,2.67-1.53,4.06-.2,1.47,1.41,.24,2.72-.29,3.96-5.58,12.98-13.47,23.97-26.25,30.91-17.91,9.73-36.26,18.4-56.12,23.4-9.68,2.44-19.54,3.99-29.56,4.02-4.91,.02-9.73,1.36-14.78,.76Z"/>
      <path class="cls-9" d="M442.11,133.08c30.61,.42,57.1,5.6,81.75,18.48,15.93,8.33,29.59,19.55,41.74,32.8,19.85,21.64,34.77,46.44,47.41,72.74,8.84,18.4,15.82,37.46,18.89,57.73,2.1,13.89,2.65,27.86-.76,41.64-6.3,25.44-22.01,41.89-47.26,49.29-9.81,2.88-19.86,4.07-29.93,5.34-2.93,.37-4.56-.89-6.34-3.08-22.69-28.02-51.53-47.11-85.6-58.48-11.47-3.83-23.22-5.71-35.36-4.89-6.49,.44-12.66,1.44-17.24,6.67-1.38,1.57-4.5,1.54-4.49,4.25,0,2.1,2.2,3.21,3.22,4.92,1.49,2.49,3.4,4.74,4.74,7.29,9.12,17.35,18.9,34.4,24.82,53.24,1.3,4.15,2.27,8.4,3.48,12.58,.86,2.97,.34,5.13-2.53,6.89-14.1,8.69-25.02,20.87-36.13,32.88-9.27,10.02-17.37,20.95-25.64,31.76-3.88,5.06-6.62,10.84-10.01,16.21-2.03,3.22-4.01,6.5-6.36,9.49-4.06,5.17-6.5,5.79-12.81,3.83-8.79-2.73-16.46-7.57-23.92-12.77-21.5-15-39.38-33.79-55.85-53.96-20.4-25-37.69-52.05-51.64-81.15-9.67-20.18-17.51-41.02-21.53-63.19-4.94-27.27-.59-52.66,14.3-76.19,8.94-14.13,20.43-25.96,33.03-36.73,34.55-29.55,74.87-48.24,117.73-62.07,20.06-6.48,40.49-11.44,61.42-13.98,7.9-.96,15.87-1.96,20.89-1.54Zm52.8,161.36c-.41-1.58,.26-2.27,.77-2.98,10.42-14.3,10.82-29.8,4.32-45.47-6-14.45-17.05-24.63-30.59-32.17-7.49-4.17-15.42-5.02-23.68-2.84-1,.26-2.28,.44-2.59,1.66-.32,1.26,.77,1.96,1.6,2.6,4.04,3.1,8.12,6.26,12.88,8.08,9.63,3.68,17.34,9.85,23.64,17.79,8.37,10.54,12.43,22.52,7.93,35.62-3.79,11.04-12.07,19.17-22.42,24.19-13.23,6.42-26.61,12.53-39.39,19.83-8.99,5.14-17.58,10.93-26.18,16.69-.99,.66-2.58,1.27-1.82,2.87,.79,1.68,2.11,.84,3.21,.2,14.99-8.67,31.09-14.86,47.16-21.14,9.63-3.77,18.98-8.27,28.92-11.23,7.66-2.28,15.42-3.55,23.54-2.95,13.15,.98,21.48,8.25,26.29,19.8,5.73,13.74,6.16,28.17,4.09,42.73-.42,2.98-.88,5.9-.35,9.98,2.56-2.98,3.56-5.67,4.84-8.16,8.66-16.89,8.31-34.01,.29-50.85-7.51-15.77-19.93-24.6-37.97-24.26-1.45,.03-2.9,0-4.49,0Zm-223.73,19.92c-.47,7.07,2.21,15.32,6.91,22.83,8.84,14.13,21.5,21.41,38.43,19.52,16.65-1.87,27.83-14.65,31.27-31.18,.93-4.5,.05-9.06,.48-13.44,.42-4.27,.14-8.28-.55-12.36-4.9-28.95-38.07-40.27-59.12-23.32-11.26,9.07-17.41,21.17-17.42,37.95Zm91.55,65.06c-7.28-.3-14.59,1.47-21.47,5.1-7.09,3.74-11.86,9.35-14.18,17.07-2.68,8.91-2.35,17.85-.63,26.86,2.11,11.1,9.23,19.49,15.22,28.49,.59,.88,1.5,1.58,2.33,2.27,9.56,7.86,20.56,9.46,32.29,6.95,17.14-3.67,35.38-24.14,31.74-47.52-3.55-22.85-22.66-40.12-45.3-39.22Z"/>
      <path class="cls-25" d="M415.54,358.85c2.36,.04,4.75,.32,7.08,.08,16.2-1.68,31.38,2.3,46.18,8.24,43.01,17.27,73.75,47.48,93.68,89.04,8.52,17.76,15.19,36.11,18.16,55.72,2.89,19.08-.31,36.84-10.26,53.4-8.51,14.17-21.45,21.83-37.19,25.25-13.35,2.9-26.66,2.87-39.81-1.37-4.7-1.51-9.08-3.66-13.26-6.26-6.18-3.86-10.64-9.09-13.74-15.77-4.92-10.61-6.81-21.81-7.18-33.32-.25-7.98-.26-16,.19-23.98,.95-17.11,.43-34.15-1.46-51.15-3.55-31.87-13.88-61.14-33.4-86.9-3.53-4.66-7.39-8.95-11.75-12.81,.92-.06,1.83-.13,2.75-.19Zm161.5,162.62c0-1.81,.04-3.63,0-5.44-.25-8.94-2.81-17.14-8.03-24.43-2.23-3.11-4.76-5.98-8.33-7.64-5.88-2.72-11.01-.27-12.57,5.94-.4,1.6-.65,3.21-.4,4.85,2.32,15.11,2.42,30.35,2.89,45.58,.11,3.47,.67,6.86,1.35,10.23,.54,2.66,1.32,5.36,3.15,7.45,4.66,5.31,8.52,5.49,13.32,.95,2.58-2.44,4.32-5.61,4.8-8.99,1.35-9.48,4.38-18.76,3.82-28.5Zm-21.76,48.87c-.14-.73-.23-2.41-.8-3.9-1.99-5.25-8.24-6.81-12.53-3.21-4.98,4.16-6.02,11.4-2.4,16.74,1.79,2.64,4.4,3.59,7.55,2.75,5.01-1.34,8.23-5.86,8.18-12.36Z"/>
      <path class="cls-26" d="M415.54,358.85c-.92,.06-1.83,.13-2.75,.19,0,0-.36,.07-.36,.07,0,0-.32-.18-.32-.18,0-.41,0-.83,0-1.24,1.24,.09,2.47,.21,3.41,1.16Z"/>
      <path class="cls-30" d="M412.13,357.69c0,.41,0,.83,0,1.24-.78-.43-2.19-.53-1.56-1.86,.25-.52,1.18,0,1.57,.62Z"/>
      <path class="cls-1" d="M216.84,150.77c-8.65-2.98-17.48-4.71-26.69-4.45-9.54,.27-17.58,3.9-24.54,10.26-2.2,2.02-3.18,4.11-2.06,7.22,1.11,3.09,2.21,6.17,3.93,8.95,4.19,6.76,6.57,14.22,7.6,21.95,.99,7.43-1.99,13.92-7.23,19.2-12.6,12.7-33.97,13.66-47.6,2.21-6.3-5.29-11.95-11.28-16.23-18.27-20.57-33.63-40.02-67.87-54.31-104.76-3.15-8.14-5.69-16.47-6.52-25.23-.1-1.08-.22-2.17-.25-3.26-.33-11.23,3.32-16.4,14.03-19.65,10.87-3.3,21.85-3.22,32.8-.46,9.12,2.3,16.42,7.51,22.48,14.58,4.28,5,7.66,10.59,10.79,16.34,7.57,13.86,14.56,28.02,21.6,42.16,1.13,2.27,2.25,4.59,3.71,6.64,2.82,3.96,5.85,4.73,9.81,2.16,3.62-2.35,7.3-2.77,11.42-2.23,7.65,1.01,14.91,3.2,21.67,6.87,9.6,5.2,18.54,11.41,26.83,18.53-.42,.42-.83,.84-1.25,1.27ZM102.22,85.21c-.14,4.11,2.31,6.55,6.67,6.64,5.08,.1,9.42-4.18,9.76-9.62,.3-4.78-3.38-9.13-7.84-9.26-5.91-.18-8.29,3.22-8.6,12.25Zm25.69,60.6c.05-4.06-3.12-7.27-7.11-7.22-3.8,.05-6.81,3.06-6.86,6.89-.06,3.95,3.23,7.28,7.16,7.26,3.77-.02,6.77-3.08,6.81-6.93Zm16.18,38.91c.11-3.66-2.56-6.64-6.15-6.85-3.77-.23-7.01,2.71-7.14,6.49-.12,3.61,2.6,6.6,6.19,6.82,3.85,.23,6.98-2.62,7.1-6.46Zm-43.29-76.91c-2.87,0-5.54,3.11-5.43,6.32,.11,3.06,2.6,5.35,5.72,5.26,3.06-.09,5.52-2.56,5.54-5.54,.02-2.99-2.92-6.03-5.84-6.04Z"/>
      <path class="cls-12" d="M216.84,150.77c.42-.42,.83-.84,1.25-1.27,1.19,.3,2.02,1.02,2.47,2.17-.53,.06-1.06,.11-1.59,.17-.86-.06-1.65-.26-2.13-1.07Z"/>
      <path class="cls-10" d="M218.97,151.84c.53-.06,1.06-.11,1.59-.17,.3,.15,.74,.22,.87,.46,.2,.37-.12,.74-.56,.6-.66-.21-1.27-.59-1.9-.89Z"/>
      <path class="cls-25" d="M662.37,546.62c-3.7-2.84-4.62-7.03-4.89-11.32-.46-7.25-.17-14.5,.5-21.75,.79-8.67,1.64-17.34,1.6-26.07-.03-6.2-.84-12.32-2.29-18.32-3.6-14.88-15.39-22.63-30.6-20.26-4.3,.67-8.59,1.42-12.88,2.11-1.95,.31-3.92,.62-5.7-.28-.47-1.63,.65-2.13,1.46-2.7,11.32-7.98,23.5-14.4,36.31-19.57,8.61-3.47,11.45-2.27,15.71,5.93,3.76,7.24,4.53,15.22,5.67,23.12,3.2,22.11,1.64,44.16-.7,66.21-.67,6.31-.84,12.67-2.24,18.89-.3,1.35-.14,2.97-1.95,4.02Z"/>
      <path class="cls-32" d="M662.92,417.63c0-.26-.03-.53-.06-.79,.72-.07,1.16,.2,1.17,.99-.37-.07-.74-.13-1.11-.2Z"/>
      <path class="cls-25" d="M764.59,515.6c-2.8-2.42-3.65-5.44-4.46-8.33-2.99-10.65-5.24-21.48-6.69-32.44-1.05-7.98-3.06-15.65-6.16-23.03-6.18-14.72-18.38-13.16-28.59-6.34-2.02,1.35-3.1,3.52-3.41,5.98-.12,.9,.02,1.84-.19,2.71-.57,2.34-1.45,4.8-4.09,5.19-2.39,.35-3.18-2.09-4.12-3.77-3.42-6.15-2.3-10.61,3.75-14.23,2.47-1.48,5.15-2.75,7.89-3.6,7.65-2.37,15.53-3.58,23.56-3.66,6.88-.07,11.68,2.83,14.48,9.33,3.4,7.89,5.41,16.12,6.94,24.52,2.09,11.42,4.1,22.85,4.57,34.47,.18,4.52,.39,9.13-3.48,13.2Z"/>
      <path class="cls-25" d="M895.69,477.65c-.04-3.24,.71-5.59,1.28-7.98,5.02-20.9,1.79-40.52-9.18-58.94-2.15-3.6-4.82-6.77-7.78-9.73-3.98-3.99-3.18-7.55,2.42-9.06,7.68-2.06,14.73-.21,20.75,5.05,7.3,6.39,10.92,14.88,12.6,24.1,3.09,16.97-.54,32.72-10.01,47.07-2.43,3.68-5.53,6.89-10.08,9.49Z"/>
      <path class="cls-25" d="M782.32,437.51c-2.12-6.07-2.21-11.6-.43-17.09,2.43-7.49,8.68-9.51,14.16-4.39,2.89,2.71,6.2,5.06,9.58,7.15,9.24,5.71,17.31,3.2,21.86-6.6,1.85-3.98,2.66-8.26,3.7-12.49,.41-1.67,.44-4.25,2.45-4.47,2.48-.27,3.57,2.22,4.44,4.17,3.4,7.63,.33,23.09-11.72,29.3-5.66,2.92-11.48,3.02-17.44,1.45-2.27-.6-4.48-1.46-6.67-2.32-5.54-2.17-10.65-1.45-15.4,2.09-1.29,.96-2.63,1.86-4.52,3.2Z"/>
      <path class="cls-11" d="M676.28,407.31c-3.72,.08-8.11-1.4-10.49-6.13-2.5-4.97-1.31-9.45,1.65-14.22,2.42-3.89,5.63-5.24,9.53-6.07,4.35-.93,8.61-.75,12.64,1.44,3.32,1.8,4.99,4.43,4.98,8.31-.04,9.38-7.36,16.64-18.32,16.67Zm3.41-21.03c-5.29,.05-9.49,3.54-9.4,7.79,.14,6.45,6.53,9.51,12.82,6.12,3.65-1.96,5.61-5.61,4.78-8.91-.75-2.99-4.11-5.05-8.2-5.01Z"/>
      <path class="cls-16" d="M866.48,433.19c-4.04,.12-8.63-3.72-9.15-7.69-.3-2.35,.54-4.32,2.57-5.51,1.88-1.1,2.89,.8,4.08,1.67,2.18,1.59,4.25,3.36,5.63,5.73,1.95,3.34,.64,5.68-3.13,5.79Z"/>
      <path class="cls-7" d="M852.55,448.99c.11,1.73-2.54,4.41-4.69,4.59-2.14,.18-3.42-.9-3.69-3.03-.28-2.17,1.45-5.93,2.68-5.99,1.58-.07,5.61,3.06,5.7,4.43Z"/>
      <path class="cls-22" d="M494.91,294.44c1.6,0,3.04,.02,4.49,0,18.04-.33,30.46,8.49,37.97,24.26,8.02,16.84,8.37,33.96-.29,50.85-1.28,2.49-2.28,5.18-4.84,8.16-.53-4.07-.07-7,.35-9.98,2.07-14.56,1.64-29-4.09-42.73-4.81-11.55-13.14-18.82-26.29-19.8-8.12-.61-15.87,.67-23.54,2.95-9.93,2.96-19.29,7.46-28.92,11.23-16.07,6.28-32.16,12.48-47.16,21.14-1.1,.64-2.42,1.48-3.21-.2-.75-1.6,.83-2.21,1.82-2.87,8.6-5.76,17.18-11.55,26.18-16.69,12.78-7.3,26.16-13.41,39.39-19.83,10.34-5.01,18.63-13.15,22.42-24.19,4.49-13.1,.43-25.09-7.93-35.62-6.3-7.94-14.02-14.1-23.64-17.79-4.76-1.82-8.85-4.98-12.88-8.08-.83-.64-1.92-1.34-1.6-2.6,.31-1.22,1.6-1.39,2.59-1.66,8.26-2.18,16.19-1.33,23.68,2.84,13.54,7.53,24.59,17.72,30.59,32.17,6.5,15.67,6.1,31.16-4.32,45.47-.51,.71-1.18,1.4-.77,2.98Z"/>
      <path class="cls-22" d="M271.18,314.36c.02-16.78,6.16-28.89,17.42-37.95,21.05-16.95,54.22-5.63,59.12,23.32,.69,4.08,.97,8.09,.55,12.36-.44,4.39,.45,8.95-.48,13.44-3.44,16.53-14.61,29.31-31.27,31.18-16.93,1.9-29.59-5.39-38.43-19.52-4.7-7.51-7.38-15.76-6.91-22.83Zm43.62-34.62c-6.56-.84-12.04,.37-16.85,3.5-19.81,12.85-22.5,39.97-5.67,55.8,11.78,11.08,29.92,8.62,38.67-4.91,3.26-5.05,5.58-10.55,7.22-16.35,.86-3.03,.87-5.95-.21-8.9-11.81,2.84-17.79-.26-23.58-7.98-4.87-6.5-5.4-13.69,.43-21.17Z"/>
      <path class="cls-22" d="M362.73,379.42c22.64-.9,41.75,16.36,45.3,39.22,3.64,23.38-14.6,43.86-31.74,47.52-11.73,2.51-22.72,.91-32.29-6.95-.84-.69-1.75-1.39-2.33-2.27-5.99-9-13.11-17.39-15.22-28.49-1.72-9.01-2.05-17.95,.63-26.86,2.32-7.72,7.09-13.33,14.18-17.07,6.89-3.63,14.19-5.4,21.47-5.1Zm-17.29,68.96c.84,.69,1.65,1.42,2.52,2.07,12.37,9.37,26.77,8.65,38.08-1.98,15.58-14.64,12.89-33.78,3.97-46.46-9.6-13.64-29.32-17.9-44.38-9.81-7.85,4.22-11.85,11.89-10.95,21.04,8.89-4.16,15.48-2.11,20.57,6.44,2.88,4.84,4.01,10.09,3.37,15.67-.87,7.63-5.15,11.44-12.98,11.73-.41-.72-1.27-1.11-1.59-.39-.37,.83,.42,1.52,1.39,1.68Z"/>
      <path class="cls-22" d="M577.04,521.47c.56,9.74-2.46,19.01-3.82,28.5-.48,3.39-2.22,6.55-4.8,8.99-4.81,4.54-8.67,4.36-13.32-.95-1.83-2.09-2.62-4.79-3.15-7.45-.68-3.37-1.24-6.76-1.35-10.23-.47-15.22-.57-30.47-2.89-45.58-.25-1.63,0-3.25,.4-4.85,1.56-6.21,6.69-8.66,12.57-5.94,3.58,1.66,6.11,4.53,8.33,7.64,5.22,7.29,7.78,15.49,8.03,24.43,.05,1.81,0,3.63,0,5.44Zm-14.55,31.85c2.28-3.59,3.87-6.23,4.55-9.45,1.84-8.75,2.45-17.61,1.81-26.5-.64-8.86-3.4-17.04-9.63-23.7-.8-.86-1.55-2.15-3.19-1.47-.58,1.39-.29,2.85-.02,4.25,2.53,13.4,3.25,26.96,3.72,40.55,.17,5.01,.16,10.15,2.77,16.31Z"/>
      <path class="cls-20" d="M555.28,570.34c.05,6.51-3.17,11.02-8.18,12.36-3.15,.84-5.76-.1-7.55-2.75-3.62-5.34-2.58-12.57,2.4-16.74,4.3-3.59,10.55-2.04,12.53,3.21,.57,1.5,.66,3.17,.8,3.9Zm-6.29,1.42c.07-1.79-.61-3.55-1.57-3.86-1.5-.49-2.26,.7-3.13,1.55-.64,.63-1.24,1.31-1.8,2.01-1.85,2.31-2.48,5.39-1.33,6.35,1.13,.94,5.07-.66,6.58-2.64,.8-1.05,1.05-2.26,1.24-3.42Z"/>
      <path class="cls-27" d="M102.22,85.21c.3-9.02,2.69-12.42,8.6-12.25,4.46,.13,8.14,4.49,7.84,9.26-.34,5.44-4.69,9.73-9.76,9.62-4.36-.09-6.81-2.53-6.67-6.64Zm10.31-3.62c.06-1.29-.43-2.54-2.2-2.86-1.92-.35-3.29,.94-3.54,3.14-.19,1.71,.48,2.83,2.12,3.24,1.67,.42,3.34-1.12,3.62-3.52Z"/>
      <path class="cls-28" d="M127.91,145.82c-.04,3.85-3.05,6.91-6.81,6.93-3.93,.02-7.22-3.31-7.16-7.26,.05-3.83,3.06-6.85,6.86-6.89,4-.05,7.16,3.16,7.11,7.22Z"/>
      <path class="cls-29" d="M144.09,184.73c-.11,3.84-3.24,6.69-7.1,6.46-3.6-.22-6.32-3.21-6.19-6.82,.13-3.78,3.37-6.72,7.14-6.49,3.59,.22,6.26,3.2,6.15,6.85Z"/>
      <path class="cls-31" d="M100.8,107.82c2.92,0,5.86,3.05,5.84,6.04-.02,2.99-2.48,5.45-5.54,5.54-3.12,.1-5.62-2.2-5.72-5.26-.11-3.22,2.56-6.33,5.43-6.32Z"/>
      <path class="cls-21" d="M679.69,386.28c4.09-.04,7.45,2.01,8.2,5.01,.83,3.31-1.13,6.95-4.78,8.91-6.29,3.38-12.68,.33-12.82-6.12-.09-4.26,4.11-7.74,9.4-7.79Zm3.07,6.68c-.23-.31-.45-.84-.84-1.08-1.86-1.15-5.42,.05-6.47,2.08-.38,.74-.31,1.41,.21,1.93,1.15,1.16,2.48,1.12,3.92,.48,1.5-.67,2.88-1.4,3.19-3.4Z"/>
      <path class="cls-1" d="M314.8,279.74c-5.83,7.48-5.3,14.67-.43,21.17,5.79,7.72,11.77,10.82,23.58,7.98,1.08,2.94,1.07,5.87,.21,8.9-1.64,5.8-3.96,11.3-7.22,16.35-8.75,13.53-26.89,15.99-38.67,4.91-16.83-15.83-14.14-42.95,5.67-55.8,4.81-3.12,10.29-4.34,16.85-3.5Z"/>
      <path class="cls-1" d="M345.63,447.09c7.84-.29,12.11-4.1,12.98-11.73,.64-5.58-.49-10.83-3.37-15.67-5.09-8.55-11.68-10.59-20.57-6.44-.89-9.16,3.1-16.83,10.95-21.04,15.06-8.09,34.78-3.83,44.38,9.81,8.92,12.68,11.61,31.82-3.97,46.46-11.31,10.63-25.71,11.35-38.08,1.98-.87-.66-1.68-1.38-2.51-2.07,.07-.43,.13-.86,.19-1.29Z"/>
      <path class="cls-6" d="M345.63,447.09c-.06,.43-.13,.86-.19,1.29-.98-.16-1.76-.84-1.39-1.68,.32-.72,1.18-.34,1.59,.39Z"/>
      <path class="cls-2" d="M562.5,553.32c-2.61-6.16-2.6-11.3-2.77-16.31-.47-13.6-1.19-27.15-3.72-40.55-.26-1.4-.56-2.86,.02-4.25,1.63-.68,2.38,.61,3.19,1.47,6.23,6.66,8.99,14.83,9.63,23.7,.64,8.88,.04,17.74-1.81,26.5-.68,3.22-2.27,5.87-4.55,9.45Z"/>
      <path class="cls-3" d="M548.99,571.76c-.19,1.16-.44,2.38-1.24,3.42-1.51,1.98-5.45,3.58-6.58,2.64-1.15-.96-.52-4.04,1.33-6.35,.56-.7,1.16-1.38,1.8-2.01,.86-.85,1.62-2.04,3.13-1.55,.96,.31,1.64,2.08,1.57,3.86Z"/>
      <path class="cls-19" d="M112.52,81.59c-.29,2.4-1.96,3.94-3.62,3.52-1.64-.41-2.31-1.53-2.12-3.24,.25-2.2,1.63-3.5,3.54-3.14,1.77,.33,2.26,1.58,2.2,2.86Z"/>
      <path class="cls-4" d="M682.76,392.96c-.31,2-1.68,2.73-3.19,3.4-1.44,.64-2.77,.68-3.92-.48-.52-.52-.59-1.19-.21-1.93,1.05-2.03,4.62-3.23,6.47-2.08,.39,.24,.61,.77,.84,1.08Z"/>
    </g>
  </g>
</svg>